<?xml version="1.0" encoding="utf-8"?>
<!-- Generator: Adobe Illustrator 24.0.0, SVG Export Plug-In . SVG Version: 6.00 Build 0)  -->
<svg version="1.0" id="Layer_1" xmlns="http://www.w3.org/2000/svg" xmlns:xlink="http://www.w3.org/1999/xlink" x="0px" y="0px"
	 viewBox="0 0 58 20" style="enable-background:new 0 0 58 20;" xml:space="preserve">
<path d="M2,6.7h2.7v11H2V6.7z M13.6,6.4c-0.7,0-1.4,0.2-2,0.5c-0.6,0.4-1.1,0.9-1.4,1.5h-0.1V6.7H7.6v11h2.7v-6c0-1.5,0.8-3,2.6-3
	s2.1,1.6,2.1,2.9v6.1h2.8v-6.9C17.7,8.6,16.5,6.4,13.6,6.4L13.6,6.4z M37.3,12.7c0,1.5-0.8,3-2.6,3s-2.1-1.6-2.1-2.9V6.7h-2.7v6.9
	c0,2.3,1.2,4.4,4,4.4c0.7,0,1.4-0.2,2-0.5c0.6-0.4,1.1-0.9,1.4-1.5h0.1v1.8H40v-11h-2.7L37.3,12.7L37.3,12.7z M42.8,17.7h2.7v-11
	h-2.7V17.7z M19.1,9.1h3.1v8.6h2.7V9.1H28V6.7h-8.9L19.1,9.1L19.1,9.1z M23.5,5.3c0.3,0,0.7-0.1,0.9-0.3c0.3-0.2,0.5-0.4,0.6-0.7
	c0.1-0.3,0.2-0.6,0.1-1c-0.1-0.3-0.2-0.6-0.5-0.9c-0.2-0.2-0.5-0.4-0.9-0.5c-0.3-0.1-0.7,0-1,0.1c-0.3,0.1-0.6,0.3-0.7,0.6
	s-0.3,0.6-0.3,0.9c0,0.4,0.2,0.9,0.5,1.2C22.7,5.1,23.1,5.3,23.5,5.3L23.5,5.3z M47.5,6.7v2.4h3.1v8.6h2.7V9.1h3.1V6.7H47.5
	L47.5,6.7z M51.9,5.3c0.3,0,0.7-0.1,0.9-0.3c0.3-0.2,0.5-0.4,0.6-0.7c0.1-0.3,0.2-0.6,0.1-1c-0.1-0.3-0.2-0.6-0.5-0.9
	c-0.2-0.2-0.5-0.4-0.9-0.5c-0.3-0.1-0.7,0-1,0.1c-0.3,0.1-0.6,0.3-0.7,0.6s-0.3,0.6-0.3,0.9c0,0.4,0.2,0.9,0.5,1.2
	S51.5,5.3,51.9,5.3L51.9,5.3z"/>
</svg>
