<?xml version="1.0" encoding="utf-8"?>
<!-- Generator: Adobe Illustrator 24.0.0, SVG Export Plug-In . SVG Version: 6.00 Build 0)  -->
<svg version="1.0" id="Layer_1" xmlns="http://www.w3.org/2000/svg" xmlns:xlink="http://www.w3.org/1999/xlink" x="0px" y="0px"
	 viewBox="0 0 120 20" style="enable-background:new 0 0 120 20;" xml:space="preserve">
<style type="text/css">
	.st0{fill-rule:evenodd;clip-rule:evenodd;fill:#FFFFFF;filter:url(#Adobe_OpacityMaskFilter);}
	.st1{mask:url(#mask0_1_);}
	.st2{fill-rule:evenodd;clip-rule:evenodd;}
	.st3{fill-rule:evenodd;clip-rule:evenodd;fill:#FFFFFF;filter:url(#Adobe_OpacityMaskFilter_1_);}
	.st4{mask:url(#mask1_1_);}
	.st5{fill-rule:evenodd;clip-rule:evenodd;fill:#2CA048;}
	.st6{fill-rule:evenodd;clip-rule:evenodd;fill:#FFFFFF;filter:url(#Adobe_OpacityMaskFilter_2_);}
	.st7{mask:url(#mask2_1_);}
	.st8{fill-rule:evenodd;clip-rule:evenodd;fill:#FFFFFF;}
	.st9{fill-rule:evenodd;clip-rule:evenodd;fill:#FFFFFF;filter:url(#Adobe_OpacityMaskFilter_3_);}
	.st10{mask:url(#mask3_1_);}
</style>
<defs>
	<filter id="Adobe_OpacityMaskFilter" filterUnits="userSpaceOnUse" x="18.5" y="4.9" width="74.1" height="15.2">
		<feColorMatrix  type="matrix" values="1 0 0 0 0  0 1 0 0 0  0 0 1 0 0  0 0 0 1 0"/>
	</filter>
</defs>
<mask maskUnits="userSpaceOnUse" x="18.5" y="4.9" width="74.1" height="15.2" id="mask0_1_">
	<path class="st0" d="M91.3,15.1c0-0.2-0.2-0.2-0.3-0.2h-0.3v0.9h0.2v-0.4H91l0.2,0.4h0.2l-0.2-0.4C91.3,15.3,91.3,15.2,91.3,15.1
		L91.3,15.1z M90.9,15.2v-0.2H91c0.1,0,0.2,0,0.2,0.1c0,0.1-0.1,0.1-0.2,0.1L90.9,15.2L90.9,15.2z M91,14.5c-0.4,0-0.8,0.3-0.8,0.8
		c0,0.4,0.3,0.7,0.8,0.7s0.8-0.3,0.8-0.7C91.8,14.8,91.4,14.5,91,14.5z M91,15.9c-0.4,0-0.6-0.3-0.6-0.6c0-0.4,0.3-0.6,0.6-0.6
		c0.4,0,0.6,0.3,0.6,0.6C91.6,15.6,91.4,15.9,91,15.9L91,15.9z M42.3,14.6c-1.1,0-1.7-1-1.7-1.9c0-1,0.6-1.9,1.6-1.9
		c0.5,0,1.1,0.2,1.3,0.6l1.2-1.2c-0.6-0.6-1.5-1-2.5-1c-2,0-3.5,1.5-3.5,3.5c0,2,1.5,3.5,3.6,3.5c1,0,1.9-0.3,2.5-0.9l-1.1-1.2
		C43.3,14.4,42.8,14.6,42.3,14.6L42.3,14.6z M35.7,16h1.8V9.4h-1.8V16z M32.4,13c0,0.8-0.5,1.6-1.4,1.6c-0.7,0-1.1-0.5-1.1-1.6V9.4
		H28v4.1c0,1.4,0.7,2.7,2.5,2.7c0.9,0,1.6-0.7,1.9-1.2h0v1h1.7V9.4h-1.8L32.4,13L32.4,13z M24.8,10.2L24.8,10.2c-0.3-0.3-1-1-2.1-1
		c-1.9,0-3.3,1.5-3.3,3.5c0,2,1.3,3.5,3.2,3.5c0.9,0,1.7-0.5,2.1-1h0v4h1.8V9.4h-1.8V10.2z M23,14.6c-1.1,0-1.8-1-1.8-2
		c0-0.9,0.6-1.9,1.8-1.9c1.1,0,1.8,1,1.8,2C24.7,13.6,24.1,14.6,23,14.6L23,14.6z M64.4,9.2c-2.1,0-3.6,1.5-3.6,3.5
		c0,2.1,1.5,3.5,3.6,3.5c2,0,3.6-1.5,3.6-3.5C68,10.7,66.5,9.2,64.4,9.2L64.4,9.2z M64.4,14.6c-1.2,0-1.7-1-1.7-2
		c0-0.9,0.5-1.9,1.7-1.9c1.2,0,1.7,1,1.7,1.9C66.2,13.6,65.6,14.6,64.4,14.6L64.4,14.6z M87.2,11.9c-0.9-0.2-1.3-0.3-1.3-0.7
		c0-0.5,0.7-0.6,1-0.6c0.6,0,1.2,0.3,1.4,0.7l1.1-1c-0.5-0.6-1.5-1-2.5-1c-1.3,0-2.7,0.7-2.7,2.1c0,1.3,1,1.7,2,1.9
		c1,0.2,1.4,0.4,1.4,0.8c0,0.6-0.7,0.7-0.9,0.7c-0.6,0-1.3-0.3-1.7-0.8l-1.1,1.1c0.6,0.7,1.6,1.1,2.7,1.1c1.8,0,2.8-0.8,2.8-2.2
		C89.4,12.6,88.1,12.2,87.2,11.9L87.2,11.9z M83.7,9.4h-2.3l-2.3,2.7h0V5.8h-1.8V16H79v-3.3h0l2.4,3.3h2.4l-2.8-3.6L83.7,9.4z
		 M56.8,9.2c-0.8,0-1.4,0.4-2,0.9h0V5.8h-1.8V16h1.7v-0.9h0c0.4,0.7,1.2,1.1,2.1,1.1c1.9,0,3.3-1.5,3.3-3.5
		C60,10.7,58.6,9.2,56.8,9.2L56.8,9.2z M56.4,14.6c-1.1,0-1.8-1-1.8-1.9c0-0.9,0.7-2,1.8-2c1.2,0,1.8,1,1.8,1.9
		C58.2,13.6,57.5,14.6,56.4,14.6L56.4,14.6z M52.2,9.4h-2.3l-2.3,2.7h0V5.8h-1.8V16h1.8v-3.3h0l2.4,3.3h2.4l-2.8-3.6L52.2,9.4z
		 M72.4,9.2c-2.1,0-3.6,1.5-3.6,3.5c0,2.1,1.5,3.5,3.6,3.5c2,0,3.6-1.5,3.6-3.5C76,10.7,74.5,9.2,72.4,9.2L72.4,9.2z M72.4,14.6
		c-1.2,0-1.7-1-1.7-2c0-0.9,0.5-1.9,1.7-1.9c1.2,0,1.7,1,1.7,1.9C74.2,13.6,73.6,14.6,72.4,14.6L72.4,14.6z"/>
</mask>
<g class="st1">
	<path class="st2" d="M18.5,20.1h74.1V4.9H18.5V20.1z"/>
</g>
<defs>
	<filter id="Adobe_OpacityMaskFilter_1_" filterUnits="userSpaceOnUse" x="1.1" y="1.1" width="17" height="17">
		<feColorMatrix  type="matrix" values="1 0 0 0 0  0 1 0 0 0  0 0 1 0 0  0 0 0 1 0"/>
	</filter>
</defs>
<mask maskUnits="userSpaceOnUse" x="1.1" y="1.1" width="17" height="17" id="mask1_1_">
	<path class="st3" d="M9.6,17.3c4.2,0,7.7-3.4,7.7-7.7c0-4.2-3.4-7.7-7.7-7.7C5.4,1.9,2,5.4,2,9.6C2,13.8,5.4,17.3,9.6,17.3z"/>
</mask>
<g class="st4">
	<path class="st5" d="M1.1,18.1h17v-17h-17V18.1z"/>
</g>
<defs>
	<filter id="Adobe_OpacityMaskFilter_2_" filterUnits="userSpaceOnUse" x="3.2" y="3.7" width="12.8" height="11.8">
		<feColorMatrix  type="matrix" values="1 0 0 0 0  0 1 0 0 0  0 0 1 0 0  0 0 0 1 0"/>
	</filter>
</defs>
<mask maskUnits="userSpaceOnUse" x="3.2" y="3.7" width="12.8" height="11.8" id="mask2_1_">
	<path class="st6" d="M4.1,9.6c0,1.6,1.3,3,3,3h0.4v-1.1H7.1c-1,0-1.9-0.8-1.9-1.9c0-1,0.8-1.9,1.9-1.9h1v5.8c0,0.6,0.5,1.1,1.1,1.1
		v-8H7.1C5.4,6.6,4.1,8,4.1,9.6z M12.2,6.6h-0.4v1.1h0.4c1,0,1.9,0.8,1.9,1.9s-0.8,1.9-1.9,1.9h-1V5.7c0-0.6-0.5-1.1-1.1-1.1v8h2.1
		c1.6,0,3-1.3,3-3C15.2,8,13.8,6.6,12.2,6.6z"/>
</mask>
<g class="st7">
	<path class="st8" d="M3.2,15.5H16V3.7H3.2V15.5z"/>
</g>
<defs>
	<filter id="Adobe_OpacityMaskFilter_3_" filterUnits="userSpaceOnUse" x="19.4" y="1.8" width="18.3" height="6.6">
		<feColorMatrix  type="matrix" values="1 0 0 0 0  0 1 0 0 0  0 0 1 0 0  0 0 0 1 0"/>
	</filter>
</defs>
<mask maskUnits="userSpaceOnUse" x="19.4" y="1.8" width="18.3" height="6.6" id="mask3_1_">
	<path class="st9" d="M26.8,3.7c0.3,0,0.5-0.2,0.5-0.5c0-0.3-0.2-0.5-0.5-0.5c-0.3,0-0.5,0.2-0.5,0.5C26.3,3.5,26.6,3.7,26.8,3.7z
		 M23.8,4c-0.5,0-0.9,0.3-1,0.6h0V4.1H22v3.4h0.8V5.6c0-0.4,0.3-0.9,0.8-0.9c0.5,0,0.6,0.5,0.6,0.9v1.9h0.8V5.4
		C25.1,4.7,24.7,4,23.8,4L23.8,4z M20.3,7.5h0.8V4.1h-0.8V7.5z M35.5,3.7c0.3,0,0.5-0.2,0.5-0.5c0-0.3-0.2-0.5-0.5-0.5
		c-0.3,0-0.5,0.2-0.5,0.5C35,3.5,35.2,3.7,35.5,3.7L35.5,3.7z M34.2,4.1v0.7h0.9v2.6h0.8V4.9h0.9V4.1L34.2,4.1L34.2,4.1z M32.7,7.5
		h0.8V4.1h-0.8V7.5L32.7,7.5z M25.5,4.9h0.9v2.6h0.8V4.9h0.9V4.1h-2.7L25.5,4.9L25.5,4.9z M31,6c0,0.4-0.3,0.9-0.8,0.9
		c-0.5,0-0.6-0.5-0.6-0.9V4.1h-0.8v2.1c0,0.7,0.4,1.4,1.2,1.4c0.5,0,0.9-0.3,1-0.6h0v0.5h0.8V4.1H31L31,6L31,6z"/>
</mask>
<g class="st10">
	<path class="st2" d="M19.4,8.4h18.3V1.8H19.4V8.4z"/>
</g>
</svg>
