<svg width="24" height="24" viewBox="0 0 24 24" fill="none" xmlns="http://www.w3.org/2000/svg">
<path d="M12.7093 15.2852C12.1846 15.2862 11.6648 15.1836 11.1798 14.9831C10.6948 14.7827 10.2542 14.4884 9.88331 14.1172C9.69541 13.9293 9.58984 13.6745 9.58984 13.4087C9.58984 13.143 9.69541 12.8881 9.88331 12.7002C10.0712 12.5123 10.3261 12.4067 10.5918 12.4067C10.8576 12.4067 11.1124 12.5123 11.3003 12.7002C11.6753 13.0748 12.1837 13.2853 12.7138 13.2853C13.2439 13.2853 13.7523 13.0748 14.1273 12.7002L18.3663 8.46121C18.7158 8.08148 18.905 7.58134 18.8943 7.06536C18.8836 6.54938 18.6739 6.05751 18.309 5.69257C17.944 5.32764 17.4521 5.11791 16.9362 5.10722C16.4202 5.09653 15.92 5.28571 15.5403 5.63521L14.1163 7.05021C14.0231 7.14286 13.9126 7.21625 13.7911 7.26619C13.6696 7.31613 13.5394 7.34164 13.408 7.34127C13.2766 7.3409 13.1466 7.31465 13.0253 7.26402C12.9041 7.2134 12.794 7.13939 12.7013 7.04621C12.6087 6.95304 12.5353 6.84253 12.4853 6.721C12.4354 6.59946 12.4099 6.46928 12.4103 6.33788C12.4106 6.20649 12.4369 6.07645 12.4875 5.9552C12.5381 5.83395 12.6121 5.72386 12.7053 5.63121L14.1253 4.22021C14.8818 3.502 15.889 3.10772 16.932 3.12144C17.975 3.13516 18.9715 3.5558 19.7088 4.29367C20.4462 5.03154 20.8661 6.02825 20.8791 7.07131C20.8921 8.11436 20.4971 9.12122 19.7783 9.87721L15.5373 14.1172C15.1661 14.4885 14.7251 14.7829 14.2398 14.9833C13.7545 15.1837 13.2344 15.2863 12.7093 15.2852Z" fill="#6B6C72"/>
<path d="M7.04983 20.946C6.25985 20.9449 5.48791 20.7098 4.83134 20.2705C4.17477 19.8312 3.66297 19.2074 3.3605 18.4776C3.05802 17.7478 2.9784 16.9448 3.13169 16.1699C3.28498 15.3949 3.6643 14.6827 4.22183 14.123L8.46283 9.88303C9.21281 9.13406 10.2294 8.71338 11.2893 8.71338C12.3492 8.71338 13.3658 9.13406 14.1158 9.88303C14.2089 9.976 14.2827 10.0864 14.3331 10.2079C14.3834 10.3294 14.4094 10.4596 14.4094 10.5912C14.4095 10.7227 14.3836 10.853 14.3333 10.9745C14.283 11.096 14.2093 11.2065 14.1163 11.2995C14.0234 11.3926 13.913 11.4664 13.7915 11.5168C13.67 11.5671 13.5397 11.5931 13.4082 11.5931C13.2766 11.5932 13.1464 11.5673 13.0249 11.517C12.9033 11.4667 12.7929 11.393 12.6998 11.3C12.3248 10.9254 11.8164 10.715 11.2863 10.715C10.7562 10.715 10.2478 10.9254 9.87283 11.3L5.63283 15.539C5.43586 15.722 5.27781 15.9429 5.16813 16.1883C5.05845 16.4338 4.99939 16.6989 4.99447 16.9677C4.98956 17.2365 5.03889 17.5035 5.13953 17.7528C5.24016 18.0022 5.39003 18.2286 5.58018 18.4187C5.77032 18.6088 5.99684 18.7586 6.24619 18.8591C6.49554 18.9597 6.7626 19.0089 7.03141 19.0039C7.30022 18.9989 7.56526 18.9397 7.81069 18.8299C8.05612 18.7202 8.2769 18.5621 8.45983 18.365L9.88483 16.95C10.073 16.763 10.3277 16.6585 10.593 16.6593C10.8583 16.6602 11.1123 16.7664 11.2993 16.9545C11.4863 17.1427 11.5909 17.3974 11.59 17.6627C11.5892 17.928 11.483 18.182 11.2948 18.369L9.87483 19.78C9.50377 20.1506 9.06324 20.4444 8.57848 20.6445C8.09372 20.8445 7.57425 20.947 7.04983 20.946Z" fill="#6B6C72"/>
</svg>
