<?xml version="1.0" encoding="UTF-8"?> <svg xmlns="http://www.w3.org/2000/svg" width="220" height="219" viewBox="0 0 220 219" fill="none"><path d="M33.543 0.521484L202.456 149.479L16.2855 123.315L33.543 0.521484Z" fill="url(#paint0_linear)"></path><circle cx="66.5" cy="193.5" r="25.5" fill="url(#paint1_radial)"></circle><circle cx="119.5" cy="170.5" r="15.5" fill="url(#paint2_radial)"></circle><path fill-rule="evenodd" clip-rule="evenodd" d="M109.362 57.2923H110.58C111.19 55.0923 113.457 50.0203 115.861 49.5169L116.267 49.9262C116.354 52.5939 117.111 57.5767 119.11 58.52V58.1108C121.531 56.3818 122.02 51.8708 125.609 51.5631C126.09 53.6047 126.658 53.7365 128.452 54.4277C128.365 56.1235 128.611 56.8323 128.859 58.52C129.509 58.767 130.195 58.9052 130.889 58.9292C132.116 58.1181 133.798 58.2773 135.357 57.7015C140.288 55.8813 145.704 54.7862 150.792 52.7908C160.747 48.8871 171.084 44.0897 180.444 39.6954C183.832 38.1047 194.176 32.6034 195.472 29.8738C192.758 29.7003 191.061 29.2412 191.004 26.1908H191.817C193.058 25.4353 196.273 26.1474 197.503 25.3723L195.879 24.1446V22.5077C198.6 22.574 199.331 24.1446 200.347 24.1446C200.737 23.5643 200.743 22.8052 200.753 21.6892C199.594 20.9641 199.02 20.5025 198.722 18.8246C199.571 18.3659 199.466 18.2378 200.753 18.0062L201.565 18.8246L202.784 13.5046H204.408C204.679 14.2946 204.816 15.1245 204.815 15.96C203.88 16.9831 204.148 20.5974 205.221 22.0985C205.657 22.4062 205.605 22.344 206.439 22.5077C207.528 20.7509 209.239 18.789 211.72 18.4154L212.126 18.8246C212.122 20.1202 211.548 19.5895 212.938 20.0523C213.787 18.8717 214.68 18.1805 216.594 18.0062L217 18.4154C216.744 19.1332 216.922 18.8127 216.594 19.2338C215.563 23.6486 210.233 23.4964 210.095 31.5108C210.944 31.9695 210.839 32.0976 212.126 32.3292C212.345 33.7386 212.581 33.6048 212.938 34.7846C212.004 35.4394 212.325 35.6612 210.907 36.0123L210.501 35.6031C210.198 37.1655 210.003 37.3218 208.47 37.6492C207.885 36.5566 207.66 35.9219 207.658 33.9662C206.34 34.305 207.037 33.7656 206.439 34.7846C206.59 35.0551 206.07 37.5097 206.033 39.2862C204.848 39.7163 205.08 40.0301 204.002 40.5138V40.1046C202.557 38.4165 202.834 34.614 201.159 33.1477C200.766 33.045 201.005 32.8269 200.753 33.1477C200.406 33.6482 200.715 34.4454 200.347 35.1938C200.03 35.8359 192.519 42.2437 191.817 42.56C190.648 43.0863 188.713 42.2015 187.755 42.56C186.481 43.0363 174.359 52.2706 173.945 53.2C173 55.3165 170.858 61.7709 171.508 65.4769C171.989 68.2249 173.681 73.2347 173.132 76.1169C172.656 78.6177 173.147 82.2231 172.32 85.12C171.824 86.8568 170.294 90.2726 169.883 92.0769C169.43 94.0613 170.202 97.1105 169.477 99.8523C167.936 105.678 164.715 111.552 161.353 115.812C160.944 116.331 159.743 116.154 159.322 116.631V117.858C158.045 119.734 156.312 120.396 155.26 122.769H154.042C153.984 128.596 152.647 132.026 151.199 137.502V141.185C148.607 150.531 147.619 164.012 147.543 173.923C149.984 174.038 152.095 174.782 154.042 175.56C155.382 178.186 156.116 179.602 156.073 184.154L154.854 184.563C153.569 185.729 150.788 185.832 148.355 185.791C147.121 184.604 144.72 184.053 143.887 182.517C142.687 180.303 144.242 178.85 144.7 177.606C144.564 173.787 144.429 169.967 144.293 166.148C141.13 153.257 138.804 138.443 136.982 124.406L131.702 124.815C129.63 128.192 128.504 133.681 127.234 137.911C127.098 140.366 126.963 142.822 126.828 145.277C125.693 149.53 125.986 155.325 124.797 160.418C123.623 165.262 122.809 170.186 122.36 175.151C125.428 176.378 127.646 178.122 127.64 182.517C127.198 183.183 126.993 184.915 126.828 185.791C125.596 186.409 125.391 186.831 123.578 187.018C122.687 187.644 121.55 187.245 120.735 187.018C116.73 185.907 115.576 185.357 115.861 180.062C116.914 179.371 118.561 177.974 119.11 176.788C120.174 175.239 120.875 169.517 119.923 165.738C117.78 157.244 119.814 146.432 117.485 137.092C116.359 132.575 117.823 127.524 115.455 124.406C115.019 124.098 115.07 124.161 114.236 123.997C112.542 126.033 109.092 125.211 106.112 126.043C97.8323 128.356 79.2206 130.978 69.9621 127.68C69.0925 136.462 67.861 147.141 65.9003 155.098V160.009C64.5818 165.707 64.7163 174.39 64.2756 180.471C66.7127 181.453 68.6461 182.51 70.3683 184.154C70.4414 186.896 70.4788 188.055 70.3683 190.702C68.9146 191.628 68.1664 192.521 65.9003 192.748C64.4121 193.589 60.0675 192.179 59.4014 190.702V186.2C64.408 180.164 60.6508 179.261 61.4323 171.877C61.6196 170.109 60.9449 166.878 60.6199 164.92V152.643C58.9834 145.324 59.5135 132.872 58.9952 125.225C56.9001 124.026 54.5678 122.798 51.6839 122.36C52.2526 124.249 49.9804 132.877 49.2469 135.865C47.0559 144.794 47.549 155.522 45.9974 163.692C44.9953 168.969 42.7999 172.954 42.7479 179.652C44.458 180.328 45.1806 182.151 46.4036 183.335V189.474C43.3418 191.087 41.5566 191.873 37.0614 191.52L35.0305 189.065C34.8951 187.701 34.7597 186.336 34.6243 184.972C36.5447 182.733 38.3791 181.473 40.717 179.652C39.6069 172.211 41.3263 163.589 39.9047 156.735V148.142C38.7105 142.815 39.5879 139.15 38.2799 133.409C37.3843 129.481 36.2897 123.913 36.6552 120.314C37.3677 120.056 37.0496 120.235 37.4676 119.905C38.18 120.163 37.862 119.984 38.2799 120.314C38.5854 120.753 38.5237 120.701 38.6861 121.542C37.0395 124.167 39.1151 129.091 39.0923 131.772C39.0696 134.491 40.044 141.027 40.717 144.458C42.1188 151.606 41.4851 163.548 41.5294 172.695H41.9356V172.286C44.2691 168.843 43.5969 164.364 44.7789 159.6C47.4755 148.732 48.0689 133.349 50.4654 121.542H49.653C45.6379 118.886 37.9428 120.856 34.6243 118.677C34.2994 118.259 34.4801 118.565 34.2181 117.858C35.13 117.618 35.2965 117.552 35.8429 117.04C42.3044 118.297 49.716 119.118 54.9334 121.132C56.5049 121.739 58.9952 121.132 58.9952 121.132C60.1979 121.841 61.094 122.307 61.4323 123.997C60.4981 124.738 60.3994 135.421 61.0261 139.138C62.0461 145.188 60.0135 158.387 63.057 166.557C64.2313 169.708 61.9713 172.06 63.4632 174.332C63.761 161.759 64.9149 148.399 67.525 137.502C68.4751 133.535 67.1347 127.448 69.1498 124.406C69.6291 124.079 69.8326 124.09 70.7745 123.997L70.3683 125.225C72.8984 125.509 74.5061 126.718 76.8672 127.271C78.4294 127.636 80.8113 127.056 81.7414 126.862L89.4589 127.271C91.4975 126.787 95.1373 126.116 97.1763 125.634H102.863C105.3 124.975 110.653 124.308 112.611 122.769C113.418 121.761 113.363 120.928 114.642 120.314C116.579 121.936 125.116 122.342 128.859 122.769C130.397 122.945 129.705 120.857 131.702 121.542V122.36C133.787 123.342 136.461 121.305 137.795 121.951C139.866 125.23 138.785 130.209 139.825 134.637C140.548 137.71 140.143 141.688 141.044 145.277C142.059 149.328 143.821 153.375 144.7 157.145C145.585 160.946 144.347 165.206 146.324 167.785C146.515 163.575 147.624 159.217 147.949 156.326C148.718 149.459 149.031 141.073 150.792 134.228C151.964 129.675 150.911 123.105 153.229 119.495C159.808 112.617 165.415 108.347 168.258 97.3969C169.426 92.8999 168.336 89.306 169.477 84.7108C170.123 82.1085 172.246 78.3644 171.508 74.8892C170.983 72.4195 171.038 69.2918 170.289 66.2954C170.052 65.3456 168.603 63.4177 168.664 62.6123C168.682 62.379 169.809 61.2209 169.883 60.9754C170.204 59.8971 169.62 58.1108 170.289 56.4738C172.743 50.4725 177.701 47.5768 182.881 44.1969C185.416 42.5424 187.73 38.6629 191.004 38.0585L191.411 38.4677L190.598 39.6954H191.411C193.976 37.3251 197.485 36.9584 197.503 31.92L197.097 31.5108H196.285C195.01 33.3069 193.214 33.516 191.411 34.7846L187.755 38.4677C186.237 39.3725 184.769 39.2006 183.287 40.1046C182.076 40.8433 181.031 42.3791 179.631 42.9692H178.007L177.194 44.1969L171.914 45.0154C169.333 46.2197 166.127 48.818 163.384 49.9262L156.479 51.5631C154.861 52.4225 152.98 54.6213 151.199 55.2462H147.137C145.832 55.6783 144.027 57.1925 142.669 57.7015C140.094 58.6669 137.829 57.9843 134.951 58.9292C133.374 59.4473 130.017 61.1751 128.452 61.7938C126.072 62.7351 124.845 61.2618 122.766 61.7938C121.338 62.1622 118.806 63.0281 117.079 63.4308H112.205C106.385 64.8631 95.6609 64.6454 90.2712 63.4308C88.2127 62.9671 85.8804 65.3824 82.96 64.6585C76.2925 63.0056 67.6274 65.2261 61.8385 66.7046C59.0972 71.7185 56.4119 78.4123 52.0901 81.8461C49.504 83.9009 46.341 84.811 43.5603 86.7569C42.9478 87.1854 42.8743 88.3431 42.3418 88.8031L35.0305 91.2585C32.6783 92.9621 23.6168 96.8727 20.0018 96.9877L19.5956 96.5785C19.9156 95.717 19.583 95.8394 20.0018 95.3508C22.7077 92.9036 27.5641 93.4761 31.3749 92.0769C32.0337 91.8351 32.762 90.735 33.4058 90.44C46.8634 84.2753 53.7425 80.0517 59.8076 66.2954C60.3624 65.0366 61.8763 63.7344 62.2447 62.2031C62.7589 60.0648 61.5521 59.4756 61.4323 57.2923C64.9198 55.7139 69.7972 52.803 69.9621 47.88C69.2448 47.4867 69.2798 47.3656 68.3374 47.0615C65.616 44.9998 62.1358 47.8698 58.589 47.0615C56.931 46.6838 54.1125 45.4189 52.4963 45.0154C48.8504 44.1048 39.6683 47.5633 36.6552 47.88C35.1666 48.0363 26.2789 46.9903 25.2821 47.4708C24.5579 47.8198 23.9783 49.2002 22.845 49.5169C19.4701 50.4606 16.1995 47.8861 12.2843 47.88C11.5694 52.3197 10.3862 53.9865 11.4719 59.3385C10.1722 59.4436 10.1754 59.7452 9.44103 59.3385C7.81021 56.16 10.1222 49.8095 10.6596 46.2431C3.9003 43.2348 -0.744798 39.8787 0.0988417 30.2831C2.37062 28.5885 3.56804 25.4316 5.78539 23.7354C9.35573 21.0042 14.063 18.5099 17.9708 16.3692C20.1021 15.2017 25.4523 14.4291 26.0945 11.8677L20.0018 5.72923L19.5956 6.13846C18.074 7.81017 17.9708 12.5171 17.9708 15.5508L17.1585 16.3692H16.3461V15.5508C15.6097 14.195 18.1613 3.07946 18.377 2.86462C18.8129 2.55687 18.7613 2.61908 19.5956 2.45538C21.0578 5.01881 24.4312 9.22038 27.313 10.2308C27.7692 8.13551 30.6177 1.20928 32.5934 0.818461C33.3038 2.75167 36.0078 9.90338 37.4676 10.64C38.0281 8.13469 42.3158 0.277049 44.7789 0V0.818461C45.4612 1.98272 45.8349 8.99898 46.8098 11.4585C47.5222 11.2002 47.2042 11.3795 47.6221 11.0492C49.5312 9.21547 54.8773 2.8372 56.9643 2.04615C57.4196 2.90186 57.5468 2.79586 57.7767 4.09231C56.0065 6.17284 55.5276 11.3267 54.9334 14.3231C56.3424 15.0736 58.862 15.9383 59.8076 17.1877C62.4478 20.6772 66.2736 30.2397 63.8694 36.8308C62.8133 39.7269 57.6175 42.3108 57.3705 43.3785C58.2279 43.9191 60.8783 43.881 61.8385 44.1969V43.3785C61.0237 42.8055 60.9993 42.8276 60.6199 41.7415C61.6741 41.4295 62.7714 41.2913 63.8694 41.3323V42.1508C63.564 42.5899 63.6257 42.5379 63.4632 43.3785C65.6789 44.5317 70.2599 44.9278 71.1807 47.4708C71.6068 48.1047 71.5994 49.1425 71.5869 50.3354C70.2578 51.6858 69.4491 53.6911 67.9312 54.8369C66.0859 56.2308 63.906 56.9477 63.057 59.3385C64.3727 59.8594 64.1261 59.6982 64.2756 61.3846C63.8509 61.9939 63.5728 62.6945 63.4632 63.4308H66.7127C67.2886 63.0375 68.0421 63.0314 69.1498 63.0215C71.2806 59.2247 74.1365 56.3306 76.0549 52.3815H76.8672C78.0123 54.3823 79.1353 56.1714 80.1167 58.52L80.5229 58.1108C83.1273 56.2807 83.9608 50.8637 87.428 50.3354C88.8845 53.2622 89.4548 58.2163 92.3021 59.7477V59.3385C94.2518 57.3332 96.3181 51.1882 99.2072 50.7446C100.03 52.6885 100.765 54.9638 101.644 56.8831L102.051 56.4738C104.192 54.884 104.739 51.3773 107.737 50.7446C108.235 51.6781 108.402 51.6658 108.549 53.2C109.325 54.1723 109.385 55.4454 109.362 57.2923ZM42.7479 3.68308C41.8113 6.46871 39.9859 7.66858 39.4985 11.4585C40.5527 11.7705 41.65 11.9087 42.7479 11.8677C43.3771 12.297 44.4072 12.2896 45.5912 12.2769V11.8677C44.2037 10.0884 43.7394 6.54769 43.5603 3.68308H42.7479ZM28.9378 12.6862C31.671 12.7537 33.9565 12.574 35.8429 11.8677C34.6856 9.23143 33.4163 6.50227 32.1872 4.09231H31.3749C30.913 7.29495 29.164 8.81647 28.9378 12.6862ZM54.9334 5.72923C53.3371 8.03688 50.242 9.47696 49.2469 12.2769C50.3866 12.8961 51.2631 13.113 53.3087 13.0954L53.7149 12.6862C54.0134 10.6052 55.6877 7.27244 54.9334 5.72923ZM37.4676 13.5046C34.2112 15.4145 29.3699 13.654 25.2821 14.7323C18.5452 16.5092 2.1261 26.0271 0.911206 32.7385C0.741422 33.6772 1.61349 35.9305 1.72357 37.24C3.23578 38.4026 3.86374 40.6268 5.37921 41.7415C6.995 42.9283 9.23794 43.243 10.6596 44.6062C12.5069 43.8937 11.9187 42.8808 14.3152 42.56L14.7214 42.9692C14.3262 44.4646 13.8124 44.6061 13.5028 46.2431H14.3152C17.2235 47.7098 22.8576 46.5962 26.0945 45.8338C30.1287 44.8836 34.1032 47.0227 38.6861 45.8338C39.3738 45.6554 40.9128 44.7842 41.5294 44.6062C44.7464 43.6764 48.4905 44.7997 51.2778 43.3785L52.0901 42.1508H55.3396C57.5228 41.469 60.6829 39.0357 61.4323 36.8308C63.7727 33.8843 62.2995 24.7118 60.6199 21.6892C59.4887 19.6529 57.3299 18.0062 55.7458 16.3692L54.5272 16.7785C54.6626 17.0513 54.798 17.3241 54.9334 17.5969H54.5272C53.6563 18.4935 52.5122 19.0698 51.2778 19.2338V18.8246C52.5093 17.9705 52.9354 16.8644 53.3087 15.1415L52.9025 14.7323L37.4676 13.5046ZM33.8119 19.6431C35.7178 19.5788 39.1138 19.2523 40.3109 20.0523C43.2354 20.9191 45.1127 23.6572 45.185 27.4185C44.3191 28.9498 45.1148 31.0897 43.9665 33.1477C42.2321 36.2558 36.9144 39.9671 32.1872 38.8769C30.4585 38.4783 30.1916 37.188 28.1254 36.8308C27.2188 40.2986 23.1318 41.7866 18.7832 41.7415C16.4245 39.5517 13.3371 38.2934 13.0967 33.9662C10.4756 29.5649 17.3823 23.523 19.1894 21.6892L24.0636 21.28C24.8759 22.9083 27.4235 24.9794 29.3439 25.3723C30.5113 22.8723 32.3984 21.7568 33.8119 19.6431ZM37.4676 21.28C36.8384 21.7093 35.8083 21.7019 34.6243 21.6892C33.3513 23.7606 31.8527 25.6823 30.1563 27.4185C29.9398 30.3833 29.3439 33.5749 30.9687 35.6031C31.8675 36.3851 32.6279 36.692 34.2181 36.8308C35.2559 36.2636 35.5898 37.0599 36.6552 36.8308C39.321 36.2578 42.6046 33.2459 42.7479 29.8738C43.3706 29.0145 43.3572 26.2317 42.7479 25.3723C42.3752 24.0101 41.5045 22.8404 40.3109 22.0985C39.5391 21.476 38.8527 21.3663 37.4676 21.28ZM20.0018 23.7354C16.496 27.0301 14.1982 27.477 14.3152 34.7846C15.5776 35.779 17.8762 38.7345 19.1894 40.1046C24.5417 39.8615 28.2562 36.5566 28.1254 30.6923C28.5316 29.7187 27.216 26.5263 26.0945 25.7815C25.3788 25.306 23.9169 25.3756 23.2512 24.9631C22.9023 24.1925 23.0587 24.6611 23.2512 23.7354H20.0018ZM208.876 23.7354C208.224 24.6766 208.006 24.3533 207.658 25.7815C207.983 26.1994 207.802 25.8937 208.064 26.6H208.47V26.1908C209.458 25.5151 209.733 25.0858 210.095 23.7354H208.876ZM36.6552 27.0092C37.7495 27.7724 37.8169 27.982 37.8738 29.8738C36.8916 30.4058 36.723 30.6105 35.0305 30.6923V29.8738C34.725 29.4347 34.7868 29.4867 34.6243 28.6462C34.9571 28.2822 35.2312 27.868 35.4367 27.4185C36.2799 27.2662 36.2182 27.3194 36.6552 27.0092ZM22.845 29.8738V31.92C21.7532 32.4483 21.0932 33.0998 20.0018 33.5569C19.611 32.8342 19.4912 32.8694 19.1894 31.92C20.6224 30.9047 20.3998 30.0543 22.845 29.8738ZM205.627 31.5108C204.391 31.4801 204.512 31.2014 204.002 31.5108C203.677 31.9937 203.688 32.1987 203.596 33.1477C204.115 33.3634 204.662 33.5013 205.221 33.5569V32.7385C205.526 32.2994 205.464 32.3513 205.627 31.5108ZM63.8694 48.6985C65.969 48.7292 66.6822 49.208 67.9312 49.9262C67.2813 51.3396 66.1846 53.4247 64.6818 54.0185C63.7719 54.5914 63.3511 54.2415 62.2447 54.0185V51.5631L61.8385 51.1538C62.8572 50.4831 63.3008 49.8308 63.8694 48.6985ZM52.4963 58.1108H51.2778C51.4313 60.9132 51.9004 62.4355 50.0592 63.4308C48.943 61.7844 48.3939 60.1856 45.9974 59.7477C44.7984 61.09 43.67 62.1785 41.9356 63.0215C41.6793 62.3037 41.8572 62.6242 41.5294 62.2031C42.2877 59.6679 44.239 58.8838 44.7789 56.4738C44.0164 55.6865 43.7577 55.0317 43.5603 53.6092C44.2106 53.3622 44.8966 53.224 45.5912 53.2C47.2281 54.9953 48.3256 52.844 50.4654 52.7908C50.7225 55.6218 51.887 54.7526 52.9025 56.4738C52.5775 56.9567 52.5885 57.1618 52.4963 58.1108ZM103.269 59.7477H102.051V61.3846H101.238V60.9754C99.9668 59.4956 99.5561 56.3102 98.8011 54.4277C98.0886 54.6859 98.4066 54.5067 97.9887 54.8369C96.3367 56.6375 94.2266 59.6658 93.5207 62.2031C100.568 63.0993 109.412 62.8055 116.267 61.3846V59.7477C115.484 58.5151 115.338 55.4917 115.048 54.0185H114.236V54.4277C112.489 56.3192 111.122 59.656 109.768 61.7938L109.362 61.3846C108.565 60.6341 107.227 54.9118 106.925 53.6092L106.519 54.0185C105.091 55.3837 103.624 57.3529 103.269 59.7477ZM89.8651 62.2031C89.6347 59.0692 87.9093 56.2619 86.6156 54.0185L86.2094 54.4277C84.1281 55.9111 81.9157 59.6658 80.5229 61.7938H79.7105C78.7921 59.8913 78.3559 56.2619 76.0549 55.6554C74.6474 58.0768 72.8797 59.9077 71.5869 62.6123H78.8981C80.3486 61.9166 87.4527 62.4658 89.8651 62.2031ZM123.984 54.8369C122.644 57.0521 120.747 58.7574 119.516 60.9754H120.735C122.36 59.9179 126.187 60.6009 127.234 58.9292C125.947 57.5563 125.971 55.5805 123.984 54.8369ZM48.0283 57.2923C48.443 57.6197 48.1396 57.4376 48.8407 57.7015C48.426 57.3741 48.7294 57.5563 48.0283 57.2923ZM20.8141 88.8031C19.2235 88.8849 19.7418 88.9578 18.377 88.8031C17.9327 86.9615 14.5869 85.8431 13.0967 85.12L13.5028 83.8923C14.6467 83.1557 15.342 82.471 16.7523 81.8461L16.3461 81.4369C15.615 79.2013 14.1527 77.6004 13.5028 74.8892C8.95361 74.8639 8.3817 72.6315 6.19157 70.3877L5.78539 65.0677C7.1197 61.0466 16.9278 57.3647 22.4388 58.52C24.1598 61.4227 26.7639 63.0792 26.9069 67.5231L22.4388 72.8431C20.3856 74.2398 17.6727 74.4149 15.1276 75.2985L18.377 81.0277C21.6533 80.3038 29.086 79.757 31.781 78.1631C34.3562 76.6399 36.024 70.5956 37.4676 67.9323H38.2799C38.7353 68.788 38.8624 68.682 39.0923 69.9785C38.509 70.8423 38.7402 72.1474 38.2799 73.2523C37.7905 74.4268 36.4046 75.1695 35.8429 76.1169C34.3968 78.5547 34.4618 81.5151 32.1872 83.0738C29.848 84.678 23.3775 85.4065 22.845 88.3938C22.4734 89.4488 23.6826 90.1057 23.2512 91.2585C22.7719 91.5858 22.5684 91.5748 21.6265 91.6677L21.2203 90.44C20.8954 89.9571 20.9063 89.7521 20.8141 88.8031ZM14.3152 70.7969H12.2843C12.3525 68.1521 12.9915 65.9561 12.2843 63.84C13.5841 63.7348 13.5808 63.4332 14.3152 63.84H14.7214C14.2498 66.0785 13.8794 68.1345 14.3152 70.3877C14.6402 69.9699 14.4594 70.2756 14.7214 69.5692C15.6759 68.0244 15.2376 64.915 15.5338 63.84H16.7523C16.8742 66.3408 16.5744 69.1747 16.7523 72.0246C16.2243 72.2186 15.1442 72.5214 14.7214 72.8431H15.1276C15.6536 73.202 16.1296 73.2089 17.1585 73.2523C20.5704 70.9512 24.8577 70.7335 25.2821 65.4769C23.6574 64.1621 22.2418 61.7079 20.8141 60.1569C17.2986 59.9932 13.721 60.666 12.2843 62.6123V63.84C12.2843 63.84 10.361 63.4091 9.44103 63.84C7.83011 64.595 7.41012 65.792 7.41012 68.3415C8.04457 69.1453 8.37155 70.4507 8.62866 71.6154C10.5402 72.2231 11.2355 73.114 13.909 73.2523L14.3152 72.8431V70.7969ZM141.044 72.0246C144.943 72.6495 151.639 72.8296 156.885 72.8431V73.6615C157.479 74.5917 158.51 83.8923 158.51 83.8923C155.416 86.2748 145.508 84.5229 141.856 84.7108C141.655 84.259 141.38 83.8441 141.044 83.4831C141.69 79.9228 139.955 75.3987 141.044 72.0246ZM103.675 89.2123C99.9506 89.5626 94.5398 88.2093 91.4898 88.8031C89.7391 89.144 83.5928 89.944 82.96 89.6215C82.0964 89.1812 82.2341 88.3423 80.929 87.9846C80.8929 88.0231 80.6041 88.9078 80.1167 88.3938V85.5292C78.0663 82.6028 78.7166 75.7994 80.929 74.0708C81.8263 73.4328 99.6447 72.918 101.644 73.2523V74.0708C102.934 76.1431 103.601 86.0858 103.675 89.2123ZM145.918 74.0708C145.277 74.5692 144.113 74.7865 143.481 75.2985C142.685 76.5184 143.022 79.9142 143.075 81.8461C144.001 82.3475 143.989 82.5165 145.512 82.6646C147.879 84.3965 152.816 83.1749 156.073 83.0738C156.343 82.2839 156.48 81.454 156.479 80.6185C155.725 79.455 155.542 76.7389 155.26 75.2985H154.448C152.57 74.0004 148.975 74.0323 145.918 74.0708ZM86.2094 74.8892C85.1594 75.5489 83.1224 75.4143 82.1476 76.1169C81.003 77.9012 81.6874 83.3141 81.7414 85.9385C82.0664 86.4213 82.0554 86.6264 82.1476 87.5754H82.96C84.8755 86.3587 97.5951 87.9208 101.238 87.9846C101.807 86.3043 101.674 83.3423 101.644 81.0277C100.768 79.7681 100.37 76.8793 100.02 75.2985C99.2355 75.0262 98.4118 74.8879 97.5825 74.8892C95.1348 76.4893 89.1189 74.9813 86.2094 74.8892ZM22.0327 92.8954C22.3576 93.3132 22.1769 93.0075 22.4388 93.7138H22.0327V92.8954ZM33.4058 93.7138L35.4367 94.1231V95.76C34.4939 97.295 35.9387 98.384 35.4367 100.262C34.3879 104.185 34.4866 109.844 36.249 112.538C37.102 113.846 38.4948 114.159 39.0923 115.812H38.6861C38.2068 116.14 38.0033 116.129 37.0614 116.222C33.1389 109.998 32.0182 101.662 33.4058 93.7138ZM57.3705 96.1692H60.6199C61.2053 97.2619 61.4299 97.8966 61.4323 99.8523C62.2398 100.979 63.8755 110.597 63.4632 111.311C62.7768 111.778 61.4729 111.747 60.2138 111.72C57.5407 109.245 51.2562 110.726 49.2469 109.674C48.1311 108.087 47.4389 100.693 47.6221 99.0338L48.8407 98.6246C51.028 97.1481 55.2876 97.798 57.3705 96.1692ZM51.2778 107.628C55.0146 107.687 58.7674 108.717 61.8385 109.265V105.991C60.1325 103.278 61.3612 98.2645 57.3705 97.8061C56.6641 98.2416 55.6333 97.8806 54.5272 98.2154C52.7246 98.7609 50.7952 100.161 49.2469 101.08C50.1222 103.316 51.2692 105.931 51.2778 107.628ZM113.83 97.8061C118.895 98.1663 123.938 97.8192 129.671 97.8061L130.077 98.2154C130.348 99.4431 130.619 100.671 130.889 101.898C130.558 103.544 129.818 105.789 130.077 107.628C128.493 107.616 128.249 107.423 127.64 108.446C127.945 108.885 127.884 108.833 128.046 109.674H127.234C125.843 108.992 113.852 109.202 111.393 109.674V108.037C110.266 106.413 110.911 100.662 111.799 99.4431C112.403 98.8198 113.23 98.4343 113.83 97.8061ZM126.828 100.262C126.963 101.216 127.098 102.171 127.234 103.126H127.64V100.262H126.828ZM113.017 104.354C112.485 105.814 112.444 107.305 113.83 108.037V107.628C114.155 107.145 114.144 106.94 114.236 105.991C113.768 105.511 113.489 104.83 113.017 104.354ZM121.953 105.991V106.809L124.391 107.218C124.752 106.883 125.163 106.607 125.609 106.4V105.991H121.953ZM129.265 124.406C127.188 124.273 119.083 123.868 117.079 123.178V124.406C119.537 128.235 117.451 132.698 118.704 138.32C119.706 142.818 118.328 149.003 119.516 154.28C120.395 158.181 121.144 163.456 121.547 166.557C121.872 166.139 121.691 166.445 121.953 165.738C124.187 162.23 122.918 156.967 123.984 152.234C124.684 149.13 125.339 144.905 126.015 142.003V137.502C127.057 133.282 128.87 128.902 129.265 124.406ZM148.355 176.788C147.876 177.115 147.672 177.104 146.731 177.197C146.162 178.883 145.555 179.088 145.512 181.698C147.824 183.244 149.302 183.81 153.636 183.745L154.042 183.335C154.177 182.244 154.313 181.153 154.448 180.062C153.461 179.038 152.558 177.821 151.605 176.788H148.355ZM121.547 178.015C120.425 179.021 119.178 179.171 118.298 180.471C117.68 181.246 117.571 181.94 117.485 183.335L118.704 184.563C119.692 185.343 121.621 185.623 123.172 185.791C123.587 185.463 123.283 185.645 123.984 185.382C124.972 183.708 125.592 182.958 125.609 180.062L123.578 178.015H121.547ZM148.761 180.471L151.199 180.88C151.413 181.403 151.55 181.954 151.605 182.517C150.821 182.789 149.997 182.927 149.168 182.926C148.553 181.761 148.391 181.846 148.761 180.471ZM121.547 180.88C122.739 181.483 122.856 181.323 123.172 182.926C122.388 183.198 121.564 183.337 120.735 183.335L120.329 182.108H120.735C121.1 181.212 121.085 181.517 121.547 180.88ZM43.5603 189.065C43.7776 186.84 44.5351 186.849 44.7789 184.563C44.446 184.199 44.1719 183.785 43.9665 183.335L39.4985 182.517C37.836 184.199 36.3148 184.382 36.249 187.837C36.574 188.255 36.3932 187.949 36.6552 188.655L37.8738 189.065C39.3104 190.031 41.7552 189.204 43.5603 189.065ZM66.3065 184.154C65.7378 184.516 64.0286 184.598 63.4632 184.972C62.1387 185.397 61.8718 185.702 61.4323 187.018C60.8312 187.798 60.6809 188.377 61.0261 189.065C61.7227 191.279 63.3434 191.264 66.3065 191.111C67.3492 190.343 67.7509 190.858 68.3374 189.474C68.9215 188.488 68.415 186.45 68.3374 184.563L67.9312 184.154H66.3065ZM39.9047 184.972H41.9356C42.1497 185.495 42.2866 186.047 42.3418 186.609C41.0899 187.092 40.7836 187.585 39.0923 187.837C38.8472 187.182 38.7099 186.491 38.6861 185.791C39.1345 185.588 39.5463 185.311 39.9047 184.972ZM64.2756 186.2H65.9003C66.1566 186.918 65.9787 186.597 66.3065 187.018C66.0502 187.736 66.2281 187.416 65.9003 187.837C65.421 188.164 65.2175 188.153 64.2756 188.246L63.8694 187.018C64.1944 186.601 64.0136 186.906 64.2756 186.2Z" fill="#6B6C72"></path><defs><linearGradient id="paint0_linear" x1="126.628" y1="13.6038" x2="109.371" y2="136.397" gradientUnits="userSpaceOnUse"><stop offset="0.166667" stop-color="#34BFFF" stop-opacity="0.5"></stop><stop offset="1" stop-color="#15EFE9" stop-opacity="0.2"></stop></linearGradient><radialGradient id="paint1_radial" cx="0" cy="0" r="1" gradientUnits="userSpaceOnUse" gradientTransform="translate(66.5 193.5) rotate(90) scale(25.5)"><stop offset="0.166667" stop-color="#34BFFF" stop-opacity="0.5"></stop><stop offset="1" stop-color="#15EFE9" stop-opacity="0.2"></stop></radialGradient><radialGradient id="paint2_radial" cx="0" cy="0" r="1" gradientUnits="userSpaceOnUse" gradientTransform="translate(119.5 170.5) rotate(90) scale(15.5)"><stop offset="0.166667" stop-color="#34BFFF" stop-opacity="0.5"></stop><stop offset="1" stop-color="#15EFE9" stop-opacity="0.2"></stop></radialGradient></defs></svg> 