<?xml version="1.0" encoding="UTF-8"?> <svg xmlns="http://www.w3.org/2000/svg" width="88" height="18" viewBox="0 0 88 18" fill="none"><mask id="mask0" maskUnits="userSpaceOnUse" x="17" y="3" width="71" height="15"><path fill-rule="evenodd" clip-rule="evenodd" d="M40.3186 12.6844C39.2108 12.6844 38.6522 11.6946 38.6522 10.7372C38.6522 9.78015 39.2583 8.83228 40.2655 8.83228C40.7374 8.83228 41.3336 9.06908 41.5678 9.40179L42.7407 8.23313C42.1731 7.63484 41.268 7.27777 40.2655 7.27777C38.2258 7.27777 36.7453 8.74165 36.7453 10.7585C36.7453 12.8079 38.2093 14.2394 40.3057 14.2394C41.3029 14.2394 42.2247 13.9474 42.7712 13.3599L41.6304 12.1355C41.3668 12.4565 40.8144 12.6846 40.3186 12.6846V12.6844ZM33.7589 14.0534H35.5788V7.46295H33.7589V14.0534ZM30.4498 11.0763C30.4498 11.8507 29.945 12.6845 29.0042 12.6845C28.2788 12.6845 27.8917 12.1671 27.8917 11.1029V7.46295H26.0713V11.5533C26.0713 12.9145 26.7505 14.2392 28.5665 14.2392C29.4229 14.2392 30.1403 13.5649 30.5017 13.0671H30.529V14.0535H32.2692V7.46295H30.4493V11.0763H30.4498ZM22.7886 8.29991H22.7482C22.4909 8.01542 21.7947 7.27777 20.6637 7.27777C18.8082 7.27777 17.3784 8.73024 17.3784 10.7319C17.3784 12.7643 18.6978 14.2393 20.5765 14.2393C21.4295 14.2393 22.2306 13.7871 22.6952 13.2614H22.7221V17.2989H24.542V7.46312H22.7886V8.29991ZM21.0216 12.6843C19.8963 12.6843 19.2568 11.702 19.2568 10.732C19.2568 9.80405 19.844 8.8056 21.0216 8.8056C22.1048 8.8056 22.7751 9.81922 22.7751 10.7582C22.7751 11.7049 22.1192 12.6843 21.0218 12.6843H21.0216ZM62.4742 7.27777C60.4033 7.27777 58.9005 8.73043 58.9005 10.7322C58.9005 12.8034 60.4367 14.2573 62.474 14.2573C64.5111 14.2573 66.0475 12.7894 66.0475 10.7322C66.0475 8.73043 64.5447 7.27777 62.474 7.27777H62.4742ZM62.4742 12.6843C61.2873 12.6843 60.7468 11.6723 60.7468 10.732C60.7468 9.80405 61.2873 8.8056 62.4742 8.8056C63.6609 8.8056 64.2012 9.80388 64.2012 10.7318C64.2012 11.6722 63.6609 12.6841 62.4738 12.6841L62.4742 12.6843ZM85.2259 9.99724C84.2893 9.77356 83.9593 9.65311 83.9593 9.27406C83.9593 8.75105 84.622 8.63623 84.9219 8.63623C85.4866 8.63623 86.1246 8.97354 86.3644 9.29382L87.4377 8.26416C86.9412 7.64064 85.9654 7.27777 84.9351 7.27777C83.618 7.27777 82.235 7.93996 82.235 9.41989C82.235 10.6908 83.2311 11.0741 84.2057 11.3075C85.2329 11.5469 85.5992 11.7215 85.5992 12.1354C85.5992 12.7453 84.907 12.845 84.669 12.845C84.0737 12.845 83.3837 12.5043 83.0115 12.0624L81.9067 13.1825C82.5101 13.852 83.5432 14.2546 84.6026 14.2546C86.3816 14.2546 87.4373 13.4065 87.4373 12.007C87.4373 10.668 86.1452 10.2177 85.2258 9.99741L85.2259 9.99724ZM81.7855 7.46309H79.4385L77.0889 10.1978H77.0484V3.83128H75.2287V14.0534H77.0484V10.8031H77.0889L79.5267 14.0534H81.9214L79.0884 10.4518L81.7855 7.46309ZM54.7995 7.27728C53.9671 7.27728 53.354 7.64115 52.775 8.18355H52.7409V3.83105H50.9215V14.0532H52.6615V13.1217H52.6888C53.099 13.7946 53.9143 14.2389 54.7598 14.2389C56.6383 14.2389 58.0625 12.7636 58.0625 10.7317C58.0625 8.73004 56.6553 7.27745 54.7997 7.27745L54.7995 7.27728ZM54.4417 12.6841C53.344 12.6841 52.6879 11.7046 52.6879 10.7579C52.6879 9.81896 53.3585 8.80535 54.4417 8.80535C55.6192 8.80535 56.2049 9.80363 56.2049 10.7315C56.2049 11.7017 55.5669 12.6838 54.4417 12.6838V12.6841ZM50.2367 7.46309H47.8896L45.54 10.1978H45.4995V3.83128H43.6797V14.0534H45.4995V10.8031H45.54L47.9778 14.0534H50.3725L47.5395 10.4518L50.2367 7.46309ZM70.4708 7.27752C68.4 7.27752 66.8971 8.73027 66.8971 10.7319C66.8971 12.803 68.4334 14.2568 70.4706 14.2568C72.5076 14.2568 74.044 12.789 74.044 10.7319C74.044 8.73027 72.5411 7.27769 70.4705 7.27769L70.4708 7.27752ZM70.4708 12.6841C69.2839 12.6841 68.7434 11.6719 68.7434 10.7315C68.7434 9.8038 69.2839 8.80535 70.4708 8.80535C71.6573 8.80535 72.1979 9.80363 72.1979 10.7315C72.1979 11.6719 71.6573 12.6838 70.4705 12.6838L70.4708 12.6841Z" fill="white"></path></mask><g mask="url(#mask0)"><path fill-rule="evenodd" clip-rule="evenodd" d="M16.5269 18.1508H90.6561V2.97949H16.5269V18.1508Z" fill="black"></path></g><mask id="mask1" maskUnits="userSpaceOnUse" x="0" y="0" width="16" height="16"><path fill-rule="evenodd" clip-rule="evenodd" d="M7.66599 15.3319C11.8998 15.3319 15.332 11.8997 15.332 7.66595C15.332 3.43217 11.8998 0 7.66599 0C3.43218 0 0 3.43217 0 7.66595C0 11.8997 3.43218 15.3319 7.66599 15.3319Z" fill="white"></path></mask><g mask="url(#mask1)"><path fill-rule="evenodd" clip-rule="evenodd" d="M-0.851562 16.1841H16.184V-0.851562H-0.851562V16.1841Z" fill="black"></path></g><mask id="mask2" maskUnits="userSpaceOnUse" x="2" y="2" width="12" height="11"><path fill-rule="evenodd" clip-rule="evenodd" d="M2.12891 7.66554C2.12891 9.31202 3.46364 10.6468 5.11013 10.6468H5.53602V9.53945H5.11013C4.07675 9.53945 3.23622 8.69891 3.23622 7.66554C3.23622 6.63233 4.07675 5.79162 5.11013 5.79162H6.13346V11.5837C6.13346 12.1953 6.62919 12.691 7.24077 12.691V4.68431H5.11013C3.46364 4.68431 2.12891 6.01922 2.12891 7.66554ZM10.2225 4.68492H9.79662V5.79225H10.2225C11.2555 5.79225 12.0964 6.63297 12.0964 7.66619C12.0964 8.69941 11.2555 9.54013 10.2225 9.54013H9.19867V3.74795C9.19867 3.13637 8.70294 2.64062 8.09137 2.64062V10.6475H10.2225C11.8688 10.6475 13.2037 9.3127 13.2037 7.66619C13.2037 6.01968 11.8688 4.68492 10.2225 4.68492Z" fill="white"></path></mask><g mask="url(#mask2)"><path fill-rule="evenodd" clip-rule="evenodd" d="M1.27734 13.543H14.0557V1.78906H1.27734V13.543Z" fill="white"></path></g></svg> 