<?xml version="1.0" encoding="UTF-8"?> <svg xmlns="http://www.w3.org/2000/svg" width="1921" height="1081" viewBox="0 0 1921 1081" fill="none"><path d="M1226.46 336.998C1669.63 336.998 1870.98 566.278 1919.96 634.499V91.4943C871.463 -102.504 279.463 294.497 133.963 1080.5H263.495C379.461 616.046 779.996 336.998 1226.46 336.998Z" fill="url(#paint0_linear)"></path><path d="M256.5 1080.62H430.963C541.463 1080.62 881.463 1080.62 768.963 863.5C656.463 646.377 1699.96 682.121 1920 1080.62V682.121C1324 206.121 500 491.623 256.5 1080.62Z" fill="url(#paint1_linear)"></path><path d="M0.00195312 1080.62H141.5C656.044 -744.545 1919.58 819.535 1919.58 0C1393.01 0 1141.39 0.623028 608.963 0.621094C242.963 143 50.502 585.502 0.00195312 741.502L0.00225868 855.286C0.00260158 949.612 0.00298523 1055.15 0.00195312 1080.62Z" fill="url(#paint2_linear)"></path><path d="M1271.07 466.312C1694.5 466.312 1891.5 683.152 1920 698.623V628.002C1633.46 246.5 906.965 210.158 614.502 502.624C322.039 795.089 265.465 979.622 231.465 1080.62H281.002C314.502 1005.12 395.957 856.246 492.502 762.123C632.002 626.123 847.645 466.312 1271.07 466.312Z" fill="url(#paint3_linear)"></path><defs><linearGradient id="paint0_linear" x1="74.5148" y1="1057.52" x2="1935.36" y2="430.873" gradientUnits="userSpaceOnUse"><stop offset="0.114583" stop-color="#64003C"></stop><stop offset="0.494792" stop-color="#C9007A"></stop><stop offset="1" stop-color="#FF8979" stop-opacity="0.7"></stop></linearGradient><linearGradient id="paint1_linear" x1="1066.61" y1="460.036" x2="1166.93" y2="961.272" gradientUnits="userSpaceOnUse"><stop offset="0.25" stop-color="#64003C"></stop><stop offset="0.598958" stop-color="#C9007A" stop-opacity="0.7"></stop><stop offset="1" stop-color="#FF8979" stop-opacity="0.5"></stop></linearGradient><linearGradient id="paint2_linear" x1="0.00394728" y1="1081.12" x2="1866.08" y2="-85.6298" gradientUnits="userSpaceOnUse"><stop stop-color="#64003C"></stop><stop offset="0.250558" stop-color="#C9007A" stop-opacity="0.4"></stop><stop offset="1" stop-color="#FF8979"></stop></linearGradient><linearGradient id="paint3_linear" x1="1049.13" y1="336.418" x2="1049.01" y2="1140.94" gradientUnits="userSpaceOnUse"><stop stop-color="#44103F"></stop><stop offset="1" stop-color="#64003C"></stop></linearGradient></defs></svg> 