<svg width="246" height="66" viewBox="0 0 246 66" fill="none" xmlns="http://www.w3.org/2000/svg">
<rect x="0.5" y="26.5" width="245" height="39" fill="white" stroke="#6B6C72"/>
<path d="M236 43L231 48L226 43" stroke="#6B6C72" stroke-width="1.2"/>
<path d="M10.59 6.348C9.806 5.312 8.28 4.836 6.992 4.836C3.94 4.836 1.616 6.838 1.616 10.016C1.616 13.11 3.814 15.252 6.908 15.252C8.588 15.252 9.876 14.608 10.744 13.516L9.33 12.522C8.826 13.208 7.986 13.67 6.922 13.67C4.878 13.67 3.562 12.172 3.562 10.016C3.562 7.972 4.948 6.39 6.992 6.39C7.79 6.39 8.728 6.698 9.246 7.412L10.59 6.348ZM17.888 8.28H16.208V11.976C16.208 12.872 15.704 13.796 14.64 13.796C13.562 13.796 13.38 12.802 13.38 12.004V8.28H11.7V12.48C11.7 13.852 12.428 15.196 14.178 15.196C15.172 15.196 15.97 14.594 16.264 13.922H16.292V15H17.888V8.28ZM24.6785 9.106C24.1325 8.42 23.1245 8.084 22.1585 8.084C20.8285 8.084 19.4845 8.728 19.4845 10.226C19.4845 11.486 20.4785 11.892 21.4725 12.13C22.4945 12.368 23.0125 12.536 23.0125 13.096C23.0125 13.698 22.4245 13.894 21.9345 13.894C21.2065 13.894 20.5765 13.53 20.2125 13.054L19.1065 14.09C19.7505 14.804 20.8285 15.196 21.8645 15.196C23.3345 15.196 24.6645 14.594 24.6645 12.956C24.6645 11.64 23.4885 11.192 22.4945 10.954C21.5565 10.73 21.0385 10.59 21.0385 10.072C21.0385 9.54 21.5845 9.344 22.1165 9.344C22.7325 9.344 23.2925 9.68 23.5865 10.072L24.6785 9.106ZM26.3352 9.624V12.76C26.3352 14.048 26.7412 15.14 28.5192 15.14C28.8972 15.14 29.3452 15.07 29.6392 14.958L29.5832 13.642C29.3872 13.74 29.0932 13.782 28.8692 13.782C28.1272 13.782 27.9872 13.348 27.9872 12.746V9.624H29.6672V8.28H27.9872V6.334H26.3352V8.28H25.1592V9.624H26.3352ZM30.491 11.612C30.491 13.726 32.115 15.196 34.145 15.196C36.175 15.196 37.799 13.726 37.799 11.612C37.799 9.498 36.175 8.084 34.145 8.084C32.115 8.084 30.491 9.498 30.491 11.612ZM32.199 11.612C32.199 10.562 32.815 9.456 34.145 9.456C35.475 9.456 36.091 10.562 36.091 11.612C36.091 12.662 35.475 13.796 34.145 13.796C32.815 13.796 32.199 12.662 32.199 11.612ZM47.4499 8.084C46.4419 8.084 45.6859 8.546 45.2379 9.358C44.8599 8.602 44.1739 8.084 43.1379 8.084C42.0599 8.084 41.3459 8.7 41.0519 9.358H41.0239V8.28H39.4279V15H41.1079V11.304C41.1079 10.408 41.5699 9.484 42.5779 9.484C43.4319 9.484 43.8239 10.114 43.8239 10.94V15H45.5039V11.332C45.5039 10.464 45.9379 9.484 46.9879 9.484C48.0659 9.484 48.2479 10.478 48.2479 11.276V15H49.9279V10.8C49.9279 9.428 49.1999 8.084 47.4499 8.084ZM53.171 10.968C53.241 10.03 54.039 9.344 55.033 9.344C56.125 9.344 56.615 10.1 56.615 10.968H53.171ZM58.295 11.724C58.295 9.302 56.923 8.084 55.047 8.084C53.017 8.084 51.491 9.512 51.491 11.682C51.491 13.866 53.031 15.196 55.103 15.196C56.377 15.196 57.329 14.748 57.987 13.852L56.867 12.956C56.489 13.488 55.929 13.824 55.089 13.824C54.109 13.824 53.241 13.124 53.171 12.172H58.281C58.295 12.018 58.295 11.878 58.295 11.724ZM59.9221 15H61.6021V11.402C61.6021 10.912 61.8961 9.596 63.4081 9.596C63.5621 9.596 63.7021 9.61 63.9261 9.666V8.126C63.8141 8.098 63.6461 8.084 63.5201 8.084C62.6381 8.084 61.9241 8.63 61.5601 9.4H61.5321V8.28H59.9221V15ZM72.9177 4.836L71.7557 4.388L67.3877 15.252L68.5497 15.672L72.9177 4.836ZM77.5471 15H79.3111V10.898H80.6691C82.7691 10.898 84.5191 10.142 84.5191 7.958C84.5191 5.886 83.0491 5.088 80.7811 5.088H77.5471V15ZM79.3111 9.414V6.572H80.5991C81.6911 6.572 82.7411 6.782 82.7411 7.958C82.7411 9.134 81.6911 9.414 80.5431 9.414H79.3111ZM85.3654 15H87.0454V11.402C87.0454 10.912 87.3394 9.596 88.8514 9.596C89.0054 9.596 89.1454 9.61 89.3694 9.666V8.126C89.2574 8.098 89.0894 8.084 88.9634 8.084C88.0814 8.084 87.3674 8.63 87.0034 9.4H86.9754V8.28H85.3654V15ZM89.8269 11.612C89.8269 13.726 91.4509 15.196 93.4809 15.196C95.5109 15.196 97.1349 13.726 97.1349 11.612C97.1349 9.498 95.5109 8.084 93.4809 8.084C91.4509 8.084 89.8269 9.498 89.8269 11.612ZM91.5349 11.612C91.5349 10.562 92.1509 9.456 93.4809 9.456C94.8109 9.456 95.4269 10.562 95.4269 11.612C95.4269 12.662 94.8109 13.796 93.4809 13.796C92.1509 13.796 91.5349 12.662 91.5349 11.612ZM98.7919 8.28V15.476C98.7919 16.246 98.6799 16.904 97.8819 16.904C97.7559 16.904 97.5739 16.89 97.4199 16.848L97.2799 18.276C97.4479 18.318 97.7559 18.36 98.0359 18.36C100.038 18.36 100.472 17.016 100.472 15.406V8.28H98.7919ZM98.5539 5.998C98.5539 6.53 99.0019 7.006 99.6179 7.006C100.234 7.006 100.71 6.572 100.71 5.998C100.71 5.424 100.234 4.99 99.6179 4.99C99.0019 4.99 98.5539 5.466 98.5539 5.998ZM103.798 10.968C103.868 10.03 104.666 9.344 105.66 9.344C106.752 9.344 107.242 10.1 107.242 10.968H103.798ZM108.922 11.724C108.922 9.302 107.55 8.084 105.674 8.084C103.644 8.084 102.118 9.512 102.118 11.682C102.118 13.866 103.658 15.196 105.73 15.196C107.004 15.196 107.956 14.748 108.614 13.852L107.494 12.956C107.116 13.488 106.556 13.824 105.716 13.824C104.736 13.824 103.868 13.124 103.798 12.172H108.908C108.922 12.018 108.922 11.878 108.922 11.724ZM116.289 9.134C115.757 8.476 114.735 8.084 113.755 8.084C111.781 8.084 110.157 9.456 110.157 11.64C110.157 13.88 111.809 15.196 113.797 15.196C114.791 15.196 115.715 14.86 116.275 14.258L115.225 13.194C114.903 13.586 114.329 13.796 113.811 13.796C112.537 13.796 111.907 12.69 111.907 11.64C111.907 10.59 112.523 9.484 113.755 9.484C114.301 9.484 114.875 9.764 115.141 10.142L116.289 9.134ZM117.595 9.624V12.76C117.595 14.048 118.001 15.14 119.779 15.14C120.157 15.14 120.605 15.07 120.899 14.958L120.843 13.642C120.647 13.74 120.353 13.782 120.129 13.782C119.387 13.782 119.247 13.348 119.247 12.746V9.624H120.927V8.28H119.247V6.334H117.595V8.28H116.419V9.624H117.595Z" fill="#393A3D"/>
</svg>
