<?xml version="1.0" encoding="UTF-8"?> <svg xmlns="http://www.w3.org/2000/svg" width="1548" height="372" viewBox="0 0 1548 372" fill="none"><path d="M1054 381V11C1042.41 12.2283 1031.33 14.2638 1020 17C1018.89 17.4804 1017.33 17.8273 1016.16 18.1305C976.999 28.5205 939.651 43.1662 900.404 53.2393C864.024 62.8775 826.604 68.039 788.974 68.6093C733.847 68.9489 677.951 53.8958 623.706 45.6562C521.347 30.1051 421.023 13.7166 317.578 31.8482C205.854 51.4285 106.503 77.9353 -4 87.4425V381H1054Z" fill="#009490"></path><path d="M1790.42 381V4.52995e-05C1778.84 1.22835 1767.34 3.21708 1756.02 5.95338C1754.9 6.4337 1753.75 6.82727 1752.58 7.1305C1713.42 17.5205 1676.07 32.1662 1636.83 42.2393C1600.45 51.8775 1563.03 57.039 1525.4 57.6093C1470.27 57.9489 1414.37 42.8958 1360.13 34.6562C1257.77 19.1051 1157.45 -7.13155 1054 11C1054 50.6519 1054 53.5 1054 79V381H1790.42Z" fill="#009490"></path><path d="M-1058.58 381V11C-1046.99 12.2283 -1035.9 14.2638 -1024.58 17C-1023.46 17.4804 -1021.91 17.8273 -1020.73 18.1305C-981.577 28.5205 -944.23 43.1662 -904.982 53.2393C-868.602 62.8775 -831.182 68.039 -793.552 68.6093C-738.425 68.9489 -682.529 53.8958 -628.284 45.6562C-525.925 30.1051 -425.601 13.7166 -322.156 31.8482C-210.432 51.4285 -111.081 77.9353 -0.578125 87.4425V381H-1058.58Z" fill="#009490"></path><path d="M-1795 381V4.52995e-05C-1783.41 1.22835 -1771.92 3.21708 -1760.59 5.95338C-1759.48 6.4337 -1758.33 6.82727 -1757.16 7.1305C-1718 17.5205 -1680.65 32.1662 -1641.4 42.2393C-1605.02 51.8775 -1567.6 57.039 -1529.97 57.6093C-1474.85 57.9489 -1418.95 42.8958 -1364.71 34.6562C-1262.35 19.1051 -1162.02 -7.13155 -1058.58 11C-1058.58 50.6519 -1058.58 53.5 -1058.58 79V381H-1795Z" fill="#009490"></path><path d="M2621.42 381V11C2633.01 12.2283 2644.1 14.2638 2655.42 17C2656.54 17.4804 2658.09 17.8273 2659.27 18.1305C2698.42 28.5205 2735.77 43.1662 2775.02 53.2393C2811.4 62.8775 2848.82 68.039 2886.45 68.6093C2941.57 68.9489 2997.47 53.8958 3051.72 45.6562C3154.08 30.1051 3254.4 13.7166 3357.84 31.8482C3469.57 51.4285 3568.92 77.9353 3679.42 87.4425V381H2621.42Z" fill="#009490"></path><path d="M1885 381V4.52995e-05C1896.59 1.22835 1908.08 3.21708 1919.41 5.95338C1920.52 6.4337 1921.67 6.82727 1922.84 7.1305C1962 17.5205 1999.35 32.1662 2038.6 42.2393C2074.98 51.8775 2112.4 57.039 2150.03 57.6093C2205.15 57.9489 2261.05 42.8958 2315.29 34.6562C2417.65 19.1051 2517.98 -7.13155 2621.42 11C2621.42 50.6519 2621.42 53.5 2621.42 79V381H1885Z" fill="#009490"></path><path d="M1790 0.100046C1820.72 -5.91249 1852.31 -6.06687 1883.09 -0.354992L1885 4.52995e-05V381H1790V0.100046Z" fill="#009490"></path></svg> 