<?xml version="1.0" encoding="UTF-8"?> <svg xmlns="http://www.w3.org/2000/svg" width="21" height="20" viewBox="0 0 21 20" fill="none"><path d="M18.0819 2.94001C17.1571 2.007 16.0564 1.26674 14.8435 0.762081C13.6306 0.257424 12.3296 -0.0016009 11.0159 7.44413e-06H10.9999C8.34778 -0.00211429 5.8034 1.04942 3.92654 2.92328C2.04967 4.79715 0.994068 7.33984 0.991947 9.99201C0.989825 12.6442 2.04136 15.1886 3.91522 17.0654C5.78909 18.9423 8.33178 19.9979 10.9839 20H10.9999C12.9764 20 14.9086 19.4143 16.5524 18.3168C18.1961 17.2194 19.4779 15.6594 20.2357 13.834C20.9934 12.0086 21.1933 9.99953 20.81 8.06058C20.4266 6.12164 19.4773 4.33977 18.0819 2.94001ZM13.8259 11.418C13.9213 11.5104 13.9973 11.6208 14.0496 11.7429C14.1018 11.865 14.1292 11.9963 14.1302 12.129C14.1311 12.2618 14.1056 12.3934 14.0552 12.5163C14.0047 12.6391 13.9303 12.7506 13.8363 12.8444C13.7423 12.9381 13.6305 13.0122 13.5075 13.0623C13.3846 13.1124 13.2529 13.1376 13.1201 13.1362C12.9873 13.1349 12.8562 13.1071 12.7342 13.0545C12.6123 13.002 12.5021 12.9256 12.4099 12.83L10.9999 11.414L9.58395 12.826C9.49097 12.9189 9.38062 12.9925 9.25919 13.0427C9.13776 13.0929 9.00764 13.1187 8.87624 13.1186C8.74484 13.1185 8.61475 13.0925 8.4934 13.0421C8.37204 12.9918 8.26179 12.918 8.16895 12.825C7.98144 12.6372 7.8762 12.3827 7.87639 12.1173C7.87648 11.9859 7.90246 11.8558 7.95282 11.7345C8.00319 11.6131 8.07697 11.5029 8.16995 11.41L9.58595 10L8.17395 8.58101C8.07858 8.48862 8.00256 8.37817 7.95033 8.2561C7.8981 8.13402 7.8707 8.00277 7.86974 7.86999C7.86878 7.73721 7.89427 7.60557 7.94473 7.48275C7.99518 7.35993 8.06959 7.24839 8.16361 7.15464C8.25763 7.06088 8.36938 6.98679 8.49235 6.93668C8.61531 6.88657 8.74702 6.86146 8.87979 6.86279C9.01256 6.86413 9.14374 6.8919 9.26567 6.94447C9.3876 6.99705 9.49783 7.07338 9.58995 7.16901L10.9999 8.58601L12.4159 7.17401C12.6037 6.9865 12.8583 6.88126 13.1237 6.88145C13.389 6.88164 13.6434 6.98723 13.8309 7.17501C14.0185 7.36278 14.1237 7.61735 14.1235 7.88271C14.1233 8.14808 14.0177 8.4025 13.8299 8.59001L12.4139 10L13.8259 11.418Z" fill="#F25A52"></path></svg> 