<?xml version="1.0" encoding="UTF-8"?> <svg xmlns="http://www.w3.org/2000/svg" width="1306" height="327" viewBox="0 0 1306 327" fill="none"><path d="M0.00122393 326.5C0.000408222 326.288 0 326.075 0 325.862C0 236.054 72.804 163.25 162.612 163.25C162.825 163.25 163.038 163.25 163.25 163.251V326.5H0.00122393Z" fill="url(#paint0_linear)"></path><path d="M163.888 326.5C253.696 326.5 326.5 253.696 326.5 163.888C326.5 163.675 326.5 163.462 326.499 163.25H163.25V326.499C163.462 326.5 163.675 326.5 163.888 326.5Z" fill="url(#paint1_linear)"></path><path d="M326.501 163.25H489.75V326.499C489.538 326.5 489.325 326.5 489.112 326.5C399.304 326.5 326.5 253.696 326.5 163.888C326.5 163.675 326.5 163.462 326.501 163.25Z" fill="url(#paint2_linear)"></path><path d="M490.388 326.5C580.196 326.5 653 253.696 653 163.888C653 163.675 653 163.462 652.999 163.25H489.75V326.499C489.962 326.5 490.175 326.5 490.388 326.5Z" fill="url(#paint3_linear)"></path><path d="M489.749 0C489.75 0.212465 489.75 0.425036 489.75 0.637695C489.75 90.446 416.946 163.25 327.138 163.25C326.925 163.25 326.712 163.25 326.5 163.249L327.138 163.25H489.75V0.637695L489.749 0Z" fill="url(#paint4_linear)"></path><path d="M489.751 0H653V163.249C652.788 163.25 652.575 163.25 652.362 163.25C562.554 163.25 489.75 90.446 489.75 0.637695C489.75 0.425036 489.75 0.212465 489.751 0Z" fill="url(#paint5_linear)"></path><path d="M816.249 163.25C816.25 163.038 816.25 162.825 816.25 162.612C816.25 72.804 743.446 0 653.638 0C653.425 0 653.212 0.000408222 653 0.00122393V163.25H816.249Z" fill="url(#paint6_linear)"></path><path d="M816.251 163.25H979.5V326.499C979.288 326.5 979.075 326.5 978.862 326.5C889.054 326.5 816.25 253.696 816.25 163.888C816.25 163.675 816.25 163.462 816.251 163.25Z" fill="url(#paint7_linear)"></path><path d="M816.251 163.25C816.25 163.038 816.25 162.825 816.25 162.612C816.25 72.804 889.054 0 978.862 0C979.075 0 979.288 0.000408222 979.5 0.00122393V163.25H816.251Z" fill="url(#paint8_linear)"></path><path d="M979.501 163.25H1142.75V326.499C1142.54 326.5 1142.32 326.5 1142.11 326.5C1052.3 326.5 979.5 253.696 979.5 163.888C979.5 163.675 979.5 163.462 979.501 163.25Z" fill="url(#paint9_linear)"></path><path d="M979.5 0V0.637694V163.25H1142.11H1142.75C1142.68 163.25 1142.61 163.249 1142.54 163.249C1142.4 163.249 1142.25 163.25 1142.11 163.25C1052.3 163.25 979.5 90.4458 979.5 0.637694C979.5 0.425035 979.5 0.212464 979.5 0Z" fill="url(#paint10_linear)"></path><path d="M1306 326.5C1306 326.288 1306 326.075 1306 325.862C1306 236.054 1233.2 163.25 1143.39 163.25C1143.18 163.25 1142.96 163.25 1142.75 163.251V326.5H1306Z" fill="url(#paint11_linear)"></path><defs><linearGradient id="paint0_linear" x1="81.625" y1="163.25" x2="81.625" y2="326.5" gradientUnits="userSpaceOnUse"><stop stop-color="white" stop-opacity="0.75"></stop><stop offset="1" stop-color="white" stop-opacity="0.4"></stop></linearGradient><linearGradient id="paint1_linear" x1="244.875" y1="163.25" x2="244.875" y2="326.5" gradientUnits="userSpaceOnUse"><stop stop-color="white" stop-opacity="0.75"></stop><stop offset="1" stop-color="white" stop-opacity="0.4"></stop></linearGradient><linearGradient id="paint2_linear" x1="408.125" y1="163.25" x2="408.125" y2="326.5" gradientUnits="userSpaceOnUse"><stop stop-color="white" stop-opacity="0.4"></stop><stop offset="1" stop-color="white" stop-opacity="0.25"></stop></linearGradient><linearGradient id="paint3_linear" x1="571.375" y1="163.25" x2="571.375" y2="326.5" gradientUnits="userSpaceOnUse"><stop stop-color="white" stop-opacity="0.4"></stop><stop offset="1" stop-color="white" stop-opacity="0.25"></stop></linearGradient><linearGradient id="paint4_linear" x1="408.125" y1="0" x2="408.125" y2="163.25" gradientUnits="userSpaceOnUse"><stop stop-color="white" stop-opacity="0.75"></stop><stop offset="1" stop-color="white" stop-opacity="0.4"></stop></linearGradient><linearGradient id="paint5_linear" x1="571.375" y1="0" x2="571.375" y2="163.25" gradientUnits="userSpaceOnUse"><stop stop-color="white" stop-opacity="0.4"></stop><stop offset="1" stop-color="white" stop-opacity="0.25"></stop></linearGradient><linearGradient id="paint6_linear" x1="734.625" y1="0" x2="734.625" y2="163.25" gradientUnits="userSpaceOnUse"><stop stop-color="white" stop-opacity="0.75"></stop><stop offset="1" stop-color="white" stop-opacity="0.4"></stop></linearGradient><linearGradient id="paint7_linear" x1="897.875" y1="163.25" x2="897.875" y2="326.5" gradientUnits="userSpaceOnUse"><stop stop-color="white" stop-opacity="0.75"></stop><stop offset="1" stop-color="white" stop-opacity="0.4"></stop></linearGradient><linearGradient id="paint8_linear" x1="897.875" y1="0" x2="897.875" y2="163.25" gradientUnits="userSpaceOnUse"><stop stop-color="white" stop-opacity="0.4"></stop><stop offset="1" stop-color="white" stop-opacity="0.25"></stop></linearGradient><linearGradient id="paint9_linear" x1="1061.12" y1="163.25" x2="1061.12" y2="326.5" gradientUnits="userSpaceOnUse"><stop stop-color="white" stop-opacity="0.4"></stop><stop offset="1" stop-color="white" stop-opacity="0.25"></stop></linearGradient><linearGradient id="paint10_linear" x1="1061.12" y1="0" x2="1061.12" y2="163.25" gradientUnits="userSpaceOnUse"><stop stop-color="white" stop-opacity="0.75"></stop><stop offset="1" stop-color="white" stop-opacity="0.4"></stop></linearGradient><linearGradient id="paint11_linear" x1="1224.38" y1="163.25" x2="1224.38" y2="326.5" gradientUnits="userSpaceOnUse"><stop stop-color="white" stop-opacity="0.75"></stop><stop offset="1" stop-color="white" stop-opacity="0.4"></stop></linearGradient></defs></svg> 