<?xml version="1.0" encoding="UTF-8"?> <svg xmlns="http://www.w3.org/2000/svg" width="30" height="30" viewBox="0 0 30 30" fill="none"><circle cx="15" cy="15" r="15" fill="#ECEEF1"></circle><path d="M24.7071 12.912L17.0881 5.29298C16.8995 5.11082 16.6469 5.01003 16.3847 5.01231C16.1225 5.01458 15.8717 5.11975 15.6863 5.30516C15.5009 5.49057 15.3957 5.74138 15.3934 6.00358C15.3911 6.26578 15.4919 6.51838 15.6741 6.70698L16.4911 7.52398L13.0911 10.924C12.1679 10.5071 11.1398 10.3804 10.143 10.5608C9.14618 10.7411 8.22767 11.22 7.50908 11.934L7.29008 12.153C7.10261 12.3405 6.99729 12.5948 6.99729 12.86C6.99729 13.1251 7.10261 13.3795 7.29008 13.567L11.1541 17.431L6.29308 22.293C6.19757 22.3852 6.12139 22.4956 6.06898 22.6176C6.01657 22.7396 5.98898 22.8708 5.98783 23.0036C5.98668 23.1364 6.01198 23.268 6.06226 23.3909C6.11254 23.5138 6.18679 23.6255 6.28069 23.7194C6.37458 23.8133 6.48623 23.8875 6.60913 23.9378C6.73202 23.9881 6.8637 24.0134 6.99648 24.0122C7.12926 24.0111 7.26048 23.9835 7.38249 23.9311C7.50449 23.8787 7.61483 23.8025 7.70708 23.707L12.5711 18.842L16.4361 22.707C16.6235 22.8938 16.8774 22.9988 17.1421 22.9988C17.4068 22.9988 17.6606 22.8938 17.8481 22.707L18.0691 22.486C18.7831 21.7674 19.2619 20.8489 19.4423 19.8521C19.6227 18.8553 19.496 17.8272 19.0791 16.904L22.4791 13.504L23.2951 14.321C23.4837 14.5031 23.7363 14.6039 23.9985 14.6017C24.2607 14.5994 24.5115 14.4942 24.6969 14.3088C24.8823 14.1234 24.9875 13.8726 24.9898 13.6104C24.992 13.3482 24.8912 13.0956 24.7091 12.907L24.7071 12.912ZM17.0871 20.529L9.47108 12.914C10.0465 12.5594 10.7246 12.4091 11.3959 12.4873C12.0672 12.5655 12.6926 12.8676 13.1711 13.345L16.6621 16.837C17.1361 17.3159 17.4356 17.9401 17.5127 18.6095C17.5897 19.2789 17.4399 19.9549 17.0871 20.529ZM17.9051 15.252L14.7471 12.1L17.9001 8.93798L21.0621 12.1L17.9051 15.252Z" fill="#6B6C72"></path></svg> 