<?xml version="1.0" encoding="UTF-8"?> <svg xmlns="http://www.w3.org/2000/svg" width="968" height="541" viewBox="0 0 968 541" fill="none"><path d="M618.341 165.903C841.771 165.903 943.283 281.499 967.98 315.893V42.1282C439.361 -55.6792 140.895 144.475 67.5386 540.751H132.845C191.311 306.59 393.247 165.903 618.341 165.903Z" fill="url(#paint0_linear)"></path><path d="M129.319 540.814H217.277C272.988 540.814 444.404 540.814 387.686 431.348C330.967 321.882 857.065 339.903 968 540.814V339.903C667.517 99.9192 252.083 243.86 129.319 540.814Z" fill="url(#paint1_linear)"></path><path d="M0 540.813H71.3384C352 -318.5 967.789 413.182 967.789 0C519 0 118.449 3.93991 0 369.841L0.000154052 427.207C0.000326927 474.763 0.000520352 527.972 0 540.813Z" fill="url(#paint2_linear)"></path><path d="M640.831 231.099C854.309 231.099 953.63 340.422 967.999 348.222V312.617C823.536 120.277 457.259 101.955 309.809 249.406C162.359 396.857 133.836 489.892 116.695 540.814H141.67C158.559 502.749 199.626 427.691 248.301 380.237C318.632 311.67 427.352 231.099 640.831 231.099Z" fill="url(#paint3_linear)"></path><defs><linearGradient id="paint0_linear" x1="37.5668" y1="529.168" x2="975.745" y2="213.232" gradientUnits="userSpaceOnUse"><stop offset="0.114583" stop-color="#64003C"></stop><stop offset="0.494792" stop-color="#C9007A"></stop><stop offset="1" stop-color="#FF8979" stop-opacity="0.7"></stop></linearGradient><linearGradient id="paint1_linear" x1="537.747" y1="227.935" x2="588.328" y2="480.641" gradientUnits="userSpaceOnUse"><stop offset="0.25" stop-color="#64003C"></stop><stop offset="0.598958" stop-color="#C9007A" stop-opacity="0.7"></stop><stop offset="1" stop-color="#FF8979" stop-opacity="0.5"></stop></linearGradient><linearGradient id="paint2_linear" x1="0.000912981" y1="541.064" x2="940.815" y2="-47.1736" gradientUnits="userSpaceOnUse"><stop stop-color="#64003C"></stop><stop offset="0.250558" stop-color="#C9007A" stop-opacity="0.4"></stop><stop offset="1" stop-color="#FF8979"></stop></linearGradient><linearGradient id="paint3_linear" x1="528.932" y1="165.611" x2="528.872" y2="571.224" gradientUnits="userSpaceOnUse"><stop stop-color="#44103F"></stop><stop offset="1" stop-color="#64003C"></stop></linearGradient></defs></svg> 