<?xml version="1.0" encoding="UTF-8"?> <svg xmlns="http://www.w3.org/2000/svg" width="20" height="20" viewBox="0 0 20 20" fill="none"><path d="M19.7071 7.91192L12.0881 0.292919C11.8995 0.110761 11.6469 0.00996641 11.3847 0.0122448C11.1225 0.0145233 10.8717 0.119692 10.6863 0.3051C10.5009 0.490508 10.3957 0.741321 10.3934 1.00352C10.3911 1.26571 10.4919 1.51832 10.6741 1.70692L11.4911 2.52392L8.09108 5.92392C7.16787 5.507 6.13979 5.38034 5.14299 5.5607C4.14618 5.74106 3.22767 6.21994 2.50908 6.93392L2.29008 7.15292C2.10261 7.34045 1.99729 7.59475 1.99729 7.85992C1.99729 8.12508 2.10261 8.37939 2.29008 8.56692L6.15408 12.4309L1.29308 17.2929C1.19757 17.3852 1.12139 17.4955 1.06898 17.6175C1.01657 17.7395 0.988985 17.8707 0.987831 18.0035C0.986677 18.1363 1.01198 18.268 1.06226 18.3909C1.11254 18.5138 1.18679 18.6254 1.28069 18.7193C1.37458 18.8132 1.48623 18.8875 1.60913 18.9377C1.73202 18.988 1.8637 19.0133 1.99648 19.0122C2.12926 19.011 2.26048 18.9834 2.38249 18.931C2.50449 18.8786 2.61483 18.8024 2.70708 18.7069L7.57108 13.8419L11.4361 17.7069C11.6235 17.8938 11.8774 17.9987 12.1421 17.9987C12.4068 17.9987 12.6606 17.8938 12.8481 17.7069L13.0691 17.4859C13.7831 16.7673 14.2619 15.8488 14.4423 14.852C14.6227 13.8552 14.496 12.8271 14.0791 11.9039L17.4791 8.50392L18.2951 9.32092C18.4837 9.50308 18.7363 9.60387 18.9985 9.60159C19.2607 9.59931 19.5115 9.49415 19.6969 9.30874C19.8823 9.12333 19.9875 8.87252 19.9898 8.61032C19.992 8.34812 19.8912 8.09552 19.7091 7.90692L19.7071 7.91192ZM12.0871 15.5289L4.47108 7.91392C5.04647 7.55935 5.72456 7.40903 6.39589 7.48723C7.06721 7.56543 7.6926 7.86759 8.17108 8.34492L11.6621 11.8369C12.1361 12.3159 12.4356 12.94 12.5127 13.6095C12.5897 14.2789 12.4399 14.9548 12.0871 15.5289ZM12.9051 10.2519L9.74708 7.09992L12.9001 3.93792L16.0621 7.09992L12.9051 10.2519Z" fill="#6B6C72"></path></svg> 