<svg width="30" height="30" viewBox="0 0 30 30" fill="none" xmlns="http://www.w3.org/2000/svg">
<circle cx="15" cy="15" r="14" stroke="#6B6C72" stroke-width="2"/>
<path d="M22.761 14.251C22.5734 14.0635 22.3191 13.9582 22.054 13.9582C21.7888 13.9582 21.5345 14.0635 21.347 14.251L15.976 19.606L15.992 8.02002C15.992 7.7548 15.8866 7.50045 15.6991 7.31291C15.5115 7.12538 15.2572 7.02002 14.992 7.02002C14.7268 7.02002 14.4724 7.12538 14.2849 7.31291C14.0973 7.50045 13.992 7.7548 13.992 8.02002L13.976 19.6L8.61897 14.23C8.52619 14.1368 8.41597 14.0629 8.2946 14.0123C8.17322 13.9617 8.04308 13.9355 7.91159 13.9353C7.7801 13.935 7.64985 13.9606 7.52826 14.0107C7.40668 14.0607 7.29614 14.1342 7.20297 14.227C7.1098 14.3198 7.03581 14.43 6.98523 14.5514C6.93466 14.6728 6.90848 14.8029 6.90821 14.9344C6.90764 15.1999 7.01259 15.4548 7.19997 15.643L14.261 22.724C14.3537 22.8171 14.4639 22.8909 14.5852 22.9414C14.7065 22.9918 14.8366 23.0179 14.968 23.018C15.2327 23.018 15.4866 22.913 15.674 22.726L22.755 15.666C22.8483 15.5735 22.9226 15.4636 22.9734 15.3424C23.0242 15.2212 23.0507 15.0912 23.0513 14.9598C23.0518 14.8283 23.0265 14.6981 22.9767 14.5765C22.9268 14.4549 22.8536 14.3443 22.761 14.251Z" fill="#6B6C72"/>
</svg>
