<svg width="221" height="55" viewBox="0 0 221 55" fill="none" xmlns="http://www.w3.org/2000/svg">
<path fill-rule="evenodd" clip-rule="evenodd" d="M178.351 44.4626V45.9175H176.76V48.8046C176.76 49.353 176.949 49.726 177.48 49.726C177.816 49.726 178.096 49.6508 178.278 49.5904L178.322 51.0145C178.035 51.1237 177.553 51.2014 177.171 51.2014C175.215 51.2014 174.967 49.8343 174.967 48.8179V45.9175H173.854V44.4626H174.967V42.6206H176.76V44.4626H178.351ZM165.202 51.0529H163.383V44.4625H165.202V51.0529ZM159.221 44.2771C158.314 44.2771 157.624 44.7547 157.16 45.4689C156.841 44.9359 156.18 44.2771 155.099 44.2771C154.19 44.2771 153.43 44.9687 153.08 45.4651H153.053V44.4626H151.313V51.0531H153.133V47.4397C153.133 46.6393 153.56 45.8318 154.442 45.8318C155.403 45.8318 155.563 46.7153 155.563 47.0952V51.0531H157.383V47.4663C157.383 46.6527 157.845 45.8318 158.736 45.8318C159.596 45.8318 159.826 46.5859 159.826 47.4133V51.0531H161.645V46.9626C161.645 45.7237 161.037 44.2771 159.221 44.2771ZM168.499 45.4651C168.86 44.9674 169.559 44.2771 170.512 44.2771C172.328 44.2771 172.902 45.7237 172.902 46.9626V51.0531H171.082V47.4133C171.082 46.6234 170.845 45.8318 169.962 45.8318C169.022 45.8318 168.551 46.6653 168.551 47.4397V51.0531H166.732V44.4626H168.472V45.4651H168.499Z" fill="black"/>
<path d="M140.666 52.3319C144.9 52.3319 148.332 48.8997 148.332 44.666C148.332 40.4322 144.9 37 140.666 37C136.432 37 133 40.4322 133 44.666C133 48.8997 136.432 52.3319 140.666 52.3319Z" fill="black"/>
<path fill-rule="evenodd" clip-rule="evenodd" d="M136.699 45.9741C136.699 43.1985 140.161 39.6352 140.666 39.1289C141.171 39.6352 144.632 43.1985 144.632 45.9741C144.632 47.638 143.515 48.3654 141.735 49.525C141.401 49.7425 141.044 49.9753 140.666 50.2323C140.288 49.9753 139.931 49.7425 139.597 49.525C137.816 48.3654 136.699 47.638 136.699 45.9741ZM140.201 48.5969C140.325 48.6775 140.451 48.7603 140.579 48.844V40.8491C139.293 42.3243 137.807 44.4413 137.807 45.974C137.807 46.9331 138.291 47.3532 140.201 48.5969Z" fill="white"/>
<path d="M34.9445 44.2782C32.8737 44.2782 31.3707 45.731 31.3707 47.7327C31.3707 49.8041 32.9071 51.2579 34.9445 51.2579C36.9819 51.2579 38.5182 49.7902 38.5182 47.7327C38.5182 45.731 37.0153 44.2782 34.9445 44.2782ZM34.9445 49.6854C33.7578 49.6854 33.2171 48.6732 33.2171 47.7327C33.2171 46.805 33.7578 45.8065 34.9445 45.8065C36.1314 45.8065 36.6719 46.805 36.6719 47.7327C36.6719 48.6732 36.1314 49.6854 34.9445 49.6854ZM72.4635 44.2622C70.2665 44.2622 68.8922 45.7623 68.8922 47.7989C68.8922 49.8572 70.4268 51.2402 72.5406 51.2402C73.7707 51.2402 74.7345 50.7541 75.3775 49.8789L74.0658 49.0075C73.6961 49.5279 73.2271 49.7432 72.5273 49.7432C71.5635 49.7432 70.8716 49.0659 70.7496 48.3084H75.6352C75.6352 48.3084 75.6541 48.0787 75.6541 47.8387C75.6541 45.6425 74.4308 44.2622 72.4635 44.2622ZM70.7496 47.038C70.7678 46.1744 71.5625 45.6089 72.4107 45.6089C73.3737 45.6089 73.8227 46.3169 73.8227 47.038H70.7496ZM87.8793 45.9188V44.4637H86.289V42.6216H84.4956V44.4637H83.3825V45.9188H84.4956V48.8194C84.4956 49.8359 84.7433 51.2031 86.6994 51.2031C87.0814 51.2031 87.564 51.1254 87.851 51.0161L87.8067 49.5919C87.6246 49.6523 87.3447 49.7275 87.0091 49.7275C86.4777 49.7275 86.289 49.3545 86.289 48.8061V45.9188H87.8793ZM22.2218 44.2782C21.0908 44.2782 20.3943 45.0162 20.1372 45.3005H20.0969V44.4637H18.3433V54.3002H20.1632V50.2624H20.1903C20.6548 50.7882 21.456 51.2402 22.3091 51.2402C24.1879 51.2402 25.5074 49.7651 25.5074 47.7327C25.5074 45.731 24.0775 44.2782 22.2218 44.2782ZM21.8639 49.6854C20.7662 49.6854 20.1102 48.7059 20.1102 47.7592C20.1102 46.8201 20.7807 45.8065 21.8639 45.8065C23.0417 45.8065 23.6291 46.805 23.6291 47.7327C23.6291 48.703 22.9893 49.6854 21.8639 49.6854ZM28.4462 45.4805H28.4193V44.4637H26.6658V51.0546H28.4857V47.5338C28.4857 47.5178 28.5667 45.924 30.1432 45.924C30.2738 45.924 30.4994 45.943 30.7084 45.9953V44.3327C30.5807 44.3008 30.2969 44.2782 30.1865 44.2782C29.4707 44.2782 28.8592 44.8653 28.4462 45.4805ZM65.4636 44.2782C64.5106 44.2782 63.8117 44.9686 63.4503 45.4664H63.4233V44.4637H61.683V51.0546H63.5029V47.441C63.5029 46.6666 63.973 45.833 64.9139 45.833C65.7965 45.833 66.0339 46.6246 66.0339 47.4146V51.0546H67.8536V46.9639C67.8536 45.725 67.2796 44.2782 65.4636 44.2782ZM42.9419 49.6854C41.8339 49.6854 41.2753 48.6953 41.2753 47.7381C41.2753 46.7809 41.8814 45.833 42.8888 45.833C43.3606 45.833 43.957 46.0696 44.191 46.4023L45.364 45.2336C44.7962 44.6353 43.8912 44.2782 42.8888 44.2782C40.8487 44.2782 39.3681 45.7422 39.3681 47.7592C39.3681 49.8088 40.8322 51.2402 42.9286 51.2402C43.9261 51.2402 44.848 50.9483 45.3945 50.3606L44.2536 49.1362C43.99 49.4571 43.4376 49.6854 42.9419 49.6854ZM57.9394 44.2782C56.9865 44.2782 56.2876 44.9686 55.9262 45.4664H55.8993V44.4637H54.1589V51.0546H55.9788V47.441C55.9788 46.6666 56.4489 45.833 57.3898 45.833C58.2724 45.833 58.5098 46.6246 58.5098 47.4146V51.0546H60.3296V46.9639C60.3296 45.725 59.7554 44.2782 57.9394 44.2782ZM80.1276 49.6854C79.0196 49.6854 78.461 48.6953 78.461 47.7381C78.461 46.7809 79.0671 45.833 80.0745 45.833C80.5463 45.833 81.1426 46.0696 81.3767 46.4023L82.5497 45.2336C81.9819 44.6353 81.0769 44.2782 80.0745 44.2782C78.0344 44.2782 76.5538 45.7422 76.5538 47.7592C76.5538 49.8088 78.0179 51.2402 80.1143 51.2402C81.1118 51.2402 82.0336 50.9483 82.5802 50.3606L81.4393 49.1362C81.1757 49.4571 80.6233 49.6854 80.1276 49.6854ZM49.5467 44.2782C47.4759 44.2782 45.9729 45.731 45.9729 47.7327C45.9729 49.8041 47.5093 51.2579 49.5467 51.2579C51.584 51.2579 53.1203 49.7902 53.1203 47.7327C53.1203 45.731 51.6174 44.2782 49.5467 44.2782ZM49.5467 49.6854C48.3599 49.6854 47.8192 48.6732 47.8192 47.7327C47.8192 46.805 48.3599 45.8065 49.5467 45.8065C50.7336 45.8065 51.274 46.805 51.274 47.7327C51.274 48.6732 50.7336 49.6854 49.5467 49.6854Z" fill="black"/>
<path d="M7.66653 52.3331C11.9006 52.3331 15.3331 48.9006 15.3331 44.6665C15.3331 40.4324 11.9006 37 7.66653 37C3.43242 37 0 40.4324 0 44.6665C0 48.9006 3.43242 52.3331 7.66653 52.3331Z" fill="black"/>
<path d="M10.3435 40.8608C10.2511 40.6379 10.0339 40.4927 9.79265 40.4927H4.17496L4.17502 41.0883V41.089C4.17496 41.4183 4.44199 41.6852 4.77131 41.6853H8.35294L3.54579 46.4926C3.31286 46.7255 3.31286 47.103 3.54579 47.336L3.96738 47.7576L10.2142 41.5107C10.3848 41.3401 10.4359 41.0835 10.3435 40.8608ZM11.4981 41.9893C11.2753 41.8969 11.0188 41.948 10.8482 42.1186L4.60135 48.3654L5.02294 48.787C5.25587 49.0199 5.63337 49.0199 5.8663 48.787L10.6736 43.9799V47.5615C10.6736 47.8908 10.9406 48.1578 11.2699 48.1578H11.2706L11.8662 48.1578V42.5402C11.8662 42.2989 11.721 42.0817 11.4981 41.9893Z" fill="white"/>
<mask id="mask0" mask-type="alpha" maskUnits="userSpaceOnUse" x="150" y="3" width="71" height="15">
<path fill-rule="evenodd" clip-rule="evenodd" d="M173.319 12.6844C172.211 12.6844 171.652 11.6946 171.652 10.7372C171.652 9.78015 172.258 8.83228 173.265 8.83228C173.737 8.83228 174.334 9.06908 174.568 9.40179L175.741 8.23313C175.173 7.63484 174.268 7.27777 173.265 7.27777C171.226 7.27777 169.745 8.74165 169.745 10.7585C169.745 12.8079 171.209 14.2394 173.306 14.2394C174.303 14.2394 175.225 13.9474 175.771 13.3599L174.63 12.1355C174.367 12.4565 173.814 12.6846 173.319 12.6846V12.6844ZM166.759 14.0534H168.579V7.46295H166.759V14.0534ZM163.45 11.0763C163.45 11.8507 162.945 12.6845 162.004 12.6845C161.279 12.6845 160.892 12.1671 160.892 11.1029V7.46295H159.071V11.5533C159.071 12.9145 159.751 14.2392 161.567 14.2392C162.423 14.2392 163.14 13.5649 163.502 13.0671H163.529V14.0535H165.269V7.46295H163.449V11.0763H163.45ZM155.789 8.29991H155.748C155.491 8.01542 154.795 7.27777 153.664 7.27777C151.808 7.27777 150.378 8.73024 150.378 10.7319C150.378 12.7643 151.698 14.2393 153.576 14.2393C154.429 14.2393 155.231 13.7871 155.695 13.2614H155.722V17.2989H157.542V7.46312H155.789V8.29991ZM154.022 12.6843C152.896 12.6843 152.257 11.702 152.257 10.732C152.257 9.80405 152.844 8.8056 154.022 8.8056C155.105 8.8056 155.775 9.81922 155.775 10.7582C155.775 11.7049 155.119 12.6843 154.022 12.6843H154.022ZM195.474 7.27777C193.403 7.27777 191.9 8.73043 191.9 10.7322C191.9 12.8034 193.437 14.2573 195.474 14.2573C197.511 14.2573 199.048 12.7894 199.048 10.7322C199.048 8.73043 197.545 7.27777 195.474 7.27777H195.474ZM195.474 12.6843C194.287 12.6843 193.747 11.6723 193.747 10.732C193.747 9.80405 194.287 8.8056 195.474 8.8056C196.661 8.8056 197.201 9.80388 197.201 10.7318C197.201 11.6722 196.661 12.6841 195.474 12.6841L195.474 12.6843ZM218.226 9.99724C217.289 9.77356 216.959 9.65311 216.959 9.27406C216.959 8.75105 217.622 8.63623 217.922 8.63623C218.487 8.63623 219.125 8.97354 219.364 9.29382L220.438 8.26416C219.941 7.64064 218.965 7.27777 217.935 7.27777C216.618 7.27777 215.235 7.93996 215.235 9.41989C215.235 10.6908 216.231 11.0741 217.206 11.3075C218.233 11.5469 218.599 11.7215 218.599 12.1354C218.599 12.7453 217.907 12.845 217.669 12.845C217.074 12.845 216.384 12.5043 216.011 12.0624L214.907 13.1825C215.51 13.852 216.543 14.2546 217.603 14.2546C219.382 14.2546 220.437 13.4065 220.437 12.007C220.437 10.668 219.145 10.2177 218.226 9.99741L218.226 9.99724ZM214.785 7.46309H212.438L210.089 10.1978H210.048V3.83128H208.229V14.0534H210.048V10.8031H210.089L212.527 14.0534H214.921L212.088 10.4518L214.785 7.46309ZM187.799 7.27728C186.967 7.27728 186.354 7.64115 185.775 8.18355H185.741V3.83105H183.922V14.0532H185.662V13.1217H185.689C186.099 13.7946 186.914 14.2389 187.76 14.2389C189.638 14.2389 191.062 12.7636 191.062 10.7317C191.062 8.73004 189.655 7.27745 187.8 7.27745L187.799 7.27728ZM187.442 12.6841C186.344 12.6841 185.688 11.7046 185.688 10.7579C185.688 9.81896 186.358 8.80535 187.442 8.80535C188.619 8.80535 189.205 9.80363 189.205 10.7315C189.205 11.7017 188.567 12.6838 187.442 12.6838V12.6841ZM183.237 7.46309H180.89L178.54 10.1978H178.499V3.83128H176.68V14.0534H178.499V10.8031H178.54L180.978 14.0534H183.372L180.539 10.4518L183.237 7.46309ZM203.471 7.27752C201.4 7.27752 199.897 8.73027 199.897 10.7319C199.897 12.803 201.433 14.2568 203.471 14.2568C205.508 14.2568 207.044 12.789 207.044 10.7319C207.044 8.73027 205.541 7.27769 203.47 7.27769L203.471 7.27752ZM203.471 12.6841C202.284 12.6841 201.743 11.6719 201.743 10.7315C201.743 9.8038 202.284 8.80535 203.471 8.80535C204.657 8.80535 205.198 9.80363 205.198 10.7315C205.198 11.6719 204.657 12.6838 203.47 12.6838L203.471 12.6841Z" fill="white"/>
</mask>
<g mask="url(#mask0)">
<path fill-rule="evenodd" clip-rule="evenodd" d="M149.527 18.1508H223.656V2.97949H149.527V18.1508Z" fill="black"/>
</g>
<mask id="mask1" mask-type="alpha" maskUnits="userSpaceOnUse" x="133" y="0" width="16" height="16">
<path fill-rule="evenodd" clip-rule="evenodd" d="M140.666 15.3319C144.9 15.3319 148.332 11.8997 148.332 7.66595C148.332 3.43217 144.9 0 140.666 0C136.432 0 133 3.43217 133 7.66595C133 11.8997 136.432 15.3319 140.666 15.3319Z" fill="white"/>
</mask>
<g mask="url(#mask1)">
<path fill-rule="evenodd" clip-rule="evenodd" d="M132.148 16.1841H149.184V-0.851562H132.148V16.1841Z" fill="black"/>
</g>
<mask id="mask2" mask-type="alpha" maskUnits="userSpaceOnUse" x="135" y="2" width="12" height="11">
<path fill-rule="evenodd" clip-rule="evenodd" d="M135.129 7.66554C135.129 9.31202 136.464 10.6468 138.11 10.6468H138.536V9.53945H138.11C137.077 9.53945 136.236 8.69891 136.236 7.66554C136.236 6.63233 137.077 5.79162 138.11 5.79162H139.133V11.5837C139.133 12.1953 139.629 12.691 140.241 12.691V4.68431H138.11C136.464 4.68431 135.129 6.01922 135.129 7.66554ZM143.223 4.68492H142.797V5.79225H143.223C144.256 5.79225 145.096 6.63297 145.096 7.66619C145.096 8.69941 144.256 9.54013 143.223 9.54013H142.199V3.74795C142.199 3.13637 141.703 2.64062 141.091 2.64062V10.6475H143.223C144.869 10.6475 146.204 9.3127 146.204 7.66619C146.204 6.01968 144.869 4.68492 143.223 4.68492Z" fill="white"/>
</mask>
<g mask="url(#mask2)">
<path fill-rule="evenodd" clip-rule="evenodd" d="M134.277 13.543H147.056V1.78906H134.277V13.543Z" fill="white"/>
</g>
<path fill-rule="evenodd" clip-rule="evenodd" d="M39.71 8.27954C38.8753 8.27954 38.262 8.63729 37.6828 9.18243H37.6487V4.82129H35.8259V15.0427H37.5635V14.1057H37.5976C38.0064 14.7872 38.8242 15.2301 39.6759 15.2301C41.5498 15.2301 42.9808 13.748 42.9808 11.7207C42.9808 9.72757 41.5669 8.27954 39.71 8.27954ZM39.3522 13.6797C38.262 13.6797 37.5976 12.7087 37.5976 11.7547C37.5976 10.8178 38.262 9.79569 39.3522 9.79569C40.5277 9.79569 41.1239 10.8008 41.1239 11.7207C41.1239 12.6917 40.4766 13.6797 39.3522 13.6797ZM25.9453 13.6796C26.8822 13.6796 27.3933 12.8448 27.3933 12.0782V8.46671H29.2161V15.0595H27.4785V14.0714H27.4444C27.0696 14.5654 26.3541 15.2469 25.5023 15.2469C23.6966 15.2469 23.0152 13.9181 23.0152 12.5552V8.46671H24.838V12.0953C24.838 13.1685 25.2127 13.6796 25.9453 13.6796ZM20.1021 6.61002H18.3304V8.44991H17.2061V9.89796H18.3134V12.7941C18.3134 13.8162 18.5689 15.1791 20.5109 15.1791C20.8857 15.1791 21.3798 15.0939 21.6694 14.9917L21.6183 13.5607C21.4309 13.6288 21.1583 13.697 20.8176 13.697C20.2895 13.697 20.1021 13.3222 20.1021 12.777V9.915H21.6864V8.46694H20.1021V6.61002ZM32.504 9.47179H32.538C32.9469 8.85853 33.5602 8.27933 34.2586 8.27933C34.3779 8.27933 34.6675 8.29637 34.7867 8.33044V9.99988C34.5823 9.94877 34.3608 9.93174 34.2246 9.93174C32.6573 9.93174 32.5721 11.516 32.5721 11.533V15.0423H30.7493V8.44968H32.504V9.47179ZM60.0674 8.27933C59.0283 8.27933 57.955 8.70521 57.2395 9.36959L58.1765 10.4087C58.6024 9.98286 59.3349 9.71029 59.9311 9.71029C60.5785 9.71029 61.2429 10.034 61.2429 10.8176V10.9198C59.3349 10.9198 56.8988 11.1583 56.8988 13.1173C56.8988 14.5653 58.1594 15.2127 59.403 15.2127C60.1867 15.2127 60.8511 14.7698 61.2599 14.2928H61.294V15.0594H63.0146V11.0731C63.0146 10.0169 62.6398 8.27933 60.0674 8.27933ZM59.7267 13.85C60.7318 13.85 61.2769 13.2367 61.2769 12.2657V12.1294H61.0384C59.4882 12.1294 58.6875 12.5212 58.6875 13.1516C58.6875 13.7308 59.3519 13.85 59.7267 13.85ZM47.393 8.27933C45.3147 8.27933 43.8156 9.72734 43.8156 11.7375C43.8156 13.8158 45.3488 15.2638 47.393 15.2638C49.4373 15.2638 50.9705 13.7988 50.9705 11.7375C50.9534 9.72734 49.4543 8.27933 47.393 8.27933ZM45.6724 11.7207C45.6724 12.6746 46.2005 13.6797 47.393 13.6797C48.5685 13.6797 49.1136 12.6746 49.1136 11.7207C49.1136 10.8008 48.5855 9.79569 47.393 9.79569C46.2176 9.79569 45.6724 10.8008 45.6724 11.7207ZM68.3978 11.55L70.7657 8.44962H68.6533L67.2905 10.3405L65.9788 8.44962H63.7812L66.1661 11.55L63.4916 15.0423H65.6721L67.2905 12.8107L68.8918 15.0423H71.1235L68.3978 11.55ZM52.64 6.61002H54.4287V8.46694H56.013V9.915H54.4287V12.777C54.4287 13.3222 54.6161 13.697 55.1442 13.697C55.4849 13.697 55.7575 13.6288 55.9448 13.5607L55.996 14.9917C55.7063 15.0939 55.2123 15.1791 54.8375 15.1791C52.8955 15.1791 52.64 13.8162 52.64 12.7941V9.89796H51.5326V8.44991H52.64V6.61002Z" fill="black"/>
<path d="M7.66598 16.3374C11.8998 16.3374 15.332 12.9052 15.332 8.67139C15.332 4.43756 11.8998 1.00537 7.66598 1.00537C3.43218 1.00537 0 4.43756 0 8.67139C0 12.9052 3.43218 16.3374 7.66598 16.3374Z" fill="black"/>
<path d="M5.9625 11.4824C5.07665 10.8521 4.24191 10.1707 3.4242 9.45521C3.1346 10.1026 2.86203 10.784 2.62354 11.4654C3.91823 12.5556 5.63882 13.8163 6.83131 14.5317C8.3645 10.5455 10.7665 7.95611 13.0663 6.13333C12.7767 5.50302 12.3679 4.94086 11.8909 4.46387C9.43774 6.32072 7.39348 8.7227 5.9625 11.4824Z" fill="white"/>
</svg>
