<svg width="46" height="16" viewBox="0 0 46 16" fill="none" xmlns="http://www.w3.org/2000/svg">
<path fill-rule="evenodd" clip-rule="evenodd" d="M45.3506 7.46255V8.91752H43.7603V11.8046C43.7603 12.353 43.949 12.726 44.4805 12.726C44.8159 12.726 45.0959 12.6508 45.278 12.5904L45.3223 14.0145C45.0353 14.1237 44.5527 14.2014 44.1707 14.2014C42.2147 14.2014 41.9671 12.8343 41.9671 11.8179V8.91752H40.8541V7.46255H41.9671V5.62061H43.7603V7.46255H45.3506ZM32.2024 14.0529H30.3826V7.46248H32.2024V14.0529ZM26.221 7.27705C25.3136 7.27705 24.624 7.75469 24.1602 8.4689C23.8411 7.93585 23.1803 7.27705 22.0994 7.27705C21.19 7.27705 20.4297 7.96873 20.0804 8.46515H20.0532V7.46257H18.313V14.0531H20.1326V10.4397C20.1326 9.63934 20.5601 8.83175 21.442 8.83175C22.4029 8.83175 22.5634 9.71532 22.5634 10.0952V14.0531H24.3832V10.4663C24.3832 9.6527 24.845 8.83175 25.736 8.83175C26.5957 8.83175 26.8255 9.58588 26.8255 10.4133V14.0531H28.6452V9.96264C28.6452 8.72375 28.0368 7.27705 26.221 7.27705ZM35.4989 8.46515C35.8603 7.96744 36.559 7.27705 37.512 7.27705C39.3279 7.27705 39.9019 8.72375 39.9019 9.96264V14.0531H38.0823V10.4133C38.0823 9.62336 37.8449 8.83175 36.9624 8.83175C36.0216 8.83175 35.5515 9.66527 35.5515 10.4397V14.0531H33.7317V7.46257H35.4719V8.46515H35.4989Z" fill="black"/>
<path d="M7.66599 15.3319C11.8998 15.3319 15.332 11.8997 15.332 7.66595C15.332 3.43216 11.8998 0 7.66599 0C3.43218 0 0 3.43216 0 7.66595C0 11.8997 3.43218 15.3319 7.66599 15.3319Z" fill="black"/>
<path fill-rule="evenodd" clip-rule="evenodd" d="M3.69922 8.97413C3.69922 6.19846 7.16094 2.63521 7.66577 2.12891C8.17057 2.63521 11.6323 6.19846 11.6323 8.97413C11.6323 10.638 10.5154 11.3654 8.73495 12.525C8.40092 12.7425 8.04353 12.9753 7.66577 13.2323C7.288 12.9753 6.9306 12.7425 6.59655 12.525C4.81611 11.3654 3.69922 10.638 3.69922 8.97413ZM7.20085 11.5969C7.3246 11.6775 7.45137 11.7603 7.57904 11.844V3.84912C6.29334 5.32426 4.80655 7.44128 4.80655 8.97397C4.80655 9.93311 5.29118 10.3532 7.20085 11.5969Z" fill="white"/>
</svg>
