<svg width="88" height="18" viewBox="0 0 88 18" fill="none" xmlns="http://www.w3.org/2000/svg">
<path d="M34.9445 7.27817C32.8737 7.27817 31.3707 8.731 31.3707 10.7327C31.3707 12.8041 32.9071 14.2579 34.9445 14.2579C36.9819 14.2579 38.5182 12.7902 38.5182 10.7327C38.5182 8.731 37.0153 7.27817 34.9445 7.27817ZM34.9445 12.6854C33.7578 12.6854 33.2171 11.6732 33.2171 10.7327C33.2171 9.80499 33.7578 8.8065 34.9445 8.8065C36.1314 8.8065 36.6719 9.80499 36.6719 10.7327C36.6719 11.6732 36.1314 12.6854 34.9445 12.6854ZM72.4635 7.26222C70.2665 7.26222 68.8922 8.76227 68.8922 10.7989C68.8922 12.8572 70.4268 14.2402 72.5406 14.2402C73.7707 14.2402 74.7345 13.7541 75.3775 12.8789L74.0658 12.0075C73.6961 12.5279 73.2271 12.7432 72.5273 12.7432C71.5635 12.7432 70.8716 12.0659 70.7496 11.3084H75.6352C75.6352 11.3084 75.6541 11.0787 75.6541 10.8387C75.6541 8.64247 74.4308 7.26222 72.4635 7.26222ZM70.7496 10.038C70.7678 9.17443 71.5625 8.60891 72.4107 8.60891C73.3737 8.60891 73.8227 9.31689 73.8227 10.038H70.7496ZM87.8793 8.91877V7.46373H86.289V5.62158H84.4956V7.46373H83.3825V8.91877H84.4956V11.8194C84.4956 12.8359 84.7433 14.2031 86.6994 14.2031C87.0814 14.2031 87.564 14.1254 87.851 14.0161L87.8067 12.5919C87.6246 12.6523 87.3447 12.7275 87.0091 12.7275C86.4777 12.7275 86.289 12.3545 86.289 11.8061V8.91877H87.8793ZM22.2218 7.27817C21.0908 7.27817 20.3943 8.01617 20.1372 8.30051H20.0969V7.46373H18.3433V17.3002H20.1632V13.2624H20.1903C20.6548 13.7882 21.456 14.2402 22.3091 14.2402C24.1879 14.2402 25.5074 12.7651 25.5074 10.7327C25.5074 8.731 24.0775 7.27817 22.2218 7.27817ZM21.8639 12.6854C20.7662 12.6854 20.1102 11.7059 20.1102 10.7592C20.1102 9.82005 20.7807 8.8065 21.8639 8.8065C23.0417 8.8065 23.6291 9.80499 23.6291 10.7327C23.6291 11.703 22.9893 12.6854 21.8639 12.6854ZM28.4462 8.48052H28.4193V7.46373H26.6658V14.0546H28.4857V10.5338C28.4857 10.5178 28.5667 8.92402 30.1432 8.92402C30.2738 8.92402 30.4994 8.94297 30.7084 8.99533V7.33269C30.5807 7.30079 30.2969 7.27817 30.1865 7.27817C29.4707 7.27817 28.8592 7.86526 28.4462 8.48052ZM65.4636 7.27817C64.5106 7.27817 63.8117 7.96856 63.4503 8.46638H63.4233V7.46373H61.683V14.0546H63.5029V10.441C63.5029 9.66655 63.973 8.83298 64.9139 8.83298C65.7965 8.83298 66.0339 9.62464 66.0339 10.4146V14.0546H67.8536V9.96394C67.8536 8.72496 67.2796 7.27817 65.4636 7.27817ZM42.9419 12.6854C41.8339 12.6854 41.2753 11.6953 41.2753 10.7381C41.2753 9.78093 41.8814 8.83298 42.8888 8.83298C43.3606 8.83298 43.957 9.06958 44.191 9.40228L45.364 8.23356C44.7962 7.63529 43.8912 7.27817 42.8888 7.27817C40.8487 7.27817 39.3681 8.74217 39.3681 10.7592C39.3681 12.8088 40.8322 14.2402 42.9286 14.2402C43.9261 14.2402 44.848 13.9483 45.3945 13.3606L44.2536 12.1362C43.99 12.4571 43.4376 12.6854 42.9419 12.6854ZM57.9394 7.27817C56.9865 7.27817 56.2876 7.96856 55.9262 8.46638H55.8993V7.46373H54.1589V14.0546H55.9788V10.441C55.9788 9.66655 56.4489 8.83298 57.3898 8.83298C58.2724 8.83298 58.5098 9.62464 58.5098 10.4146V14.0546H60.3296V9.96394C60.3296 8.72496 59.7554 7.27817 57.9394 7.27817ZM80.1276 12.6854C79.0196 12.6854 78.461 11.6953 78.461 10.7381C78.461 9.78093 79.0671 8.83298 80.0745 8.83298C80.5463 8.83298 81.1426 9.06958 81.3767 9.40228L82.5497 8.23356C81.9819 7.63529 81.0769 7.27817 80.0745 7.27817C78.0344 7.27817 76.5538 8.74217 76.5538 10.7592C76.5538 12.8088 78.0179 14.2402 80.1143 14.2402C81.1118 14.2402 82.0336 13.9483 82.5802 13.3606L81.4393 12.1362C81.1757 12.4571 80.6233 12.6854 80.1276 12.6854ZM49.5467 7.27817C47.4759 7.27817 45.9729 8.731 45.9729 10.7327C45.9729 12.8041 47.5093 14.2579 49.5467 14.2579C51.584 14.2579 53.1203 12.7902 53.1203 10.7327C53.1203 8.731 51.6174 7.27817 49.5467 7.27817ZM49.5467 12.6854C48.3599 12.6854 47.8192 11.6732 47.8192 10.7327C47.8192 9.80499 48.3599 8.8065 49.5467 8.8065C50.7336 8.8065 51.274 9.80499 51.274 10.7327C51.274 11.6732 50.7336 12.6854 49.5467 12.6854Z" fill="black"/>
<path d="M7.66653 15.3331C11.9006 15.3331 15.3331 11.9006 15.3331 7.66653C15.3331 3.43242 11.9006 0 7.66653 0C3.43242 0 0 3.43242 0 7.66653C0 11.9006 3.43242 15.3331 7.66653 15.3331Z" fill="black"/>
<path d="M10.3435 3.86084C10.2511 3.63793 10.0339 3.49271 9.79265 3.49268H4.17496L4.17502 4.08831V4.089C4.17496 4.41832 4.44199 4.68525 4.77131 4.68528H8.35294L3.54579 9.49258C3.31286 9.72554 3.31286 10.103 3.54579 10.336L3.96738 10.7576L10.2142 4.51069C10.3848 4.34012 10.4359 4.08354 10.3435 3.86084ZM11.4981 4.98929C11.2753 4.89695 11.0188 4.94802 10.8482 5.11856L4.60135 11.3654L5.02294 11.787C5.25587 12.0199 5.63337 12.0199 5.8663 11.787L10.6736 6.97986V10.5615C10.6736 10.8908 10.9406 11.1578 11.2699 11.1578H11.2706L11.8662 11.1578V5.54015C11.8662 5.29891 11.721 5.08169 11.4981 4.98929Z" fill="white"/>
</svg>
