<svg width="72" height="16" viewBox="0 0 72 16" fill="none" xmlns="http://www.w3.org/2000/svg">
<path fill-rule="evenodd" clip-rule="evenodd" d="M39.71 7.27954C38.8753 7.27954 38.262 7.63729 37.6828 8.18243H37.6487V3.82129H35.8259V14.0427H37.5635V13.1057H37.5976C38.0064 13.7872 38.8242 14.2301 39.6759 14.2301C41.5498 14.2301 42.9808 12.748 42.9808 10.7207C42.9808 8.72757 41.5669 7.27954 39.71 7.27954ZM39.3522 12.6797C38.262 12.6797 37.5976 11.7087 37.5976 10.7547C37.5976 9.8178 38.262 8.79569 39.3522 8.79569C40.5277 8.79569 41.1239 9.80077 41.1239 10.7207C41.1239 11.6917 40.4766 12.6797 39.3522 12.6797ZM25.9453 12.6796C26.8822 12.6796 27.3933 11.8448 27.3933 11.0782V7.46671H29.2161V14.0595H27.4785V13.0714H27.4444C27.0696 13.5654 26.3541 14.2469 25.5023 14.2469C23.6966 14.2469 23.0152 12.9181 23.0152 11.5552V7.46671H24.838V11.0953C24.838 12.1685 25.2127 12.6796 25.9453 12.6796ZM20.1021 5.61002H18.3304V7.44991H17.2061V8.89796H18.3134V11.7941C18.3134 12.8162 18.5689 14.1791 20.5109 14.1791C20.8857 14.1791 21.3798 14.0939 21.6694 13.9917L21.6183 12.5607C21.4309 12.6288 21.1583 12.697 20.8176 12.697C20.2895 12.697 20.1021 12.3222 20.1021 11.777V8.915H21.6864V7.46694H20.1021V5.61002ZM32.504 8.47179H32.538C32.9469 7.85853 33.5602 7.27933 34.2586 7.27933C34.3779 7.27933 34.6675 7.29637 34.7867 7.33044V8.99988C34.5823 8.94877 34.3608 8.93174 34.2246 8.93174C32.6573 8.93174 32.5721 10.516 32.5721 10.533V14.0423H30.7493V7.44968H32.504V8.47179ZM60.0674 7.27933C59.0283 7.27933 57.955 7.70521 57.2395 8.36959L58.1765 9.40874C58.6024 8.98286 59.3349 8.71029 59.9311 8.71029C60.5785 8.71029 61.2429 9.03396 61.2429 9.81759V9.9198C59.3349 9.9198 56.8988 10.1583 56.8988 12.1173C56.8988 13.5653 58.1594 14.2127 59.403 14.2127C60.1867 14.2127 60.8511 13.7698 61.2599 13.2928H61.294V14.0594H63.0146V10.0731C63.0146 9.01693 62.6398 7.27933 60.0674 7.27933ZM59.7267 12.85C60.7318 12.85 61.2769 12.2367 61.2769 11.2657V11.1294H61.0384C59.4882 11.1294 58.6875 11.5212 58.6875 12.1516C58.6875 12.7308 59.3519 12.85 59.7267 12.85ZM47.393 7.27933C45.3147 7.27933 43.8156 8.72734 43.8156 10.7375C43.8156 12.8158 45.3488 14.2638 47.393 14.2638C49.4373 14.2638 50.9705 12.7988 50.9705 10.7375C50.9534 8.72734 49.4543 7.27933 47.393 7.27933ZM45.6724 10.7207C45.6724 11.6746 46.2005 12.6797 47.393 12.6797C48.5685 12.6797 49.1136 11.6746 49.1136 10.7207C49.1136 9.80077 48.5855 8.79569 47.393 8.79569C46.2176 8.79569 45.6724 9.80077 45.6724 10.7207ZM68.3978 10.55L70.7657 7.44962H68.6533L67.2905 9.34054L65.9788 7.44962H63.7812L66.1661 10.55L63.4916 14.0423H65.6721L67.2905 11.8107L68.8918 14.0423H71.1235L68.3978 10.55ZM52.64 5.61002H54.4287V7.46694H56.013V8.915H54.4287V11.777C54.4287 12.3222 54.6161 12.697 55.1442 12.697C55.4849 12.697 55.7575 12.6288 55.9448 12.5607L55.996 13.9917C55.7063 14.0939 55.2123 14.1791 54.8375 14.1791C52.8955 14.1791 52.64 12.8162 52.64 11.7941V8.89796H51.5326V7.44991H52.64V5.61002Z" fill="black"/>
<path d="M7.66598 15.3374C11.8998 15.3374 15.332 11.9052 15.332 7.67139C15.332 3.43756 11.8998 0.00537109 7.66598 0.00537109C3.43218 0.00537109 0 3.43756 0 7.67139C0 11.9052 3.43218 15.3374 7.66598 15.3374Z" fill="black"/>
<path d="M5.9625 10.4824C5.07665 9.85211 4.24191 9.1707 3.4242 8.45521C3.1346 9.10256 2.86203 9.78397 2.62354 10.4654C3.91823 11.5556 5.63882 12.8163 6.83131 13.5317C8.3645 9.54547 10.7665 6.95611 13.0663 5.13333C12.7767 4.50302 12.3679 3.94086 11.8909 3.46387C9.43774 5.32072 7.39348 7.7227 5.9625 10.4824Z" fill="white"/>
</svg>
