<?xml version="1.0" encoding="UTF-8"?> <svg xmlns="http://www.w3.org/2000/svg" width="22" height="20" viewBox="0 0 22 20" fill="none"><path d="M11.0149 3.20461e-06H10.9999C8.34778 -0.00211853 5.8034 1.04942 3.92654 2.92328C2.04967 4.79714 0.994068 7.33984 0.991947 9.992C0.989825 12.6442 2.04136 15.1885 3.91522 17.0654C5.78909 18.9423 8.33178 19.9979 10.9839 20H10.9999C13.6521 20.0019 16.1964 18.9501 18.0731 17.076C19.9497 15.202 21.0051 12.6592 21.0069 10.007C21.0088 7.35484 19.957 4.81056 18.083 2.93388C16.2089 1.05721 13.6661 0.00185972 11.0139 3.20461e-06H11.0149ZM14.8889 8.586L10.6459 12.828C10.4584 13.0155 10.2041 13.1208 9.93895 13.1208C9.67378 13.1208 9.41947 13.0155 9.23195 12.828L7.11095 10.707C6.92879 10.5184 6.82799 10.2658 6.83027 10.0036C6.83255 9.74141 6.93772 9.49059 7.12313 9.30518C7.30854 9.11978 7.55935 9.01461 7.82155 9.01233C8.08374 9.01005 8.33634 9.11084 8.52495 9.293L9.93895 10.707L13.4749 7.172C13.6635 6.98985 13.9162 6.88905 14.1783 6.89133C14.4405 6.89361 14.6914 6.99878 14.8768 7.18418C15.0622 7.36959 15.1673 7.62041 15.1696 7.8826C15.1719 8.1448 15.0711 8.3974 14.8889 8.586Z" fill="#00C1BF"></path></svg> 