<svg width="44" height="44" viewBox="0 0 44 44" fill="none" xmlns="http://www.w3.org/2000/svg">
<circle cx="22" cy="22" r="22" fill="#C9007A"/>
<path d="M33.4401 21.1108L23.0854 10.7239C22.8104 10.4489 22.4374 10.2944 22.0485 10.2944C21.6596 10.2944 21.2866 10.4489 21.0116 10.7239L10.6202 21.0771C10.3527 21.3533 10.2043 21.7236 10.2071 22.1081C10.2099 22.4927 10.3636 22.8608 10.6351 23.1331C10.9067 23.4055 11.2744 23.5602 11.6589 23.5641C12.0435 23.568 12.4142 23.4207 12.6912 23.1539L20.5701 15.2984L20.5437 32.2912C20.5437 32.6802 20.6982 33.0532 20.9733 33.3283C21.2483 33.6033 21.6214 33.7579 22.0104 33.7579C22.3994 33.7579 22.7724 33.6033 23.0475 33.3283C23.3225 33.0532 23.477 32.6802 23.477 32.2912L23.5034 15.2969L31.3589 23.1773C31.6346 23.4456 32.0046 23.5949 32.3892 23.593C32.7739 23.5911 33.1424 23.4381 33.4153 23.1671C33.6883 22.8961 33.8439 22.5286 33.8485 22.144C33.8531 21.7594 33.7065 21.3883 33.4401 21.1108Z" fill="white"/>
</svg>
