<?xml version="1.0" encoding="UTF-8"?>
<svg width="24px" height="24px" viewBox="0 0 24 24" version="1.1" xmlns="http://www.w3.org/2000/svg" xmlns:xlink="http://www.w3.org/1999/xlink">
    <!-- Generator: Sketch 57.1 (83088) - https://sketch.com -->
    <title>do</title>
    <desc>Created with Sketch.</desc>
    <g id="Page-1" stroke="none" stroke-width="1" fill="none" fill-rule="evenodd">
        <g id="do" fill="#2CA01C" fill-rule="nonzero">
            <path d="M12,24 C5.4,24 0,18.6 0,12 C0,5.4 5.4,0 12,0 C18.6,0 24,5.4 24,12 C24,18.6 18.6,24 12,24 Z M12,2.4 C6.72,2.4 2.4,6.72 2.4,12 C2.4,17.28 6.72,21.6 12,21.6 C17.28,21.6 21.6,17.28 21.6,12 C21.6,6.72 17.28,2.4 12,2.4 Z" id="Shape"></path>
            <path d="M10.8,16.32 C10.56,16.32 10.2,16.2 9.96,15.96 L7.8,13.8 C7.32,13.32 7.32,12.72 7.8,12.24 C8.04,12 8.28,11.88 8.64,11.88 C9,11.88 9.24,12 9.48,12.24 L10.68,13.56 L14.4,8.04 C14.64,7.68 15,7.56 15.36,7.56 C15.72,7.56 16.08,7.8 16.32,8.16 C16.44,8.52 16.44,8.88 16.2,9.24 L11.76,15.84 C11.52,16.08 11.16,16.32 10.8,16.32 L10.8,16.32 Z" id="Path"></path>
        </g>
    </g>
</svg>