<?xml version="1.0" encoding="UTF-8"?>
<svg width="24px" height="24px" viewBox="0 0 24 24" version="1.1" xmlns="http://www.w3.org/2000/svg" xmlns:xlink="http://www.w3.org/1999/xlink">
    <!-- Generator: Sketch 57.1 (83088) - https://sketch.com -->
    <title>dont</title>
    <desc>Created with Sketch.</desc>
    <g id="Page-1" stroke="none" stroke-width="1" fill="none" fill-rule="evenodd">
        <g id="dont" fill="#D52B1E" fill-rule="nonzero">
            <path d="M12,24 C5.4,24 0,18.6 0,12 C0,5.4 5.4,0 12,0 C18.6,0 24,5.4 24,12 C24,18.6 18.6,24 12,24 Z M12,2.4 C6.72,2.4 2.4,6.72 2.4,12 C2.4,17.28 6.72,21.6 12,21.6 C17.28,21.6 21.6,17.28 21.6,12 C21.6,6.72 17.28,2.4 12,2.4 Z" id="Shape"></path>
            <path d="M15.6351,8.60628 C15.1659,8.13708 14.4075,8.13708 13.9383,8.60628 L12.2415,10.30308 L10.5447,8.60628 C10.0755,8.13708 9.3159,8.13708 8.8479,8.60628 C8.3787,9.07548 8.3787,9.83388 8.8479,10.30308 L10.5447,11.99988 L8.8479,13.69668 C8.3787,14.16588 8.3787,14.92548 8.8479,15.39348 C9.0819,15.62868 9.3891,15.74508 9.6963,15.74508 C10.0035,15.74508 10.3107,15.62868 10.5447,15.39348 L12.2415,13.69668 L13.9383,15.39348 C14.1723,15.62868 14.4795,15.74508 14.7867,15.74508 C15.0939,15.74508 15.4011,15.62868 15.6351,15.39348 C16.1043,14.92548 16.1043,14.16588 15.6351,13.69668 L13.9383,11.99988 L15.6351,10.30308 C16.1043,9.83388 16.1043,9.07548 15.6351,8.60628 Z" id="Path"></path>
        </g>
    </g>
</svg>