<svg width="14" height="14" viewBox="0 0 14 14" fill="none" xmlns="http://www.w3.org/2000/svg">
<path fill-rule="evenodd" clip-rule="evenodd" d="M7.00065 0.333496C10.6825 0.333496 13.6673 3.31826 13.6673 7.00016C13.6673 10.6821 10.6825 13.6668 7.00065 13.6668C3.31875 13.6668 0.333984 10.6821 0.333984 7.00016C0.333984 3.31826 3.31875 0.333496 7.00065 0.333496ZM7.00065 9.00016C6.63245 9.00016 6.33398 9.29864 6.33398 9.66683C6.33398 10.035 6.63245 10.3335 7.00065 10.3335C7.36885 10.3335 7.66732 10.035 7.66732 9.66683C7.66732 9.29864 7.36885 9.00016 7.00065 9.00016ZM7.00065 3.66683C6.63246 3.66683 6.33398 3.96531 6.33398 4.3335V7.66683L6.33847 7.74458C6.37698 8.07614 6.65876 8.3335 7.00065 8.3335C7.36884 8.3335 7.66732 8.03502 7.66732 7.66683V4.3335L7.66283 4.25575C7.62432 3.92419 7.34254 3.66683 7.00065 3.66683Z" fill="#D52B1E"/>
</svg>
