<?xml version="1.0" encoding="UTF-8"?>
<svg width="240px" height="31px" viewBox="0 0 240 31" version="1.1" xmlns="http://www.w3.org/2000/svg" xmlns:xlink="http://www.w3.org/1999/xlink">
    <!-- Generator: Sketch 57.1 (83088) - https://sketch.com -->
    <title>intuit-content-design-logo</title>
    <desc>Created with Sketch.</desc>
    <g id="intuit-content-design-logo" stroke="none" stroke-width="1" fill="none" fill-rule="evenodd">
        <g transform="translate(0.000000, 1.000000)" fill-rule="nonzero">
            <path d="M104.965796,20.1180124 L106.221998,20.9378882 C105.167686,22.5548654 103.126358,23.9440994 100.277472,23.9440994 C95.4769868,23.9440994 92,20.36853 92,15.4720497 C92,10.5755694 95.5442833,7 100.277472,7 C102.610418,7 104.831203,7.97929607 105.930379,9.55072464 L104.584449,10.552795 C103.911484,9.50517598 102.3188,8.43478261 100.299904,8.43478261 C96.1948163,8.43478261 93.7048451,11.7142857 93.7048451,15.4720497 C93.7048451,19.2298137 96.2172485,22.5093168 100.299904,22.5093168 C102.11691,22.5093168 103.86662,21.7805383 104.965796,20.1180124 Z M118.327894,18.2049689 C118.327894,21.4161491 115.994948,23.8074534 112.71985,23.8074534 C109.467185,23.8074534 107.134239,21.4161491 107.134239,18.2049689 C107.134239,14.9937888 109.467185,12.6024845 112.71985,12.6024845 C115.994948,12.6024845 118.327894,14.9937888 118.327894,18.2049689 Z M116.712777,18.2049689 C116.712777,15.8136646 115.164957,13.9006211 112.71985,13.9006211 C110.297176,13.9006211 108.749356,15.8136646 108.749356,18.2049689 C108.749356,20.5962733 110.297176,22.4865424 112.71985,22.4865424 C115.164957,22.4865424 116.712777,20.5962733 116.712777,18.2049689 Z M120.765523,12.8757764 L122.223614,12.8757764 C122.268479,13.4451346 122.313343,14.242236 122.313343,14.6977226 L122.358207,14.6977226 C122.941444,13.4679089 124.466832,12.6024845 125.947355,12.6024845 C128.616784,12.6024845 129.940282,14.3561077 129.940282,16.9979296 L129.940282,23.5341615 L128.414894,23.5341615 L128.414894,17.6356108 C128.414894,15.4037267 127.764361,13.9006211 125.566008,13.9006211 C123.950892,13.9006211 122.38064,15.2215321 122.38064,18.068323 L122.38064,23.5341615 L120.855252,23.5341615 L120.855252,15.2215321 C120.855252,14.6521739 120.83282,13.6045549 120.765523,12.8757764 Z M137.873794,12.8757764 L137.873794,14.173913 L134.912747,14.173913 L134.912747,20.3913043 C134.912747,21.9855072 135.56328,22.3498965 136.482999,22.3498965 C136.90921,22.3498965 137.402718,22.2132505 137.806497,22.0082816 L137.873794,23.3519669 C137.335422,23.5569358 136.774617,23.6708075 136.07922,23.6708075 C134.957611,23.6708075 133.387359,23.1697723 133.387359,20.8240166 L133.387359,14.173913 L131.211438,14.173913 L131.211438,12.8757764 L133.387359,12.8757764 L133.387359,9.86956522 L134.912747,9.86956522 L134.912747,12.8757764 L137.873794,12.8757764 Z M140.356288,17.3850932 L147.512151,17.3850932 C147.422422,15.3809524 146.211085,13.9006211 144.035164,13.9006211 C141.993836,13.9006211 140.490881,15.563147 140.356288,17.3850932 Z M149.059971,17.8861284 C149.059971,18.0910973 149.059971,18.3416149 149.037539,18.6149068 L140.333855,18.6149068 C140.37872,20.7556936 142.016268,22.4865424 144.169757,22.4865424 C145.740009,22.4865424 146.951346,21.5983437 147.534583,20.6418219 L148.678624,21.552795 C147.444854,23.1469979 145.897034,23.8074534 144.169757,23.8074534 C141.051685,23.8074534 138.741171,21.4161491 138.741171,18.2049689 C138.741171,14.9937888 141.051685,12.6024845 144.035164,12.6024845 C147.332693,12.6024845 149.059971,14.9710145 149.059971,17.8861284 Z M151.4976,12.8757764 L152.955691,12.8757764 C153.000556,13.4451346 153.04542,14.242236 153.04542,14.6977226 L153.090284,14.6977226 C153.673521,13.4679089 155.198909,12.6024845 156.679432,12.6024845 C159.348861,12.6024845 160.672359,14.3561077 160.672359,16.9979296 L160.672359,23.5341615 L159.146971,23.5341615 L159.146971,17.6356108 C159.146971,15.4037267 158.496438,13.9006211 156.298085,13.9006211 C154.682969,13.9006211 153.112717,15.2215321 153.112717,18.068323 L153.112717,23.5341615 L151.587329,23.5341615 L151.587329,15.2215321 C151.587329,14.6521739 151.564897,13.6045549 151.4976,12.8757764 Z M168.605871,12.8757764 L168.605871,14.173913 L165.644824,14.173913 L165.644824,20.3913043 C165.644824,21.9855072 166.295357,22.3498965 167.215076,22.3498965 C167.641287,22.3498965 168.134795,22.2132505 168.538574,22.0082816 L168.605871,23.3519669 C168.067499,23.5569358 167.506694,23.6708075 166.811297,23.6708075 C165.689688,23.6708075 164.119436,23.1697723 164.119436,20.8240166 L164.119436,14.173913 L161.943515,14.173913 L161.943515,12.8757764 L164.119436,12.8757764 L164.119436,9.86956522 L165.644824,9.86956522 L165.644824,12.8757764 L168.605871,12.8757764 Z M175.185975,23.5341615 L175.185975,7.40993789 L180.457535,7.40993789 C184.42803,7.40993789 188.802304,10.0973085 188.802304,15.4720497 C188.802304,20.8467909 184.42803,23.5341615 180.457535,23.5341615 L175.185975,23.5341615 Z M176.801091,8.86749482 L176.801091,22.0766046 L180.008892,22.0766046 C184.786945,22.0766046 187.097459,18.7971014 187.097459,15.4720497 C187.097459,12.1469979 184.786945,8.86749482 180.008892,8.86749482 L176.801091,8.86749482 Z M192.182085,17.3850932 L199.337948,17.3850932 C199.248219,15.3809524 198.036882,13.9006211 195.860961,13.9006211 C193.819633,13.9006211 192.316678,15.563147 192.182085,17.3850932 Z M200.885768,17.8861284 C200.885768,18.0910973 200.885768,18.3416149 200.863336,18.6149068 L192.159652,18.6149068 C192.204517,20.7556936 193.842065,22.4865424 195.995554,22.4865424 C197.565806,22.4865424 198.777143,21.5983437 199.36038,20.6418219 L200.504421,21.552795 C199.270651,23.1469979 197.722831,23.8074534 195.995554,23.8074534 C192.877482,23.8074534 190.566968,21.4161491 190.566968,18.2049689 C190.566968,14.9937888 192.877482,12.6024845 195.860961,12.6024845 C199.15849,12.6024845 200.885768,14.9710145 200.885768,17.8861284 Z M210.16521,14.515528 L208.998737,15.4037267 C208.550093,14.515528 207.58551,13.9006211 206.419037,13.9006211 C205.319861,13.9006211 204.198252,14.378882 204.198252,15.563147 C204.198252,16.5652174 204.983378,17.0207039 206.710655,17.3850932 C209.178194,17.9089027 210.344667,18.8426501 210.344667,20.505176 C210.344667,22.942029 208.325772,23.8074534 206.396605,23.8074534 C204.803921,23.8074534 203.211236,23.1697723 202.246653,21.7349896 L203.45799,20.8240166 C203.996362,21.757764 205.140403,22.4865424 206.374173,22.4865424 C207.675239,22.4865424 208.841712,22.0082816 208.841712,20.6190476 C208.841712,19.5031056 207.742535,19.047619 205.746072,18.5693582 C204.512302,18.2732919 202.740161,17.7267081 202.740161,15.699793 C202.740161,13.5362319 204.579599,12.6024845 206.486334,12.6024845 C207.944425,12.6024845 209.492245,13.3084886 210.16521,14.515528 Z M214.173091,12.8757764 L214.173091,23.5341615 L212.647704,23.5341615 L212.647704,12.8757764 L214.173091,12.8757764 Z M214.487142,8.77639752 C214.487142,9.41407867 213.94877,9.86956522 213.410398,9.86956522 C212.872025,9.86956522 212.333653,9.41407867 212.333653,8.77639752 C212.333653,8.13871636 212.872025,7.68322981 213.410398,7.68322981 C213.94877,7.68322981 214.487142,8.13871636 214.487142,8.77639752 Z M216.947204,26.8592133 L218.04638,25.6749482 C218.87637,26.7681159 220.469055,27.6335404 222.061739,27.6335404 C225.06765,27.6335404 226.166827,25.7432712 226.166827,23.4430642 L226.166827,21.4389234 L226.121962,21.4389234 C225.314404,22.7598344 223.676855,23.5341615 222.151468,23.5341615 C218.87637,23.5341615 216.722882,21.2339545 216.722882,18.1138716 C216.722882,15.0848861 218.87637,12.6024845 222.151468,12.6024845 C223.676855,12.6024845 225.291972,13.3540373 226.121962,14.7204969 L226.166827,14.7204969 L226.166827,12.8757764 L227.692214,12.8757764 L227.692214,23.4430642 C227.692214,25.7660455 226.637902,29 221.994442,29 C220.065276,29 218.180973,28.1801242 216.947204,26.8592133 Z M218.337998,18.068323 C218.337998,20.300207 219.773657,22.2132505 222.308493,22.2132505 C224.663871,22.2132505 226.346284,20.5279503 226.346284,18.068323 C226.346284,15.8364389 224.663871,13.9006211 222.308493,13.9006211 C219.773657,13.9006211 218.337998,15.8364389 218.337998,18.068323 Z M230.825241,12.8757764 L232.283332,12.8757764 C232.328197,13.4451346 232.373061,14.242236 232.373061,14.6977226 L232.417926,14.6977226 C233.001162,13.4679089 234.52655,12.6024845 236.007073,12.6024845 C238.676502,12.6024845 240,14.3561077 240,16.9979296 L240,23.5341615 L238.474612,23.5341615 L238.474612,17.6356108 C238.474612,15.4037267 237.824079,13.9006211 235.625726,13.9006211 C234.01061,13.9006211 232.440358,15.2215321 232.440358,18.068323 L232.440358,23.5341615 L230.91497,23.5341615 L230.91497,15.2215321 C230.91497,14.6521739 230.892538,13.6045549 230.825241,12.8757764 Z" id="ContentDesign" fill="#8D9096"></path>
            <g id="Group" fill="#000000">
                <path d="M84.2434066,21.6481481 C84.2434066,21.3490741 84.0435165,21.25 83.7446154,21.25 L83.3467033,21.25 L83.3467033,22.5462963 L83.5456593,22.5462963 L83.5456593,22.0472222 L83.7446154,22.0472222 L84.0435165,22.5472222 L84.3424176,22.5472222 L84.0435165,21.9481481 C84.1434615,21.9481481 84.2424725,21.8481481 84.2424725,21.6481481 L84.2434066,21.6481481 Z M83.5456593,21.8481481 L83.5456593,21.4490741 L83.7446154,21.4490741 C83.8445604,21.4490741 84.0435165,21.4490741 84.0435165,21.6481481 C84.0435165,21.8481481 83.9435714,21.8481481 83.7446154,21.8481481 L83.5456593,21.8481481 Z M83.7446154,20.8509259 C83.1387537,20.8595015 82.6514402,21.3475101 82.648956,21.9481481 C82.6514402,22.5487862 83.1387537,23.0367948 83.7446154,23.0453704 C84.3504771,23.0367948 84.8377906,22.5487862 84.8402747,21.9481481 C84.9402198,21.3490741 84.4423626,20.8509259 83.7446154,20.8509259 L83.7446154,20.8509259 Z M83.7446154,22.8453704 C83.5051676,22.8453832 83.2756606,22.7504628 83.107225,22.5817558 C82.9387894,22.4130488 82.8454178,22.1845704 82.8479121,21.9472222 C82.8456688,21.7100337 82.9391514,21.4817946 83.1075596,21.3132889 C83.2759679,21.1447832 83.5053312,21.05 83.7446154,21.05 C83.9840631,21.05 84.2135702,21.1449076 84.3820058,21.3136146 C84.5504414,21.4823216 84.6438129,21.7108 84.6413187,21.9481481 C84.7403297,22.4462963 84.3424176,22.8462963 83.7446154,22.8462963 L83.7446154,22.8453704 Z M0,7.17777778 L4.21543956,7.17777778 L4.21543956,23.7074074 L0,23.7074074 L0,7.17777778 Z M17.8593407,6.63333333 C15.3084066,6.63333333 13.3113736,8.15648148 12.6463187,9.78796296 L12.5342308,9.78796296 L12.5342308,7.17592593 L8.54203297,7.17592593 L8.54203297,23.7064815 L12.7574725,23.7064815 L12.7574725,14.5712963 C12.7574725,12.3962963 13.9782967,10.112963 16.7515385,10.112963 C19.4136264,10.112963 19.9684615,12.6138889 19.9684615,14.5712963 L19.9684615,23.8157407 L24.182967,23.8157407 L24.182967,13.4851852 C24.182967,10.0046296 22.298022,6.63333333 17.8602747,6.63333333 L17.8593407,6.63333333 Z M54.244011,16.312963 C54.244011,18.487963 53.0241209,20.7712963 50.2508791,20.7712963 C47.5887912,20.7712963 47.033956,18.2703704 47.033956,16.312963 L47.033956,7.06851852 L42.9296703,7.06851852 L42.9296703,17.4 C42.9296703,20.7712963 44.8155495,24.1425926 49.1412088,24.1425926 C51.6930769,24.1425926 53.6901099,22.6203704 54.3551648,20.9888889 L54.4663187,20.9888889 L54.4663187,23.5990741 L58.4594505,23.5990741 L58.4594505,7.17777778 L54.244011,7.17777778 L54.244011,16.312963 L54.244011,16.312963 Z M62.8962637,23.7074074 L67.1117033,23.7074074 L67.1117033,7.17777778 L62.8962637,7.17777778 L62.8962637,23.7074074 L62.8962637,23.7074074 Z M26.2902198,10.875 L31.0595604,10.875 L31.0595604,23.8166667 L35.275,23.8166667 L35.275,10.875 L40.0452747,10.875 L40.0452747,7.17777778 L26.2902198,7.17777778 L26.2902198,10.875 L26.2902198,10.875 Z M33.1677473,5.00277778 C34.6099451,5.00277778 35.7186813,3.91481481 35.7186813,2.50092593 C35.7186813,1.08796296 34.6099451,0 33.1686813,0 C31.7264835,0 30.6168132,1.08796296 30.6168132,2.50092593 C30.6168132,3.91481481 31.7264835,5.00277778 33.1686813,5.00277778 L33.1677473,5.00277778 Z M69.9960989,7.17777778 L69.9960989,10.875 L74.7654396,10.875 L74.7654396,23.8166667 L78.9808791,23.8166667 L78.9808791,10.875 L83.7511538,10.875 L83.7511538,7.17777778 L69.9960989,7.17777778 L69.9960989,7.17777778 Z M76.8736264,5.00185185 C78.3158242,5.00185185 79.4245604,3.91481481 79.4245604,2.50185185 C79.4245604,1.08703704 78.3158242,0 76.8736264,0 C75.4314286,0 74.3217582,1.08796296 74.3217582,2.50092593 C74.3217582,3.91481481 75.4314286,5.00277778 76.8736264,5.00277778 L76.8736264,5.00185185 Z" id="Shape"></path>
            </g>
        </g>
    </g>
</svg>