<svg width="188" height="20" viewBox="0 0 188 20" fill="none" xmlns="http://www.w3.org/2000/svg">
<path d="M75.64 7.818C74.92 6.846 73.642 6.36 72.508 6.36C69.79 6.36 68.008 8.25 68.008 10.788C68.008 13.326 69.79 15.216 72.508 15.216C73.966 15.216 74.992 14.64 75.712 13.758L74.794 13.074C74.308 13.722 73.57 14.172 72.508 14.172C70.546 14.172 69.304 12.696 69.304 10.788C69.304 8.862 70.564 7.386 72.526 7.386C73.444 7.386 74.29 7.854 74.686 8.502L75.64 7.818ZM85.81 10.788C85.81 8.25 83.938 6.36 81.31 6.36C78.7 6.36 76.828 8.25 76.828 10.788C76.828 13.326 78.7 15.216 81.31 15.216C83.938 15.216 85.81 13.326 85.81 10.788ZM84.514 10.788C84.514 12.678 83.272 14.172 81.31 14.172C79.366 14.172 78.124 12.678 78.124 10.788C78.124 8.898 79.366 7.386 81.31 7.386C83.272 7.386 84.514 8.898 84.514 10.788ZM88.1919 6.576C88.2459 7.152 88.2639 7.98 88.2639 8.43V15H89.4879V10.68C89.4879 8.43 90.7479 7.386 92.0439 7.386C93.8079 7.386 94.3299 8.574 94.3299 10.338V15H95.5539V9.834C95.5539 7.746 94.4919 6.36 92.3499 6.36C91.1619 6.36 89.9379 7.044 89.4699 8.016H89.4339C89.4339 7.656 89.3979 7.026 89.3619 6.576H88.1919ZM102.341 6.576H99.9649V4.2H98.7409V6.576H96.9949V7.602H98.7409V12.858C98.7409 14.712 100.001 15.108 100.901 15.108C101.459 15.108 101.909 15.018 102.341 14.856L102.287 13.794C101.963 13.956 101.567 14.064 101.225 14.064C100.487 14.064 99.9649 13.776 99.9649 12.516V7.602H102.341V6.576ZM104.76 10.14C104.868 8.7 106.074 7.386 107.712 7.386C109.458 7.386 110.43 8.556 110.502 10.14H104.76ZM111.744 10.536C111.744 8.232 110.358 6.36 107.712 6.36C105.318 6.36 103.464 8.25 103.464 10.788C103.464 13.326 105.318 15.216 107.82 15.216C109.206 15.216 110.448 14.694 111.438 13.434L110.52 12.714C110.052 13.47 109.08 14.172 107.82 14.172C106.092 14.172 104.778 12.804 104.742 11.112H111.726C111.744 10.896 111.744 10.698 111.744 10.536ZM114.125 6.576C114.179 7.152 114.197 7.98 114.197 8.43V15H115.421V10.68C115.421 8.43 116.681 7.386 117.977 7.386C119.741 7.386 120.263 8.574 120.263 10.338V15H121.487V9.834C121.487 7.746 120.425 6.36 118.283 6.36C117.095 6.36 115.871 7.044 115.403 8.016H115.367C115.367 7.656 115.331 7.026 115.295 6.576H114.125ZM128.274 6.576H125.898V4.2H124.674V6.576H122.928V7.602H124.674V12.858C124.674 14.712 125.934 15.108 126.834 15.108C127.392 15.108 127.842 15.018 128.274 14.856L128.22 13.794C127.896 13.956 127.5 14.064 127.158 14.064C126.42 14.064 125.898 13.776 125.898 12.516V7.602H128.274V6.576ZM141.258 13.578H141.294V15H142.518V1.392H141.294V8.034H141.258C140.538 6.936 139.278 6.36 138.072 6.36C135.444 6.36 133.716 8.304 133.716 10.788C133.716 13.272 135.444 15.216 138.072 15.216C139.278 15.216 140.538 14.64 141.258 13.578ZM135.012 10.788C135.012 8.916 136.164 7.386 138.198 7.386C140.088 7.386 141.438 8.862 141.438 10.788C141.438 12.714 140.088 14.172 138.198 14.172C136.164 14.172 135.012 12.66 135.012 10.788ZM146.293 10.14C146.401 8.7 147.607 7.386 149.245 7.386C150.991 7.386 151.963 8.556 152.035 10.14H146.293ZM153.277 10.536C153.277 8.232 151.891 6.36 149.245 6.36C146.851 6.36 144.997 8.25 144.997 10.788C144.997 13.326 146.851 15.216 149.353 15.216C150.739 15.216 151.981 14.694 152.971 13.434L152.053 12.714C151.585 13.47 150.613 14.172 149.353 14.172C147.625 14.172 146.311 12.804 146.275 11.112H153.259C153.277 10.896 153.277 10.698 153.277 10.536ZM161.148 7.872C160.608 6.918 159.366 6.36 158.196 6.36C156.666 6.36 155.19 7.098 155.19 8.808C155.19 10.41 156.612 10.842 157.602 11.076C159.204 11.454 160.086 11.814 160.086 12.696C160.086 13.794 159.15 14.172 158.106 14.172C157.116 14.172 156.198 13.596 155.766 12.858L154.794 13.578C155.568 14.712 156.846 15.216 158.124 15.216C159.672 15.216 161.292 14.532 161.292 12.606C161.292 11.292 160.356 10.554 158.376 10.14C156.99 9.852 156.36 9.492 156.36 8.7C156.36 7.764 157.26 7.386 158.142 7.386C159.078 7.386 159.852 7.872 160.212 8.574L161.148 7.872ZM164.79 6.576H163.566V15H164.79V6.576ZM165.042 3.336C165.042 2.832 164.61 2.472 164.178 2.472C163.746 2.472 163.314 2.832 163.314 3.336C163.314 3.84 163.746 4.2 164.178 4.2C164.61 4.2 165.042 3.84 165.042 3.336ZM167.436 17.628C168.426 18.672 169.938 19.32 171.486 19.32C175.212 19.32 176.058 16.764 176.058 14.928V6.576H174.834V8.034H174.798C174.132 6.954 172.836 6.36 171.612 6.36C168.984 6.36 167.256 8.322 167.256 10.716C167.256 13.182 168.984 15 171.612 15C172.836 15 174.15 14.388 174.798 13.344H174.834V14.928C174.834 16.746 173.952 18.24 171.54 18.24C170.262 18.24 168.984 17.556 168.318 16.692L167.436 17.628ZM168.552 10.68C168.552 8.916 169.704 7.386 171.738 7.386C173.628 7.386 174.978 8.916 174.978 10.68C174.978 12.624 173.628 13.956 171.738 13.956C169.704 13.956 168.552 12.444 168.552 10.68ZM178.989 6.576C179.043 7.152 179.061 7.98 179.061 8.43V15H180.285V10.68C180.285 8.43 181.545 7.386 182.841 7.386C184.605 7.386 185.127 8.574 185.127 10.338V15H186.351V9.834C186.351 7.746 185.289 6.36 183.147 6.36C181.959 6.36 180.735 7.044 180.267 8.016H180.231C180.231 7.656 180.195 7.026 180.159 6.576H178.989Z" fill="#5D686F"/>
<path d="M28.2289 10.5756C28.2289 13.3636 30.4608 15.4012 33.2955 15.4012C36.1301 15.4012 38.3637 13.3667 38.3637 10.5756V4.17627H35.6175V10.2472C35.6175 11.7509 34.6126 12.7596 33.2878 12.7596C31.9629 12.7596 30.958 11.7509 30.958 10.2472V4.17627H28.2148L28.2289 10.5756Z" fill="#21262A"/>
<path d="M45.7061 6.74473H48.9818V15.1786H51.7263V6.74473H55.0005V4.17627H45.7061V6.74473Z" fill="#21262A"/>
<path d="M43.9262 4.17627H41.1816V15.1786H43.9262V4.17627Z" fill="#21262A"/>
<path d="M17.1445 6.74473H20.4201V15.1786H23.1648V6.74473H26.439V4.17627H17.1445V6.74473Z" fill="#21262A"/>
<path d="M2.74454 4.17627H0V15.1786H2.74454V9.67745V4.17627Z" fill="#21262A"/>
<path d="M15.6978 8.77823C15.6978 5.99029 13.4643 3.95264 10.6297 3.95264C7.79505 3.95264 5.56152 5.98716 5.56152 8.77823V15.1776H8.30607V9.10668C8.30607 7.60297 9.31256 6.59426 10.6359 6.59426C11.9592 6.59426 12.9657 7.60297 12.9657 9.10668V15.1776H15.7103L15.6978 8.77823Z" fill="#21262A"/>
</svg>
