<?xml version="1.0" encoding="utf-8"?>
<!-- Generator: Adobe Illustrator 24.0.1, SVG Export Plug-In . SVG Version: 6.00 Build 0)  -->
<svg version="1.1" id="Layer_1" xmlns="http://www.w3.org/2000/svg" xmlns:xlink="http://www.w3.org/1999/xlink" x="0px" y="0px"
	 viewBox="0 0 85 31" style="enable-background:new 0 0 85 31;" xml:space="preserve">
<title>intuit-content-design-logo</title>
<desc>Created with Sketch.</desc>
<g id="intuit-content-design-logo">
	<g transform="translate(0.000000, 1.000000)">
		<g id="Group">
			<path id="Shape" d="M83.9,21.6c0-0.3-0.2-0.4-0.5-0.4H83v1.3h0.2V22h0.2l0.3,0.5H84l-0.3-0.6C83.8,21.9,83.9,21.8,83.9,21.6
				L83.9,21.6z M83.2,21.8v-0.4h0.2c0.1,0,0.3,0,0.3,0.2c0,0.2-0.1,0.2-0.3,0.2H83.2z M83.4,20.9c-0.6,0-1.1,0.5-1.1,1.1
				c0,0.6,0.5,1.1,1.1,1.1c0.6,0,1.1-0.5,1.1-1.1C84.6,21.3,84.1,20.9,83.4,20.9L83.4,20.9z M83.4,22.8c-0.2,0-0.5-0.1-0.6-0.3
				s-0.3-0.4-0.3-0.6c0-0.2,0.1-0.5,0.3-0.6c0.2-0.2,0.4-0.3,0.6-0.3c0.2,0,0.5,0.1,0.6,0.3s0.3,0.4,0.3,0.6
				C84.4,22.4,84,22.8,83.4,22.8L83.4,22.8z M-0.4,7.2h4.2v16.5h-4.2V7.2z M17.5,6.6c-2.6,0-4.5,1.5-5.2,3.2h-0.1V7.2h-4v16.5h4.2
				v-9.1c0-2.2,1.2-4.5,4-4.5c2.7,0,3.2,2.5,3.2,4.5v9.2h4.2V13.5C23.8,10,21.9,6.6,17.5,6.6L17.5,6.6z M53.9,16.3
				c0,2.2-1.2,4.5-4,4.5c-2.7,0-3.2-2.5-3.2-4.5V7.1h-4.1v10.3c0,3.4,1.9,6.7,6.2,6.7c2.6,0,4.5-1.5,5.2-3.2h0.1v2.6h4V7.2h-4.2
				V16.3L53.9,16.3z M62.5,23.7h4.2V7.2h-4.2V23.7L62.5,23.7z M25.9,10.9h4.8v12.9h4.2V10.9h4.8V7.2H25.9V10.9L25.9,10.9z M32.8,5
				c1.4,0,2.6-1.1,2.6-2.5c0-1.4-1.1-2.5-2.5-2.5c-1.4,0-2.6,1.1-2.6,2.5C30.3,3.9,31.4,5,32.8,5L32.8,5z M69.6,7.2v3.7h4.8v12.9
				h4.2V10.9h4.8V7.2H69.6L69.6,7.2z M76.5,5c1.4,0,2.6-1.1,2.6-2.5C79.1,1.1,78,0,76.5,0S74,1.1,74,2.5C74,3.9,75.1,5,76.5,5
				L76.5,5z"/>
		</g>
	</g>
</g>
</svg>
