<?xml version="1.0" encoding="utf-8"?>
<!-- Generator: Adobe Illustrator 24.0.0, SVG Export Plug-In . SVG Version: 6.00 Build 0)  -->
<svg version="1.0" id="Layer_1" xmlns="http://www.w3.org/2000/svg" xmlns:xlink="http://www.w3.org/1999/xlink" x="0px" y="0px"
	 viewBox="0 0 49 20" style="enable-background:new 0 0 49 20;" xml:space="preserve">
<style type="text/css">
	.st0{fill-rule:evenodd;clip-rule:evenodd;}
	.st1{fill:#00A6A4;}
	.st2{fill-rule:evenodd;clip-rule:evenodd;fill:#FFFFFF;}
</style>
<path class="st0" d="M47.3,9.4v1.5h-1.6v2.9c0,0.5,0.2,0.9,0.7,0.9c0.3,0,0.6-0.1,0.8-0.1l0,1.4c-0.3,0.1-0.8,0.2-1.2,0.2
	c-2,0-2.2-1.4-2.2-2.4v-2.9h-1.1V9.4h1.1V7.6h1.8v1.8H47.3z M34.2,16h-1.8V9.4h1.8V16z M28.2,9.2c-0.9,0-1.6,0.5-2.1,1.2
	c-0.3-0.5-1-1.2-2.1-1.2c-0.9,0-1.7,0.7-2,1.2h0v-1h-1.7V16h1.8v-3.6c0-0.8,0.4-1.6,1.3-1.6c1,0,1.1,0.9,1.1,1.3v4h1.8v-3.6
	c0-0.8,0.5-1.6,1.4-1.6c0.9,0,1.1,0.8,1.1,1.6V16h1.8v-4.1C30.6,10.7,30,9.2,28.2,9.2z M37.5,10.4c0.4-0.5,1.1-1.2,2-1.2
	c1.8,0,2.4,1.4,2.4,2.7V16h-1.8v-3.6c0-0.8-0.2-1.6-1.1-1.6c-0.9,0-1.4,0.8-1.4,1.6V16h-1.8V9.4h1.7L37.5,10.4L37.5,10.4z"/>
<path class="st1" d="M9.6,17.3c4.2,0,7.7-3.4,7.7-7.7c0-4.2-3.4-7.7-7.7-7.7C5.4,2,2,5.4,2,9.6C2,13.9,5.4,17.3,9.6,17.3z"/>
<path class="st2" d="M5.7,10.9c0-2.8,3.5-6.4,4-6.9c0.5,0.5,4,4.1,4,6.9c0,1.7-1.1,2.4-2.9,3.6c-0.3,0.2-0.7,0.5-1.1,0.7
	c-0.4-0.3-0.7-0.5-1.1-0.7C6.8,13.3,5.7,12.6,5.7,10.9z M9.2,13.6c0.1,0.1,0.3,0.2,0.4,0.2v-8c-1.3,1.5-2.8,3.6-2.8,5.1
	C6.8,11.9,7.3,12.3,9.2,13.6z"/>
<path class="st0" d="M26.9,3.7c0.3,0,0.5-0.2,0.5-0.5s-0.2-0.5-0.5-0.5c-0.3,0-0.5,0.2-0.5,0.5S26.6,3.7,26.9,3.7z M22.8,4.7
	c0.1-0.3,0.5-0.6,1-0.6c0.9,0,1.2,0.7,1.2,1.4v2.1h-0.8V5.6c0-0.4-0.1-0.9-0.6-0.9c-0.5,0-0.8,0.5-0.8,0.9v1.8H22V4.1h0.8L22.8,4.7
	L22.8,4.7z M21.1,7.5h-0.8V4.1h0.8V7.5z M36,3.2c0,0.3-0.2,0.5-0.5,0.5c-0.3,0-0.5-0.2-0.5-0.5s0.2-0.5,0.5-0.5
	C35.8,2.7,36,2.9,36,3.2z M25.5,4.9h0.9v2.6h0.8V4.9h0.9V4.1h-2.7V4.9z M30.3,6.9c0.5,0,0.8-0.5,0.8-0.9V4.1h0.8v3.4h-0.8V7h0
	c-0.1,0.3-0.5,0.6-1,0.6c-0.9,0-1.2-0.7-1.2-1.4V4.1h0.8V6C29.6,6.4,29.7,6.9,30.3,6.9z M34.2,4.1v0.7h0.9v2.6H36V4.9h0.9V4.1H34.2z
	 M33.6,7.5h-0.8V4.1h0.8V7.5z"/>
</svg>
