<?xml version="1.0" encoding="utf-8"?>
<!-- Generator: Adobe Illustrator 24.0.3, SVG Export Plug-In . SVG Version: 6.00 Build 0)  -->
<svg version="1.1" id="Layer_1" xmlns="http://www.w3.org/2000/svg" xmlns:xlink="http://www.w3.org/1999/xlink" x="0px" y="0px"
	 viewBox="0 0 95.2 20" style="enable-background:new 0 0 95.2 20;" xml:space="preserve">
<style type="text/css">
	.st0{fill:#0077C5;}
	.st1{fill:#FFFFFF;}
</style>
<path d="M90.6,14.7h0.5v1.2h0.2v-1.2h0.4v-0.2h-1.1V14.7z M93.2,14.5l-0.4,1l-0.4-1H92v1.4h0.2v-1.1h0l0.5,1.1h0.1l0.5-1.1h0v1.1
	h0.2v-1.4H93.2z"/>
<path d="M36.9,9.1c-2.1,0-3.6,1.5-3.6,3.5c0,2.1,1.5,3.5,3.6,3.5c2,0,3.6-1.5,3.6-3.5C40.5,10.5,39,9.1,36.9,9.1z M36.9,14.5
	c-1.2,0-1.7-1-1.7-2c0-0.9,0.5-1.9,1.7-1.9c1.2,0,1.7,1,1.7,1.9C38.6,13.5,38.1,14.5,36.9,14.5z M74.4,9.1c-2.2,0-3.6,1.5-3.6,3.5
	c0,2.1,1.5,3.4,3.6,3.4c1.2,0,2.2-0.5,2.8-1.4L76,13.8c-0.4,0.5-0.8,0.7-1.5,0.7c-1,0-1.7-0.7-1.8-1.4h4.9c0,0,0-0.2,0-0.5
	C77.6,10.4,76.3,9.1,74.4,9.1z M72.7,11.8c0-0.9,0.8-1.4,1.7-1.4c1,0,1.4,0.7,1.4,1.4H72.7z M89.8,10.7V9.3h-1.6V7.4h-1.8v1.8h-1.1
	v1.5h1.1v2.9c0,1,0.2,2.4,2.2,2.4c0.4,0,0.9-0.1,1.2-0.2l0-1.4c-0.2,0.1-0.5,0.1-0.8,0.1c-0.5,0-0.7-0.4-0.7-0.9v-2.9H89.8
	L89.8,10.7z M24.2,9.1c-1.1,0-1.8,0.7-2.1,1h0V9.3h-1.8v9.8h1.8v-4h0c0.5,0.5,1.3,1,2.1,1c1.9,0,3.2-1.5,3.2-3.5
	C27.5,10.5,26.1,9.1,24.2,9.1z M23.8,14.5c-1.1,0-1.8-1-1.8-1.9c0-0.9,0.7-2,1.8-2c1.2,0,1.8,1,1.8,1.9C25.6,13.5,25,14.5,23.8,14.5
	z M30.4,10.3L30.4,10.3l0-1h-1.8v6.6h1.8v-3.5c0,0,0.1-1.6,1.7-1.6c0.1,0,0.4,0,0.6,0.1V9.1c-0.1,0-0.4-0.1-0.5-0.1
	C31.4,9.1,30.8,9.7,30.4,10.3z M67.4,9.1c-1,0-1.6,0.7-2,1.2h0v-1h-1.7v6.6h1.8v-3.6c0-0.8,0.5-1.6,1.4-1.6c0.9,0,1.1,0.8,1.1,1.6
	v3.6h1.8v-4.1C69.8,10.5,69.2,9.1,67.4,9.1z M44.9,14.5c-1.1,0-1.7-1-1.7-1.9s0.6-1.9,1.6-1.9c0.5,0,1.1,0.2,1.3,0.6l1.2-1.2
	c-0.6-0.6-1.5-1-2.5-1c-2,0-3.5,1.5-3.5,3.5c0,2,1.5,3.5,3.6,3.5c1,0,1.9-0.3,2.5-0.9l-1.1-1.2C45.9,14.2,45.4,14.5,44.9,14.5z
	 M59.9,9.1c-1,0-1.6,0.7-2,1.2h0v-1h-1.7v6.6h1.8v-3.6c0-0.8,0.5-1.6,1.4-1.6c0.9,0,1.1,0.8,1.1,1.6v3.6h1.8v-4.1
	C62.3,10.5,61.7,9.1,59.9,9.1z M82,14.5c-1.1,0-1.7-1-1.7-1.9s0.6-1.9,1.6-1.9c0.5,0,1.1,0.2,1.3,0.6l1.2-1.2c-0.6-0.6-1.5-1-2.5-1
	c-2,0-3.5,1.5-3.5,3.5c0,2,1.5,3.5,3.6,3.5c1,0,1.9-0.3,2.5-0.9l-1.1-1.2C83.1,14.2,82.5,14.5,82,14.5z M51.5,9.1
	c-2.1,0-3.6,1.5-3.6,3.5c0,2.1,1.5,3.5,3.6,3.5c2,0,3.6-1.5,3.6-3.5C55.1,10.5,53.6,9.1,51.5,9.1z M51.5,14.5c-1.2,0-1.7-1-1.7-2
	c0-0.9,0.5-1.9,1.7-1.9c1.2,0,1.7,1,1.7,1.9C53.2,13.5,52.7,14.5,51.5,14.5z"/>
<path class="st0" d="M9.7,17.1c4.2,0,7.7-3.4,7.7-7.7c0-4.2-3.4-7.7-7.7-7.7C5.4,1.8,2,5.2,2,9.5C2,13.7,5.4,17.1,9.7,17.1z"/>
<path class="st1" d="M12.3,5.7c-0.1-0.2-0.3-0.4-0.6-0.4H6.2l0,0.6v0c0,0.3,0.3,0.6,0.6,0.6h3.6l-4.8,4.8c-0.2,0.2-0.2,0.6,0,0.8
	L6,12.6l6.2-6.2C12.4,6.1,12.4,5.9,12.3,5.7z M13.5,6.8c-0.2-0.1-0.5,0-0.6,0.1l-6.2,6.2L7,13.6c0.2,0.2,0.6,0.2,0.8,0l4.8-4.8v3.6
	c0,0.3,0.3,0.6,0.6,0.6h0h0.6V7.3C13.9,7.1,13.7,6.9,13.5,6.8z"/>
<path d="M23.8,3.9c-0.5,0-0.9,0.3-1,0.6h0V4H22v3.3h0.8V5.5c0-0.4,0.3-0.9,0.8-0.9c0.5,0,0.6,0.5,0.6,0.9v1.9h0.8V5.2
	C25.1,4.6,24.7,3.9,23.8,3.9z M20.3,7.3h0.8V4h-0.8V7.3z M26.9,3.5c0.3,0,0.5-0.2,0.5-0.5s-0.2-0.5-0.5-0.5c-0.3,0-0.5,0.2-0.5,0.5
	S26.6,3.5,26.9,3.5z M35.5,3.5C35.8,3.5,36,3.3,36,3s-0.2-0.5-0.5-0.5C35.2,2.5,35,2.8,35,3S35.2,3.5,35.5,3.5z M34.2,4v0.7h0.9v2.6
	h0.8V4.7h0.9V4H34.2z M32.7,7.3h0.8V4h-0.8V7.3z M25.5,4.7h0.9v2.6h0.8V4.7h0.9V4h-2.7V4.7L25.5,4.7z M31,5.8c0,0.4-0.3,0.9-0.8,0.9
	c-0.5,0-0.6-0.5-0.6-0.9V4h-0.8v2.1c0,0.7,0.4,1.4,1.2,1.4c0.5,0,0.9-0.3,1-0.6h0v0.5h0.8V4H31V5.8L31,5.8z"/>
</svg>
