<?xml version="1.0" encoding="utf-8"?>
<!-- Generator: Adobe Illustrator 24.0.0, SVG Export Plug-In . SVG Version: 6.00 Build 0)  -->
<svg version="1.1" id="Layer_2" xmlns="http://www.w3.org/2000/svg" xmlns:xlink="http://www.w3.org/1999/xlink" x="0px" y="0px"
	 viewBox="0 0 97 20" style="enable-background:new 0 0 97 20;" xml:space="preserve">
<style type="text/css">
	.st0{fill-rule:evenodd;clip-rule:evenodd;fill:#FFFFFF;filter:url(#Adobe_OpacityMaskFilter);}
	.st1{mask:url(#mask0_1_);}
	.st2{fill-rule:evenodd;clip-rule:evenodd;}
	.st3{fill-rule:evenodd;clip-rule:evenodd;fill:#FFFFFF;filter:url(#Adobe_OpacityMaskFilter_1_);}
	.st4{mask:url(#mask1_1_);}
	.st5{fill-rule:evenodd;clip-rule:evenodd;fill:#2CA01C;}
	.st6{fill-rule:evenodd;clip-rule:evenodd;fill:#FFFFFF;filter:url(#Adobe_OpacityMaskFilter_2_);}
	.st7{mask:url(#mask2_1_);}
	.st8{fill-rule:evenodd;clip-rule:evenodd;fill:#FFFFFF;}
	.st9{fill-rule:evenodd;clip-rule:evenodd;fill:#FFFFFF;filter:url(#Adobe_OpacityMaskFilter_3_);}
	.st10{mask:url(#mask3_1_);}
</style>
<defs>
	<filter id="Adobe_OpacityMaskFilter" filterUnits="userSpaceOnUse" x="18.6" y="4.9" width="74.1" height="15.2">
		<feColorMatrix  type="matrix" values="1 0 0 0 0  0 1 0 0 0  0 0 1 0 0  0 0 0 1 0"/>
	</filter>
</defs>
<mask maskUnits="userSpaceOnUse" x="18.6" y="4.9" width="74.1" height="15.2" id="mask0_1_">
	<path class="st0" d="M91.4,15.1c0-0.2-0.2-0.2-0.3-0.2h-0.3v0.9H91v-0.4h0.1l0.2,0.4h0.2l-0.2-0.4C91.4,15.3,91.4,15.2,91.4,15.1
		L91.4,15.1z M91,15.2v-0.2h0.1c0.1,0,0.2,0,0.2,0.1c0,0.1-0.1,0.1-0.2,0.1L91,15.2L91,15.2z M91.1,14.5c-0.4,0-0.8,0.3-0.8,0.8
		s0.3,0.7,0.8,0.7s0.8-0.3,0.8-0.7C91.9,14.8,91.5,14.5,91.1,14.5z M91.1,15.9c-0.4,0-0.6-0.3-0.6-0.6c0-0.4,0.3-0.6,0.6-0.6
		c0.4,0,0.6,0.3,0.6,0.6C91.8,15.6,91.5,15.9,91.1,15.9L91.1,15.9z M42.4,14.6c-1.1,0-1.7-1-1.7-1.9c0-1,0.6-1.9,1.6-1.9
		c0.5,0,1.1,0.2,1.3,0.6l1.2-1.2c-0.6-0.6-1.5-1-2.5-1c-2,0-3.5,1.5-3.5,3.5c0,2,1.5,3.5,3.6,3.5c1,0,1.9-0.3,2.5-0.9l-1.1-1.2
		C43.4,14.4,42.9,14.6,42.4,14.6L42.4,14.6z M35.8,16h1.8V9.4h-1.8V16z M32.5,13c0,0.8-0.5,1.6-1.4,1.6c-0.7,0-1.1-0.5-1.1-1.6V9.4
		h-1.8v4.1c0,1.4,0.7,2.7,2.5,2.7c0.9,0,1.6-0.7,1.9-1.2h0v1h1.7V9.4h-1.8L32.5,13L32.5,13z M24.9,10.2L24.9,10.2
		c-0.3-0.3-1-1-2.1-1c-1.9,0-3.3,1.5-3.3,3.5c0,2,1.3,3.5,3.2,3.5c0.9,0,1.7-0.5,2.1-1h0v4h1.8V9.4h-1.8V10.2z M23.1,14.6
		c-1.1,0-1.8-1-1.8-2c0-0.9,0.6-1.9,1.8-1.9c1.1,0,1.8,1,1.8,2C24.8,13.6,24.2,14.6,23.1,14.6L23.1,14.6z M64.5,9.2
		c-2.1,0-3.6,1.5-3.6,3.5c0,2.1,1.5,3.5,3.6,3.5c2,0,3.6-1.5,3.6-3.5C68.1,10.7,66.6,9.2,64.5,9.2L64.5,9.2z M64.5,14.6
		c-1.2,0-1.7-1-1.7-2c0-0.9,0.5-1.9,1.7-1.9c1.2,0,1.7,1,1.7,1.9C66.3,13.6,65.7,14.6,64.5,14.6L64.5,14.6z M87.3,11.9
		c-0.9-0.2-1.3-0.3-1.3-0.7c0-0.5,0.7-0.6,1-0.6c0.6,0,1.2,0.3,1.4,0.7l1.1-1c-0.5-0.6-1.5-1-2.5-1c-1.3,0-2.7,0.7-2.7,2.1
		c0,1.3,1,1.7,2,1.9c1,0.2,1.4,0.4,1.4,0.8c0,0.6-0.7,0.7-0.9,0.7c-0.6,0-1.3-0.3-1.7-0.8L84,15.1c0.6,0.7,1.6,1.1,2.7,1.1
		c1.8,0,2.8-0.8,2.8-2.2C89.5,12.6,88.2,12.2,87.3,11.9L87.3,11.9z M83.9,9.4h-2.3l-2.3,2.7h0V5.8h-1.8V16h1.8v-3.3h0l2.4,3.3H84
		l-2.8-3.6L83.9,9.4z M56.9,9.2c-0.8,0-1.4,0.4-2,0.9h0V5.8H53V16h1.7v-0.9h0c0.4,0.7,1.2,1.1,2.1,1.1c1.9,0,3.3-1.5,3.3-3.5
		C60.1,10.7,58.7,9.2,56.9,9.2L56.9,9.2z M56.5,14.6c-1.1,0-1.8-1-1.8-1.9c0-0.9,0.7-2,1.8-2c1.2,0,1.8,1,1.8,1.9
		C58.3,13.6,57.6,14.6,56.5,14.6L56.5,14.6z M52.3,9.4H50l-2.3,2.7h0V5.8h-1.8V16h1.8v-3.3h0l2.4,3.3h2.4l-2.8-3.6L52.3,9.4z
		 M72.5,9.2c-2.1,0-3.6,1.5-3.6,3.5c0,2.1,1.5,3.5,3.6,3.5c2,0,3.6-1.5,3.6-3.5C76.1,10.7,74.6,9.2,72.5,9.2L72.5,9.2z M72.5,14.6
		c-1.2,0-1.7-1-1.7-2c0-0.9,0.5-1.9,1.7-1.9c1.2,0,1.7,1,1.7,1.9C74.3,13.6,73.7,14.6,72.5,14.6L72.5,14.6z"/>
</mask>
<g class="st1">
	<path class="st2" d="M18.6,20.1h74.1V4.9H18.6V20.1z"/>
</g>
<defs>
	<filter id="Adobe_OpacityMaskFilter_1_" filterUnits="userSpaceOnUse" x="1.2" y="1.1" width="17" height="17">
		<feColorMatrix  type="matrix" values="1 0 0 0 0  0 1 0 0 0  0 0 1 0 0  0 0 0 1 0"/>
	</filter>
</defs>
<mask maskUnits="userSpaceOnUse" x="1.2" y="1.1" width="17" height="17" id="mask1_1_">
	<path class="st3" d="M9.7,17.3c4.2,0,7.7-3.4,7.7-7.7c0-4.2-3.4-7.7-7.7-7.7c-4.2,0-7.7,3.4-7.7,7.7C2.1,13.8,5.5,17.3,9.7,17.3z"
		/>
</mask>
<g class="st4">
	<path class="st5" d="M1.2,18.1h17v-17h-17V18.1z"/>
</g>
<defs>
	<filter id="Adobe_OpacityMaskFilter_2_" filterUnits="userSpaceOnUse" x="3.3" y="3.7" width="12.8" height="11.8">
		<feColorMatrix  type="matrix" values="1 0 0 0 0  0 1 0 0 0  0 0 1 0 0  0 0 0 1 0"/>
	</filter>
</defs>
<mask maskUnits="userSpaceOnUse" x="3.3" y="3.7" width="12.8" height="11.8" id="mask2_1_">
	<path class="st6" d="M4.2,9.6c0,1.6,1.3,3,3,3h0.4v-1.1H7.2c-1,0-1.9-0.8-1.9-1.9c0-1,0.8-1.9,1.9-1.9h1v5.8c0,0.6,0.5,1.1,1.1,1.1
		v-8H7.2C5.5,6.6,4.2,8,4.2,9.6z M12.3,6.6h-0.4v1.1h0.4c1,0,1.9,0.8,1.9,1.9c0,1-0.8,1.9-1.9,1.9h-1V5.7c0-0.6-0.5-1.1-1.1-1.1v8
		h2.1c1.6,0,3-1.3,3-3C15.3,8,13.9,6.6,12.3,6.6z"/>
</mask>
<g class="st7">
	<path class="st8" d="M3.3,15.5h12.8V3.7H3.3V15.5z"/>
</g>
<defs>
	<filter id="Adobe_OpacityMaskFilter_3_" filterUnits="userSpaceOnUse" x="19.5" y="1.8" width="18.3" height="6.6">
		<feColorMatrix  type="matrix" values="1 0 0 0 0  0 1 0 0 0  0 0 1 0 0  0 0 0 1 0"/>
	</filter>
</defs>
<mask maskUnits="userSpaceOnUse" x="19.5" y="1.8" width="18.3" height="6.6" id="mask3_1_">
	<path class="st9" d="M27,3.7c0.3,0,0.5-0.2,0.5-0.5c0-0.3-0.2-0.5-0.5-0.5c-0.3,0-0.5,0.2-0.5,0.5C26.4,3.5,26.7,3.7,27,3.7z
		 M23.9,4c-0.5,0-0.9,0.3-1,0.6h0V4.1h-0.8v3.4h0.8V5.6c0-0.4,0.3-0.9,0.8-0.9c0.5,0,0.6,0.5,0.6,0.9v1.9h0.8V5.4
		C25.2,4.7,24.8,4,23.9,4L23.9,4z M20.4,7.5h0.8V4.1h-0.8V7.5z M35.6,3.7c0.3,0,0.5-0.2,0.5-0.5c0-0.3-0.2-0.5-0.5-0.5
		c-0.3,0-0.5,0.2-0.5,0.5C35.1,3.5,35.3,3.7,35.6,3.7L35.6,3.7z M34.3,4.1v0.7h0.9v2.6H36V4.9H37V4.1L34.3,4.1L34.3,4.1z M32.8,7.5
		h0.8V4.1h-0.8V7.5L32.8,7.5z M25.6,4.9h0.9v2.6h0.8V4.9h0.9V4.1h-2.7L25.6,4.9L25.6,4.9z M31.1,6c0,0.4-0.3,0.9-0.8,0.9
		c-0.5,0-0.6-0.5-0.6-0.9V4.1h-0.8v2.1c0,0.7,0.4,1.4,1.2,1.4c0.5,0,0.9-0.3,1-0.6h0v0.5H32V4.1h-0.8L31.1,6L31.1,6z"/>
</mask>
<g class="st10">
	<path class="st2" d="M19.5,8.4h18.3V1.8H19.5V8.4z"/>
</g>
</svg>
