<svg width="20" height="20" viewBox="0 0 20 20" fill="none" xmlns="http://www.w3.org/2000/svg">
<mask id="mask0" mask-type="alpha" maskUnits="userSpaceOnUse" x="0" y="0" width="20" height="20">
<path d="M13.4578 12.0437L19.7068 18.2927C20.0978 18.6837 20.0978 19.3167 19.7068 19.7067C19.5118 19.9027 19.2558 19.9997 18.9998 19.9997C18.7438 19.9997 18.4878 19.9027 18.2928 19.7067L12.0438 13.4577C10.7058 14.4787 9.10481 14.9957 7.49981 14.9957C5.57981 14.9957 3.65881 14.2657 2.19681 12.8037C-0.727185 9.87866 -0.727185 5.12066 2.19681 2.19666C5.12081 -0.727338 9.87981 -0.727338 12.8028 2.19666C15.4868 4.88066 15.6998 9.10566 13.4578 12.0437ZM3.61081 11.3897C5.75681 13.5357 9.24581 13.5347 11.3888 11.3897C13.5328 9.24466 13.5328 5.75466 11.3888 3.61066C9.24381 1.46566 5.75481 1.46566 3.61081 3.61066C1.46681 5.75466 1.46681 9.24466 3.61081 11.3897Z" fill="white"/>
</mask>
<g mask="url(#mask0)">
<path d="M22 -2H-2V22H22V-2Z" fill="#6B6C72"/>
</g>
</svg>
