<?xml version="1.0" encoding="UTF-8"?>
<svg width="20px" height="20px" viewBox="0 0 20 20" version="1.1" xmlns="http://www.w3.org/2000/svg" xmlns:xlink="http://www.w3.org/1999/xlink">
    <!-- Generator: Sketch 57.1 (83088) - https://sketch.com -->
    <title>search-dark</title>
    <desc>Created with Sketch.</desc>
    <defs>
        <path d="M12.8028,2.19666 C15.4868,4.88066 15.6998,9.10566 13.4578,12.0437 L19.7068,18.2927 C20.0978,18.6837 20.0978,19.3167 19.7068,19.7067 C19.5118,19.9027 19.2558,19.9997 18.9998,19.9997 C18.7438,19.9997 18.4878,19.9027 18.2928,19.7067 L12.0438,13.4577 C10.7058,14.4787 9.10481,14.9957 7.49981,14.9957 C5.57981,14.9957 3.65881,14.2657 2.19681,12.8037 C-0.727185,9.87866 -0.727185,5.12066 2.19681,2.19666 C5.12081,-0.727338 9.87981,-0.727338 12.8028,2.19666 Z M3.61081,3.61066 C1.46681,5.75466 1.46681,9.24466 3.61081,11.3897 C5.75681,13.5357 9.24581,13.5347 11.3888,11.3897 C13.5328,9.24466 13.5328,5.75466 11.3888,3.61066 C9.24381,1.46566 5.75481,1.46566 3.61081,3.61066 Z" id="path-1"></path>
    </defs>
    <g id="search-dark" stroke="none" stroke-width="1" fill="none" fill-rule="evenodd">
        <mask id="mask-2" fill="white">
            <use xlink:href="#path-1"></use>
        </mask>
        <use id="search" fill="#6B6C72" xlink:href="#path-1"></use>
    </g>
</svg>