<svg width="21" height="21" viewBox="0 0 21 21" fill="none" xmlns="http://www.w3.org/2000/svg">
<path d="M20.6936 18.307L14.4546 12.049C15.3033 10.9395 15.8251 9.61495 15.9611 8.22469C16.0971 6.83442 15.8419 5.43382 15.2242 4.1809C14.6066 2.92798 13.651 1.87261 12.4655 1.13387C11.2799 0.395119 9.91146 0.00239696 8.51456 8.48617e-06H8.49956C7.30825 -0.00178346 6.13364 0.280242 5.07301 0.822732C4.01238 1.36522 3.09623 2.15257 2.40043 3.11958C1.70464 4.08659 1.24921 5.20543 1.07186 6.38348C0.894505 7.56152 1.00033 8.76486 1.38058 9.89387C1.76083 11.0229 2.40456 12.0451 3.25846 12.8758C4.11236 13.7065 5.15186 14.3218 6.2909 14.6709C7.42994 15.0199 8.63574 15.0926 9.80846 14.8829C10.9812 14.6732 12.0871 14.1872 13.0346 13.465L19.2746 19.724C19.3673 19.817 19.4775 19.8908 19.5988 19.9412C19.7201 19.9916 19.8502 20.0176 19.9815 20.0177C20.1129 20.0178 20.2429 19.9921 20.3643 19.942C20.4857 19.8918 20.5961 19.8183 20.6891 19.7255C20.782 19.6327 20.8558 19.5225 20.9062 19.4012C20.9566 19.28 20.9826 19.1499 20.9828 19.0186C20.9829 18.8872 20.9572 18.7571 20.907 18.6357C20.8569 18.5143 20.7833 18.404 20.6906 18.311L20.6936 18.307ZM4.60856 11.38C3.84237 10.6102 3.32124 9.63084 3.11087 8.56532C2.9005 7.49979 3.01031 6.39583 3.42646 5.39262C3.84261 4.38941 4.54647 3.53187 5.44929 2.92812C6.3521 2.32436 7.41347 2.00142 8.49956 2.00001H8.50856C9.4131 2.00097 10.3034 2.22501 11.1007 2.65227C11.898 3.07954 12.5775 3.69684 13.0792 4.4495C13.5809 5.20216 13.8892 6.06694 13.9769 6.96722C14.0645 7.86751 13.9287 8.7755 13.5816 9.61078C13.2344 10.4461 12.6866 11.1828 11.9867 11.7558C11.2868 12.3288 10.4564 12.7203 9.56901 12.8957C8.68163 13.071 7.7647 13.0248 6.89945 12.7611C6.0342 12.4975 5.24733 12.0244 4.60856 11.384V11.38Z" fill="#6B6C72"/>
</svg>
