<?xml version="1.0" encoding="utf-8"?>
<!-- Generator: Adobe Illustrator 24.0.0, SVG Export Plug-In . SVG Version: 6.00 Build 0)  -->
<svg version="1.0" id="Layer_1" xmlns="http://www.w3.org/2000/svg" xmlns:xlink="http://www.w3.org/1999/xlink" x="0px" y="0px"
	 viewBox="0 0 80 20" style="enable-background:new 0 0 80 20;" xml:space="preserve">
<style type="text/css">
	.st0{fill-rule:evenodd;clip-rule:evenodd;}
	.st1{fill:#D52D27;}
	.st2{fill:#FFFFFF;}
</style>
<path class="st0" d="M41.8,10.3c-0.8,0-1.4,0.4-2,0.9h0V6.8h-1.8V17h1.7v-0.9h0c0.4,0.7,1.2,1.1,2.1,1.1c1.9,0,3.3-1.5,3.3-3.5
	C45,11.7,43.6,10.3,41.8,10.3z M41.4,15.7c-1.1,0-1.8-1-1.8-1.9c0-0.9,0.7-2,1.8-2c1.2,0,1.8,1,1.8,1.9
	C43.2,14.7,42.5,15.7,41.4,15.7z M28,15.7c0.9,0,1.4-0.8,1.4-1.6v-3.6h1.8V17h-1.7v-1h0c-0.4,0.5-1.1,1.2-1.9,1.2
	c-1.8,0-2.5-1.3-2.5-2.7v-4.1h1.8v3.6C26.9,15.2,27.3,15.7,28,15.7z M22.1,8.6h-1.8v1.8h-1.1v1.4h1.1v2.9c0,1,0.3,2.4,2.2,2.4
	c0.4,0,0.9-0.1,1.2-0.2l-0.1-1.4c-0.2,0.1-0.5,0.1-0.8,0.1c-0.5,0-0.7-0.4-0.7-0.9v-2.9h1.6v-1.4h-1.6V8.6z M34.5,11.5L34.5,11.5
	c0.4-0.6,1.1-1.2,1.8-1.2c0.1,0,0.4,0,0.5,0.1V12c-0.2-0.1-0.4-0.1-0.6-0.1c-1.6,0-1.7,1.6-1.7,1.6V17h-1.8v-6.6h1.8V11.5z
	 M62.1,10.3c-1,0-2.1,0.4-2.8,1.1l0.9,1c0.4-0.4,1.2-0.7,1.8-0.7c0.6,0,1.3,0.3,1.3,1.1v0.1c-1.9,0-4.3,0.2-4.3,2.2
	c0,1.4,1.3,2.1,2.5,2.1c0.8,0,1.4-0.4,1.9-0.9h0V17h1.7v-4C65.1,12,64.7,10.3,62.1,10.3z M61.8,15.8c1,0,1.6-0.6,1.6-1.6v-0.1h-0.2
	c-1.6,0-2.4,0.4-2.4,1C60.7,15.7,61.4,15.8,61.8,15.8z M49.4,10.3c-2.1,0-3.6,1.4-3.6,3.5c0,2.1,1.5,3.5,3.6,3.5
	c2,0,3.6-1.5,3.6-3.5C53,11.7,51.5,10.3,49.4,10.3z M47.7,13.7c0,1,0.5,2,1.7,2c1.2,0,1.7-1,1.7-2c0-0.9-0.5-1.9-1.7-1.9
	C48.3,11.8,47.7,12.8,47.7,13.7z M70.4,13.5l2.4-3.1h-2.1l-1.4,1.9L68,10.4h-2.2l2.4,3.1L65.5,17h2.2l1.6-2.2l1.6,2.2h2.2L70.4,13.5
	z M54.7,8.6h1.8v1.9h1.6v1.4h-1.6v2.9c0,0.5,0.2,0.9,0.7,0.9c0.3,0,0.6-0.1,0.8-0.1L58,17c-0.3,0.1-0.8,0.2-1.2,0.2
	c-1.9,0-2.2-1.4-2.2-2.4v-2.9h-1.1v-1.4h1.1V8.6z"/>
<path class="st1" d="M9.7,18.3c4.2,0,7.7-3.4,7.7-7.7c0-4.2-3.4-7.7-7.7-7.7C5.5,3,2,6.4,2,10.7C2,14.9,5.5,18.3,9.7,18.3z"/>
<path class="st2" d="M8,13.5c-0.9-0.6-1.7-1.3-2.5-2c-0.3,0.6-0.6,1.3-0.8,2c1.3,1.1,3,2.4,4.2,3.1c1.5-4,3.9-6.6,6.2-8.4
	c-0.3-0.6-0.7-1.2-1.2-1.7C11.5,8.3,9.4,10.7,8,13.5z"/>
<path class="st0" d="M36.1,2.5c0,0.3-0.2,0.5-0.5,0.5c-0.3,0-0.5-0.2-0.5-0.5c0-0.3,0.2-0.5,0.5-0.5C35.9,2,36.1,2.2,36.1,2.5z
	 M22.9,4c0.2-0.3,0.5-0.6,1-0.6c0.9,0,1.2,0.7,1.2,1.3v2.1h-0.8V4.9c0-0.4-0.1-0.9-0.6-0.9c-0.5,0-0.8,0.5-0.8,0.9v1.8H22V3.4h0.8
	L22.9,4L22.9,4z M21.2,6.8h-0.8V3.4h0.8V6.8z M34.2,3.4v0.7h0.9v2.6H36V4.2h0.9V3.4H34.2z M26.9,3c0.3,0,0.5-0.2,0.5-0.5
	c0-0.3-0.2-0.5-0.5-0.5c-0.3,0-0.5,0.2-0.5,0.5C26.4,2.8,26.6,3,26.9,3z M33.6,6.8h-0.8V3.4h0.8V6.8z M31.1,5.3
	c0,0.4-0.3,0.9-0.8,0.9c-0.5,0-0.6-0.5-0.6-0.9V3.4h-0.8v2.1c0,0.7,0.4,1.4,1.2,1.4c0.5,0,0.9-0.3,1-0.6h0v0.5H32V3.4h-0.8L31.1,5.3
	L31.1,5.3z M26.5,4.2h-0.9h0V3.4h2.7v0.7h-0.9v2.6h-0.8V4.2z"/>
</svg>
