<svg width="24" height="24" viewBox="0 0 24 24" fill="none" xmlns="http://www.w3.org/2000/svg">
<path d="M8.69374 8.68419L10.9937 6.39518L10.9797 15.9812C10.9797 16.1125 11.0056 16.2425 11.0559 16.3639C11.1061 16.4852 11.1798 16.5954 11.2726 16.6883C11.3655 16.7811 11.4757 16.8548 11.5971 16.9051C11.7184 16.9553 11.8484 16.9812 11.9797 16.9812C12.245 16.9812 12.4993 16.8758 12.6868 16.6883C12.8744 16.5008 12.9797 16.2464 12.9797 15.9812L12.9907 6.40018L15.2797 8.70018C15.3728 8.79342 15.4834 8.86741 15.6051 8.91792C15.7268 8.96843 15.8573 8.99448 15.989 8.99457C16.1208 8.99466 16.2513 8.9688 16.3731 8.91846C16.4948 8.86812 16.6055 8.79429 16.6987 8.70119C16.792 8.60808 16.866 8.49752 16.9165 8.37582C16.967 8.25412 16.993 8.12366 16.9931 7.99189C16.9932 7.86013 16.9674 7.72963 16.917 7.60786C16.8667 7.48609 16.7928 7.37542 16.6997 7.28218L12.6997 3.27618C12.5122 3.08871 12.2579 2.9834 11.9927 2.9834C11.7276 2.9834 11.4733 3.08871 11.2857 3.27618L7.28174 7.26818C7.09929 7.45653 6.99813 7.70899 7.00003 7.9712C7.00193 8.23341 7.10674 8.48438 7.29189 8.67006C7.47705 8.85574 7.72772 8.96126 7.98993 8.9639C8.25213 8.96655 8.50488 8.86609 8.69374 8.68419Z" fill="#0077C5"/>
<path d="M19.9836 10.9941C19.7184 10.9941 19.464 11.0994 19.2765 11.2869C19.089 11.4745 18.9836 11.7288 18.9836 11.9941L18.9746 17.9941C18.9746 18.2593 18.8693 18.5136 18.6817 18.7012C18.4942 18.8887 18.2398 18.9941 17.9746 18.9941L5.97461 18.977C5.70939 18.977 5.45504 18.8717 5.2675 18.6842C5.07997 18.4966 4.97461 18.2423 4.97461 17.977L4.98361 11.9771C4.98361 11.7118 4.87825 11.4575 4.69072 11.2699C4.50318 11.0824 4.24883 10.9771 3.98361 10.9771C3.71839 10.9771 3.46404 11.0824 3.2765 11.2699C3.08897 11.4575 2.98361 11.7118 2.98361 11.9771L2.97461 17.977C2.97461 18.7727 3.29068 19.5358 3.85329 20.0984C4.4159 20.661 5.17896 20.977 5.97461 20.977L17.9746 20.9941H17.9806C18.7763 20.9941 19.5393 20.678 20.1019 20.1154C20.6645 19.5528 20.9806 18.7897 20.9806 17.9941L20.9896 11.9941C20.9896 11.8622 20.9635 11.7317 20.9129 11.61C20.8623 11.4883 20.7881 11.3778 20.6946 11.2848C20.6011 11.1919 20.4902 11.1183 20.3681 11.0684C20.2461 11.0185 20.1154 10.9933 19.9836 10.9941Z" fill="#0077C5"/>
</svg>
