<?xml version="1.0" encoding="UTF-8"?> <svg xmlns="http://www.w3.org/2000/svg" width="88" height="18" viewBox="0 0 88 18" fill="none"><path d="M30.2852 9.48266V14.068H28.4597V9.99781C28.4597 9.12652 28.2621 8.03902 27.0915 8.03902C25.9226 8.03902 25.4837 9.11381 25.4837 10.0614V14.068H23.6655V9.6353C23.6655 8.73222 23.2374 8.04539 22.3101 8.04539C21.2162 8.04539 20.7132 9.05657 20.7132 10.0296V14.0616H18.895V6.72892H20.6254V7.90546H20.6492C20.9674 7.19318 21.743 6.51904 22.9137 6.51904C24.0844 6.51904 24.7831 7.08506 25.1965 7.90546C25.6867 7.02146 26.5007 6.51904 27.5945 6.51904C29.4895 6.51904 30.2852 7.98179 30.2852 9.48266Z" fill="#241C15"></path><path d="M36.6255 13.1268H36.5743C36.2121 13.7691 35.347 14.2396 34.3098 14.2396C33.141 14.2396 31.5752 13.6737 31.5752 11.963C31.5752 9.77523 34.3098 9.47631 36.5871 9.47631V9.29189C36.5871 8.38882 35.8243 7.94363 34.9153 7.94363C34.1379 7.94363 33.3952 8.30612 32.9306 8.78311L31.9886 7.67017C32.8099 6.90701 33.9605 6.50635 35.0744 6.50635C37.6883 6.50635 38.323 8.12807 38.323 9.59078V14.0488H36.6255V13.114H36.6329L36.6255 13.1268ZM36.6 10.7228H36.1866C35.0287 10.7228 33.408 10.8627 33.408 11.9438C33.408 12.6434 34.0629 12.8596 34.6866 12.8596C35.9323 12.8596 36.6 12.1474 36.6 10.9836V10.7228Z" fill="#241C15"></path><path d="M40.1606 6.72852H41.9788V14.0612H40.1606V6.72852Z" fill="#241C15"></path><path d="M41.1082 5.53988C41.7192 5.53988 42.2222 5.03746 42.2222 4.42057C42.2222 3.80367 41.7247 3.30127 41.1082 3.30127C40.4918 3.30127 39.9961 3.80367 39.9961 4.42057C39.9961 5.03746 40.4918 5.53988 41.1082 5.53988Z" fill="#241C15"></path><path d="M64.0554 5.57749C64.6663 5.57749 65.1675 5.07507 65.1675 4.45817C65.1675 3.8413 64.6718 3.33887 64.0554 3.33887C63.4371 3.33887 62.9414 3.8413 62.9414 4.45817C62.9414 5.07507 63.4371 5.57749 64.0554 5.57749Z" fill="#241C15"></path><path d="M43.8047 2.47461H45.6302V14.0238H43.8047V2.47461Z" fill="#241C15"></path><path d="M52.486 8.75767C52.2006 8.34428 51.5695 8.04539 50.9787 8.04539C49.6434 8.04539 48.9703 9.25372 48.9703 10.3985C48.9703 11.5432 49.6508 12.7515 51.0299 12.7515C51.597 12.7515 52.2134 12.5227 52.5628 12.0901L53.7005 13.254C53.0969 13.9153 52.0927 14.2778 51.0116 14.2778C48.8551 14.2778 47.0552 12.8406 47.0552 10.3985C47.0552 7.95635 48.8166 6.51904 50.9604 6.51904C52.0287 6.51904 53.1353 6.94515 53.7078 7.66381L52.4604 8.76401L52.4805 8.7513L52.486 8.75767Z" fill="#241C15"></path><path d="M61.3593 14.0678H59.5338V10.0357C59.5338 9.16444 59.349 8.09601 58.1784 8.09601C57.0077 8.09601 56.4626 9.09448 56.4626 10.0675V14.074H54.6426V2.51221H56.4626V7.75258H56.4864C56.7736 7.14206 57.5802 6.51245 58.6612 6.51245C60.5563 6.51245 61.3519 7.97517 61.3519 9.47606V14.0678H61.3593Z" fill="#241C15"></path><path d="M63.145 6.72852H64.965V14.0612H63.145V6.72852Z" fill="#241C15"></path><path d="M78.2061 9.48266V14.068H76.3806V9.99781C76.3806 9.12652 76.1831 8.03902 75.0124 8.03902C73.8436 8.03902 73.4046 9.11381 73.4046 10.0614V14.068H71.5864V9.6353C71.5864 8.73222 71.1583 8.04539 70.231 8.04539C69.1371 8.04539 68.6341 9.05657 68.6341 10.0296V14.0616H66.8159V6.72892H68.5445V7.90546H68.5701C68.8883 7.19318 69.6639 6.51904 70.8346 6.51904C72.0053 6.51904 72.704 7.08506 73.1174 7.90546C73.6076 7.02146 74.4271 6.51904 75.5154 6.51904C77.4105 6.51904 78.2061 7.98179 78.2061 9.48266Z" fill="#241C15"></path><path d="M81.7724 6.72892V7.75283H81.8236C82.1858 7.1741 83.0071 6.5127 84.3479 6.5127C86.4331 6.5127 87.891 8.19802 87.891 10.3603C87.891 12.5226 86.5227 14.2715 84.3113 14.2715C83.2924 14.2715 82.3632 13.8136 81.9005 13.0823H81.8748V17.7248H80.0493V6.72892H81.7852H81.7724ZM83.929 8.01358C82.5864 8.01358 81.7852 9.25372 81.7852 10.3985C81.7852 11.5432 82.5937 12.7516 83.929 12.7516C85.3466 12.7516 86.0271 11.5178 86.0271 10.3667C86.0271 9.21556 85.3466 8.01358 83.929 8.01358Z" fill="#241C15"></path><path d="M8.05748 16.1154C12.5078 16.1154 16.1149 12.5079 16.1149 8.05773C16.1149 3.60757 12.5078 0 8.05748 0C3.60712 0 0 3.60757 0 8.05773C0 12.5079 3.60712 16.1154 8.05748 16.1154Z" fill="white"></path><path d="M10.7512 7.55333C10.8353 7.54318 10.914 7.54318 10.9871 7.55333C11.0292 7.45666 11.0365 7.2895 10.9981 7.10793C10.9414 6.83769 10.8646 6.67426 10.7091 6.6999C10.5499 6.72553 10.5444 6.92101 10.6011 7.19125C10.6322 7.34291 10.689 7.47324 10.7512 7.55333Z" fill="black"></path><path d="M9.39767 7.76682C9.51107 7.8165 9.58061 7.84906 9.60805 7.82077C9.62451 7.8026 9.619 7.76896 9.59157 7.72464C9.53669 7.63384 9.42144 7.54145 9.30071 7.48965C9.05195 7.38283 8.7538 7.41807 8.52698 7.58257C8.45016 7.63812 8.37882 7.71449 8.38979 7.76095C8.39162 7.77592 8.40259 7.78713 8.43186 7.79086C8.49405 7.79781 8.70992 7.68779 8.96051 7.67284C9.13794 7.66214 9.28426 7.71716 9.39767 7.76682Z" fill="black"></path><path d="M9.17138 7.89639C9.02321 7.91935 8.94272 7.96795 8.88968 8.01335C8.84578 8.05233 8.81836 8.09506 8.81836 8.12549C8.81836 8.13991 8.82569 8.14792 8.82935 8.1522C8.83666 8.15807 8.84579 8.16129 8.8531 8.16129C8.88786 8.16129 8.96104 8.13137 8.96104 8.13137C9.16591 8.0582 9.30128 8.06674 9.43481 8.08223C9.50798 8.09078 9.54455 8.09506 9.56101 8.06994C9.56467 8.06248 9.57015 8.04698 9.55552 8.02295C9.52076 7.96689 9.37258 7.87289 9.16954 7.89692L9.17138 7.89639Z" fill="black"></path><path d="M10.2943 8.37159C10.3949 8.42074 10.5047 8.4015 10.5413 8.32833C10.576 8.25571 10.5248 8.1569 10.4242 8.10777C10.3236 8.05862 10.2138 8.07786 10.1791 8.15103C10.1425 8.22367 10.1956 8.32246 10.2943 8.37159Z" fill="black"></path><path d="M10.9367 7.81106C10.8562 7.80945 10.7885 7.89864 10.7867 8.00972C10.7848 8.12081 10.8489 8.21214 10.9312 8.21373C11.0117 8.21534 11.0793 8.12615 11.0812 8.01506C11.083 7.90398 11.019 7.81265 10.9367 7.81106Z" fill="black"></path><path d="M5.48941 9.81665C5.46929 9.79157 5.43454 9.79903 5.40344 9.80652C5.38149 9.81186 5.35585 9.81773 5.32842 9.8172C5.26805 9.81612 5.21866 9.79049 5.1894 9.74723C5.15281 9.69062 5.15465 9.60571 5.19672 9.50904C5.20038 9.49623 5.20771 9.48127 5.21503 9.46578C5.28088 9.31998 5.38881 9.07538 5.26625 8.84306C5.17479 8.66788 5.02479 8.55893 4.84371 8.53598C4.67176 8.51406 4.4925 8.57818 4.37909 8.70368C4.19983 8.90181 4.17058 9.17097 4.20716 9.26603C4.21813 9.30075 4.23825 9.31037 4.25289 9.31249C4.28215 9.31677 4.32973 9.29435 4.35716 9.21851C4.35899 9.21317 4.36261 9.20463 4.36627 9.19393C4.37725 9.15389 4.40105 9.07858 4.43947 9.01877C4.4852 8.94613 4.55834 8.89647 4.64248 8.87831C4.72845 8.85961 4.8181 8.87618 4.89127 8.92479C5.01748 9.00701 5.06502 9.16082 5.01197 9.30823C4.98271 9.38407 4.93883 9.52934 4.94798 9.64897C4.9681 9.8909 5.11625 9.98755 5.25161 9.99823C5.37965 10.003 5.47112 9.9304 5.4949 9.87701C5.5077 9.84549 5.49672 9.82627 5.48941 9.81826V9.81665Z" fill="black"></path><path d="M12.9838 9.37476C12.9783 9.35714 12.9472 9.23964 12.9033 9.09757C12.8594 8.95551 12.8119 8.85564 12.8119 8.85564C12.9911 8.59021 12.9929 8.35257 12.9691 8.21798C12.9435 8.05134 12.8759 7.90876 12.735 7.76187C12.596 7.61503 12.3089 7.46441 11.9064 7.35172C11.8607 7.33891 11.7089 7.29725 11.6961 7.29298C11.6942 7.28444 11.6851 6.79521 11.676 6.58534C11.6686 6.43366 11.6558 6.19655 11.5827 5.96316C11.4949 5.64752 11.3412 5.37088 11.1528 5.19411C11.6778 4.64936 12.0052 4.04907 12.0052 3.5337C12.0033 2.54354 10.787 2.24394 9.28889 2.86452C9.28706 2.86505 8.97245 2.99803 8.97062 2.99911C8.96879 2.9975 8.39623 2.43567 8.38891 2.42819C6.67864 0.938684 1.33565 6.87747 3.04409 8.31997L3.41725 8.63614C3.32031 8.88716 3.28188 9.17448 3.31298 9.4837C3.35322 9.88052 3.55811 10.2613 3.89102 10.555C4.20564 10.8344 4.62085 11.0106 5.02143 11.0106C5.68542 12.5422 7.20544 13.4821 8.98522 13.535C10.8967 13.5917 12.5009 12.6956 13.1722 11.0854C13.2161 10.9721 13.4027 10.4632 13.4027 10.0135C13.4027 9.5638 13.1466 9.37476 12.9838 9.37476ZM5.16778 10.5807C5.10924 10.5908 5.05071 10.5946 4.99035 10.5929C4.41416 10.5775 3.79039 10.0578 3.73003 9.44205C3.66052 8.76111 4.00809 8.2372 4.62452 8.11276C4.69951 8.0978 4.7873 8.08926 4.88241 8.09407C5.22813 8.11276 5.73664 8.37819 5.85188 9.12961C5.95614 9.79559 5.79335 10.4733 5.16961 10.5801L5.16778 10.5807ZM4.52391 7.70581C4.13978 7.78057 3.80137 7.99794 3.59468 8.29807C3.47212 8.19502 3.24166 7.99581 3.20142 7.91783C2.87217 7.29138 3.56174 6.07317 4.04281 5.38529C5.23543 3.68432 7.10121 2.39775 7.96458 2.63114C8.10542 2.67065 8.57 3.21005 8.57 3.21005C8.57 3.21005 7.70666 3.68913 6.90548 4.3567C5.82627 5.18716 5.01229 6.39468 4.52391 7.70473V7.70581ZM10.5803 10.3265C10.5913 10.3211 10.6022 10.3067 10.5986 10.2928C10.5986 10.2752 10.5821 10.2624 10.5656 10.2645C10.5656 10.2645 9.66019 10.3986 8.80597 10.0856C8.90108 9.78332 9.14805 9.89227 9.5212 9.9227C10.1962 9.96276 10.7979 9.8645 11.2461 9.73631C11.632 9.62523 12.1406 9.40626 12.5338 9.09544C12.6674 9.38758 12.7149 9.70962 12.7149 9.70962C12.7149 9.70962 12.8174 9.69091 12.9033 9.74432C12.9838 9.79453 13.0442 9.89867 13.0039 10.1673C12.9216 10.6699 12.7076 11.0779 12.3472 11.4528C12.1296 11.6878 11.8643 11.8929 11.5607 12.0413C11.3997 12.1262 11.2278 12.1994 11.0467 12.2586C9.69311 12.7009 8.30845 12.2149 7.8603 11.1713C7.82372 11.0928 7.79628 11.0106 7.77067 10.9246C7.58044 10.2367 7.74143 9.4116 8.24811 8.8925C8.27737 8.85937 8.31027 8.82039 8.31027 8.77126C8.31027 8.73014 8.28466 8.68688 8.26088 8.65645C8.08528 8.40009 7.47253 7.96323 7.59691 7.11834C7.68471 6.51111 8.21514 6.08332 8.71084 6.10895C8.75292 6.11111 8.79319 6.11376 8.83709 6.1159C9.0511 6.1287 9.23766 6.15596 9.41326 6.16344C9.70959 6.17624 9.97482 6.133 10.2913 5.87077C10.3974 5.78211 10.4833 5.70575 10.626 5.68118C10.6425 5.67849 10.6791 5.66516 10.7541 5.66889C10.8309 5.67317 10.904 5.69398 10.9699 5.73779C11.2223 5.90547 11.257 6.31244 11.2717 6.6099C11.279 6.77974 11.2991 7.19097 11.3065 7.30846C11.3229 7.57817 11.3924 7.61609 11.5369 7.66361C11.6174 7.69032 11.6924 7.71009 11.8022 7.74106C12.1369 7.83506 12.3344 7.93012 12.4588 8.05242C12.5338 8.12879 12.5686 8.20996 12.5796 8.28741C12.618 8.57474 12.3564 8.92989 11.6613 9.25246C10.9022 9.60494 9.98032 9.69413 9.34194 9.62362C9.29438 9.61829 9.11875 9.59854 9.11875 9.59854C8.61024 9.53016 8.31941 10.1881 8.62671 10.6394C8.82243 10.93 9.35837 11.119 9.89614 11.1195C11.1272 11.1195 12.0729 10.594 12.4259 10.1401C12.4369 10.1267 12.4369 10.1251 12.4534 10.1C12.4698 10.0738 12.457 10.0594 12.435 10.0744C12.1479 10.2709 10.8693 11.0522 9.50472 10.8173C9.50472 10.8173 9.33827 10.79 9.18645 10.7307C9.06572 10.6837 8.8133 10.5679 8.78221 10.3094C9.88702 10.6506 10.5803 10.328 10.5803 10.328V10.3265ZM6.7244 5.37781C7.14876 4.88862 7.66824 4.46297 8.13651 4.22425C8.15297 4.21624 8.16941 4.23332 8.1621 4.24935C8.12368 4.31664 8.05235 4.4603 8.0304 4.56925C8.02674 4.58635 8.04506 4.59915 8.05787 4.58902C8.3487 4.39087 8.85356 4.17885 9.29804 4.15161C9.31817 4.15055 9.32545 4.17512 9.31082 4.18633C9.24497 4.23813 9.17183 4.30969 9.11696 4.38179C9.10781 4.39407 9.1151 4.4117 9.13156 4.4117C9.44252 4.41384 9.88338 4.52279 10.1687 4.68353C10.187 4.69422 10.1724 4.73213 10.1523 4.72681C9.71874 4.62747 9.01085 4.55216 8.27369 4.7316C7.61702 4.89182 7.11582 5.13911 6.74999 5.4056C6.73169 5.41895 6.70976 5.39438 6.7244 5.3773V5.37781Z" fill="black"></path></svg> 