<?xml version="1.0" encoding="UTF-8"?> <svg xmlns="http://www.w3.org/2000/svg" id="Layer_1" viewBox="0 0 594.96 841.92"><path d="M254.246,485.297c-1.289,4.879-3.602,7.344-5.844,9.449" style="fill:none; stroke:#dbdbdb; stroke-linecap:round; stroke-miterlimit:1.656; stroke-width:.414px;"></path><path d="M254.246,485.711c-1.199,5.078-3.598,8.387-5.844,11.395" style="fill:none; stroke:#dbdbdb; stroke-linecap:round; stroke-miterlimit:1.656; stroke-width:.414px;"></path><path d="M254.246,486.332c-1.234,5.227-3.605,10.145-5.766,14.922" style="fill:none; stroke:#dbdbdb; stroke-linecap:round; stroke-miterlimit:1.656; stroke-width:.414px;"></path><path d="M229,578.84c5.172-4.969,9.559-10.793,11.797-16.762,2.48-6.625,4.344-22.766,4.758-40.566,.125-5.383,2.016-11.027,4.137-16.922" style="fill:none; stroke:#dbdbdb; stroke-linecap:round; stroke-miterlimit:1.656; stroke-width:.414px;"></path><path d="M238.727,577.391c2.688-5.172,4.293-8.344,6-14.488,1.609-5.789,1.719-10.328,1.492-14.98" style="fill:none; stroke:#dbdbdb; stroke-linecap:round; stroke-miterlimit:1.656; stroke-width:.414px;"></path><path d="M248.867,514.891c-2.691,12.418-.207,25.625-.207,34.977,0,.32-.004,.652-.008,.996" style="fill:none; stroke:#dbdbdb; stroke-linecap:round; stroke-miterlimit:1.656; stroke-width:.414px;"></path><path d="M254.867,493.574c-2.691,12.418-9.52,22.645-5.176,38.492" style="fill:none; stroke:#dbdbdb; stroke-linecap:round; stroke-miterlimit:1.656; stroke-width:.414px;"></path><path d="M257.352,583.188c1.445-4.969,1.52-18.582,.828-24.629-.617-5.387-2.262-11.004-3.918-18.383" style="fill:none; stroke:#dbdbdb; stroke-linecap:round; stroke-miterlimit:1.656; stroke-width:.414px;"></path><path d="M253.832,497.301c2,15.383,2.066,22.859,10.078,38.813" style="fill:none; stroke:#dbdbdb; stroke-linecap:round; stroke-miterlimit:1.656; stroke-width:.414px;"></path><path d="M263.352,529.793c6.418,15.727,2.484,7.035,11.383,22.145,1.422,2.41,2.621,4.402,3.664,6.125" style="fill:none; stroke:#dbdbdb; stroke-linecap:round; stroke-miterlimit:1.656; stroke-width:.414px;"></path><path d="M254.246,485.297c.875,13.453,2.113,31.484,11.762,49.973" style="fill:none; stroke:#dbdbdb; stroke-linecap:round; stroke-miterlimit:1.656; stroke-width:.414px;"></path><path d="M254.66,484.676c2.004,13.129,3.813,30.379,10.621,44.113" style="fill:none; stroke:#dbdbdb; stroke-linecap:round; stroke-miterlimit:1.656; stroke-width:.414px;"></path><path d="M254.66,484.676c3.242,14.105,6.801,30.25,11.578,41.023" style="fill:none; stroke:#dbdbdb; stroke-linecap:round; stroke-miterlimit:1.656; stroke-width:.414px;"></path><path d="M282.594,324.906c6.82-2.367,10.738,2.387,15.031,1.652" style="fill:none; stroke:#dbdbdb; stroke-linecap:round; stroke-miterlimit:1.656; stroke-width:.414px;"></path><path d="M275.555,326.977c10.555-2.277,12.418-6,19.453-3.727,1.688,.547,3.797,.941,6.004-.074" style="fill:none; stroke:#dbdbdb; stroke-linecap:round; stroke-miterlimit:1.656; stroke-width:.414px;"></path><path d="M287.352,320.977c2.469-1.309,8.852,.477,13.039-.414,2.484-.531,2.277-2.898,4.348-3.934,.152-.074,.281-.227,.387-.434" style="fill:none; stroke:#dbdbdb; stroke-linecap:round; stroke-miterlimit:1.656; stroke-width:.414px;"></path><path d="M275.969,326.563c5.516-1.035,13.039-8.691,21.73-8.277,5.598,.266,5.797-5.59,2.898-6.414,.094,.555,.125,1.027,.055,1.441" style="fill:none; stroke:#dbdbdb; stroke-linecap:round; stroke-miterlimit:1.656; stroke-width:.414px;"></path><path d="M263.551,325.734c4.762-1.035,10.738-3.52,14.488-10.141,2.082-3.672,3.859-3.941,5.488-3.547" style="fill:none; stroke:#dbdbdb; stroke-linecap:round; stroke-miterlimit:1.656; stroke-width:.414px;"></path><path d="M246.582,343.336c2.691-2.691,8.277-12.199,14.281-13.863,3.527-.98,5.734,4.371,9.52,1.859,11.234-7.449,9.52-17.457,15.105-16.555,1.883,.305,3.426,.16,4.695-.25" style="fill:none; stroke:#dbdbdb; stroke-linecap:round; stroke-miterlimit:1.656; stroke-width:.414px;"></path><path d="M228.578,359.481c2.688-2.691,3.309-1.188,3.309-7.246,0-5.172,11.809-5.395,14.695-8.898,4.461-5.41,9.727-18.563,14.695-17.797,5.184,.797,8.785,.266,11.313-.844" style="fill:none; stroke:#dbdbdb; stroke-linecap:round; stroke-miterlimit:1.656; stroke-width:.414px;"></path><path d="M255.066,326.574c4.348-5.383,10.891,.238,15.316-4.969,2.273-2.676,3.598-4.746,4.695-6.715" style="fill:none; stroke:#dbdbdb; stroke-linecap:round; stroke-miterlimit:1.656; stroke-width:.414px;"></path><path d="M234.371,348.719c16.766-3.52,13.469,1.215,16.766,.828,4.016-.473,5.34-4.145,6.66-7.348" style="fill:none; stroke:#dbdbdb; stroke-linecap:round; stroke-miterlimit:1.656; stroke-width:.414px;"></path><path d="M233.336,349.828c17.18-4.141,13.246,6.34,22.145,2.613,1.121-.469,1.973-2.41,2.781-4.637" style="fill:none; stroke:#dbdbdb; stroke-linecap:round; stroke-miterlimit:1.656; stroke-width:.414px;"></path><path d="M232.301,350.578c10.426-2.508,10.941,.77,12.836,3.07" style="fill:none; stroke:#dbdbdb; stroke-linecap:round; stroke-miterlimit:1.656; stroke-width:.414px;"></path><path d="M231.68,351.613c9.246-3.035,9.219,2.016,11.539,4.621" style="fill:none; stroke:#dbdbdb; stroke-linecap:round; stroke-miterlimit:1.656; stroke-width:.414px;"></path><path d="M246.996,342.715c11.281-10.535,14.023-10.234,16.055-9.285" style="fill:none; stroke:#dbdbdb; stroke-linecap:round; stroke-miterlimit:1.656; stroke-width:.414px;"></path><path d="M235.82,347.891c9.52-.828,15.332-3.52,19.66-8.691,2.516-3.008,4.074-4.051,5.281-4.281" style="fill:none; stroke:#dbdbdb; stroke-linecap:round; stroke-miterlimit:1.656; stroke-width:.414px;"></path><path d="M230.852,357.41c9.73-10.555,5.199,2.895,12.004,2.277,5.723-.52,10.715-3.945,13.77-7.84" style="fill:none; stroke:#dbdbdb; stroke-linecap:round; stroke-miterlimit:1.656; stroke-width:.414px;"></path><path d="M244.926,339.613c4.348-5.383,4.68-6.594,9.105-11.797,4.141-4.871,5.703-5.102,7.379-5.047" style="fill:none; stroke:#dbdbdb; stroke-linecap:round; stroke-miterlimit:1.656; stroke-width:.414px;"></path><path d="M244.926,339.613c4.348-5.383,5.238-9.992,9.52-15.316,1.809-2.246,3.234-3.586,4.414-4.367" style="fill:none; stroke:#dbdbdb; stroke-linecap:round; stroke-miterlimit:1.656; stroke-width:.414px;"></path><path d="M239.34,344.992c8.484-3.934,9.789-17.855,14.07-23.18,.957-1.188,1.828-2.125,2.629-2.863" style="fill:none; stroke:#dbdbdb; stroke-linecap:round; stroke-miterlimit:1.656; stroke-width:.414px;"></path><path d="M239.34,344.992c6.207-2.875,7.801-10.121,8.828-15.387" style="fill:none; stroke:#dbdbdb; stroke-linecap:round; stroke-miterlimit:1.656; stroke-width:.414px;"></path><path d="M243.062,341.063c2.895-1.875,2.82-10.883,3.301-15.52" style="fill:none; stroke:#dbdbdb; stroke-linecap:round; stroke-miterlimit:1.656; stroke-width:.414px;"></path><path d="M224.801,365.023c2.277-.617,3.109-3.152,9.313-2.48,7.063,.762,5.676,10.5,10.934,6.656" style="fill:none; stroke:#dbdbdb; stroke-linecap:round; stroke-miterlimit:1.656; stroke-width:.414px;"></path><path d="M216.316,369.879c3.102-1.656,4.965,2.391,7.449,1.977,3.836-.641,4.965-.414,6.621,.621,6.078,3.797,1.355,8.289,8.039,6.93" style="fill:none; stroke:#dbdbdb; stroke-linecap:round; stroke-miterlimit:1.656; stroke-width:.414px;"></path><path d="M216.316,369.164c3.102-1.656,5.051,1.422,8.07,0,3.52-1.656,6.879-.055,8.484,1.035,4.477,3.035,4.879,7.68,6.738,8.586" style="fill:none; stroke:#dbdbdb; stroke-linecap:round; stroke-miterlimit:1.656; stroke-width:.414px;"></path><path d="M216.73,368.543c5.379-3.727,5.465-.234,8.484-1.656,3.516-1.656,7.242-1.84,8.898-.828,3.355,2.055,4.359,9.316,8.918,5.125" style="fill:none; stroke:#dbdbdb; stroke-linecap:round; stroke-miterlimit:1.656; stroke-width:.414px;"></path><path d="M216.937,368.336c4.344-5.383,4.23-2.227,7.449-3.105,2.277-.617,5.199-4.59,10.141-5.379,5.172-.828,8.07,7.656,16.969-.828-1.648,2.555-5.805,6.711-10.09,6.48" style="fill:none; stroke:#dbdbdb; stroke-linecap:round; stroke-miterlimit:1.656; stroke-width:.414px;"></path><path d="M216.867,368.75c-1.035-4.555,5.754-6,7.727-6.828,3.93-1.656,6.289-4.641,5.586-7.453-1.238-4.965-2.406-6.066,4.969-7.863,5.711-1.395,7.672-4.566,8.344-7.379" style="fill:none; stroke:#dbdbdb; stroke-linecap:round; stroke-miterlimit:1.656; stroke-width:.414px;"></path><path d="M216.109,369.371c-1.035-4.555,2.371-7.035,4.344-7.863,3.934-1.656,6.215-3.52,6.004-6.832-.414-6.414,.414-9.934,7.863-11.383,8.438-1.641,10-5.773,9.676-12.688" style="fill:none; stroke:#dbdbdb; stroke-linecap:round; stroke-miterlimit:1.656; stroke-width:.414px;"></path><path d="M215.902,369.371c-2.07-1.52-2.07-6.828,3.207-10.141,3.719-2.336,4.449-3.934,4.449-6.828,0-6.418,3.164-11.195,8.07-12.832,6.754-2.25,16.398-7.223,9.668-20.617" style="fill:none; stroke:#dbdbdb; stroke-linecap:round; stroke-miterlimit:1.656; stroke-width:.414px;"></path><path d="M215.074,359.438c3.02-8,15.848-23.953,25.773-30.625" style="fill:none; stroke:#dbdbdb; stroke-linecap:round; stroke-miterlimit:1.656; stroke-width:.414px;"></path><path d="M214.66,369.164c-2.07-1.52-3.098-7.07,1.445-10.762,3.313-2.691,5.59-3.727,4.762-6.828-1.652-6.199,1.613-12.574,6-15.316,7.379-4.609,16.895-5.77,13.457-17.395" style="fill:none; stroke:#dbdbdb; stroke-linecap:round; stroke-miterlimit:1.656; stroke-width:.414px;"></path><path d="M216.16,369.195c0,.621-.418,9.934,3.93,13.039,3.395,2.422,2.484,4.344,2.484,8.277,0,2.102,6.48,1.75,8.141,10.492" style="fill:none; stroke:#dbdbdb; stroke-linecap:round; stroke-miterlimit:1.656; stroke-width:.414px;"></path><path d="M216.363,370.23c0,.621,.828,6.414,5.383,9.313,3.516,2.238,4.137,4.555,4.137,7.656,0,1.906,7.359,2.758,5.637,12.391" style="fill:none; stroke:#dbdbdb; stroke-linecap:round; stroke-miterlimit:1.656; stroke-width:.414px;"></path><path d="M216.57,370.023c1.449,0,2.125,4.383,7.246,6.621,3.309,1.449,4.344,3.727,4.344,6.832,0,1.918,6.402,1.703,4.371,11.387" style="fill:none; stroke:#dbdbdb; stroke-linecap:round; stroke-miterlimit:1.656; stroke-width:.414px;"></path><path d="M216.363,370.012c3.105-1.656,1.863,3.531,7.453,3.531,4.207,0,7.449,4.758,7.449,7.863,0,2.012,3.203,.223,2.152,6.098" style="fill:none; stroke:#dbdbdb; stroke-linecap:round; stroke-miterlimit:1.656; stroke-width:.414px;"></path><path d="M214.504,370.645c-5.383,1.449-6.418-2.277-12.211,6.414-3.727,5.59,1.23,14.691,1.637,22.145,.617,11.383-6.418,10.344-4.949,18.418,1.375,7.559,4.297,9.184,7.379,10.82" style="fill:none; stroke:#dbdbdb; stroke-linecap:round; stroke-miterlimit:1.656; stroke-width:.414px;"></path><path d="M214.707,369.195c1.242,5.176-5.625,.473-10.969,8.484-3.723,5.59,2.906,16.969,3.313,24.422,.621,11.383-7.055,8.688-5.586,16.762,2.07,11.383,16.555,11.383,7.656,21.316,.828-.609,1.555-1.191,2.176-1.758" style="fill:none; stroke:#dbdbdb; stroke-linecap:round; stroke-miterlimit:1.656; stroke-width:.414px;"></path><path d="M205.809,379.129c-2.273,11.797,3.734,17.59,4.141,25.043,.531,9.727-4.121,4.344-4.555,15.313-.387,9.762,18.422,16.145,9.52,26.078-.535,.598-.281,1.363,.344,2.16" style="fill:none; stroke:#dbdbdb; stroke-linecap:round; stroke-miterlimit:1.656; stroke-width:.414px;"></path><path d="M208.5,392.996c3.102,11.59,5.191,9.945,4.551,17.383-.426,4.969-4.281,4.762-4.551,11.59-.109,2.746,2.332,5.164,5.027,7.676" style="fill:none; stroke:#dbdbdb; stroke-linecap:round; stroke-miterlimit:1.656; stroke-width:.414px;"></path><path d="M215.125,369.402c1.035,5.59-10.762,2.898-9.316,12.418,.93,6.102,2.941,14.875,7.863,20.488,10.348,11.797-6.566,13.281-3.516,20.902,4.965,12.418,24.418,3.52,23.801,15.934-.883,17.629,12.828,10.555,10.555,16.352-2.277,5.793-2.898,6.828,.617,9.934,1.91,1.684,6.625,1.113,10.535,2.125" style="fill:none; stroke:#dbdbdb; stroke-linecap:round; stroke-miterlimit:1.656; stroke-width:.414px;"></path><path d="M215.773,369.816c1.035,5.586-6.547,8.699-5.383,14.902,1.242,6.621,9.238,3.766,8.488,10.141-.414,3.516,6.371,2.48,3.102,11.586-1.27,3.539-1.105,5.605-.477,6.934" style="fill:none; stroke:#dbdbdb; stroke-linecap:round; stroke-miterlimit:1.656; stroke-width:.414px;"></path><path d="M229.102,401.066c1.219,2.441,2.559,5.082,.133,9.883" style="fill:none; stroke:#dbdbdb; stroke-linecap:round; stroke-miterlimit:1.656; stroke-width:.414px;"></path><path d="M227.031,398.789c1.242,2.484,2.98,5.176,0,10.141-.156,.262-.293,.527-.418,.797" style="fill:none; stroke:#dbdbdb; stroke-linecap:round; stroke-miterlimit:1.656; stroke-width:.414px;"></path><path d="M224.465,396.719c1.242,2.484,3.52,7.039,.539,12.004-.031,.055-.063,.109-.094,.16" style="fill:none; stroke:#dbdbdb; stroke-linecap:round; stroke-miterlimit:1.656; stroke-width:.414px;"></path><path d="M214.473,374.578c1.035,2.273-4.555,8.043,.266,11.379,2.441,1.691,3.688,.656,4.98,5.082" style="fill:none; stroke:#dbdbdb; stroke-linecap:round; stroke-miterlimit:1.656; stroke-width:.414px;"></path><path d="M215.773,369.402c1.035,2.277-3.527,11.906,1.242,15.316,3.395,2.422,2.293,4.48,3.309,8.277,.555,2.066,16.352,9.313,10.348,19.867-.066,.117-.133,.234-.195,.344" style="fill:none; stroke:#dbdbdb; stroke-linecap:round; stroke-miterlimit:1.656; stroke-width:.414px;"></path><path d="M215.566,394.859c1.207,1.484,1.711,3.789,1.344,5.75" style="fill:none; stroke:#dbdbdb; stroke-linecap:round; stroke-miterlimit:1.656; stroke-width:.414px;"></path><path d="M213.496,392.375c1.258,1.547,2.313,3.98,1.828,5.844" style="fill:none; stroke:#dbdbdb; stroke-linecap:round; stroke-miterlimit:1.656; stroke-width:.414px;"></path><path d="M207.961,390.719c1.145,1.414,3.582,3.027,4.52,4.461" style="fill:none; stroke:#dbdbdb; stroke-linecap:round; stroke-miterlimit:1.656; stroke-width:.414px;"></path><path d="M215.566,369.609c1.035,5.586-9.926,6.574-7.867,15.109,1.449,6,8.398,8.238,10.555,14.277,2.07,5.797-3.723,11.383,0,16.352,2.172,2.891,11.297-2.293,14.219,5.684" style="fill:none; stroke:#dbdbdb; stroke-linecap:round; stroke-miterlimit:1.656; stroke-width:.414px;"></path><path d="M213.703,415.141c-1.449,5.172,.734,8.898,5.91,9.105,1.934,.078,3.602,.18,5.047,.305" style="fill:none; stroke:#dbdbdb; stroke-linecap:round; stroke-miterlimit:1.656; stroke-width:.414px;"></path><path d="M214.738,414.312c-.621,2.895,1.242,7.242,6.414,7.449,2.09,.082,3.824,.277,5.258,.547" style="fill:none; stroke:#dbdbdb; stroke-linecap:round; stroke-miterlimit:1.656; stroke-width:.414px;"></path><path d="M215.727,413.484c.664,1.242-.781,5.586,4.391,5.793,2.625,.105,4.688,.328,6.313,.633" style="fill:none; stroke:#dbdbdb; stroke-linecap:round; stroke-miterlimit:1.656; stroke-width:.414px;"></path><path d="M218.867,445.355c.207,6,9.227,8.559,8.691,10.969-1.242,5.586-3.586,7.402,1.242,11.59,1.059,.918,3.301,2.633,5.371,4.539" style="fill:none; stroke:#dbdbdb; stroke-linecap:round; stroke-miterlimit:1.656; stroke-width:.414px;"></path><path d="M220.523,434.18c5.586,6.414,3.637,6,2.688,8.277-1.832,4.402-2.586,6.527,.145,8.578" style="fill:none; stroke:#dbdbdb; stroke-linecap:round; stroke-miterlimit:1.656; stroke-width:.414px;"></path><path d="M217.238,432.523c5.766,2.691,9.719,6.527,9.492,8.898-.313,3.289-2.148,4.254-1.152,6.289" style="fill:none; stroke:#dbdbdb; stroke-linecap:round; stroke-miterlimit:1.656; stroke-width:.414px;"></path><path d="M233.559,453.012c1.656,3.934,.07-.09,2.277,5.586,2.898,7.453-5.195,10.648,.828,15.523,1.711,1.383,4.836,3.973,7.074,6.836" style="fill:none; stroke:#dbdbdb; stroke-linecap:round; stroke-miterlimit:1.656; stroke-width:.414px;"></path><path d="M221.766,433.766c11.379,5.379,5.695,8.715,6.828,13.246,1.035,4.137,6.484,5.703,8.691,11.383,2.543,6.535-1.145,11.707,1.98,16.168" style="fill:none; stroke:#dbdbdb; stroke-linecap:round; stroke-miterlimit:1.656; stroke-width:.414px;"></path><path d="M214.52,430.66c2.484,1.656,1.656,1.449,6.207,2.484,3.078,.699,8.902,.414,9.938,6.414,.805,4.691,.395,6.66,2.207,8.875" style="fill:none; stroke:#dbdbdb; stroke-linecap:round; stroke-miterlimit:1.656; stroke-width:.414px;"></path><path d="M212.914,416.383c-.672,4.551,2.691,11.793,8.434,11.793,15.145,0,14.133-1.031,17.387,8.074,1.281,3.594,.656,6.18,.195,8.215" style="fill:none; stroke:#dbdbdb; stroke-linecap:round; stroke-miterlimit:1.656; stroke-width:.414px;"></path><path d="M224.246,431.281c14.902-2.691,13.246,7.656,12.418,10.141-2.637,7.914-1.418,8.641,4.555,10.348,.355,.102,.695,.211,1.02,.32" style="fill:none; stroke:#dbdbdb; stroke-linecap:round; stroke-miterlimit:1.656; stroke-width:.414px;"></path><path d="M238.406,435.008c2.188,4.344,4.258,6,3.43,10.762-.5,2.867,2.898,4.758,6.418,9.52,1.523,2.063,1.297,4.574,3.207,6.426" style="fill:none; stroke:#dbdbdb; stroke-linecap:round; stroke-miterlimit:1.656; stroke-width:.414px;"></path><path d="M227.348,455.289c2.531,3.234,.859,4.652,.297,7.242" style="fill:none; stroke:#dbdbdb; stroke-linecap:round; stroke-miterlimit:1.656; stroke-width:.414px;"></path><path d="M230.453,450.32c4.602,6.836,1.684,7.371-.328,10.414" style="fill:none; stroke:#dbdbdb; stroke-linecap:round; stroke-miterlimit:1.656; stroke-width:.414px;"></path><path d="M230.012,468.949c-.305-3.102,1.199-5.703,2.645-7.809" style="fill:none; stroke:#dbdbdb; stroke-linecap:round; stroke-miterlimit:1.656; stroke-width:.414px;"></path><path d="M235.625,458.187c.371,2.695-1.008,5.105-2.227,7.395" style="fill:none; stroke:#dbdbdb; stroke-linecap:round; stroke-miterlimit:1.656; stroke-width:.414px;"></path><path d="M263.148,482.605c.621-11.797-9.375-10.555-14.277-13.453-1.598-.941-3.133-1.883-4.469-2.867" style="fill:none; stroke:#dbdbdb; stroke-linecap:round; stroke-miterlimit:1.656; stroke-width:.414px;"></path><path d="M241.836,463.773c-.414,4.348,1.879,6.867,7.27,9.313,1.887,.855,3.539,1.297,5.035,1.668" style="fill:none; stroke:#dbdbdb; stroke-linecap:round; stroke-miterlimit:1.656; stroke-width:.414px;"></path><path d="M239.352,461.289c.621,4.141,3.844,16.125,9.727,16.766,.793,.086,1.535,.188,2.23,.309" style="fill:none; stroke:#dbdbdb; stroke-linecap:round; stroke-miterlimit:1.656; stroke-width:.414px;"></path><path d="M242.457,487.367c-1.234,4.324-1.242,10.496,2.84,11.574" style="fill:none; stroke:#dbdbdb; stroke-linecap:round; stroke-miterlimit:1.656; stroke-width:.414px;"></path><path d="M241.629,484.469c-2.277,1.656-6.418,6.207-1.242,9.727-2.883-7.41,4.68-4.789,4.352-11.891" style="fill:none; stroke:#dbdbdb; stroke-linecap:round; stroke-miterlimit:1.656; stroke-width:.414px;"></path><path d="M241.215,478.469c0,4.551-1.863,4.965-3.727,5.172,.617,2.059,6.148,1.66,6.211-2.617" style="fill:none; stroke:#dbdbdb; stroke-linecap:round; stroke-miterlimit:1.656; stroke-width:.414px;"></path><path d="M240.387,466.465c-.828,9.52,4.109,13.441,9.727,15.313,3.066,1.023,10.582,.832,11.156,4.824" style="fill:none; stroke:#dbdbdb; stroke-linecap:round; stroke-miterlimit:1.656; stroke-width:.414px;"></path><path d="M335.992,563.524c-12-24.004,1.449-59.664,9.313-60.016,9.316-.414,18.215,4.164,30.629,3.934,11.176-.207,15.938-8.07,15.938-12.004s-1.656-12.004,0-14.488c1.656-2.48,3.934-1.242,5.797-2.48,1.859-1.242,1.652-3.52,1.445-5.797-.223-2.473-4.965-4.965-4.551-6.414s4.965,0,7.449-3.934c2.445-3.871,.273-7.742-2.359-9.836" style="fill:none; stroke:#dbdbdb; stroke-linecap:round; stroke-miterlimit:1.656; stroke-width:.828px;"></path><path d="M384.215,442.871c.414,3.313,3.516,2.277,5.379,2.277s2.484,2.898,3.313,3.516c.828,.621,2.691,.207,2.07-1.445-.621-1.656,.621-4.348,2.688-5.59,2.07-1.242,4.566-.402,7.039-3.313,3.516-4.137,1.035-8.277-1.449-10.762-2.484-2.48-5.176-6-7.656-8.484-2.484-2.48-7.039-7.863-9.109-10.141-2.066-2.277-3.723-3.723-4.137-7.035-.414-3.313,1.656-4.348,2.898-7.449,1.234-3.09-2.035-17.23-3.496-22.879" style="fill:none; stroke:#dbdbdb; stroke-linecap:round; stroke-miterlimit:1.656; stroke-width:.828px;"></path><path d="M375.934,358.02c-.66-3.477-8.484-10.555-8.484-11.59s-1.035-4.555-2.688-6.828c-3.82-5.254-9.934-9.727-13.867-12.418s-11.797-1.863-16.766-6.621c-4.941-4.738-7.426-3.324-12.145-3.516" style="fill:none; stroke:#dbdbdb; stroke-linecap:round; stroke-miterlimit:1.656; stroke-width:.828px;"></path><path d="M389.18,438.016c1.035-.207,4.227-4.559,6.004-6.113,.027-.023,.059-.051,.086-.074m-5.883,6.152c1.012-.305,4.516-3.418,6.207-4.891m-5.793,4.816c.984-.125,3.434-1.859,5.734-3.199m6.184,.832c1.324,0,2.023-1.672,2.141-3.613m-14.266,6.023c3.281,0,7.375-3.094,9.063-3.148m-14.441,7.449c.207-3.313,4.742-4.344,6-4.344,1.449,0,2.07,1.031,4.348,1.031,.227,0,.445-.047,.66-.133m-11.008,3.652c1.242-2.691,4.566-3.723,6.207-3.52,1.656,.207,1.863,1.656,3.727,1.656,.184,0,.367-.039,.547-.105m-10.48,2.176c1.242-2.07,4.957-2.633,6-2.484,1.191,.172,2.383,1.738,3.57,2.063m-9.57,.629c2.066,.621,3.93-1.863,5.793-1.449,.02,.004,.035,.008,.051,.012m4.711,4.75c-.828,.414-1.863-.207-2.484-.828-.539-.543-.926-1.707-2.105-2.137" style="fill:none; stroke:#dbdbdb; stroke-linecap:round; stroke-miterlimit:1.656; stroke-width:.414px;"></path><path d="M376.555,496.602c2.926,1.453,5.551,1.973,7.766,1.906m-33.219-10.746c5.738,1.402,12.805,2.41,20.473,6.66m-13.957-48.652c1.918-2.316,4.867-4.348,7.348-5.176,2.117-.703,5.59-.621,6.418,0,.801,.602-.328,2.469,1.082,2.488m16.922,56.703c-8.898,3.723-17.691-4.168-26.074-7.867-7.039-3.102-15.832-4.711-19.25-6.828-3-1.863-2.066-9.105-1.445-11.383,.098-.359,.43-1.168,.934-2.293m39.008,31.266c-8.691,.621-15.938-6.621-20.488-9.313-4.555-2.691-15.523-4.766-18.629-7.863-3.102-3.098-1.652-7.93-.824-11.652,.141-.648,.492-1.625,.988-2.828m30.262,32.691c-3.105-1.035-6.832-4.758-11.797-8.07-4.969-3.313-13.867-6.566-18.215-9.313-3.93-2.484-1.965-9.172-1.344-12.066,.246-1.148,1.414-3.836,2.941-6.988m20.547,35.402c-2.48-4.344-17.516-11.453-22.145-14.691-4.137-2.898-3.156-8.258-1.031-13.898,.871-2.32,2.387-5.273,4.141-8.25m8.273,32.496c-3.102-2.277-15.105-8.691-15.52-13.039-.25-2.605,1.344-7.852,2.793-11.164,.656-1.508,3.648-6.18,7.223-10.813m-3.188,32.117c-6.207-3.52-9.313-7.449-8.07-11.383,.73-2.309,1.273-3.375,3.965-9.582,1.512-3.496,6.168-8.09,10.723-11.508" style="fill:none; stroke:#dbdbdb; stroke-linecap:round; stroke-miterlimit:1.656; stroke-width:.414px;"></path><path d="M396.422,478.883c.621-.207,1.445-1.199,1.656-2.691,.168-1.176-.07-2.352-.941-3.523m-5.68,8.902c-.207-.828-.828-1.242-1.863-1.863-1.035-.617-.828-.824-.207-2.066,.621-1.242,.332-4.348-1.449-5.797-.746-.605-1.121-1.383-1.273-2.176m4.172,13.352c-.414-1.656-2.484-2.07-3.52-2.898-1.035-.824,.617-1.434,1.035-2.688,.551-1.656-.305-4.031-1.449-5.176-.699-.699-1.117-1.855-1.246-3.066m5.18,16.52c-.621-1.863-3.105-3.727-5.176-4.762-2.066-1.035,1.242-2.895,1.656-3.516,.629-.941,.484-2.688-.914-4.449m-.535-10.246c-3.969,3.934-2.48,8.898-1.031,9.727,1.043,.598,2.133,2.273,1.957,3.625m-4.441-10.039c-1.449,1.863-.52,5.555,1.656,6.621,2.109,1.035,2.895,3.52,1.035,4.348-.484,.215-1.066,.652-1.617,1.195" style="fill:none; stroke:#dbdbdb; stroke-linecap:round; stroke-miterlimit:1.656; stroke-width:.414px;"></path><path d="M342.617,577.391c-4.141-2.621-13.328-9.063-16.973-13.867-4.551-6-3.309-15.934-3.102-21.316,.113-2.98-.215-6.664-1.098-10.344m-5.527-39.324c.766-1.094,2.281-1.781,3.543-2.281m-.023,2.074c.355-.711,2.555-1.578,3.289-2.203m-.598,2.41c.414-.621,1.859-1.449,2.273-2.07,.191-.285,.207-.793,.129-1.297m1.113,3.574c-.414-1.449,.621-2.898,.828-3.516,.129-.383-.309-.824-.859-1.398m3.758,5.328c-1.449-1.449-.414-2.691-.414-3.93,0-.645-.387-1.066-.906-1.492m4.426,5.629c-2.484-2.07-.207-4.344-1.449-5.379-.164-.137-.324-.27-.484-.402m5.035,6.195c-4.137-2.277-.414-5.586-1.859-6.621-.031-.023-.066-.047-.098-.07m6.512,6.898c-4.414-1.805-3.77-4.387-4.293-7.559" style="fill:none; stroke:#dbdbdb; stroke-linecap:round; stroke-miterlimit:1.656; stroke-width:.414px;"></path><path d="M322.953,563.731c-7.035-8.07-3.723-28.973-4.551-32.695-.051-.227-.141-.508-.266-.848m15.785,47.617c-7.035-6.207-15.754-17.27-17.59-24.008-.758-2.773-1.051-9.695-1.355-15.57m4.254,27.988c-1.172-1.449-4.141-5.258-5.797-9.727-2.066-5.586-1.242-13.66-1.445-19.66-.105-3.043-1.223-5.395-2.539-7.484" style="fill:none; stroke:#dbdbdb; stroke-linecap:round; stroke-miterlimit:1.656; stroke-width:.414px;"></path><path d="M298.742,586.289c0-12.672-10.094-27.16-12.738-38.883m28.051,40.746c-.828-1.656-3.723-8.277-7.863-12.832-5.316-5.848-9.727-12.211-11.383-17.383-1.047-3.27-1.656-8.504-1.84-13.742m23.777,27.195c-1.449-1.242-3.52-3.68-5.379-7.867-2.484-5.586-4.941-15.488-5.59-19.867-.496-3.352-2.465-9.207-4.238-14m-15.258-33.934c-.238-1.098-1.633-3.754-3.129-6.418m3.27,.75c-.492-.98-1.84-2.426-3.254-3.828m21.367,94.27c-1.449-2.277-5.172-7.449-7.656-12.004-2.484-4.555-8.484-18.004-9.934-24.422-.645-2.848-.695-6.383-.465-9.387m2.625,16.219c-.918-2.898-.711-8.902-.711-14.488,0-3.379,1.285-7.359,2.254-11.215m1.371,32.945c-1.656-4.555-1.762-22.766,.098-28.766,.73-2.344,1.172-4.906,1.367-7.336m23.055,46.449c-13.453-19.039-6.207-30.215-10.555-37.457-.773-1.293-1.508-2.492-2.176-3.672" style="fill:none; stroke:#dbdbdb; stroke-linecap:round; stroke-miterlimit:1.656; stroke-width:.414px;"></path><path d="M321.094,585.254c-3.105-3.309-10.348-16.141-12.004-20.695-.699-1.922-1.398-5.211-2.113-8.73m-.785,16.391c-1.035-1.035-3.02-3.27-6.828-9.727-2.234-3.793-3.613-9.191-4.332-14.297" style="fill:none; stroke:#dbdbdb; stroke-linecap:round; stroke-miterlimit:1.656; stroke-width:.414px;"></path><path d="M392.078,480.535c-.277-.207-.414-.828-1.449-1.238-1.035-.414,.223-1.449,.414-2.277,.191-.828,.207-1.449,0-2.07-.074-.227-.172-.457-.281-.691m1.938,5.449c0-.617-1.277-.852-.828-1.445,.621-.828,1.242-2.277,.621-3.727-.148-.348-.352-.695-.582-1.047m1.824,5.809c0-.621-.414-.688,.207-1.449,.621-.766,.609-2.625,.414-3.313-.133-.465-.48-.977-.93-1.535m1.965,5.883c.828-1.035,1.445-3.105,.828-4.969-.129-.383-.445-.859-.867-1.379" style="fill:none; stroke:#dbdbdb; stroke-linecap:round; stroke-miterlimit:1.656; stroke-width:.414px;"></path><path d="M395.805,463.152c.414-.207,.621-1.035,.414-1.656-.328-.98-1.656-.207-1.656-.207,0,0-.168-.031-.383-.074" style="fill:none; stroke:#dbdbdb; stroke-linecap:round; stroke-miterlimit:1.656; stroke-width:.414px;"></path><path d="M127.152,516.246c-1.031-3.891,.027-6.703,3.465-6.305,3.547,.379,9.238,2.203,11.172,4.113,4.324,5.121,3.184,11.004-.012,14.547-6.598-5.984-13.172-8.215-14.625-12.355Z" style="fill:#748c95; stroke:#fff; stroke-miterlimit:4.139; stroke-width:.828px;"></path><path d="M364.59,567.461c.074,2.574,2.723,10.246,7.266,11.473,3.91-.293,8.531-3.789,10.891-4.586-.418-4.98-3.566-14.938-8.172-15.141-4.785-.215-9.984,8.254-9.984,8.254Z" style="fill:#92a18d; stroke:#fff; stroke-linecap:round; stroke-linejoin:round; stroke-width:.828px;"></path><path d="M364.59,567.461c.074,2.574,2.723,10.246,7.266,11.473,3.91-.293,8.531-3.789,10.891-4.586-.418-4.98-3.566-14.938-8.172-15.141-4.785-.215-9.984,8.254-9.984,8.254Z" style="fill:none; stroke:#fff; stroke-miterlimit:4.139; stroke-width:.828px;"></path><path d="M355.563,567.387c-1.051-.785-12.273,1.457-14.367,11.781-2.172,10.625,13,13.258,13.875,13.039,.32-2.723,2.754-8.816,5.852-12.129,1.063-1.297-2.422-8.805-5.359-12.691Z" style="fill:#80999a; stroke:#fff; stroke-miterlimit:4.139; stroke-width:.828px;"></path><path d="M338.066,596.348c-.773,1.301-4.77,7.246-4.422,7.422,1.414,.703,4.719,5.859,5.512,4.715,.844-4.242,2.41-10.672,1.805-11.242-1.152-1.293-2.895-.895-2.895-.895Z" style="fill:#92a18d; stroke:#fff; stroke-miterlimit:10; stroke-width:.75px;"></path><path d="M310.496,588.148c-1.148,2.758-1.43,5.594-1.652,9.086,2.309,.043,6.484-.051,8.293,.258,.246-.316-.91-9.309-1.738-9.41-1.313-.199-4.902,.066-4.902,.066Z" style="fill:#92a18d; stroke:#fff; stroke-miterlimit:4.139; stroke-width:.828px;"></path><path d="M325.258,605.216c.398,.762,.875,2.988,.691,4.488,.109,1.238-2.195,2.82-3.172,4.363-.836,1.32-1.34-.309-3.43-2.781-3.352-3.398-6.07-6.094-5.984-6.813,.176-1.523,8.215-4.664,8.988-3.578,1.336,1.859,2.504,3.555,2.906,4.32Zm-22.621-6.422c.469,2.652-.434,5.891-1.586,8.707-.996,2.738-4.871,5.113-6.336,9.176-1.777-1.855-3.434-5.391-3.539-7-.152-2.344,1.719-10.133,5.363-11.187,2.922-1.047,6.195-.348,6.098,.305Z" style="fill:none; stroke:#fff; stroke-miterlimit:2.07; stroke-width:.828px;"></path><path d="M325.258,605.215c.398,.762,.875,2.988,.691,4.488,.109,1.238-2.195,2.82-3.172,4.363-.836,1.32-1.34-.309-3.43-2.781-3.352-3.398-6.07-6.094-5.984-6.812,.176-1.523,8.215-4.664,8.988-3.578,1.336,1.859,2.504,3.555,2.906,4.32Zm-22.621-6.422c.469,2.652-.434,5.891-1.586,8.707-.996,2.738-4.871,5.113-6.336,9.176-1.777-1.855-3.434-5.391-3.539-7-.152-2.344,1.719-10.133,5.363-11.188,2.922-1.047,6.195-.348,6.098,.305Z" style="fill:#80999a;"></path><path d="M271.887,608.58c-.449-5.082,3.648-12.977,4.672-12.059,2.223,2.805,6.285,14.633,5.559,16.105-2.199,4.289-2.23,7.32-3.328,7.969-2.207,1.238-8.301,1.598-9.055,1.449,.449-1.652,2.461-9.98,2.152-13.465Z" style="fill:#92a38e; stroke:#fff; stroke-miterlimit:4.139; stroke-width:.828px;"></path><path d="M131.269,450.156c-.187,3.082,1.438,7.34-.684,9.027,.254,.281,3.227,1.008,7.813,5.234,1.301,1.313,5.977-4.777,6.598-5.477,2.629-3.266-.895-4.762-3.82-7.254-5.176-4.027-9.824-3.648-9.906-1.531Z" style="fill:#749095; stroke:#fff; stroke-linecap:round; stroke-linejoin:round; stroke-width:.828px;"></path><path d="M122.871,432.86l2.711-.313,2.531-.84,3.488-1.426s1.742-.898,2-1.109c-.125-1.082,.863-3.414,.801-4.402-.098-1.594-.441-3.914-.141-5.77,.203-.27-2.539,.59-3.734,.785-1.324,.215-2.563,1.367-4.184,2.574-2.207,1.562-2.914,2.836-3.5,4.199-.586,1.344-.711,3.266,.027,6.301Zm62.484,55c-3.43-3.973-14.344,5.906-14.809,7.906,.836,1.922,2.402,6.555,2.176,7.742,.293-1.387,4.98-3.215,7.027-5.043,2.043-1.828,5.855-8.02,5.605-10.605Z" style="fill:none; stroke:#24526c; stroke-linecap:round; stroke-linejoin:round; stroke-width:1.656px;"></path><path d="M122.871,432.859l2.711-.312,2.531-.84,3.488-1.426s1.742-.898,2-1.109c-.125-1.082,.863-3.414,.801-4.402-.098-1.594-.441-3.914-.141-5.77,.203-.27-2.539,.59-3.734,.785-1.324,.215-2.562,1.367-4.184,2.574-2.207,1.562-2.914,2.836-3.5,4.199-.586,1.344-.711,3.266,.027,6.301Zm62.484,55c-3.43-3.973-14.344,5.906-14.809,7.906,.836,1.922,2.402,6.555,2.176,7.742,.293-1.387,4.98-3.215,7.027-5.043,2.043-1.828,5.855-8.02,5.605-10.605Z" style="fill:#6f9497;"></path><path d="M366.551,239.289c1.645,.055,8.258,1.613,10.965,2.961,2.707,1.348,6.066,5.438,5.195,7.105-.68,2.367-5.207,5.367-8.949,3.68-3.207-1.691-5.937-6.152-7.098-8.133-.148-.887-1.211-5.652-.113-5.613Zm-47.559-11.148c1.637,1.328,5.535,1.684,8.391,.797,4.172,2.402,8.977,15.848,7.016,16.273-1.957,.426-10.316,2.695-10.703,1.547-.387-1.125-4.348-16.848-4.703-18.617Z" style="fill:none; stroke:#fff; stroke-linecap:round; stroke-linejoin:round; stroke-width:1.656px;"></path><path d="M366.551,239.289c1.645,.055,8.258,1.613,10.965,2.961s6.066,5.438,5.195,7.105c-.68,2.367-5.207,5.367-8.949,3.68-3.207-1.691-5.938-6.152-7.098-8.133-.148-.887-1.211-5.652-.113-5.613Zm-47.559-11.148c1.637,1.328,5.535,1.684,8.391,.797,4.172,2.402,8.977,15.848,7.016,16.273-1.957,.426-10.316,2.695-10.703,1.547-.387-1.125-4.348-16.848-4.703-18.617Z" style="fill:#79979b;"></path><path d="M355.406,238.16c3.172,2.613,4.508,3.367,7.406,5.492,.789,.645,1.449,1.629,.203,4.328-.887,1.914-2.039,2.75-2.449,4.496-.199,.992-1.109,1.664-3.563,.914-1.965-.602-4.496-.73-4.445-3.078-.113-6.273,2.848-12.152,2.848-12.152Z" style="fill:#7996a1; stroke:#fff; stroke-miterlimit:1.656; stroke-width:.828px;"></path><path d="M159.793,471.438c-1.555-1.305-3.691,4.469-4.492,6.93-.828,2.547,.172,4.965,.723,6.801,.293,.961,.762,2.324,1.184,3.375,.82,.098,2.094-.98,3.102-2.488,1.027-1.473,.852-1.449,1.152-2.176,.313-.754,1.004-2.074,1.297-2.461,.367-.578,.887-2.422,.938-2.809,.07-1.418,.246-1.469,.266-2.727,.035-2.492-1.992-2.613-4.168-4.445Z" style="fill:#749095; stroke:#fff; stroke-linecap:round; stroke-linejoin:round; stroke-width:.828px;"></path><path d="M414.293,541.399c1.129-.496,5.375,1.684,7.207,3.445,2.172,2.09,.844,3.18,1.957,4.52,.348,.363-1.199,3.848-1.578,3.773-2.156-2.047-4.891-1.004-7.301-2.48-3.555-2.18-1.367-8.781-.285-9.258Z" style="fill:#749095; stroke:#fff; stroke-miterlimit:1.656; stroke-width:.828px;"></path><path d="M159.133,278.035c.777-.461,.926-1.891,1.465-2.184,.707-.465,3.109-1.676,3.563-1.117,1.352,1.063,3.559,4.539,3.109,4.508-1.859,.348-9.332,5.523-11.859,4.055-1.547-.129,2.555-4.426,3.723-5.262Z" style="fill:#8fa59a; stroke:#fff; stroke-miterlimit:1.656; stroke-width:.828px;"></path><path d="M188.168,274.797c1.816-.484,6.387-1.656,8.535-2.789,5.367-2.73,2.43,5.082,1.758,10.609-.953,7.848-1.863,8.586-6.867,11.457-3.281,1.883-6.977,3.012-6.52-.957,.602-5.066,2.383-17.457,3.094-18.32Z" style="fill:#8fa59a; stroke:#fff; stroke-linecap:round; stroke-linejoin:round; stroke-width:.414px;"></path><path d="M408.336,561.988c-1.344,1.246-2.867,8.188-.438,11.434,2.434,3.242,5.16,5.484,5.605,9.902,2.043-5.246,4.684-6.914,5.285-8.793,.605-1.879,.102-6.848-4.316-9.801-4.418-2.957-4.793-3.988-6.137-2.742Z" style="fill:#759990; stroke:#fff; stroke-miterlimit:1.656; stroke-width:.828px;"></path><path d="M257.727,282.543c-.75-2.234,.062-12.402-.359-16.266-1.266-6.586-12.602-13.059-19.238-14.527-2.977,1.621-10.473,10.16-9.695,16.441,1.039,6.336,7.633,5.488,11.156,5.918,8.77,1.07,18.137,8.434,18.137,8.434Z" style="fill:#86aa97; stroke:#fff; stroke-linecap:round; stroke-linejoin:round; stroke-width:.828px;"></path><path d="M391.191,557.645c-.246-1.02-.809-2.289-.945-3.184-.145-.859,1.258-3.832,2.188-5.031,1.16-1.5,10.984-4.199,15.605-3.41,.535,.039-2.332,5.832-3.535,7.867-1.203,2.035-3.07,5.684-5.168,5.961-3.652,.598-8.145-2.203-8.145-2.203Z" style="fill:#759990; stroke:#fff; stroke-miterlimit:1.656; stroke-width:.828px;"></path><path d="M450.469,520.313c.121,1.676,3.836,7.477,2.645,11.746-1.012,3.887-1.668,4.555-.992,5.891,4.652,9.223,14.293,5.391,16.781,8.676-.09,.035-1.266-2.344-.668-6.059,.602-3.719,1.473-9.988,.82-10.973-.805-.777-6.383-.281-8.457-3.684-4.758-7.805-10.594-12.094-10.129-5.598Z" style="fill:#759990; stroke:#fff; stroke-miterlimit:1.656; stroke-width:.828px;"></path><path d="M441.274,518.906c.277,1.621,1.004,3.988,1.184,5.184,.188,1.223,.375,3.43,.371,5.234,.012,1.508-.566,2.836-1.051,3.609-.426,.695-.844,1.406-1.816,3.152-1.41,2.559-2.289,3.805-2.402,4.598-.742-1.402-5.359-5.809-10.344-8.578-1.133-1.066,.703-5.695,1.109-6.77,.195-1.09,4.695-1.465,6.949-2.684,2.449-1.32,5.973-4.039,6-3.746Z" style="fill:#759990; stroke:#fff; stroke-linecap:round; stroke-linejoin:round; stroke-width:.828px;"></path><path d="M457.438,458.263c1.047-.852-9.973-6.766-9.973-6.766,0,0-7.863,5.344-13.367,5.34-1.07,.727-.027,7.938-.934,10.418-.32,.258,2.285,1.52,6.363,2.551,2.488,.633,7.918-.559,11.23-3.434,4.504-3.902,3.023-5.297,6.68-8.109Z" style="fill:#759990; stroke:#fff; stroke-linecap:round; stroke-linejoin:round; stroke-width:.828px;"></path><path d="M395.334,273.222c.801-3.695,13.855-4.988,15.91-3.57,1.965,1.441,7.34,3.391,8.793,6.602,1.23,2.73,.863,7.707,.484,9.824-1.039,3.762-10.207,10.324-12.461,6.004-1.188-2.105,.84-2.066-1.703-9.344-1.039-2.961-11.355-7.898-11.023-9.516Zm16.813-17.543c1.77,2.313,2.844,3.266,3.234,3.074,.34-.16,2.031,1.824,1.746,2.059-.316,.922-2.23,3.48-1.816,2.937,.395,1-5.809-4.777-3.164-8.07Z" style="fill:none; stroke:#fff; stroke-linecap:round; stroke-linejoin:round; stroke-width:1.656px;"></path><path d="M395.334,273.221c.801-3.695,13.855-4.988,15.91-3.57,1.965,1.441,7.34,3.391,8.793,6.602,1.23,2.73,.863,7.707,.484,9.824-1.039,3.762-10.207,10.324-12.461,6.004-1.188-2.105,.84-2.066-1.703-9.344-1.039-2.961-11.355-7.898-11.023-9.516Zm16.812-17.543c1.77,2.312,2.844,3.266,3.234,3.074,.34-.16,2.031,1.824,1.746,2.059-.316,.922-2.23,3.48-1.816,2.938,.395,1-5.809-4.777-3.164-8.07Z" style="fill:#82929f;"></path><path d="M434.08,288.564c-.961,1.742-7.414,3.949-8.465,5.211-1.199,1.437,4.004,5.238,10.785,2.844,1.305-.441,5.805,1.781,6.383,.977,.109-1.18-.031-4.246-.762-6.156-.836-2.172-5.805-6.277-7.941-2.875Z" style="fill:#7996a1; stroke:#fff; stroke-linecap:round; stroke-linejoin:round; stroke-width:.828px;"></path><path d="M433.361,326.06c2.566,.25,4.879,3.297,6.168,4.984,1.305,1.688,4.68,4.094,6.289,5.16,3.848,1.516,5.762,4.898,4.66,6.539-1.203,1.711-8.27,1.203-12.809-.793-4.195-2.082-2.215-4.316-4.457-5.984-4.977-3.66-2.391-10.094,.148-9.906Z" style="fill:#79979b; stroke:#fff; stroke-linecap:round; stroke-linejoin:round; stroke-width:.828px;"></path><path d="M131.82,379.312c1.199-2.664,6.777-11.367,8.363-9.84,1.988,1.727,5.016,4.914,4.945,9.984-.395,4.457,3.684,11.641-1.062,12.008-1.172-.285-7.496,1.828-11.305,.438-.074-.664,1.082-3.543,.844-5.465-.125-1.688-2.965-4.227-1.785-7.125Z" style="fill:#749095; stroke:#fff; stroke-linecap:round; stroke-linejoin:round; stroke-width:.828px;"></path><path d="M149.094,354.32c.316-7.77-8.098-20.902-6.477-21.141,3.031-.078,2.945-2.961,7.531-4.441,7.75-2.547,3.953,8.387,11.543,14.645,2.547,2.125-2.328,3.008-1.91,6.051,.293,2.125-1.547,8.141,1.148,10.313,1.133,.992-12.301,5.969-11.836-5.426Z" style="fill:#86aa97; stroke:#fff; stroke-linecap:round; stroke-linejoin:round; stroke-width:.828px;"></path><path d="M221.86,255.938c.406,1.387-.633,5.715,2.562,11.598,3.273,6.32-4.867,4.223-6.211,1.559-1.344-2.664-4.441-12.281-3.734-13.039,1.66-.434,6.488-.414,7.383-.117Zm-53.875,61.766c.301-2.836-.168-11.375,.219-13.742,.828-3.277-2.141-12.059-2.938-13.266-1.738-1.461-6.852,3.781-7.41,5.695-.801,2.391-.512,2.684-1.656,8.875-1.086,6.074,5.039,13.914,7.152,14.742,2.504,1.676,4.633-2.305,4.633-2.305Z" style="fill:none; stroke:#fff; stroke-linecap:round; stroke-linejoin:round; stroke-width:1.656px;"></path><path d="M223.679,264.637c-.895-.297-5.723-.316-7.383,.117-.707,.758,2.391,10.375,3.734,13.039s9.484,4.762,6.211-1.559c-3.195-5.883-2.156-10.211-2.562-11.598Zm-53.875,61.766c.301-2.836-.168-11.375,.219-13.742,.828-3.277-2.141-12.059-2.938-13.266-1.738-1.461-6.852,3.781-7.41,5.695-.801,2.391-.512,2.684-1.656,8.875-1.086,6.074,5.039,13.914,7.152,14.742,2.504,1.676,4.633-2.305,4.633-2.305Z" style="fill:#90ad96;"></path><path d="M162.348,426.121c2-1.797,2.918-9.281,6.645-10.992,5.105-2.344,13.254,7.098,14.461,7.801,1.238,1.539-5.227,5.891-6.578,11.582-1.16,1.758-13.32-7.293-14.527-8.391Z" style="fill:#749095; stroke:#fff; stroke-linecap:round; stroke-linejoin:round; stroke-width:.828px;"></path><path d="M151.613,437.176c.52-1.043,2-4.574,2.645-4.352,.641,.227,3.406,1.516,3.695,3.137,.285,1.625-1.738,10.152-4.703,11.574-1.402,.867-4.793,3.945-5.297,2.531,.02-2.188-.891-6.5,.484-8.273,1.367-1.707,3.176-4.617,3.176-4.617Z" style="fill:#6b9497; stroke:#fff; stroke-linecap:round; stroke-linejoin:round; stroke-width:.828px;"></path><path d="M368.113,267.461c.438-3.82,2.855-8.355,6.816-10.258,4.902-2.438,15.891-.754,17.66-.715-2.648,2.418-3.25,10.887-7.973,13.09-7.313,3.004-16.504-2.117-16.504-2.117Z" style="fill:#82929f; stroke:#fff; stroke-linecap:round; stroke-linejoin:round; stroke-width:.828px;"></path><path d="M411.234,508.835c1.063,1.109,5.719,5.492,10.148,5,3.293-.461,9.098-2.02,11.348-3.613-1.637-2.207-2.52-6.027-2.5-7.5,.086-1.348-6.684,.84-10.125,2.043-3.469,.953-9.309,3.164-8.871,4.07Zm34.477-27.566c-.785-.441-.352,4.914,1.078,7.227,.59,.953,3.027,2.734,4.402,3.945,1.105,.988,5.988,1.398,7.621,.773,1.203-.461,4.352-3.008,3.766-4.125-1.164-2.27-4.371-5.578-5.406-6.203-1-.594-9.598-.762-11.461-1.617Z" style="fill:none; stroke:#fff; stroke-linecap:round; stroke-linejoin:round; stroke-width:1.656px;"></path><path d="M411.233,508.834c1.062,1.109,5.719,5.492,10.148,5,3.293-.461,9.098-2.02,11.348-3.613-1.637-2.207-2.52-6.027-2.5-7.5,.086-1.348-6.684,.84-10.125,2.043-3.469,.953-9.309,3.164-8.871,4.07Zm34.477-27.566c-.785-.441-.352,4.914,1.078,7.227,.59,.953,3.027,2.734,4.402,3.945,1.105,.988,5.988,1.398,7.621,.773,1.203-.461,4.352-3.008,3.766-4.125-1.164-2.27-4.371-5.578-5.406-6.203-1-.594-9.598-.762-11.461-1.617Z" style="fill:#759990;"></path><path d="M429.481,476.469c2.18,1.426,6.086,.602,8.477,2.531,.109,2.07,2.246,10.207,6.594,12.277-.973,.152-6.066,3.188-10.93,7.066-2.805,.836-9.684-10.121-9.914-11,1.336-2.723,5.773-10.875,5.773-10.875Z" style="fill:#6b9691; stroke:#fff; stroke-linecap:round; stroke-linejoin:round; stroke-width:.828px;"></path><path d="M230.07,575.895c-2.004,1.48-3.34,3.699-4.758,7.629-1.445,4.023-1.809,5.621-1.625,7.742,.129,1.512,2.715,.168,4.457-.137,1.742-.309,4.426-.293,5.809-.461,1.387-.168,2.563-.652,3.5-.84,.938-.187,1.914-1.156,2.543-1.98,1.641-2.156-.168-6.129-1.934-8.945-1.473-2.352-7.258-3.555-7.992-3.008Z" style="fill:#80999a; stroke:#fff; stroke-miterlimit:4.139; stroke-width:.828px;"></path><path d="M255.414,603.5c-.023-.086-1.543,1.594-2.789,2.973-.75,.836-3.008,2.078-3.047,2.68-.074,1.063,7.66-.047,7.582-.406-.184-.945-.598-4.066-1.746-5.246Zm-46.078-44.613c-.035,.187,.133,1.789,1.484,2.051,1.285,.246,1.219,.168,1.582,.078,.367-.09,.297-3.684-.422-3.543-.879,.301-2.496,1.422-2.645,1.414Zm53.969,50.367c.422,.105,1.512-.824,1.938-1.672,.461-.883,1.664-1.492,1.004-1.758-1.023-.414-3.18,.031-3.09,.516,.109,.59-.16,2.809,.148,2.914Zm-27.602-59.418c-.664,.383-2.758,5.066-3.207,6.246-.527,1.207,5.535-2.289,6.426-2.359,.965-.074,5.93,.188,5.527-.563-.578-1.062-1.926-1.602-3.262-3.988-.441-.793-4.668,.195-5.484,.664Zm-56.496-11.73c-.23,.668-.379,6.414,1.273,7.039,1.422,.512,2.656,1.113,3.492,.605,1.039-.684,.707-6.691-.34-6.727-.965,.039-4.188-1.828-4.426-.918Z" style="fill:none; stroke:#fff; stroke-miterlimit:4.139; stroke-width:1.656px;"></path><path d="M255.414,603.5c-.023-.086-1.543,1.594-2.789,2.973-.75,.836-3.008,2.078-3.047,2.68-.074,1.062,7.66-.047,7.582-.406-.184-.945-.598-4.066-1.746-5.246Zm-46.078-44.613c-.035,.188,.133,1.789,1.484,2.051,1.285,.246,1.219,.168,1.582,.078,.367-.09,.297-3.684-.422-3.543-.879,.301-2.496,1.422-2.645,1.414Zm53.969,50.367c.422,.105,1.512-.824,1.938-1.672,.461-.883,1.664-1.492,1.004-1.758-1.023-.414-3.18,.031-3.09,.516,.109,.59-.16,2.809,.148,2.914Zm-27.602-59.418c-.664,.383-2.758,5.066-3.207,6.246-.527,1.207,5.535-2.289,6.426-2.359,.965-.074,5.93,.188,5.527-.562-.578-1.062-1.926-1.602-3.262-3.988-.441-.793-4.668,.195-5.484,.664Zm-56.496-11.73c-.23,.668-.379,6.414,1.273,7.039,1.422,.512,2.656,1.113,3.492,.605,1.039-.684,.707-6.691-.34-6.727-.965,.039-4.188-1.828-4.426-.918Z" style="fill:#768e96;"></path><path d="M177.277,545.996c-.695,4.398-9.914,18.547-17.246,22.086-1.465,.707-4.18-10.883,.188-12.988,4.629-2.227,10.063-5.195,15.012-11.855,1.047-1.41,2.105,1.797,2.047,2.758Z" style="fill:#748c95; stroke:#fff; stroke-miterlimit:4.139; stroke-width:.828px;"></path><path d="M173.773,519.492c-4.688,2.82-9.492,4.34-12.973,10.957-2.371,4.469-2.312,10.918-2.312,10.918,0,0,7.961-3.664,11.656-4.391,3.586-.672,4.902-4.418,9.473-8.516,2.852-2.68-1.113-4.164-3.176-6.176-1.863-1.816-.715-3.883-2.668-2.793Z" style="fill:#818792; stroke:#fff; stroke-miterlimit:4.139; stroke-width:.828px;"></path><path d="M191.004,570.227c-1.586,2.883-5.289,11.66-3.324,11.832,1.984,.184,9.004,2.883,9.563,1.012,.574-7.504,4.691-15.605,3.984-16.766-4.688-3.883,1.918-20.035-10.223,3.922Z" style="fill:#788f97; stroke:#fff; stroke-miterlimit:4.139; stroke-width:.828px;"></path><path d="M223.137,520.293c-3.891,1.188-8.918,4.219-9.543,11.68,1.297,2.586,4.086,2.117,5.918,2.023,3.836-1.852,11.512,.496,19.07,1.48,1.379,.348-14.543-9.555-15.445-15.184Z" style="fill:#748c95; stroke:#fff; stroke-miterlimit:4.139; stroke-width:.828px;"></path><path d="M343.08,539.296c8.061,2.927,13.309,.371,20.382-4.357,10.094-6.18,11.886-15.338,9.885-14.693-8.856,2.758-10.139-2.416-16.121-.924-5.213,1.383-.314,8.072-4.489,12.319-4.4,4.493-11.38,7.255-9.657,7.656Z" style="fill:#7b8290; stroke:#361b4c; stroke-linecap:round; stroke-linejoin:round; stroke-width:.414px;"></path><path d="M380.141,295.672c-.84-1.332-9.156-10.094-10.797-10.148-1.637-.059-.668,3.988-.711,4.391-.043,.402,6.859,8.797,8.492,8.176,1.637-.621,4.145-.617,3.016-2.418Z" style="fill:#7b8488; stroke:#361b4c; stroke-linecap:round; stroke-linejoin:round; stroke-width:.414px;"></path><path d="M400.589,312.561c.281,2.98-.043,5.238-.172,5.977-.316,1.813-3.852,4.395-2.93,5.625,1.25,1.664,2.957,3.5,4.375,6.379,.859,1.746,1.281-3.352,4.355-5.301,3.078-1.945,7.262,1.094,9.281,.82,1.484-.199-1.715-6.645-8.055-14.266-4.828-5.813-8.668-8.656-10.125-8.715-1.422-.055,2.988,6.504,3.27,9.48Z" style="fill:#898986; stroke:#361b4c; stroke-linecap:round; stroke-linejoin:round; stroke-width:.414px;"></path><path d="M412.468,351.505c-.828,.312,3.223,12.324,2.359,13.777,9.918,.246,11.109,16.988,14.398,16.988,3.289-.004,2.902-15.395,.293-24.016-2.871-9.477-7.695-14.418-10.777-12.563-3.078,1.855-3.238,4.676-6.273,5.813Z" style="fill:#7b8488; stroke:#361b4c; stroke-linecap:round; stroke-linejoin:round; stroke-width:.414px;"></path><path d="M387.88,389.379c-1.59-5.051,1.785-8.309,1.641-8.566-.148-.258,4.371-4.57,5.098-6.551,.73-1.98,1.973-9.176,2.766-8.711,.82,.477,7.449,4.828,9.414,13.535,1.965,8.703,3.18,16.637,.281,21.711-3.344,5.852-10.359,9.281-13.68,8.602,.359-8.445-3.273-16.352-5.52-20.02Z" style="fill:#8a8986; stroke:#361b4c; stroke-linecap:round; stroke-linejoin:round; stroke-width:.414px;"></path><path d="M386.184,478.769c-.922,1.926-7.676-3.52-7.848,2.613-.176,5.969-10.695,27.402,4.957,25.406,9.133-1.16,13.496-10.828,15.547-17.355,2.051-6.527,4.262-15.949,1.82-20.074-6.445-9.348-7.961-4.109-14.477,9.41Z" style="fill:#7b8290; stroke:#361b4c; stroke-linecap:round; stroke-linejoin:round; stroke-width:.414px;"></path><path d="M229.625,600.422c2.621-.223,9.922,8.691,8.398,8.473-3.523-.508-6.078,3.828-6.98,6.426-.672,1.922-3.859,2.008-4.129,1.16-.363-1.902-3.34-7.41-3.027-7.578,1.09-.715,2.082-2.324,1.215-3.07-5.254-4.516,.332-4.809,4.523-5.41Z" style="fill:#888893; stroke:#fff; stroke-miterlimit:4.139; stroke-width:.828px;"></path><path d="M187.012,303.195c-.004,.895,.457,3.992,.844,5.023,.238,.637,1.875,3.023,2.363,2.289,.422-.266,.961-1.645,1.082-2.324,.129-.711,.594-1.113,.191-2.039-.406-.926-.109-1.016,.07-1.922,.176-.91-2.344-2.488-2.566-3.102-.574-.273-1.387-.914-1.387-.914,0,0-.652,1.188-.598,2.988Z" style="fill:#90ad96; stroke:#fff; stroke-linecap:round; stroke-linejoin:round; stroke-width:.828px;"></path><path d="M175.164,303.094c.348,1.172,1.555,3.234,2.016,4.008,.547,.871,2.23,3.715,3.09,4.211,.859,.496,2.406-.047,2.934-.629,.313-.348-.195-1.445-.75-2.336-.559-.891-2.828-4.816-3.219-5.738-.316-.867-2.711-3.344-3.086-4.266-.738-.602-2.598-3.484-2.57-3.418,0,0,1.105,6.586,1.586,8.168Z" style="fill:#90ad96; stroke:#fff; stroke-linecap:round; stroke-linejoin:round; stroke-width:.828px;"></path><path d="M213.841,288.769c-2.242,.77-6.426,5.422-3.988,9.168,.316,.984,5.707,4.035,6.773,4.02,1.41-2.027,4.746-6.551,8.895-5.777,3.395,.633,4.895-6.598,1.895-6.637-2.949,.074-10.895-1.723-13.574-.773Z" style="fill:#86aa97; stroke:#fff; stroke-linecap:round; stroke-linejoin:round; stroke-width:.414px;"></path><path d="M147.726,304.129c-.48,2.297-5.359,3.977-4.332-3.566,1.023-7.543,6.078-10.48,7.066-11.238,.992-.758,5.395-2.133,6.66-1.805,1.5,.344,3.836,6.258,.082,8.07-3.75,1.809-9,6.246-9.477,8.539Z" style="fill:#86ab97; stroke:#fff; stroke-linecap:round; stroke-linejoin:round; stroke-width:.414px;"></path><path d="M304.424,248.296c-1.789-2.094-7.473-1.355-13.574-.699-5.969,.645-9.199,1.07-10.648,2.715,.031,1.051,4.84,6.039,7.844,6.258,3.105,.355,17.984-5.992,16.379-8.273Z" style="fill:#79979b; stroke:#fff; stroke-linecap:round; stroke-linejoin:round; stroke-width:.828px;"></path><path d="M304.424,248.296c-1.789-2.094-7.473-1.355-13.574-.699-5.969,.645-9.199,1.07-10.648,2.715,.031,1.051,4.84,6.039,7.844,6.258,3.105,.355,17.984-5.992,16.379-8.273Z" style="fill:none; stroke:#fff; stroke-linecap:round; stroke-linejoin:round; stroke-width:.828px;"></path><path d="M307.561,256.84c-3.18-2.375-5.363,3.879-5.402,4.531-.133,2.027,4.543,3.387,6.723,4.926,1.555,1.098,4.992,4.121,6.266,5.086,2.07,1.348-.008-2.832,3.387-4.801-4.211-3.406-6.359-6.297-10.973-9.742Zm26.785,11.004s11.207,9.332,11.871,7.934c2.484-5.23,17.875-2.66,18.191-2.391,.703,.594,.84-1.141,.512-1.898-.629-.281-16.941-6.207-19.129-6.555-2.848-.457-10.125,.648-11.445,2.91Z" style="fill:none; stroke:#361b4c; stroke-linecap:round; stroke-linejoin:round; stroke-width:.828px;"></path><path d="M307.561,256.84c-3.18-2.375-5.363,3.879-5.402,4.531-.133,2.027,4.543,3.387,6.723,4.926,1.555,1.098,4.992,4.121,6.266,5.086,2.07,1.348-.008-2.832,3.387-4.801-4.211-3.406-6.359-6.297-10.973-9.742Zm26.785,11.004s11.207,9.332,11.871,7.934c2.484-5.23,17.875-2.66,18.191-2.391,.703,.594,.84-1.141,.512-1.898-.629-.281-16.941-6.207-19.129-6.555-2.848-.457-10.125,.648-11.445,2.91Z" style="fill:#898986;"></path><path d="M254.925,293.114c-.203-1.375-.449-9.574,9.129-10.191,9.578-.621,15.984,2.242,16.109,2.648,.125,.402-10.121,1.98-9.973,6.492-2.086,.426-4.004,5.836-6.766,5.203-2.762-.633-6.613-4-8.5-4.152Z" style="fill:#7b8588; stroke:#361b4c; stroke-linecap:round; stroke-linejoin:round; stroke-width:.414px;"></path><path d="M319.129,287.529c4.063-2.785,13.648,.203,13.559-.715-.797-8.164-8.68-12.477-20.828-12.648-11.922-.168-22.859,4.418-17.957,13.949,3.289,6.406,3.363,7.238,3.676,8.473,2.324-.121,13.977,2.352,20.254,4.191,1.52-4.609-.645-11.918,1.297-13.25Z" style="fill:#7b8488; stroke:#361b4c; stroke-linecap:round; stroke-linejoin:round; stroke-width:.414px;"></path><path d="M148.838,314.838c.695,1.301,2.953,3.707,3.43,5.156,0,0-5.613,5.539-6.461,7.129-.859,1.539-4.066-2.992-7.316-4.871-2.742-1.809-4.773-9.555-3.777-10.898,.793-1.18,5.367,2.418,6.691,2.617,1.703,.289,7.434,.867,7.434,.867Z" style="fill:#86ab97; stroke:#fff; stroke-linecap:round; stroke-linejoin:round; stroke-width:.414px;"></path><path d="M352.281,338.281c5.352-.699,3.324-.93,7.379-4.426,5.074-4.375,6.672-11.355,9.492-13.477,2.816-2.117,7.328,.484,9.863,3.23,2.535,2.75,10.703,16.324,10.68,23.633-.02,6.289-1.262,14.996-4.09,15.426-2.828,.434-5.219-1.082-5.551-2.504-.328-1.422-3.598-16.273-8.793-16.422s-3.543,5.109-12.324,6.367c-2.234,.32-5.414,1.535-5.813-.094-.398-1.633-.844-11.734-.844-11.734Z" style="fill:#898986; stroke:#361b4c; stroke-linecap:round; stroke-linejoin:round; stroke-width:.414px;"></path><path d="M264.969,302.363c-1.566,.953-.719,13.602,2.52,13.617,3.309,.02,7.984-6.094,16.27-5.785,8.289,.309,14.699,4.938,15.906,4.574,1.211-.363-1.711-17.16-19.121-17.16-7.719,0-11.59,2.332-15.574,4.754Z" style="fill:#7b8488; stroke:#361b4c; stroke-linecap:round; stroke-linejoin:round; stroke-width:.414px;"></path><path d="M248.973,598.613c2.012-.438,5.754-.004,9.086,.262,3.332,.266,3.746-1.371,9.109,.535-.504-5.359,.543-10.512,.707-12.75-2.52,1.289-13.215,1.754-23.574,.168-.789-.047,3.465,11.75,4.672,11.785Z" style="fill:#80999a; stroke:#fff; stroke-miterlimit:4.139; stroke-width:.828px;"></path><path d="M285.922,575.524c7.879-.84,13.797-3.203,18.32-4.691,.883-.152,1.75,7.141,2.629,9.305-.301,.777-4.875,.641-7.148,3.734-1.375,1.937-11.141,.762-15.672-1.156-2.973-1.98-.723-6.383,1.871-7.191Z" style="fill:#80999a; stroke:#fff; stroke-miterlimit:4.139; stroke-width:.828px;"></path><path d="M432.365,398.258c-.762-.902-2.969-2.219-3.992-1.227-1.023,.996-1.488,4.723-2.957,5.656-1.465,.938-10.832,3.934-12.348,3.461,.359,2.648-.465,6.742-.215,8,.25,1.262,5.16,3.82,2.219,9.078-3.02,5.41,7.449,9.262,12.594,21.281,.926,.805,3.113,1.258,4.648-.754,1.539-2.012,9.246-15.641,8.535-22.648-.707-7.012-4.848-18.531-8.484-22.848Z" style="fill:#898986; stroke:#361b4c; stroke-linecap:round; stroke-linejoin:round; stroke-width:.414px;"></path><path d="M221.402,489.512c5.703,.629,13.113,1.383,11.633,3.754-1.566,2.512-4.406,10.996-3.305,14.844,.848,2.949-12.25,3.848-20.445,2.188-9.453-1.918-14.418-18.73-5.242-14.734,9.68,4.215,15.387-6.266,17.359-6.051Z" style="fill:#887d8c; stroke:#361b4c; stroke-linecap:round; stroke-linejoin:round; stroke-width:.414px;"></path><path d="M261.48,557.547c-4.402,2.172-10.715,.23-10.676-1.145,.207-1.887,7.891-6.961,8.438-7.543,4.414,1.406,14.883,2.305,2.238,8.688Z" style="fill:#818792; stroke:#fff; stroke-miterlimit:4.139; stroke-width:.828px;"></path><path d="M339.834,490.847c1.836,3.328,3.371,9.156,11.246,6.734,7.875-2.422,9.242-6.094,11.25-7.945,2.008-1.855,3.84-.211,4.129,1.441,.742,4.234,2.055,11.465-6.469,19.379-6.445,5.984-15.734,10.445-17.254,9.855-2.43-2.102-5.141-9.461-17.102-5.871-1.891-5.922-1.586-10.043,.352-16.02,3.355-10.355,12.012-10.906,13.848-7.574Z" style="fill:#887d8c; stroke:#361b4c; stroke-linecap:round; stroke-linejoin:round; stroke-width:.414px;"></path><path d="M305.186,507.309c3.727,2.277,6.879,3.609,9.395,5.965,2.52,2.355-.832,13.57-4.086,20.004-3.25,6.438-12.609,17.039-18.484,16.387-5.875-.652-6.988-6.086-5.855-11.68,1.129-5.598,1.188-18.773,6.512-17.906,6.949,1.133,11.398-13.457,12.52-12.77Z" style="fill:#887d8c; stroke:#361b4c; stroke-linecap:round; stroke-linejoin:round; stroke-width:.414px;"></path><path d="M363.367,602.969s3.824,8.113,5.25,7.883c3.801-3.066,10.09-11.926,9.777-14.789-.34-2.973-8.219-3.402-10.039-.738-2.461,2.926-2.836,5.711-4.988,7.645Z" style="fill:#909295; stroke:#fff; stroke-miterlimit:4.139; stroke-width:.828px;"></path><path d="M174.832,578.887c-.746-2.164-4.523,4.547-4.785,6.516-.285,1.836,4.016,9.066,4.082,8.891,.719-3.379,11.859-6.836,9.254-8.516-2.461-2.859-7.313-3.051-8.551-6.891Z" style="fill:#89978a; stroke:#fff; stroke-miterlimit:4.139; stroke-width:.828px;"></path><path d="M255.414,603.5c-.023-.086-1.543,1.594-2.789,2.973-.75,.836-3.008,2.078-3.047,2.68-.074,1.063,7.66-.047,7.582-.406-.184-.945-.598-4.066-1.746-5.246Zm-46.078-44.613c-.035,.187,.133,1.789,1.484,2.051,1.285,.246,1.219,.168,1.582,.078,.367-.09,.297-3.684-.422-3.543-.879,.301-2.496,1.422-2.645,1.414Zm53.969,50.367c.422,.105,1.512-.824,1.938-1.672,.461-.883,1.664-1.492,1.004-1.758-1.023-.414-3.18,.031-3.09,.516,.109,.59-.16,2.809,.148,2.914Zm-27.602-59.418c-.664,.383-2.758,5.066-3.207,6.246-.527,1.207,5.535-2.289,6.426-2.359,.965-.074,5.93,.188,5.527-.563-.578-1.062-1.926-1.602-3.262-3.988-.441-.793-4.668,.195-5.484,.664Z" style="fill:none; stroke:#fff; stroke-miterlimit:4.139; stroke-width:1.656px;"></path><path d="M255.414,603.5c-.023-.086-1.543,1.594-2.789,2.973-.75,.836-3.008,2.078-3.047,2.68-.074,1.062,7.66-.047,7.582-.406-.184-.945-.598-4.066-1.746-5.246Zm-46.078-44.613c-.035,.188,.133,1.789,1.484,2.051,1.285,.246,1.219,.168,1.582,.078,.367-.09,.297-3.684-.422-3.543-.879,.301-2.496,1.422-2.645,1.414Zm53.969,50.367c.422,.105,1.512-.824,1.938-1.672,.461-.883,1.664-1.492,1.004-1.758-1.023-.414-3.18,.031-3.09,.516,.109,.59-.16,2.809,.148,2.914Zm-27.602-59.418c-.664,.383-2.758,5.066-3.207,6.246-.527,1.207,5.535-2.289,6.426-2.359,.965-.074,5.93,.188,5.527-.562-.578-1.062-1.926-1.602-3.262-3.988-.441-.793-4.668,.195-5.484,.664Z" style="fill:#768e96;"></path><path d="M209.191,592.477c1.121,1.27,3.68-.969,4.402-1.867,.305-.383,1.441-1.715,2.313-2.344,.875-.629,1.477-2.203,2.723-3.844,1.461-1.93,3.277-3.328,4.961-4.664,1.688-1.336-2.277-.082-4.602,1.664-2.211,1.676-4.641,3.289-5.555,3.789-3.895,2.125-4.242,7.266-4.242,7.266Z" style="fill:#83948b; stroke:#fff; stroke-miterlimit:4.139; stroke-width:.828px;"></path><path d="M218.146,554.018c.355,1.926,1.492,4.961,4.141,6.039,1.719,.719,4.129-1.441,5.102-3.102,1.18-2.039,1.066-3.934,3.754-9.957,2.199-4.949,3.629-6.184,3.934-7.391,.078-.141-.91-1.75-1.215-1.477-4.039,4.98-7.074,9.906-9.16,11.547-3.941,3.098-6.555,4.34-6.555,4.34Z" style="fill:#83948b; stroke:#fff; stroke-miterlimit:4.139; stroke-width:.828px;"></path><path d="M170.46,387.444c1.73-.418,2.039,2.859,2.059,3.602,.023,.934,1.469,3.969,.762,5.355-.223,1.164-1.949,.758-2.84,.781-1.406,.121-2.887,.484-2.82-.551,.07-.922,.664-8.453,2.84-9.188Z" style="fill:#749095; stroke:#fff; stroke-linecap:round; stroke-linejoin:round; stroke-width:.828px;"></path><path d="M156.254,403.656c-1.066-1.664-7.344,1.496-7.773,2.504,.781,.816,6.371,5.848,7.289,6.164,.859,.383,2.086,.27,3.164-.723,.926-.789-1.191-3.301-1.688-4.449-.512-1.195-.23-2.438-.992-3.496Z" style="fill:#749095; stroke:#fff; stroke-linecap:round; stroke-linejoin:round; stroke-width:.828px;"></path><path d="M198.717,319.582c.652-2.547,5.973-14.441,9.609-14.66,3.637-.223,6.461,5.449,6.227,7.727-.172,1.688-3.68,6.207-4.285,6.539-.605,.332-11.727,1.09-11.551,.395Z" style="fill:#7b8290; stroke:#361b4c; stroke-linecap:round; stroke-linejoin:round; stroke-width:.414px;"></path><path d="M179.105,351.152c-4.703-.531-4.391-7.977-3.07-10.395,1.895-3.469,6.469-8.918,10.043-9.84,2.863-.738,6.203-1.441,7.449-.902,1.246,.543-.141,5.465-.973,7.891-1.258,3.684,2.516,14.199,.258,14.324-5.523,.301-7.984-.434-13.707-1.078Z" style="fill:#7b8290; stroke:#361b4c; stroke-linecap:round; stroke-linejoin:round; stroke-width:.414px;"></path><path d="M183.227,383.887c.379-5.84,4.527-9.66,9.324-10.938,2.656-.707,13.102-.68,14.188,1.629,1.086,2.309,1.008,10.168,3.656,13.832,2.648,3.668,3.148,8.309,2.188,11.434-.742,2.582-9.047,7.109-12.898,9-3.434,1.684-9.039,2.648-12.262-1.477-5.387-6.629-4.617-17.906-4.195-23.48Z" style="fill:#7b8290; stroke:#361b4c; stroke-linecap:round; stroke-linejoin:round; stroke-width:.414px;"></path><path d="M223.363,397.805c.352-1.633-2.617-1.641-4.73,1.062s-6.398,14.336-6.953,19.012c-.711,5.633,4.656,11.395,5.73,7.758,1.934-6.543,2.969-8.82,4.312-12.242,.695-3.754,.445-9.723,1.641-15.59Z" style="fill:#887d8c; stroke:#361b4c; stroke-linecap:round; stroke-linejoin:round; stroke-width:.501px;"></path><path d="M218.201,327.694c-4.027-.379-12.699,9.438-13.516,13.922-.813,4.48-4.195,17.949,2.629,18.996,4.434,.684,3.504-10.594,15.844-11.816,1.805-.18,.594-7.781,5.066-10.586,2.336-1.469-4.277-9.98-10.023-10.516Z" style="fill:#887d8c; stroke:#361b4c; stroke-linecap:round; stroke-linejoin:round; stroke-width:.414px;"></path><path d="M325.989,303.523c1.785-3.637,7.699-9.148,17.352-8.383,9.648,.766,19.781,3.871,25.008,8.871,5.23,4.996,7.223,6.836,5.102,7.66-3.285,1.277-6.203,3.988-7.328,6.578-.793,1.824-5.684-6.184-14.555-3.996-4.289-2.836-11.5-2.82-18.496-.848-2.352-2.762-7.082-9.883-7.082-9.883Z" style="fill:#7b8488; stroke:#361b4c; stroke-linecap:round; stroke-linejoin:round; stroke-width:.414px;"></path><path d="M221.272,318.079c.582-2.656,3.289-7.844,8.898-10.648,5.605-2.801,12.332-4.32,16.09-4.961,5.34-.91,7.695,1.309,8.512,3.672s2.441,7.273,2.578,8.313c.137,1.039-13.625,4.406-11.941,8.602,1.805,4.504,4.957,9.359,3.668,8.582-6.125-3.699-16.047-7.613-19.422-8.203-3.375-.594-9.277-1.297-8.383-5.355Z" style="fill:#887d8c; stroke:#361b4c; stroke-linecap:round; stroke-linejoin:round; stroke-width:.414px;"></path><path d="M205.189,442.134c-5.16-7.152-12.168-2.824-15.477-.207-2.324,1.84-4.859,6.27-2.516,15.191,2.234,8.488,4.789,12.465,8.602,15.176,3.813,2.715,8.641,3.059,11.273,2.406,3.719-.918,9.82-2.574,9.242-6.25-.207-1.313-10.152-6.148-12.699-12.266-2.547-6.121,3.707-11.094,1.574-14.051Z" style="fill:#887d8c; stroke:#361b4c; stroke-linecap:round; stroke-linejoin:round; stroke-width:.414px;"></path><path d="M243.279,501.187c-1.992,4.59-.398,7.402,.199,11.68,.934,4.879,13.133,15.254,26.012,9.641,9.996-4.348,9.27-14.52,8.945-17.043-.355-1.824-2.945-1.227-5.215-.781-2.262,.445-9.422,4.176-14.293-.195-3.199-2.961-3.148-2.883-5.188-5.73-1.551-2.328-4.422-1.051-7.383-2.32,0,0-1.949,2.02-3.078,4.75Z" style="fill:#887d8c; stroke:#361b4c; stroke-linecap:round; stroke-linejoin:round; stroke-width:.414px;"></path><path d="M354.145,397.129c-1.008-2.504-2.598,1.094-3.129,2.5-.176,.781,1.668,22.855-2.969,27.391-4.633,4.531,.305,4.328,1.984,2.352,1.68-1.973,4.516-6.566,4.664-8.629,.156-2.082,.516-4.25,.945-7.875,.43-3.418,1.219-9.223-1.496-15.738Z" style="fill:#8db5a7; stroke:#24526c; stroke-miterlimit:1.656; stroke-width:.828px;"></path><path d="M334.497,436.732c1.445-.25,2.305,1.043,3.527,3.063,1.164,1.902-.578,7.34-3.68,11.578-3.055,4.168-8.211,6.395-11.965,7.758-3.594,1.305-7.152,1.68-9.641-.684-.344-2.039,2.16-4.039,2.406-7.258,2.891-.59,6.363-2.387,7.398-4.637,0,0,3.02,.871,4.039,.039,2.395-1.949,7.047-9.133,7.914-9.859Z" style="fill:#8db5a7; stroke:#24526c; stroke-miterlimit:1.656; stroke-width:.828px;"></path><path d="M342.1,360.416s-3.277,6.414-2.395,6.766c.883,.355,5.047,1.754,7.422,5.48,2.137,3.359,1.918,8.879,3.063,8.375,1.855-.82,3.09-.223,4.215,.012,1.703,.359,2.816,3.219,2.875,1.625,.082-2.406-1.324-5.652-2.234-9.039-1.008-3.762-3.68-7.363-5.887-9.16-3.41-2.703-4.383-3.402-7.059-4.059Z" style="fill:#8db5a7; stroke:#24526c; stroke-miterlimit:1.656; stroke-width:.828px;"></path><path d="M309.8,340.171c3.613-.371,5.457-1.277,8.5-1.527,3.078-.246,8.676,1.215,8.52,.859-1.063-2.41,3.719-4.934,3.066-7.039-.652-2.105-5.125-2.734-7.695-2.852-4.488-.211-8.996,.363-11.598,1.047-2.633,.688-6.797,3.148-7.023,5.621-.324,3.52,2.582,4.297,6.23,3.891Z" style="fill:#84b2a8; stroke:#24526c; stroke-miterlimit:1.656; stroke-width:.828px;"></path><path d="M280.869,367.345c.223-1.52,1.785-9.988,10.438-12.555,8.043-2.383,13.238-1.117,17.719,.766,2.762,1.164,4.379,2.355,7.723,5.309-.109,.145-11.051-2.684-17.59-2.238-6.523,.371-14.914,5.5-18.289,8.719Z" style="fill:#8db5a7; stroke:#24526c; stroke-miterlimit:1.656; stroke-width:.828px;"></path><path d="M332.181,377.022c-1.203-1.121,7.621,2.723,10.48,10.039,2.477,6.32,2.207,10.867,1.73,15.047-.117,1.047-1.664,3.426-2.457,.746-.801-2.684,.449-7.117-1.266-12.871-1.473-4.965-7.027-11.609-8.488-12.961Z" style="fill:#84b2a8; stroke:#24526c; stroke-miterlimit:1.656; stroke-width:.828px;"></path><path d="M326.139,418.124c-1.359,4.359-13.664,9.105-5.035,9.082,6.906-.016,10.18-6.664,11.188-11.203,1.645-7.391,.277-15.137-1.273-13.469-1.738,2.059-2.941,9.559-4.879,15.59Z" style="fill:#85b1ad; stroke:#24526c; stroke-miterlimit:1.656; stroke-width:.828px;"></path><path d="M253.479,420.288c.121-1.531-3.496-2.387-5.246,.496-2.172,3.586-1.031,7.387,.258,13.609,1.32,6.363,11.582,12.637,15.648,9.938,5.414-3.625-3.473-3.465-6.512-6.469-2.172-2.145-4.891-6.293-5.609-9.297-.906-3.816,.938-1.715,1.461-8.277Z" style="fill:#8caeab; stroke:#24526c; stroke-miterlimit:1.656; stroke-width:.828px;"></path><path d="M287.18,378.841c.93-.047,1.496-.055,3.547-1.059,1.492-.727,2.848-1.168,3.711-1.434,1.594-.488,2.047-.809,2.805-1.168-3.855-1.176-10.648-1.742-11.93,1.297,.23,1.133,.715,1.445,1.867,2.363Z" style="fill:#8caeab; stroke:#24526c; stroke-miterlimit:1.656; stroke-width:.828px;"></path><path d="M263.933,364.733c1.066-1.063,4.75,1.477,5.43-2.898,.488-3.488-1.332-1.402-1.27-2.559,.086-1.727-.965-3.398-3.563-4.207-5.789,.055-3.902,3.148-6.629,4.832-4.109,2.535-10.594,10.313-2.789,15.902,.266-2.941,2.363-7.293,4.816-9.352,1.316-1.105,3.008,.027,4.004-1.719Z" style="fill:#8caeab; stroke:#24526c; stroke-miterlimit:1.656; stroke-width:.828px;"></path><path d="M310.806,369.899c3.172,.363,5.961,.926,7.98,1.969,2.023,1.043,6.301,5.656,6.906,7.113-.176-2.863-1.703-7.031-5.129-9.27-3.008-1.961-6.496-1.984-9.758,.188Z" style="fill:#84b2a8; stroke:#24526c; stroke-miterlimit:1.656; stroke-width:.828px;"></path><path d="M272.94,430.527c-.934-1.605-3.938,6.848-1.652,10.535,2.641,4.355,7.563,8.969,16.766,7.387,3.48-.637,7.09-2.633,6.387-3.879-1.02-1.813-5.918-1.055-9.066-1.941-2.238-.656-3.586-2.582-5.645-3.168-2.613-.766-4.172-4.457-6.789-8.934Z" style="fill:#8db5a7; stroke:#24526c; stroke-miterlimit:1.656; stroke-width:.828px;"></path><path d="M258.325,392.901c.742-1.609,2.547-4.406,3.254-3.191,1.023,1.766,4.133,7.578,3.652,9.402-.484,1.82-.68,3.797-.008,7.273,.332,1.684-2.602-.305-3.516-1.996-.793-1.461-1.645-2.465-2.805-4.918-.414-.875-1.797-3.91-.578-6.57Z" style="fill:#8db5a7; stroke:#24526c; stroke-miterlimit:1.656; stroke-width:.828px;"></path><path d="M288.626,424.523c-1.375,1.902,1.066,7.719,6.711,8.125,7.754,.559,11.617-3.957,12.66-7.441,.746-2.48-2.141,1.563-9.832,1.926-7.691,.367-8.398-4.191-9.539-2.609Z" style="fill:#8caeab; stroke:#24526c; stroke-miterlimit:1.656; stroke-width:.828px;"></path><path d="M317.596,382.67c-.254-.762,4.754,2.855,5.426,9.109,.578,5.398-.133,7.129-2.02,9.961-1.289,1.934-5.605,3.527-5.148,2.215,.613-1.754,3.957-5.926,4.176-10.402,.199-4.098-2.051-9.738-2.434-10.883Z" style="fill:#84b2a8; stroke:#24526c; stroke-miterlimit:1.656; stroke-width:.828px;"></path><path d="M305.194,371.923c.539-.391,4.543,.02,6.875,1.535,.762,.496,1.633,1.582,1.23,1.496-3.996-.844-9.223,.969-9.223,.375,.02-.738,.391-2.82,1.117-3.406Z" style="fill:#85b1ad; stroke:#24526c; stroke-miterlimit:1.656; stroke-width:.828px;"></path><path d="M290.225,383.193c-.066,1.867,.906,4.641,1.445,5.656,.453,.898,1-2.277,2.195-3.52,1.094-1.133,3.48-4.402,3.012-4.121-2.016,1.23-6.652,1.984-6.652,1.984Z" style="fill:#85b1ad; stroke:#24526c; stroke-miterlimit:1.656; stroke-width:.828px;"></path><path d="M283.143,406.29c-1.18,.09-1.488,4.191,.145,6.461,.664,.992,.293,2.359,1.926,2.785,2.262,.531,4.09,2.551,6.176,1.77,1.051-.406-2.969-2.879-4.23-4.859-1.207-1.895-3.051-6.219-4.016-6.156Z" style="fill:#85b1ad; stroke:#24526c; stroke-miterlimit:1.656; stroke-width:.828px;"></path><path d="M305.215,406.605c-1.098-.5-2.445-1.848-1.863-1.813,.828,.047,2.348,.797,3.539,.602,.648-.105,2.988-.848,2.996,.391,.008,.816-1.234,1.172-2.008,1.336-1.223,.262-1.508,.008-2.664-.516Z" style="fill:#8ea4a5; stroke:#24526c; stroke-miterlimit:1.656; stroke-width:.828px;"></path><path d="M307.781,379.977c2.602,2.254,5.277,5.387,5.578,7.75,.488-2.715,.891-4.238-.367-5.383-1.512-1.375-3.156-1.555-5.211-2.367Z" style="fill:#84b2a8; stroke:#24526c; stroke-miterlimit:1.656; stroke-width:.828px;"></path><path d="M281.599,384.255c-1.332,.031-4.113,6.441-3.617,8.688,.215,1.043,4.137,5.234,4.48,5.41,.215,.109-1.57-4.082-1.832-7.371-.168-2.461,1.828-6.758,.969-6.727Z" style="fill:#85b1ad; stroke:#24526c; stroke-miterlimit:1.656; stroke-width:.828px;"></path><path d="M302.419,382.319c-1.156,.508-3.863,2.652-3.641,5.188,2.324-2.566,5.039-3.191,6.586-3.551s-.813-2.582-2.945-1.637Z" style="fill:#85b1ad; stroke:#24526c; stroke-miterlimit:1.656; stroke-width:.828px;"></path><path d="M295.971,392.491c-3.164,1.992-2.094,4.703,.676,7.465,1.262,1.316,4.949,1.262,6.934-.566-2.668,.012-4.016-1.508-4.898-2.176-1.359-1.016-2.152-2.203-2.711-4.723Z" style="fill:#8caeab; stroke:#24526c; stroke-miterlimit:1.656; stroke-width:.828px;"></path><path d="M310.147,392.765c.98-1.137,1.609-1.918,2.059-2.664,.43-.703,.855-1.172,1.531-1.355,.953-.262,1.184,.23,1.426,.805,.23,.441-.016,1.656-.832,1.906-1.59,.469-4.184,1.309-4.184,1.309Z" style="fill:#8bbab3; stroke:#24526c; stroke-linecap:round; stroke-linejoin:round; stroke-width:.828px;"></path><path d="M310.309,395.45c.145-.805-1.469,.879-2.125,1.391-.66,.516-3.078-.73-2.934,.148,.148,.879,2.348,2.488,2.859,2.051,.512-.441,2.051-2.785,2.199-3.59Z" style="fill:#8bbfb3; stroke:#24526c; stroke-miterlimit:1.656; stroke-width:.828px;"></path><path d="M300.106,389.542c-.801,1.488,.484,2.781,1.199,2.633,.715-.152,.121-2.23,3.727-1.902-1.227-1.488-4.125-2.219-4.926-.73Z" style="fill:#89c6bb; stroke:#24526c; stroke-miterlimit:1.656; stroke-width:.828px;"></path></svg> 