<?xml version="1.0" encoding="UTF-8"?> <svg xmlns="http://www.w3.org/2000/svg" xmlns:xlink="http://www.w3.org/1999/xlink" id="Layer_1" viewBox="0 0 594.96 841.92"><defs><clipPath id="clippath"><rect x="287" y="385" width="9" height="7" style="fill:none;"></rect></clipPath><clipPath id="clippath-1"><path d="M291.898,385.719c-1.301,.488-4.27,2.973-3.965,5.75,2.492-2.871,5.535-3.398,7.227-3.828,1.688-.434-.879-2.824-3.262-1.922Z" style="fill:none;"></path></clipPath><radialGradient id="radial-gradient" cx="1.468" cy="866.668" fx="1.468" fy="866.668" r="3.323" gradientTransform="translate(297.5 1262.934) scale(1 -1)" gradientUnits="userSpaceOnUse"><stop offset="0" stop-color="#378997"></stop><stop offset=".008" stop-color="#388a97"></stop><stop offset=".02" stop-color="#398b97"></stop><stop offset=".031" stop-color="#398c97"></stop><stop offset=".043" stop-color="#3a8d97"></stop><stop offset=".055" stop-color="#3b8e97"></stop><stop offset=".066" stop-color="#3b8f97"></stop><stop offset=".078" stop-color="#3c8f97"></stop><stop offset=".09" stop-color="#3d9098"></stop><stop offset=".102" stop-color="#3d9198"></stop><stop offset=".113" stop-color="#3e9298"></stop><stop offset=".125" stop-color="#3f9398"></stop><stop offset=".137" stop-color="#3f9498"></stop><stop offset=".148" stop-color="#409598"></stop><stop offset=".16" stop-color="#419698"></stop><stop offset=".172" stop-color="#419798"></stop><stop offset=".184" stop-color="#429898"></stop><stop offset=".195" stop-color="#439998"></stop><stop offset=".207" stop-color="#439a98"></stop><stop offset=".219" stop-color="#449a98"></stop><stop offset=".23" stop-color="#459b98"></stop><stop offset=".242" stop-color="#459c98"></stop><stop offset=".254" stop-color="#469d99"></stop><stop offset=".262" stop-color="#469e99"></stop><stop offset=".27" stop-color="#479e99"></stop><stop offset=".277" stop-color="#479f99"></stop><stop offset=".285" stop-color="#489f99"></stop><stop offset=".293" stop-color="#48a099"></stop><stop offset=".301" stop-color="#49a199"></stop><stop offset=".309" stop-color="#49a199"></stop><stop offset=".316" stop-color="#4aa299"></stop><stop offset=".324" stop-color="#4aa399"></stop><stop offset=".332" stop-color="#4aa399"></stop><stop offset=".34" stop-color="#4ba499"></stop><stop offset=".348" stop-color="#4ba499"></stop><stop offset=".355" stop-color="#4ca599"></stop><stop offset=".363" stop-color="#4ca699"></stop><stop offset=".371" stop-color="#4da699"></stop><stop offset=".379" stop-color="#4da799"></stop><stop offset=".387" stop-color="#4ea799"></stop><stop offset=".395" stop-color="#4ea899"></stop><stop offset=".402" stop-color="#4ea999"></stop><stop offset=".41" stop-color="#4fa999"></stop><stop offset=".418" stop-color="#4faa9a"></stop><stop offset=".426" stop-color="#50aa9a"></stop><stop offset=".434" stop-color="#50ab9a"></stop><stop offset=".441" stop-color="#51ac9a"></stop><stop offset=".449" stop-color="#51ac9a"></stop><stop offset=".457" stop-color="#52ad9a"></stop><stop offset=".465" stop-color="#52ae9a"></stop><stop offset=".473" stop-color="#53ae9a"></stop><stop offset=".48" stop-color="#53af9a"></stop><stop offset=".488" stop-color="#53af9a"></stop><stop offset=".496" stop-color="#54b09a"></stop><stop offset=".504" stop-color="#54b19a"></stop><stop offset=".516" stop-color="#55b29a"></stop><stop offset=".527" stop-color="#56b39a"></stop><stop offset=".539" stop-color="#57b39a"></stop><stop offset=".551" stop-color="#57b49a"></stop><stop offset=".562" stop-color="#58b59a"></stop><stop offset=".574" stop-color="#59b69b"></stop><stop offset=".586" stop-color="#59b79b"></stop><stop offset=".598" stop-color="#5ab89b"></stop><stop offset=".609" stop-color="#5bb99b"></stop><stop offset=".621" stop-color="#5bba9b"></stop><stop offset=".633" stop-color="#5cbb9b"></stop><stop offset=".641" stop-color="#5cbb9b"></stop><stop offset=".648" stop-color="#5dbc9b"></stop><stop offset=".656" stop-color="#5dbc9b"></stop><stop offset=".664" stop-color="#5ebd9b"></stop><stop offset=".672" stop-color="#5ebe9b"></stop><stop offset=".68" stop-color="#5fbe9b"></stop><stop offset=".688" stop-color="#5fbf9b"></stop><stop offset=".695" stop-color="#5fbf9b"></stop><stop offset=".703" stop-color="#60c09b"></stop><stop offset=".711" stop-color="#60c19b"></stop><stop offset=".719" stop-color="#61c19b"></stop><stop offset=".727" stop-color="#61c29b"></stop><stop offset=".734" stop-color="#62c39b"></stop><stop offset=".742" stop-color="#62c39c"></stop><stop offset=".75" stop-color="#63c49c"></stop><stop offset=".758" stop-color="#63c59c"></stop><stop offset=".77" stop-color="#64c59c"></stop><stop offset=".781" stop-color="#65c69c"></stop><stop offset=".793" stop-color="#65c79c"></stop><stop offset=".805" stop-color="#66c89c"></stop><stop offset=".816" stop-color="#67c99c"></stop><stop offset=".824" stop-color="#67ca9c"></stop><stop offset=".832" stop-color="#67ca9c"></stop><stop offset=".84" stop-color="#68cb9c"></stop><stop offset=".848" stop-color="#68cb9c"></stop><stop offset=".855" stop-color="#69cc9c"></stop><stop offset=".863" stop-color="#69cd9c"></stop><stop offset=".871" stop-color="#6acd9c"></stop><stop offset=".879" stop-color="#6ace9c"></stop><stop offset=".891" stop-color="#6bcf9c"></stop><stop offset=".902" stop-color="#6cd09d"></stop><stop offset=".914" stop-color="#6cd19d"></stop><stop offset=".922" stop-color="#6dd19d"></stop><stop offset=".93" stop-color="#6dd29d"></stop><stop offset=".938" stop-color="#6ed29d"></stop><stop offset=".945" stop-color="#6ed39d"></stop><stop offset=".957" stop-color="#6fd49d"></stop><stop offset=".965" stop-color="#6fd59d"></stop><stop offset=".973" stop-color="#70d59d"></stop><stop offset=".984" stop-color="#70d69d"></stop><stop offset=".992" stop-color="#71d79d"></stop><stop offset="1" stop-color="#71d79d"></stop></radialGradient></defs><path d="M254.246,485.297c-2.348,8.887-8.09,9.758-10.621,15.055" style="fill:none; stroke:#e2e2e2; stroke-linecap:round; stroke-miterlimit:1.656; stroke-width:.414px;"></path><path d="M254.246,485.711c-2.141,9.063-8.09,12.484-10.215,18.625" style="fill:none; stroke:#e2e2e2; stroke-linecap:round; stroke-miterlimit:1.656; stroke-width:.414px;"></path><path d="M254.246,486.332c-2.094,8.867-7.457,16.855-9.527,24.746" style="fill:none; stroke:#e2e2e2; stroke-linecap:round; stroke-miterlimit:1.656; stroke-width:.414px;"></path><path d="M229,578.84c5.172-4.969,9.559-10.793,11.797-16.762,2.48-6.625,4.344-22.766,4.758-40.566,.223-9.637,6.102-20.09,8.828-31.359" style="fill:none; stroke:#e2e2e2; stroke-linecap:round; stroke-miterlimit:1.656; stroke-width:.414px;"></path><path d="M238.727,577.391c2.688-5.172,4.293-8.344,6-14.488,2.07-7.449,1.656-12.828,1.242-19.039-.383-5.719-.387-10.664,.313-16.18" style="fill:none; stroke:#e2e2e2; stroke-linecap:round; stroke-miterlimit:1.656; stroke-width:.414px;"></path><path d="M248.867,514.891c-2.691,12.418-.207,25.625-.207,34.977,0,6.207-1.027,16.672-2.691,23.797-.055,.238-.109,.473-.168,.707" style="fill:none; stroke:#e2e2e2; stroke-linecap:round; stroke-miterlimit:1.656; stroke-width:.414px;"></path><path d="M254.867,493.574c-2.691,12.418-9.52,22.645-5.176,38.492,3.52,12.832,3.105,17.133,3.105,24.422,0,.469-.004,.941-.012,1.41" style="fill:none; stroke:#e2e2e2; stroke-linecap:round; stroke-miterlimit:1.656; stroke-width:.414px;"></path><path d="M257.352,583.188c1.445-4.969,1.52-18.582,.828-24.629-.828-7.242-3.52-14.902-5.59-26.699-1.422-8.102-1.762-14.352-1.34-20.035" style="fill:none; stroke:#e2e2e2; stroke-linecap:round; stroke-miterlimit:1.656; stroke-width:.414px;"></path><path d="M253.832,497.301c2.07,15.934,2.07,23.387,10.969,40.563,5.371,10.371,8.07,14.281,10.969,19.246,.398,.68,.797,1.387,1.199,2.109" style="fill:none; stroke:#e2e2e2; stroke-linecap:round; stroke-miterlimit:1.656; stroke-width:.414px;"></path><path d="M263.352,529.793c6.418,15.727,2.484,7.035,11.383,22.145,5.367,9.113,7.57,12.238,10.141,17.383,1.043,2.082,2.137,4.727,3.152,7.473" style="fill:none; stroke:#e2e2e2; stroke-linecap:round; stroke-miterlimit:1.656; stroke-width:.414px;"></path><path d="M254.246,485.297c1.035,15.934,2.586,38.285,18.004,60.223,6.539,9.297,9.313,13.156,12.832,17.18,.121,.137,.242,.281,.363,.426" style="fill:none; stroke:#e2e2e2; stroke-linecap:round; stroke-miterlimit:1.656; stroke-width:.414px;"></path><path d="M254.66,484.676c2.277,14.902,4.297,35.109,13.66,49.461,6.207,9.52,7.449,13.156,10.969,17.18,.672,.77,1.422,1.641,2.207,2.578" style="fill:none; stroke:#e2e2e2; stroke-linecap:round; stroke-miterlimit:1.656; stroke-width:.414px;"></path><path d="M254.66,484.676c3.52,15.316,7.41,33.027,12.832,43.668,2.773,5.445,8.555,13.742,13.801,20.973" style="fill:none; stroke:#e2e2e2; stroke-linecap:round; stroke-miterlimit:1.656; stroke-width:.414px;"></path><path d="M282.594,324.906c9.516-3.301,13.383,7.254,20.496-2.566" style="fill:none; stroke:#e2e2e2; stroke-linecap:round; stroke-miterlimit:1.656; stroke-width:.414px;"></path><path d="M275.555,326.977c10.555-2.277,12.418-6,19.453-3.727,2.418,.785,5.695,1.25,8.898-2.273,2.07-2.277,.414-2.898,5.797-3.934-.191-.141-.516-.297-.91-.434" style="fill:none; stroke:#e2e2e2; stroke-linecap:round; stroke-miterlimit:1.656; stroke-width:.414px;"></path><path d="M287.352,320.977c2.469-1.309,8.852,.477,13.039-.414,2.484-.531,2.277-2.898,4.348-3.934,1.078-.539,1.031-4.758-1.242-7.035,.121,.734,.172,1.359,.152,1.906" style="fill:none; stroke:#e2e2e2; stroke-linecap:round; stroke-miterlimit:1.656; stroke-width:.414px;"></path><path d="M275.969,326.563c5.516-1.035,13.039-8.691,21.73-8.277,5.598,.266,5.797-5.59,2.898-6.414,.414,2.48-.414,3.309-5.793,4.344-1.902,.367-5.457,1.406-8.559,3.469" style="fill:none; stroke:#e2e2e2; stroke-linecap:round; stroke-miterlimit:1.656; stroke-width:.414px;"></path><path d="M263.551,325.734c4.762-1.035,10.738-3.52,14.488-10.141,3.52-6.207,6.176-2.691,8.691-2.691,1.449,0,3.055-1.266,4.348-3.516-.027,.609-.207,1.5-.516,2.398" style="fill:none; stroke:#e2e2e2; stroke-linecap:round; stroke-miterlimit:1.656; stroke-width:.414px;"></path><path d="M246.582,343.336c2.691-2.691,8.277-12.199,14.281-13.863,3.527-.98,5.734,4.371,9.52,1.859,11.234-7.449,9.52-17.457,15.105-16.555,6.82,1.102,9.203-3.684,10.141-5.59-.078,2.168-1.035,8.695-9.105,8.074-1.48-.113-2.637,1.211-3.84,2.91" style="fill:none; stroke:#e2e2e2; stroke-linecap:round; stroke-miterlimit:1.656; stroke-width:.414px;"></path><path d="M228.578,359.481c2.688-2.691,3.309-1.188,3.309-7.246,0-5.172,11.809-5.395,14.695-8.898,4.461-5.41,9.727-18.563,14.695-17.797,14.691,2.262,16.648-6.168,17.59-8.07-.078,2.164-3.68,11.176-10.969,11.176-.504,0-1.02-.051-1.535-.129" style="fill:none; stroke:#e2e2e2; stroke-linecap:round; stroke-miterlimit:1.656; stroke-width:.414px;"></path><path d="M255.066,326.574c4.348-5.383,10.891,.238,15.316-4.969,3.516-4.137,4.758-6.828,6.414-9.934-1.41,1.551-3.105,3.773-5.285,5.75" style="fill:none; stroke:#e2e2e2; stroke-linecap:round; stroke-miterlimit:1.656; stroke-width:.414px;"></path><path d="M234.371,348.719c16.766-3.52,13.469,1.215,16.766,.828,7.035-.828,5.809-11.469,10.762-12.211,2.473-.371,3.023,1.848,4.086,3.828" style="fill:none; stroke:#e2e2e2; stroke-linecap:round; stroke-miterlimit:1.656; stroke-width:.414px;"></path><path d="M233.336,349.828c17.18-4.141,13.246,6.34,22.145,2.613,3.137-1.313,4.168-14.219,8.07-12.418,1.168,.539,1.633,1.27,2.176,1.977" style="fill:none; stroke:#e2e2e2; stroke-linecap:round; stroke-miterlimit:1.656; stroke-width:.414px;"></path><path d="M232.301,350.578c16.059-3.867,8.605,6.008,18.895,4.871" style="fill:none; stroke:#e2e2e2; stroke-linecap:round; stroke-miterlimit:1.656; stroke-width:.414px;"></path><path d="M231.68,351.613c13.602-4.469,7.141,8.574,17.598,5.566" style="fill:none; stroke:#e2e2e2; stroke-linecap:round; stroke-miterlimit:1.656; stroke-width:.414px;"></path><path d="M246.996,342.715c20.57-19.211,12.75-2.391,23.988-11.316" style="fill:none; stroke:#e2e2e2; stroke-linecap:round; stroke-miterlimit:1.656; stroke-width:.414px;"></path><path d="M235.82,347.891c9.52-.828,15.332-3.52,19.66-8.691,8.734-10.445,5.973,2.805,16.805-8.523" style="fill:none; stroke:#e2e2e2; stroke-linecap:round; stroke-miterlimit:1.656; stroke-width:.414px;"></path><path d="M230.852,357.41c9.73-10.555,5.199,2.895,12.004,2.277,6.832-.621,12.625-5.383,15.316-10.141,5.305-9.387,6.164-4.488,9.395-4.578" style="fill:none; stroke:#e2e2e2; stroke-linecap:round; stroke-miterlimit:1.656; stroke-width:.414px;"></path><path d="M244.926,339.613c4.348-5.383,4.68-6.594,9.105-11.797,7.039-8.281,6.625-3.156,12.004-6.004,1.969-1.043,2.855-2.844,3.559-4.973" style="fill:none; stroke:#e2e2e2; stroke-linecap:round; stroke-miterlimit:1.656; stroke-width:.414px;"></path><path d="M244.926,339.613c4.348-5.383,5.238-9.992,9.52-15.316,7.039-8.746,8.277-3.727,11.797-5.586,.777-.414,1.742-1.023,2.652-2.156" style="fill:none; stroke:#e2e2e2; stroke-linecap:round; stroke-miterlimit:1.656; stroke-width:.414px;"></path><path d="M239.34,344.992c8.484-3.934,9.789-17.855,14.07-23.18,7.66-9.52,9.934-3.102,13.453-4.965,.609-.324,1.41-.848,2.223-1.66" style="fill:none; stroke:#e2e2e2; stroke-linecap:round; stroke-miterlimit:1.656; stroke-width:.414px;"></path><path d="M239.34,344.992c8.484-3.934,8.348-16.023,9.934-20.074,.578-1.48,1.258-2.441,1.922-3.063" style="fill:none; stroke:#e2e2e2; stroke-linecap:round; stroke-miterlimit:1.656; stroke-width:.414px;"></path><path d="M243.062,341.063c3.52-2.277,2.652-15.109,3.727-17.801,.906-2.266,2.293-3.207,3.48-3.438" style="fill:none; stroke:#e2e2e2; stroke-linecap:round; stroke-miterlimit:1.656; stroke-width:.414px;"></path><path d="M224.801,365.023c2.277-.617,3.109-3.152,9.313-2.48,7.656,.824,5.379,12.207,12.418,5.379" style="fill:none; stroke:#e2e2e2; stroke-linecap:round; stroke-miterlimit:1.656; stroke-width:.414px;"></path><path d="M216.316,369.879c3.102-1.656,4.965,2.391,7.449,1.977,3.836-.641,4.965-.414,6.621,.621,6.625,4.137,.414,9.105,10.141,6.414" style="fill:none; stroke:#e2e2e2; stroke-linecap:round; stroke-miterlimit:1.656; stroke-width:.414px;"></path><path d="M216.316,369.164c3.102-1.656,5.051,1.422,8.07,0,3.52-1.656,6.879-.055,8.484,1.035,5.793,3.93,4.762,10.555,8.898,8.277" style="fill:none; stroke:#e2e2e2; stroke-linecap:round; stroke-miterlimit:1.656; stroke-width:.414px;"></path><path d="M216.73,368.543c5.379-3.727,5.465-.234,8.484-1.656,3.516-1.656,7.242-1.84,8.898-.828,3.723,2.277,4.551,10.969,10.555,3.313" style="fill:none; stroke:#e2e2e2; stroke-linecap:round; stroke-miterlimit:1.656; stroke-width:.414px;"></path><path d="M216.937,368.336c4.344-5.383,4.23-2.227,7.449-3.105,2.277-.617,5.199-4.59,10.141-5.379,5.172-.828,8.07,7.656,16.969-.828-2.137,3.313-8.484,9.313-13.863,4.965" style="fill:none; stroke:#e2e2e2; stroke-linecap:round; stroke-miterlimit:1.656; stroke-width:.414px;"></path><path d="M216.867,368.75c-1.035-4.555,5.754-6,7.727-6.828,3.93-1.656,6.289-4.641,5.586-7.453-1.238-4.965-2.406-6.066,4.969-7.863,8.484-2.07,8.691-8.07,8.691-10.969" style="fill:none; stroke:#e2e2e2; stroke-linecap:round; stroke-miterlimit:1.656; stroke-width:.414px;"></path><path d="M216.109,369.371c-1.035-4.555,2.371-7.035,4.344-7.863,3.934-1.656,6.215-3.52,6.004-6.832-.414-6.414,.414-9.934,7.863-11.383,10.055-1.953,10.348-7.449,9.313-16.969" style="fill:none; stroke:#e2e2e2; stroke-linecap:round; stroke-miterlimit:1.656; stroke-width:.414px;"></path><path d="M215.902,369.371c-2.07-1.52-2.07-6.828,3.207-10.141,3.719-2.336,4.449-3.934,4.449-6.828,0-6.418,3.164-11.195,8.07-12.832,7.453-2.484,18.422-8.277,7.039-25.043" style="fill:none; stroke:#e2e2e2; stroke-linecap:round; stroke-miterlimit:1.656; stroke-width:.414px;"></path><path d="M215.074,359.438c3.309-8.777,18.418-27.113,28.559-32.285" style="fill:none; stroke:#e2e2e2; stroke-linecap:round; stroke-miterlimit:1.656; stroke-width:.414px;"></path><path d="M214.66,369.164c-2.07-1.52-3.098-7.07,1.445-10.762,3.313-2.691,5.59-3.727,4.762-6.828-1.652-6.199,1.613-12.574,6-15.316,8.281-5.172,19.25-6,11.59-22.145" style="fill:none; stroke:#e2e2e2; stroke-linecap:round; stroke-miterlimit:1.656; stroke-width:.414px;"></path><path d="M216.16,369.195c0,.621-.418,9.934,3.93,13.039,3.395,2.422,2.484,4.344,2.484,8.277,0,2.313,7.863,1.656,8.484,13.453" style="fill:none; stroke:#e2e2e2; stroke-linecap:round; stroke-miterlimit:1.656; stroke-width:.414px;"></path><path d="M216.363,370.23c0,.621,.828,6.414,5.383,9.313,3.516,2.238,4.137,4.555,4.137,7.656,0,2.07,8.695,2.898,4.969,15.109" style="fill:none; stroke:#e2e2e2; stroke-linecap:round; stroke-miterlimit:1.656; stroke-width:.414px;"></path><path d="M216.57,370.023c1.449,0,2.125,4.383,7.246,6.621,3.309,1.449,4.344,3.727,4.344,6.832,0,2.066,7.449,1.656,3.727,13.863" style="fill:none; stroke:#e2e2e2; stroke-linecap:round; stroke-miterlimit:1.656; stroke-width:.414px;"></path><path d="M216.363,370.012c3.105-1.656,1.863,3.531,7.453,3.531,4.207,0,7.449,4.758,7.449,7.863,0,2.227,3.93-.207,1.656,8.277" style="fill:none; stroke:#e2e2e2; stroke-linecap:round; stroke-miterlimit:1.656; stroke-width:.414px;"></path><path d="M214.504,370.645c-5.383,1.449-6.418-2.277-12.211,6.414-3.727,5.59,1.23,14.691,1.637,22.145,.617,11.383-6.418,10.344-4.949,18.418,2.07,11.383,7.656,9.316,12.004,14.074" style="fill:none; stroke:#e2e2e2; stroke-linecap:round; stroke-miterlimit:1.656; stroke-width:.414px;"></path><path d="M214.707,369.195c1.242,5.176-5.625,.473-10.969,8.484-3.723,5.59,2.906,16.969,3.313,24.422,.621,11.383-7.055,8.688-5.586,16.762,2.07,11.383,16.555,11.383,7.656,21.316,3.934-2.895,5.586-5.172,4.141-7.863" style="fill:none; stroke:#e2e2e2; stroke-linecap:round; stroke-miterlimit:1.656; stroke-width:.414px;"></path><path d="M205.809,379.129c-2.273,11.797,3.734,17.59,4.141,25.043,.531,9.727-4.121,4.344-4.555,15.313-.387,9.762,18.422,16.145,9.52,26.078-1.52,1.695,3.313,4.758,4.969,6" style="fill:none; stroke:#e2e2e2; stroke-linecap:round; stroke-miterlimit:1.656; stroke-width:.414px;"></path><path d="M208.5,392.996c3.102,11.59,5.191,9.945,4.551,17.383-.426,4.969-4.281,4.762-4.551,11.59-.289,7.242,17.176,12.211,10.141,22.559-.148,.215-.27,.461-.359,.723" style="fill:none; stroke:#e2e2e2; stroke-linecap:round; stroke-miterlimit:1.656; stroke-width:.414px;"></path><path d="M215.125,369.402c1.035,5.59-10.762,2.898-9.316,12.418,.93,6.102,2.941,14.875,7.863,20.488,10.348,11.797-6.566,13.281-3.516,20.902,4.965,12.418,24.418,3.52,23.801,15.934-.883,17.629,12.828,10.555,10.555,16.352-2.277,5.793-2.898,6.828,.617,9.934,3.52,3.105,16.559-1.449,16.559,10.348" style="fill:none; stroke:#e2e2e2; stroke-linecap:round; stroke-miterlimit:1.656; stroke-width:.414px;"></path><path d="M215.773,369.816c1.035,5.586-6.547,8.699-5.383,14.902,1.242,6.621,9.238,3.766,8.488,10.141-.414,3.516,6.371,2.48,3.102,11.586-2.895,8.074,1.656,8.488,2.223,9.938" style="fill:none; stroke:#e2e2e2; stroke-linecap:round; stroke-miterlimit:1.656; stroke-width:.414px;"></path><path d="M229.102,401.066c1.242,2.484,2.605,5.176,0,10.141-1.008,1.918-1.715,3.109-1.598,4.117" style="fill:none; stroke:#e2e2e2; stroke-linecap:round; stroke-miterlimit:1.656; stroke-width:.414px;"></path><path d="M227.031,398.789c1.242,2.484,2.98,5.176,0,10.141-1.203,2.012-1.387,4.328-.781,6.012" style="fill:none; stroke:#e2e2e2; stroke-linecap:round; stroke-miterlimit:1.656; stroke-width:.414px;"></path><path d="M224.465,396.719c1.242,2.484,3.52,7.039,.539,12.004-1.16,1.941-1.371,4.164-.844,5.832" style="fill:none; stroke:#e2e2e2; stroke-linecap:round; stroke-miterlimit:1.656; stroke-width:.414px;"></path><path d="M214.473,374.578c1.035,2.273-4.555,8.043,.266,11.379,2.691,1.863,3.93,.414,5.379,6.625" style="fill:none; stroke:#e2e2e2; stroke-linecap:round; stroke-miterlimit:1.656; stroke-width:.414px;"></path><path d="M215.773,369.402c1.035,2.277-3.527,11.906,1.242,15.316,3.395,2.422,2.293,4.48,3.309,8.277,.555,2.066,16.352,9.313,10.348,19.867-.957,1.688-1.445,2.484-1.445,4.137" style="fill:none; stroke:#e2e2e2; stroke-linecap:round; stroke-miterlimit:1.656; stroke-width:.414px;"></path><path d="M215.566,394.859c1.793,2.207,2.031,6.215,.172,8.242" style="fill:none; stroke:#e2e2e2; stroke-linecap:round; stroke-miterlimit:1.656; stroke-width:.414px;"></path><path d="M213.496,392.375c1.848,2.273,3.262,6.461-.016,7.941" style="fill:none; stroke:#e2e2e2; stroke-linecap:round; stroke-miterlimit:1.656; stroke-width:.414px;"></path><path d="M207.961,390.719c1.863,2.293,7.121,5.113,3.844,6.836" style="fill:none; stroke:#e2e2e2; stroke-linecap:round; stroke-miterlimit:1.656; stroke-width:.414px;"></path><path d="M215.566,369.609c1.035,5.586-9.926,6.574-7.867,15.109,1.449,6,8.398,8.238,10.555,14.277,2.07,5.797-3.723,11.383,0,16.352,2.547,3.395,14.695-4.348,15.109,11.176" style="fill:none; stroke:#e2e2e2; stroke-linecap:round; stroke-miterlimit:1.656; stroke-width:.414px;"></path><path d="M213.703,415.141c-1.449,5.172,.734,8.898,5.91,9.105,7.785,.313,11.273,1.023,13.051,2.059" style="fill:none; stroke:#e2e2e2; stroke-linecap:round; stroke-miterlimit:1.656; stroke-width:.414px;"></path><path d="M214.738,414.312c-.621,2.895,1.242,7.242,6.414,7.449,7.941,.316,10.707,2.199,11.777,3.965" style="fill:none; stroke:#e2e2e2; stroke-linecap:round; stroke-miterlimit:1.656; stroke-width:.414px;"></path><path d="M215.727,413.484c.664,1.242-.781,5.586,4.391,5.793,8.516,.34,11.098,1.914,12.195,3.539" style="fill:none; stroke:#e2e2e2; stroke-linecap:round; stroke-miterlimit:1.656; stroke-width:.414px;"></path><path d="M218.867,445.355c.207,6,9.227,8.559,8.691,10.969-1.242,5.586-3.586,7.402,1.242,11.59,3.105,2.688,16.348,12.207,5.793,13.449,.703,.258,1.648,.48,2.586,.492" style="fill:none; stroke:#e2e2e2; stroke-linecap:round; stroke-miterlimit:1.656; stroke-width:.414px;"></path><path d="M220.523,434.18c5.586,6.414,3.637,6,2.688,8.277-2.293,5.508-2.895,7.449,2.898,10.141,2.813,1.305,3.711,2.129,4.102,3.59" style="fill:none; stroke:#e2e2e2; stroke-linecap:round; stroke-miterlimit:1.656; stroke-width:.414px;"></path><path d="M217.238,432.523c5.766,2.691,9.719,6.527,9.492,8.898-.414,4.348-3.48,4.637,.828,8.691,2.227,2.098,3.211,3.199,3.738,4.723" style="fill:none; stroke:#e2e2e2; stroke-linecap:round; stroke-miterlimit:1.656; stroke-width:.414px;"></path><path d="M233.559,453.012c1.656,3.934,.07-.09,2.277,5.586,2.898,7.453-5.195,10.648,.828,15.523,3.324,2.691,12.004,9.934,9.105,14.902-1.453,2.492-2.23,4.098-2.25,5.605" style="fill:none; stroke:#e2e2e2; stroke-linecap:round; stroke-miterlimit:1.656; stroke-width:.414px;"></path><path d="M221.766,433.766c11.379,5.379,5.695,8.715,6.828,13.246,1.035,4.137,6.484,5.703,8.691,11.383,2.898,7.449-2.297,13.129,3.727,18.004,4.344,3.516,7.656,7.035,8.07,12.418,.152,2.004-.641,2.891-1.559,3.629" style="fill:none; stroke:#e2e2e2; stroke-linecap:round; stroke-miterlimit:1.656; stroke-width:.414px;"></path><path d="M214.52,430.66c2.484,1.656,1.656,1.449,6.207,2.484,3.078,.699,8.902,.414,9.938,6.414,1.164,6.758-.207,7.867,6.207,12.211,4.148,2.809,.414,2.898,.414,4.969,0,.582,.129,1.152,.352,1.703" style="fill:none; stroke:#e2e2e2; stroke-linecap:round; stroke-miterlimit:1.656; stroke-width:.414px;"></path><path d="M212.914,416.383c-.672,4.551,2.691,11.793,8.434,11.793,15.145,0,14.133-1.031,17.387,8.074,2.734,7.656-3.199,10.73,2.277,13.656,7.211,3.859,4.094,9.348,4.633,12.832" style="fill:none; stroke:#e2e2e2; stroke-linecap:round; stroke-miterlimit:1.656; stroke-width:.414px;"></path><path d="M224.246,431.281c14.902-2.691,13.246,7.656,12.418,10.141-2.637,7.914-1.418,8.641,4.555,10.348,8.691,2.484,5.945,7.07,7.863,11.383,.262,.59,.797,1.203,1.48,1.785" style="fill:none; stroke:#e2e2e2; stroke-linecap:round; stroke-miterlimit:1.656; stroke-width:.414px;"></path><path d="M238.406,435.008c2.188,4.344,4.258,6,3.43,10.762-.5,2.867,2.898,4.758,6.418,9.52,2.141,2.895,.828,6.676,6.828,8.277,2.465,.656,5.191,1.445,6.211,6.824" style="fill:none; stroke:#e2e2e2; stroke-linecap:round; stroke-miterlimit:1.656; stroke-width:.414px;"></path><path d="M227.348,455.289c3.469,4.43-.957,5.453,.398,10.754" style="fill:none; stroke:#e2e2e2; stroke-linecap:round; stroke-miterlimit:1.656; stroke-width:.414px;"></path><path d="M230.453,450.32c6.383,9.477-1.695,6.844-1.766,15.578" style="fill:none; stroke:#e2e2e2; stroke-linecap:round; stroke-miterlimit:1.656; stroke-width:.414px;"></path><path d="M230.012,468.949c-.488-4.941,3.633-8.621,4.758-11.039" style="fill:none; stroke:#e2e2e2; stroke-linecap:round; stroke-miterlimit:1.656; stroke-width:.414px;"></path><path d="M235.625,458.187c.551,4.016-2.77,7.391-3.672,10.688" style="fill:none; stroke:#e2e2e2; stroke-linecap:round; stroke-miterlimit:1.656; stroke-width:.414px;"></path><path d="M263.148,482.605c.621-11.797-9.375-10.555-14.277-13.453-5.098-3.008-9.52-6-9.105-10.348,.113-1.195,.777-1.977,1.121-3.016" style="fill:none; stroke:#e2e2e2; stroke-linecap:round; stroke-miterlimit:1.656; stroke-width:.414px;"></path><path d="M241.836,463.773c-.414,4.348,1.879,6.867,7.27,9.313,5.438,2.465,8.945,1.484,12.293,5.344" style="fill:none; stroke:#e2e2e2; stroke-linecap:round; stroke-miterlimit:1.656; stroke-width:.414px;"></path><path d="M239.352,461.289c.621,4.141,3.844,16.125,9.727,16.766,6.535,.707,9.656,2.59,11.105,5.039" style="fill:none; stroke:#e2e2e2; stroke-linecap:round; stroke-miterlimit:1.656; stroke-width:.414px;"></path><path d="M242.457,487.367c-1.242,4.344-1.242,10.555,2.898,11.59" style="fill:none; stroke:#e2e2e2; stroke-linecap:round; stroke-miterlimit:1.656; stroke-width:.414px;"></path><path d="M241.629,484.469c-2.277,1.656-6.418,6.207-1.242,9.727-2.898-7.449,4.758-4.758,4.348-12.004" style="fill:none; stroke:#e2e2e2; stroke-linecap:round; stroke-miterlimit:1.656; stroke-width:.414px;"></path><path d="M241.215,478.469c0,4.551-1.863,4.965-3.727,5.172,.621,2.07,6.211,1.656,6.211-2.691" style="fill:none; stroke:#e2e2e2; stroke-linecap:round; stroke-miterlimit:1.656; stroke-width:.414px;"></path><path d="M240.387,466.465c-.828,9.52,4.109,13.441,9.727,15.313,3.105,1.035,10.762,.828,11.176,4.969" style="fill:none; stroke:#e2e2e2; stroke-linecap:round; stroke-miterlimit:1.656; stroke-width:.414px;"></path><path d="M335.992,563.524c-12-24.004,1.449-59.664,9.313-60.016,9.316-.414,18.215,4.164,30.629,3.934,11.176-.207,15.938-8.07,15.938-12.004s-1.656-12.004,0-14.488c1.656-2.48,3.934-1.242,5.797-2.48,1.859-1.242,1.652-3.52,1.445-5.797-.223-2.473-4.965-4.965-4.551-6.414s4.965,0,7.449-3.934c2.484-3.93,.207-7.863-2.484-9.934" style="fill:none; stroke:#e2e2e2; stroke-linecap:round; stroke-miterlimit:1.656; stroke-width:.828px;"></path><path d="M384.215,442.871c.414,3.313,3.516,2.277,5.379,2.277s2.484,2.898,3.313,3.516c.828,.621,2.691,.207,2.07-1.445-.621-1.656,.621-4.348,2.688-5.59,2.07-1.242,4.566-.402,7.039-3.313,3.516-4.137,1.035-8.277-1.449-10.762-2.484-2.48-5.176-6-7.656-8.484-2.484-2.48-7.039-7.863-9.109-10.141-2.066-2.277-3.723-3.723-4.137-7.035-.414-3.313,1.656-4.348,2.898-7.449,1.238-3.105-2.07-17.387-3.52-22.973" style="fill:none; stroke:#e2e2e2; stroke-linecap:round; stroke-miterlimit:1.656; stroke-width:.828px;"></path><path d="M375.934,358.02c-.66-3.477-8.484-10.555-8.484-11.59s-1.035-4.555-2.688-6.828c-3.82-5.254-9.934-9.727-13.867-12.418s-11.797-1.863-16.766-6.621c-4.965-4.762-7.449-3.313-12.207-3.52" style="fill:none; stroke:#e2e2e2; stroke-linecap:round; stroke-miterlimit:1.656; stroke-width:.828px;"></path><path d="M389.18,438.016c1.035-.207,4.227-4.559,6.004-6.113,1.652-1.449,3.121-1.684,4.758-1.449,.258,.039,.469,.121,.637,.238m-11.191,7.289c1.105-.332,5.176-4.008,6.625-5.25,1.445-1.242,3.516-1.242,4.344-1.035,.016,.004,.027,.008,.043,.012m-10.598,6.199c1.652-.207,7.434-4.957,9.719-4.762m2.199,2.395c1.996,0,2.578-3.82,1.867-6.609m-13.992,9.02c3.313,0,7.449-3.148,9.105-3.148,1.863,0,1.863,.414,3.313,.828,.652,.184,1.477-.508,2.109-1.66m-19.906,8.281c.207-3.313,4.742-4.344,6-4.344,1.449,0,2.07,1.031,4.348,1.031,1.863,0,3.309-3.309,4.551-3.309,1.23,0,1.648,.813,3.473,.828m-18.371,6c1.242-2.691,4.566-3.723,6.207-3.52,1.656,.207,1.863,1.656,3.727,1.656s3.516-3.93,5.586-3.102c.602,.238,1.238,.391,1.883,.434m-17.402,4.738c1.242-2.07,4.957-2.633,6-2.484,1.449,.207,2.898,2.484,4.348,2.07,1.449-.414,2.273-2.484,3.93-2.691,.461-.055,.988-.066,1.547-.074m-15.824,3.387c2.066,.621,3.93-1.863,5.793-1.449,1.43,.32,1.449,1.449,2.691,2.277,.16,.109,.305,.199,.438,.273m1.633,2.211c-.828,.414-1.863-.207-2.484-.828-.621-.621-1.035-2.07-2.691-2.277-.965-.121-2.074,.465-3.16,.602" style="fill:none; stroke:#e2e2e2; stroke-linecap:round; stroke-miterlimit:1.656; stroke-width:.414px;"></path><path d="M376.555,496.602c5.648,2.805,10.18,2.129,12.816,.477m-38.27-9.316c6,1.469,13.449,2.5,21.523,7.262,3.723,2.195,7.953,2.402,12.004,1.449,.195-.047,.387-.098,.578-.152m-27.59-50.551c1.918-2.316,4.867-4.348,7.348-5.176,2.117-.703,5.59-.621,6.418,0,.828,.621-.41,2.602,1.242,2.484,2.137-.152,4.5-5.305,7.184-9.469m9.578,66.176c-8.898,3.723-17.691-4.168-26.074-7.867-7.039-3.102-15.832-4.711-19.25-6.828-3-1.863-2.066-9.105-1.445-11.383,.621-2.277,10.754-22.801,14.277-27.109,3.727-4.555,8.301-5.664,10.141-5.383,.523,.082,.941,.27,1.301,.52m14.223,60.945c-8.691,.621-15.938-6.621-20.488-9.313-4.555-2.691-15.523-4.766-18.629-7.863-3.102-3.098-1.652-7.93-.824-11.652,.824-3.727,8.504-18.563,12.023-23.324,3.516-4.758,9.703-8.484,12.395-7.449,.023,.008,.047,.02,.07,.027m6.762,60.609c-3.105-1.035-6.832-4.758-11.797-8.07-4.969-3.313-13.867-6.566-18.215-9.313-3.93-2.484-1.965-9.172-1.344-12.066,.621-2.898,7.141-15.648,10.453-20.82,3.309-5.176,11.176-9.332,14.07-8.09,1.375,.586,1.477,1.871,1.719,2.973m-2.754,54.352c-2.48-4.344-17.516-11.453-22.145-14.691-4.137-2.898-3.156-8.258-1.031-13.898,2.129-5.656,8.07-15.078,12-19.422,4.055-4.484,10.141-8.898,11.176-6.004,.758,2.117,1.953,3.57,3.75,4.281m-14.512,45.391c-3.102-2.277-15.105-8.691-15.52-13.039-.25-2.605,1.344-7.852,2.793-11.164,1.449-3.313,14.176-21.949,19.559-21.742,3.723,.145,3.723,4.762,9.934,4.348,.563-.039,1.113-.156,1.645-.34m-27.102,39.039c-6.207-3.52-9.313-7.449-8.07-11.383,.73-2.309,1.273-3.375,3.965-9.582,2.688-6.211,15.281-15.875,19.629-16.285,3.93-.375,3.695,2.012,9.313,2.273,2.582,.121,4.781-.891,6.586-2.531" style="fill:none; stroke:#e2e2e2; stroke-linecap:round; stroke-miterlimit:1.656; stroke-width:.414px;"></path><path d="M396.422,478.883c.621-.207,1.445-1.199,1.656-2.691,.207-1.449-.207-2.898-1.656-4.348-.688-.691-1.711-1.57-2.586-2.41m-2.379,12.137c-.207-.828-.828-1.242-1.863-1.863-1.035-.617-.828-.824-.207-2.066,.621-1.242,.332-4.348-1.449-5.797-1.781-1.449-1.449-3.863-1.035-5.172,.672-1.844,2.832-3.145,4.73-3.793m-.797,20.141c-.414-1.656-2.484-2.07-3.52-2.898-1.035-.824,.617-1.434,1.035-2.688,.551-1.656-.305-4.031-1.449-5.176-1.242-1.242-1.594-3.914-1.035-5.793,.668-2.242,4.543-4.516,6.352-5.098m-1.383,24.344c-.621-1.863-3.105-3.727-5.176-4.762-2.066-1.035,1.242-2.895,1.656-3.516,.691-1.035,.449-3.035-1.363-4.969-1.559-1.656-1.738-3.516-1.324-5.793,.211-1.172,1.098-2.309,2.27-3.371m-1.031-.562c-3.969,3.934-2.48,8.898-1.031,9.727,1.445,.828,2.977,3.727,1.117,4.969-1.773,1.18-3.602,3.93-1.945,4.551,.605,.227,1.402,.594,2.273,1.129m-3.93-17.063c-1.449,1.863-.52,5.555,1.656,6.621,2.109,1.035,2.895,3.52,1.035,4.348-1.863,.828-5.176,4.965-2.691,5.586,1.059,.266,2.609,1.02,4.102,2.008" style="fill:none; stroke:#e2e2e2; stroke-linecap:round; stroke-miterlimit:1.656; stroke-width:.414px;"></path><path d="M342.617,577.391c-4.141-2.621-13.328-9.063-16.973-13.867-4.551-6-3.309-15.934-3.102-21.316,.207-5.379-1.035-13.035-4.348-18.832-3.418-5.98-5.379-13.656-3.93-18.625,1.164-3.992,.59-5.445,.105-7.043m1.547-5.168c1.449-2.07,5.59-2.691,5.59-3.309v-.469m-2.07,3.57c.414-.828,3.313-1.863,3.52-2.484,.117-.355,.031-1.328-.023-2.246m-.805,4.938c.414-.621,1.859-1.449,2.273-2.07,.414-.621,0-2.273-.414-2.688-.207-.211-.258-.738-.176-1.344m1.832,6.309c-.414-1.449,.621-2.898,.828-3.516,.188-.559-.824-1.242-1.652-2.277-.488-.609-.262-1.359,.219-2.207m4.332,8.414c-1.449-1.449-.414-2.691-.414-3.93s-1.449-1.656-2.484-2.898c-.414-.5-.531-1.102-.492-1.711m6.496,8.746c-2.484-2.07-.207-4.344-1.449-5.379-1.488-1.242-2.809-2.246-3.555-3.375m8.105,9.168c-4.137-2.277-.414-5.586-1.859-6.621-.836-.598-2.77-1.742-4.336-2.883m10.75,9.711c-4.555-1.863-3.727-4.551-4.348-7.863-.355-1.91-2.574-2.445-4.707-2.832" style="fill:none; stroke:#e2e2e2; stroke-linecap:round; stroke-miterlimit:1.656; stroke-width:.414px;"></path><path d="M322.953,563.731c-7.035-8.07-3.723-28.973-4.551-32.695-.586-2.637-6.828-13.867-7.656-18.629-.23-1.309-.191-2.414-.012-3.379m23.188,68.777c-7.035-6.207-15.754-17.27-17.59-24.008-1.242-4.551-1.242-20.281-2.07-24.211-.723-3.445-4.293-7.465-6-13.867-.738-2.762-.492-4.621,.027-6.109m10.941,56.606c-1.172-1.449-4.141-5.258-5.797-9.727-2.066-5.586-1.242-13.66-1.445-19.66-.207-6-4.348-9.313-6.211-13.246-1.863-3.93-2.07-10.762-1.242-15.727,.145-.852,.441-1.805,.848-2.816" style="fill:none; stroke:#e2e2e2; stroke-linecap:round; stroke-miterlimit:1.656; stroke-width:.414px;"></path><path d="M298.742,586.289c0-12.832-10.348-27.523-12.832-39.32-1.656-7.863-1.656-10.555,.371-21.938,.313-1.738,.547-3.168,.719-4.387m27.055,67.508c-.828-1.656-3.723-8.277-7.863-12.832-5.316-5.848-9.727-12.211-11.383-17.383-2.238-6.992-2.484-22.973-.828-28.766,1.656-5.797,1.797-11.887,.828-16.145-.105-.465-.219-.914-.336-1.352m22.273,59.715c-1.449-1.242-3.52-3.68-5.379-7.867-2.484-5.586-4.941-15.488-5.59-19.867-.828-5.586-5.746-18.137-7.035-21.109-2.07-4.758-1.449-7.656-1.863-11.176-.316-2.688-2.137-6.184-4.125-9.566m-6.473-6.082c-.367-1.691-3.473-7.074-5.473-10.496m5.613,4.828c-.777-1.551-3.699-4.262-5.637-6.133m23.75,96.574c-1.449-2.277-5.172-7.449-7.656-12.004-2.484-4.555-8.484-18.004-9.934-24.422-.934-4.137-.621-9.727,0-13.035,.621-3.313,1.863-8.281,2.277-13.039,.266-3.086-1.465-10.262-3-15.66m2.883,48.566c-.918-2.898-.711-8.902-.711-14.488s3.516-12.832,3.309-18.418c-.094-2.594-1.223-6.027-2.402-9.465m2.719,49.613c-1.656-4.555-1.762-22.766,.098-28.766,1.863-6.004,1.863-13.453,.621-16.352-1.242-2.895-4.344-10.141-5.793-13.449-.023-.059-.051-.121-.074-.18m29.668,69.094c-13.453-19.039-6.207-30.215-10.555-37.457-3.664-6.109-6.414-10.141-5.586-19.664,.211-2.426-2.117-6.879-4.727-11.105" style="fill:none; stroke:#e2e2e2; stroke-linecap:round; stroke-miterlimit:1.656; stroke-width:.414px;"></path><path d="M321.094,585.254c-3.105-3.309-10.348-16.141-12.004-20.695-1.656-4.551-3.313-16.762-5.176-21.523-.734-1.879-2.047-4.723-3.414-7.797m5.691,36.981c-1.035-1.035-3.02-3.27-6.828-9.727-4.762-8.074-5.625-23.441-4.555-27.734,.313-1.25,.547-2.676,.715-4.148" style="fill:none; stroke:#e2e2e2; stroke-linecap:round; stroke-miterlimit:1.656; stroke-width:.414px;"></path><path d="M392.078,480.535c-.277-.207-.414-.828-1.449-1.238-1.035-.414,.223-1.449,.414-2.277,.191-.828,.207-1.449,0-2.07-.457-1.375-1.656-2.898-2.484-3.934-.188-.238-.352-.52-.48-.832m4.621,9.523c0-.617-1.277-.852-.828-1.445,.621-.828,1.242-2.277,.621-3.727-.648-1.516-2.246-2.984-3.191-4.82m4.434,9.582c0-.621-.414-.688,.207-1.449,.621-.766,.609-2.625,.414-3.313-.375-1.309-2.426-2.961-3.723-5.004m4.758,9.352c.828-1.035,1.445-3.105,.828-4.969-.383-1.141-2.418-3.063-3.926-4.691" style="fill:none; stroke:#e2e2e2; stroke-linecap:round; stroke-miterlimit:1.656; stroke-width:.414px;"></path><path d="M395.805,463.152c.414-.207,.621-1.035,.414-1.656-.328-.98-1.656-.207-1.656-.207,0,0-1.035-.207-1.242-.207-.492,0-.426-.723,.098-1.574" style="fill:none; stroke:#e2e2e2; stroke-linecap:round; stroke-miterlimit:1.656; stroke-width:.414px;"></path><path d="M392.172,480.531c1.059-1.555,2.809-2.285,4.871-2.168m-6.711-13.645c-1.016,.586-2,1.359-2.535,2.074m-8.102,37.207c-2.25-.164-4.551-.473-5.621-.688m.352,1.113c-1.691-.52-3.281-1.078-4.699-1.434m1.699,1.336c-1.695-.777-3.223-1.535-4.391-1.898m-.301,.848c-1.844-1.066-3.488-2.027-4.664-2.395m-.555,.516c-1.637-1.082-3.184-2-4.414-2.395m.305,.727c-1.625-1-3.16-1.82-4.234-2.223m-.715,.75c-1.969-1.238-3.781-2.238-4.875-2.648m.246,1.672c-2.133-1.328-4.063-2.422-5.164-2.879m2.133,3.195c-1.922-1.656-3.977-3.406-4.871-3.629m2.191,2.719c-1.566-1.359-3.645-2.566-4.676-2.953m1.789,1.938c-1.633-1.102-3.641-1.965-5.102-2.188m1.73,1.855c-1.711-1.094-3.652-1.945-5.246-2.121m2.016,1.41c-1.895-1.289-5.008-1.582-6.984-1.777m5.582,3.07c-2.484-1.391-5.922-2.711-7.652-3.141m6.637,3.852c-1.5-1.746-6.109-3.148-8.082-3.938m6.082,5.633c-.949-1.258-2.016-2.098-2.773-2.477-1.242-.621-3.52-2.234-5.586-3.27m7.168,7.488c-.098-.324-.207-.629-.34-.906-.996-2.141-6.414-5.176-8.277-6.625m6.914,10.379c-.199-.883-.492-1.793-.914-2.723-2.066-4.551-5.586-5.793-6.828-7.656m5.578,13.504c.117-1.754,.035-3.609-.816-5.848-1.656-4.344-5.176-3.723-5.176-7.656m3.105,17.465c.047-2.813,1.645-4.27,1.035-7.738-.621-3.516-4.773-5.793-4.555-9.727m2.738,23.801c-1.152-2.93-1.902-6.305-1.496-8.07,.547-2.371,2.07-6.832,.414-9.105-1.805-2.484-2.691-3.934-2.07-6.625m-.199,5.477c.18,.34,.383,.719,.613,1.148,1.656,3.102-.414,6.414-.828,9.105-.414,2.688,0,7.449,3.934,12.418,3.93,4.965,4.965,23.59,5.172,29.18,.207,5.586,3.313,14.691,7.246,17.59" style="fill:none; stroke:#a2a2a3; stroke-linecap:round; stroke-miterlimit:1.656; stroke-width:.414px;"></path><path d="M396.012,442.871c.207-1.035,5.172-4.969,3.516-6.004-.945-.59-3.102-.207-4.551,.414-1.141,.488-3.461,3.25-5.383,4.734" style="fill:none; stroke:#a2a2a3; stroke-linecap:round; stroke-miterlimit:1.656; stroke-width:.414px;"></path><path d="M184.832,496.172c-1.527-3.711-1.156-8.715,2.043-8.777,3.469-.117,10.926,2.316,12.555,4.824,4.703,6.73,3.637,12.988,.441,16.531-5.512-6.715-12.207-6.906-15.039-12.578Z" style="fill:#668691; stroke:#fff; stroke-miterlimit:4.139; stroke-width:.828px;"></path><path d="M334.746,602.186c-.496,2.699-.301,10.852,7.121,11.711,4.309,.359,9.211-4.316,11.922-4.73-1.688-4.047-4.477-14.773-9.055-15.23-4.879-.504-9.988,8.25-9.988,8.25Z" style="fill:#90ad95; stroke:#fff; stroke-linecap:round; stroke-linejoin:round; stroke-width:.828px;"></path><path d="M334.746,602.186c-.496,2.699-.301,10.852,7.121,11.711,4.309,.359,9.211-4.316,11.922-4.73-1.688-4.047-4.477-14.773-9.055-15.23-4.879-.504-9.988,8.25-9.988,8.25Z" style="fill:none; stroke:#fff; stroke-miterlimit:4.139; stroke-width:.828px;"></path><path d="M328.334,577.531c-2.445-.238-13.801,1.523-16.027,11.82-2.492,11.438,13.227,12.816,15.645,14.219,.293-4.195,2.688-8.445,5.449-12.02,1.539-2.328,.141-12.191-5.066-14.02Z" style="fill:#86a89c; stroke:#fff; stroke-miterlimit:4.139; stroke-width:.828px;"></path><path d="M301.074,588.908c-.77,1.328-5.293,9.484-4.945,9.645,1.418,.648,4.488,4.512,6.234,5.363,.742-2.133,2.375-10.488,2.082-11.715-.523-2.984-3.371-3.293-3.371-3.293Z" style="fill:#90ad95; stroke:#fff; stroke-miterlimit:10; stroke-width:.5px;"></path><path d="M284.183,594.701c-2.512,2.152-2.805,7.617-.715,10.664,2.309,.043,7.258,.098,8.195,.16-.551-1.25-1.148-10.895-2.484-11.012-1.215-.148-4.996,.188-4.996,.188Z" style="fill:#90ad95; stroke:#fff; stroke-miterlimit:4.139; stroke-width:.828px;"></path><path d="M291.527,621.077c.418,.754-.348,4.965-1.625,6.953-.348,1.106-2.125,2.871-3.066,4.434-.801,1.34-1.348-.273-3.496-2.699-3.43-3.316-5.773-5.609-5.508-7.879,.563-4.813,9.383-7.348,10.188-6.281,1.379,1.828,3.09,4.719,3.508,5.473Zm-11.672-9.551c2.648,4.461-.824,11.48-2.914,14.27-1.559,2.379-4.98,4.852-6.449,8.918-1.777-1.855-3.426-5.391-3.535-7.004-.152-2.34,2.301-14.719,5.508-16.559,3.145-2.223,7.258-.23,7.391,.375Z" style="fill:none; stroke:#fff; stroke-miterlimit:2.07; stroke-width:.828px;"></path><path d="M291.527,621.076c.418,.754-.348,4.965-1.625,6.953-.348,1.105-2.125,2.871-3.066,4.434-.801,1.34-1.348-.273-3.496-2.699-3.43-3.316-5.773-5.609-5.508-7.879,.562-4.812,9.383-7.348,10.188-6.281,1.379,1.828,3.09,4.719,3.508,5.473Zm-11.672-9.551c2.648,4.461-.824,11.48-2.914,14.27-1.559,2.379-4.98,4.852-6.449,8.918-1.777-1.855-3.426-5.391-3.535-7.004-.152-2.34,2.301-14.719,5.508-16.559,3.145-2.223,7.258-.23,7.391,.375Z" style="fill:#86a89c;"></path><path d="M230.784,606.18c-.57-5.07,3.219-14.48,5.391-13.184,2.672,2.289,5.391,15.434,4.926,16.988-1.363,4.129-1.91,7.016-3.105,8.262-2.254,2.25-7.375,1.32-9.609,2.172,1.664-3.031,2.789-10.766,2.398-14.238Z" style="fill:#90af96; stroke:#fff; stroke-miterlimit:4.139; stroke-width:.828px;"></path><path d="M161.146,451.927c-.168,3.871,1.445,7.781-.309,9.426,1.312,.223,3.645,.324,8.207,4.906,2.301,2.465,8.184-3.418,8.73-4.191,3.012-4.691,2.047-12.961-1.871-15.457-8.219-4.852-14.602,.617-14.758,5.316Z" style="fill:#6a9395;"></path><path d="M161.146,451.927c-.168,3.871,1.445,7.781-.309,9.426,1.312,.223,3.645,.324,8.207,4.906,2.301,2.465,8.184-3.418,8.73-4.191,3.012-4.691,2.047-12.961-1.871-15.457-8.219-4.852-14.602,.617-14.758,5.316Z" style="fill:none; stroke:#fdfefd; stroke-linecap:round; stroke-linejoin:round; stroke-width:.828px;"></path><path d="M145.93,441.413l2.336,.996,3.531-1.844,2.816-2.578s2.215-2.449,2.465-2.668c-.176-1.078,2.488-4.121,2.383-5.102-.172-1.59-1.039-4.867-2.156-6.727,.191-.281-4.383-.316-5.566-.07-1.316,.277-1.961,4.016-3.41,5.777-1.777,1.973-2.613,3.527-3.32,5.254-.563,1.355-.035,4.695,.922,6.961Zm49.621,19.102c-4.219-8.312-15.953,6.746-15.227,9.84,1.223,3.066,2.809,7.621,2.539,9.516,.68-2.805,5.148-5.023,7.191-6.852,2.047-1.828,6.07-9.172,5.496-12.504Z" style="fill:none; stroke:#fff; stroke-linecap:round; stroke-linejoin:round; stroke-width:1.656px;"></path><path d="M145.93,441.412l2.336,.996,3.531-1.844,2.816-2.578s2.215-2.449,2.465-2.668c-.176-1.078,2.488-4.121,2.383-5.102-.172-1.59-1.039-4.867-2.156-6.727,.191-.281-4.383-.316-5.566-.07-1.316,.277-1.961,4.016-3.41,5.777-1.777,1.973-2.613,3.527-3.32,5.254-.562,1.355-.035,4.695,.922,6.961Zm49.621,19.102c-4.219-8.312-15.953,6.746-15.227,9.84,1.223,3.066,2.809,7.621,2.539,9.516,.68-2.805,5.148-5.023,7.191-6.852,2.047-1.828,6.07-9.172,5.496-12.504Z" style="fill:#669597;"></path><path d="M349.938,266.965c1.648,.059,8.242,1.875,10.949,3.227,2.703,1.348,5.781,4.605,5.738,7.012,.441,4.184-3.082,9.582-9.906,8.773-5.469-.828-9.035-8.418-8.855-12.348,.336-1.988,.977-6.699,2.074-6.664Zm-28.113-8.551c1.773,1.746,4.117,2.988,7.75,3.078,8.379,2.891,7.891,17.844,2.937,18.922-4.957,1.078-10.531-.746-11.187-3.355-.648-2.562,1.398-14.164,.5-18.645Z" style="fill:none; stroke:#fcfefe; stroke-linecap:round; stroke-linejoin:round; stroke-width:1.656px;"></path><path d="M349.937,266.965c1.648,.059,8.242,1.875,10.949,3.227,2.703,1.348,5.781,4.605,5.738,7.012,.441,4.184-3.082,9.582-9.906,8.773-5.469-.828-9.035-8.418-8.855-12.348,.336-1.988,.977-6.699,2.074-6.664Zm-28.113-8.551c1.773,1.746,4.117,2.988,7.75,3.078,8.379,2.891,7.891,17.844,2.938,18.922-4.957,1.078-10.531-.746-11.188-3.355-.648-2.562,1.398-14.164,.5-18.645Z" style="fill:#7798a1;"></path><path d="M338.77,280.73c3.172,2.613,4.949,3.566,7.703,5.867,1.203,1.094,2.828,3.23,1.832,5.992-.707,1.984-1.887,2.754-3.027,4.219-.562,.793-2.234,1.062-4.688,.312-1.965-.602-4.52-1.418-4.816-3.73-1.297-7.43,2.996-12.66,2.996-12.66Z" style="fill:#7897a4;"></path><path d="M338.77,280.73c3.172,2.613,4.949,3.566,7.703,5.867,1.203,1.094,2.828,3.23,1.832,5.992-.707,1.984-1.887,2.754-3.027,4.219-.563,.793-2.234,1.063-4.688,.313-1.965-.602-4.52-1.418-4.816-3.73-1.297-7.43,2.996-12.66,2.996-12.66Z" style="fill:none; stroke:#fcfefe; stroke-miterlimit:1.656; stroke-width:.828px;"></path><path d="M206.474,456.305c-1.551-1.305-3.578,5.742-4.379,8.203-.828,2.547-.152,5.746,.383,7.941,.266,1.047,.488,3.188,.625,4.445,1.496-.629,3.562-1.758,4.469-3.539,.824-1.527,1.082-2.168,1.508-3.164,.457-1.07,1.223-2.625,1.465-3.043,.441-.895,1.039-3.566,1.031-3.953-.184-2-.148-1.824-.129-3.082,.035-2.492-2.797-1.977-4.973-3.809Z" style="fill:#6a9395;"></path><path d="M206.474,456.305c-1.551-1.305-3.578,5.742-4.379,8.203-.828,2.547-.152,5.746,.383,7.941,.266,1.047,.488,3.188,.625,4.445,1.496-.629,3.563-1.758,4.469-3.539,.824-1.527,1.082-2.168,1.508-3.164,.457-1.07,1.223-2.625,1.465-3.043,.441-.895,1.039-3.566,1.031-3.953-.184-2-.148-1.824-.129-3.082,.035-2.492-2.797-1.977-4.973-3.809Z" style="fill:none; stroke:#fdfefd; stroke-linecap:round; stroke-linejoin:round; stroke-width:.828px;"></path><path d="M387.593,530.612c1.129-.496,6.836,.613,8.668,2.375,2.172,2.09,1.227,4.23,1.527,6.094,.117,.461-1.742,6.188-2.121,6.113-2.156-2.047-5.113-1.227-7.527-2.703-3.555-2.18-1.625-11.402-.547-11.879Z" style="fill:#6a9395;"></path><path d="M387.593,530.612c1.129-.496,6.836,.613,8.668,2.375,2.172,2.09,1.227,4.23,1.527,6.094,.117,.461-1.742,6.188-2.121,6.113-2.156-2.047-5.113-1.227-7.527-2.703-3.555-2.18-1.625-11.402-.547-11.879Z" style="fill:none; stroke:#fefefd; stroke-miterlimit:1.656; stroke-width:.828px;"></path><path d="M183.921,300.772c1.375-.695,1.723-2.207,2.68-2.648,.742-.402,3.402-1.652,4.004-1.293,2.492,.891,4.707,5.855,4.539,6.152-.48,2.52-11.574,8.258-15.203,4.078-1.277-.75,2.75-5.559,3.98-6.289Z" style="fill:#8faf9d;"></path><path d="M183.921,300.772c1.375-.695,1.723-2.207,2.68-2.648,.742-.402,3.402-1.652,4.004-1.293,2.492,.891,4.707,5.855,4.539,6.152-.48,2.52-11.574,8.258-15.203,4.078-1.277-.75,2.75-5.559,3.98-6.289Z" style="fill:none; stroke:#fefffd; stroke-miterlimit:1.656; stroke-width:.828px;"></path><path d="M197.714,275.845c1.793,.184,7.051-1.59,9.281-2.543,6.324-2.57,8.348,7.219,7.676,12.746-.953,7.848-6.152,9.203-11.156,12.074-3.281,1.883-6.504,.477-8.129-2.941-2.043-4.352,2.375-18.078,2.328-19.336Z" style="fill:#8faf9d; stroke:#fff; stroke-linecap:round; stroke-linejoin:round; stroke-width:.414px;"></path><path d="M378.566,541.163c-1.344,1.246-2.641,9.18-.211,12.422,2.43,3.246,4.953,5.602,5.398,10.016,2.043-5.242,4.945-6.746,5.547-8.621,.605-1.879,1.617-8.363-2.801-11.32-4.418-2.953-6.59-3.746-7.934-2.496Z" style="fill:#6a9892;"></path><path d="M378.566,541.163c-1.344,1.246-2.641,9.18-.211,12.422,2.43,3.246,4.953,5.602,5.398,10.016,2.043-5.242,4.945-6.746,5.547-8.621,.605-1.879,1.617-8.363-2.801-11.32-4.418-2.953-6.59-3.746-7.934-2.496Z" style="fill:none; stroke:#fefefd; stroke-miterlimit:1.656; stroke-width:.828px;"></path><path d="M264.111,299.385c1.211-2.297-.504-12.285-1.273-16.086-2.902-10.691-15.586-11.547-20.047-13.871-.719,2.402-9.395,7.926-9.113,16.637,.461,6.801,9.293,12.141,12.832,12.422,8.801,.695,17.602,.898,17.602,.898Z" style="fill:#89b29b;"></path><path d="M264.111,299.385c1.211-2.297-.504-12.285-1.273-16.086-2.902-10.691-15.586-11.547-20.047-13.871-.719,2.402-9.395,7.926-9.113,16.637,.461,6.801,9.293,12.141,12.832,12.422,8.801,.695,17.602,.898,17.602,.898Z" style="fill:none; stroke:#fefffd; stroke-linecap:round; stroke-linejoin:round; stroke-width:.828px;"></path><path d="M361.5,542.342c.762-1.062,.406-2.832,.457-3.836,.035-.93,.621-4.848,1.547-6.043,1.164-1.504,12.488-4.762,17.105-3.977,.535,.043-1.621,6.844-2.824,8.879s-4.293,5.777-7.078,5.738c-4.234,.062-9.207-.762-9.207-.762Z" style="fill:#6a9892;"></path><path d="M361.5,542.343c.762-1.063,.406-2.832,.457-3.836,.035-.93,.621-4.848,1.547-6.043,1.164-1.504,12.488-4.762,17.105-3.977,.535,.043-1.621,6.844-2.824,8.879-1.203,2.035-4.293,5.777-7.078,5.738-4.234,.063-9.207-.762-9.207-.762Z" style="fill:none; stroke:#fefefd; stroke-miterlimit:1.656; stroke-width:.828px;"></path><path d="M405.472,512.858c.121,1.676,1.867,7.367,1.781,11.484,.027,3.953,1.223,5.863,1.895,7.203,4.656,9.219,15.039,5.051,17.531,8.336-.09,.035-2.09-2.793-1.492-6.508,.602-3.719,1.656-10.211,.332-12.641-1.258-1.562-5.82-1.219-7.895-4.617-4.758-7.805-12.617-9.758-12.152-3.258Z" style="fill:#6a9892;"></path><path d="M405.472,512.858c.121,1.676,1.867,7.367,1.781,11.484,.027,3.953,1.223,5.863,1.895,7.203,4.656,9.219,15.039,5.051,17.531,8.336-.09,.035-2.09-2.793-1.492-6.508,.602-3.719,1.656-10.211,.332-12.641-1.258-1.563-5.82-1.219-7.895-4.617-4.758-7.805-12.617-9.758-12.152-3.258Z" style="fill:none; stroke:#fefefd; stroke-miterlimit:1.656; stroke-width:.828px;"></path><path d="M404.07,507.674c.301,1.766,1.32,5.121,1.52,6.422,.203,1.336,.594,4.711,.453,6.922-.086,1.645-.848,3.98-1.621,5.102-.621,.91-1.277,1.832-2.297,3.539-1.285,2.188-2.262,3.625-2.547,5.629-1.883-3.551-6.086-5.016-10.73-9.141-1.973-2.375-1.035-7.73-.852-8.961,.039-1.965,6-3.609,8.457-4.934,2.668-1.441,7.582-4.898,7.617-4.578Z" style="fill:#6a9892;"></path><path d="M404.07,507.675c.301,1.766,1.32,5.121,1.52,6.422,.203,1.336,.594,4.711,.453,6.922-.086,1.645-.848,3.98-1.621,5.102-.621,.91-1.277,1.832-2.297,3.539-1.285,2.187-2.262,3.625-2.547,5.629-1.883-3.551-6.086-5.016-10.73-9.141-1.973-2.375-1.035-7.73-.852-8.961,.039-1.965,6-3.609,8.457-4.934,2.668-1.441,7.582-4.898,7.617-4.578Z" style="fill:none; stroke:#fefefd; stroke-linecap:round; stroke-linejoin:round; stroke-width:.828px;"></path><path d="M436.025,444.053c.789-.57-12.277-7.367-12.277-7.367,0,0-9.945,2.484-14.379,5.117-1.594,2.152-.062,10.258,1.688,11.43-.32,.258,2.289,1.516,6.367,2.551,2.484,.633,7.914-.559,11.23-3.434,4.5-3.902,3.621-5.855,7.371-8.297Z" style="fill:#6a9892;"></path><path d="M436.025,444.053c.789-.57-12.277-7.367-12.277-7.367,0,0-9.945,2.484-14.379,5.117-1.594,2.152-.063,10.258,1.688,11.43-.32,.258,2.289,1.516,6.367,2.551,2.484,.633,7.914-.559,11.23-3.434,4.5-3.902,3.621-5.855,7.371-8.297Z" style="fill:none; stroke:#fefefd; stroke-linecap:round; stroke-linejoin:round; stroke-width:.828px;"></path><path d="M371.976,261.533c.898-6.238,11.789-8.539,14.57-8.227,2.563,.367,8.023,1.645,10.207,4.352,1.852,2.293,2.711,6.699,2.746,9.629-.305,3.859-6.289,12.637-9.961,10.676-2.008-.938-5.594-.637-9.832-6.938-1.727-2.566-8.129-6.648-7.73-9.492Zm14.723-15.504c2.816,.816,4.516,1.094,5.504,.617,.863-.414,2.609,.285,2.742,.043-.18,1.734,.844,6.516,1.055,6.805,.172,4.191-15.379-3.977-9.301-7.465Z" style="fill:none; stroke:#fcfefe; stroke-linecap:round; stroke-linejoin:round; stroke-width:1.656px;"></path><path d="M371.976,261.533c.898-6.238,11.789-8.539,14.57-8.227,2.562,.367,8.023,1.645,10.207,4.352,1.852,2.293,2.711,6.699,2.746,9.629-.305,3.859-6.289,12.637-9.961,10.676-2.008-.938-5.594-.637-9.832-6.938-1.727-2.566-8.129-6.648-7.73-9.492Zm14.723-15.504c2.816,.816,4.516,1.094,5.504,.617,.863-.414,2.609,.285,2.742,.043-.18,1.734,.844,6.516,1.055,6.805,.172,4.191-15.379-3.977-9.301-7.465Z" style="fill:#7d95a3;"></path><path d="M388.789,287c-1.41,1.344-6.281,4.586-6.785,6.102-.57,1.719,3.648,6.59,9.781,4.676,1.496-.441,7.266,1.391,7.883-.363,.566-2.793-.18-5.648-.988-7.527-.918-2.133-6.395-5.793-9.891-2.887Z" style="fill:#7897a4;"></path><path d="M388.789,287c-1.41,1.344-6.281,4.586-6.785,6.102-.57,1.719,3.648,6.59,9.781,4.676,1.496-.441,7.266,1.391,7.883-.363,.566-2.793-.18-5.648-.988-7.527-.918-2.133-6.395-5.793-9.891-2.887Z" style="fill:none; stroke:#fcfefe; stroke-linecap:round; stroke-linejoin:round; stroke-width:.828px;"></path><path d="M386.794,312.391c1.555-1.367,5.691-1.043,7.93-.23,2.266,.809,5.691,3.359,7.785,5.453,2.754,1.691,5.406,2.613,5.23,3.219-.441,.773-4.926,2.926-10.316,2.617-4.527-.523-6.082-1.613-8.637-2.516-5.719-1.984-3.547-7.027-1.992-8.543Z" style="fill:#7798a1; stroke:#fff; stroke-linecap:round; stroke-linejoin:round; stroke-width:.828px;"></path><path d="M172.394,397.078c2.633-2.527,8.895-6.441,10.676-5.168,2.805,1.785,7.191,4.145,8.367,10.586,.457,4.414,1.336,14.957-11.055,11.488-2.832-.969-9.203-3.203-12.945-4.047,1.355-.973,2.578-3.668,2.918-5.535,.449-1.84-.504-4.723,2.039-7.324Z" style="fill:#6a9395; stroke:#fff; stroke-linecap:round; stroke-linejoin:round; stroke-width:.828px;"></path><path d="M159.162,336.92c.316-7.766-7.422-20.07-7.168-20.781,3.516-.312,3.164-3.914,7.852-5.004,7.555-1.812,10.145,5.832,17.496,12.363,2.758,2.484,.875,7.781,1.293,10.824,.293,2.125-4.559,5.73-5.07,7.934-.363,1.051-14.863,6.062-14.402-5.336Z" style="fill:#89b29b;"></path><path d="M159.162,336.92c.316-7.766-7.422-20.07-7.168-20.781,3.516-.312,3.164-3.914,7.852-5.004,7.555-1.813,10.145,5.832,17.496,12.363,2.758,2.484,.875,7.781,1.293,10.824,.293,2.125-4.559,5.73-5.07,7.934-.363,1.051-14.863,6.063-14.402-5.336Z" style="fill:none; stroke:#fefffd; stroke-linecap:round; stroke-linejoin:round; stroke-width:.828px;"></path><path d="M229.221,290.046c2.008,1.32,2.621,6.539,5.242,12.68,3.055,7.637-6.852,6.152-8.195,3.492-1.344-2.668-6.594-14.016-5.27-15.887,2.594-1.133,5.957-1.035,8.223-.285Zm-29.824,47.223c2.629-1.559,2.105-9.656,2.922-11.895,1.914-4.113-1.277-16.047-3.395-17.133-4.504-1.73-9.938,3.75-10.645,5.613-1.336,3.172-1.574,3.988-2.398,9.535-.852,6.113,3.488,14.25,7.492,15.055,3.066,1.105,6.023-1.176,6.023-1.176Z" style="fill:none; stroke:#fefffd; stroke-linecap:round; stroke-linejoin:round; stroke-width:1.656px;"></path><path d="M229.221,290.045c-2.266-.75-5.629-.848-8.223,.285-1.324,1.871,3.926,13.219,5.27,15.887,1.344,2.66,11.25,4.145,8.195-3.492-2.621-6.141-3.234-11.359-5.242-12.68Zm-29.824,47.223c2.629-1.559,2.105-9.656,2.922-11.895,1.914-4.113-1.277-16.047-3.395-17.133-4.504-1.73-9.938,3.75-10.645,5.613-1.336,3.172-1.574,3.988-2.398,9.535-.852,6.113,3.488,14.25,7.492,15.055,3.066,1.105,6.023-1.176,6.023-1.176Z" style="fill:#90b49a;"></path><path d="M164.219,433.535c3.344-1.551,4.352-11.777,9.566-14.176,8.254-3.793,15.164,7.605,15.828,8.738,.742,3.254-5.703,8.375-9.016,12.949-2.91,2.324-11.734-7.512-16.379-7.512Z" style="fill:#6a9395;"></path><path d="M164.219,433.535c3.344-1.551,4.352-11.777,9.566-14.176,8.254-3.793,15.164,7.605,15.828,8.738,.742,3.254-5.703,8.375-9.016,12.949-2.91,2.324-11.734-7.512-16.379-7.512Z" style="fill:none; stroke:#fdfefd; stroke-linecap:round; stroke-linejoin:round; stroke-width:.828px;"></path><path d="M191.258,437.289c.523-1.043,3.293-5.363,3.938-5.137,.641,.223,4.176,2.148,4.461,3.773s-3.086,11.227-5.84,13.035c-1.43,1.137-4.734,3.762-5.582,3.41,.371-3.164-.859-7.293,.016-9.324,.855-1.863,3.008-5.758,3.008-5.758Z" style="fill:#649596;"></path><path d="M191.258,437.289c.523-1.043,3.293-5.363,3.938-5.137,.641,.223,4.176,2.148,4.461,3.773,.285,1.625-3.086,11.227-5.84,13.035-1.43,1.137-4.734,3.762-5.582,3.41,.371-3.164-.859-7.293,.016-9.324,.855-1.863,3.008-5.758,3.008-5.758Z" style="fill:none; stroke:#fdfefd; stroke-linecap:round; stroke-linejoin:round; stroke-width:.828px;"></path><path d="M354.066,302.929c.328-4.609,3.77-8.957,7.625-11.062,5.727-3.242,16.312-.738,18.672-.902-3.605,2.512-3.996,11.895-9.023,13.84-11.59,3.969-17.273-1.875-17.273-1.875Z" style="fill:#7d95a3;"></path><path d="M354.066,302.928c.328-4.609,3.77-8.957,7.625-11.063,5.727-3.242,16.313-.738,18.672-.902-3.605,2.512-3.996,11.895-9.023,13.84-11.59,3.969-17.273-1.875-17.273-1.875Z" style="fill:none; stroke:#fcfefe; stroke-linecap:round; stroke-linejoin:round; stroke-width:.828px;"></path><path d="M413.495,485.927c.289,1.398,6.254,8.148,12.652,7.773,3.535-.297,9.66-2.488,11.91-4.082-1.945-1.684-2.652-5.805-3.059-7.426-.246-1.309-4.883-2.102-8.457-1.594-4.531,.313-12.926,3.758-13.047,5.328Zm18.387-20.227c-.867-.129-.766,7.273,.668,9.59,.586,.949,5.371,3.422,6.965,4.375,1.258,.766,9.23,1.098,10.863,.473,1.203-.461,2.434-3.828,1.516-5.527-1.195-2.254-3.699-5.477-5.723-6.75-1.922-1.203-11.883-2.031-14.289-2.16Z" style="fill:none; stroke:#fefefd; stroke-linecap:round; stroke-linejoin:round; stroke-width:1.656px;"></path><path d="M413.495,485.927c.289,1.398,6.254,8.148,12.652,7.773,3.535-.297,9.66-2.488,11.91-4.082-1.945-1.684-2.652-5.805-3.059-7.426-.246-1.309-4.883-2.102-8.457-1.594-4.531,.312-12.926,3.758-13.047,5.328Zm18.387-20.227c-.867-.129-.766,7.273,.668,9.59,.586,.949,5.371,3.422,6.965,4.375,1.258,.766,9.23,1.098,10.863,.473,1.203-.461,2.434-3.828,1.516-5.527-1.195-2.254-3.699-5.477-5.723-6.75-1.922-1.203-11.883-2.031-14.289-2.16Z" style="fill:#6a9892;"></path><path d="M400.26,481.19c2.18,1.422,5.852-1.812,9.262,3.746,.43,2.234,3.543,11.121,8.035,12.914-3.305-.059-8.242,5.281-12.371,7.273-5.227,.328-10.094-12.305-11.73-13.453-1.117-2.258,6.805-10.48,6.805-10.48Z" style="fill:#649693;"></path><path d="M400.26,481.19c2.18,1.422,5.852-1.813,9.262,3.746,.43,2.234,3.543,11.121,8.035,12.914-3.305-.059-8.242,5.281-12.371,7.273-5.227,.328-10.094-12.305-11.73-13.453-1.117-2.258,6.805-10.48,6.805-10.48Z" style="fill:none; stroke:#fefefd; stroke-linecap:round; stroke-linejoin:round; stroke-width:.828px;"></path><path d="M245.617,448.836c-.559-1.555-5.188-1.035-6.555,.445-1.371,1.48-1.262,5.594,1.852,5.48,3.109-.109,5.258-4.367,4.703-5.926Z" style="fill:#78657f;"></path><path d="M245.617,448.836c-.559-1.555-5.188-1.035-6.555,.445-1.371,1.48-1.262,5.594,1.852,5.48,3.109-.109,5.258-4.367,4.703-5.926Z" style="fill:none; stroke:#361b4c; stroke-linecap:round; stroke-linejoin:round; stroke-width:.209px;"></path><path d="M360.723,423.602c-1.844,2.801,3.438,8.656,4.203,9.168,.762,.508,2.91-.473,3.691-3.438,.637-2.418,1.465-1.781,1.719-3.691,.348-2.594-7.766-4.84-9.613-2.039Z" style="fill:#78657f;"></path><path d="M360.723,423.602c-1.844,2.801,3.438,8.656,4.203,9.168,.762,.508,2.91-.473,3.691-3.438,.637-2.418,1.465-1.781,1.719-3.691,.348-2.594-7.766-4.84-9.613-2.039Z" style="fill:none; stroke:#361b4c; stroke-linecap:round; stroke-linejoin:round; stroke-width:.209px;"></path><path d="M245.98,574.519c-2.039,1.426-3.57,4.566-5.09,8.457-1.555,3.98-1.512,6.078-1.387,8.203,.09,1.512,2.797,1.234,4.547,.977,1.746-.262,4.754-.586,6.145-.715,1.387-.133,2.461-1.137,3.402-1.297,.941-.164,2.117-1.957,2.766-2.762,1.699-2.109,.207-6.793-1.48-9.656-1.41-2.391-8.152-3.734-8.902-3.207Z" style="fill:#86a89c; stroke:#fff; stroke-miterlimit:4.139; stroke-width:.828px;"></path><path d="M234.886,549.686c-.023-.086-1.453,1.609-2.699,2.988-.75,.832-3.309,2.168-3.352,2.77-.07,1.059,8.109,.094,8.027-.266-.184-.945-.828-4.316-1.977-5.492Zm-31.016-24.871c-.051-.031,.754,3.566,2.105,3.828,1.289,.25,1.469-.578,1.832-.668,.367-.09,.293-4.094-.242-4.023-.969,.484-3.375,1.824-3.695,.863Zm33.086,30.016c.422,.105,2.066-1.309,2.559-2.117,.621-.969,1.379-1.828,.723-2.094-1.027-.414-3.574,.332-3.484,.816,.109,.594-.105,3.293,.203,3.395Zm-16.102-38.27c-.668,.387-4.281,5.148-3.758,6.625,.43,1.438,5.922-2.184,6.82-2.254,.961-.074,5.926,.184,5.52-.563-.574-1.063-1.918-2.227-3.254-4.613-.445-.793-4.512,.34-5.328,.805Zm-42.668-6.477c-.547,1.113-1.277,7.832,.742,9.086,1.664,1,3.34,1.418,4.813,.27,2-1.617,.441-8.613-.66-9.078-.887-.277-4.348-1.508-4.895-.277Z" style="fill:none; stroke:#fff; stroke-miterlimit:4.139; stroke-width:1.656px;"></path><path d="M234.886,549.686c-.023-.086-1.453,1.609-2.699,2.988-.75,.832-3.309,2.168-3.352,2.77-.07,1.059,8.109,.094,8.027-.266-.184-.945-.828-4.316-1.977-5.492Zm-31.016-24.871c-.051-.031,.754,3.566,2.105,3.828,1.289,.25,1.469-.578,1.832-.668,.367-.09,.293-4.094-.242-4.023-.969,.484-3.375,1.824-3.695,.863Zm33.086,30.016c.422,.105,2.066-1.309,2.559-2.117,.621-.969,1.379-1.828,.723-2.094-1.027-.414-3.574,.332-3.484,.816,.109,.594-.105,3.293,.203,3.395Zm-16.102-38.27c-.668,.387-4.281,5.148-3.758,6.625,.43,1.438,5.922-2.184,6.82-2.254,.961-.074,5.926,.184,5.52-.562-.574-1.062-1.918-2.227-3.254-4.613-.445-.793-4.512,.34-5.328,.805Zm-42.668-6.477c-.547,1.113-1.277,7.832,.742,9.086,1.664,1,3.34,1.418,4.812,.27,2-1.617,.441-8.613-.66-9.078-.887-.277-4.348-1.508-4.895-.277Z" style="fill:#6a8892;"></path><path d="M215.504,539.081c.414,6.648-10.879,20.754-18.215,24.289-1.465,.707-4.219-13.316,.152-15.422,4.625-2.23,11.223-5.699,16.168-12.363,1.047-1.406,1.719,1.801,1.895,3.496Z" style="fill:#668691; stroke:#fff; stroke-miterlimit:4.139; stroke-width:.828px;"></path><path d="M223.935,491.162c-4.824,2.578-8.863,3.5-13.168,9.598-2.992,4.199-3.203,12.973-3.203,12.973,0,0,8.664-2.961,12.43-4.469,3.523-1.371,6.367-4.676,9.977-8.516,2.711-3.059,1.246-6.371-.816-8.383-1.863-1.816-2.359-2.645-5.219-1.203Z" style="fill:#6d8390; stroke:#fff; stroke-miterlimit:4.139; stroke-width:.828px;"></path><path d="M227.68,535.141c-2.367,2.023-9.387,9.328-7.594,9.996,1.84,.707,7.551,6.813,9.461,4.297,2.57-6.34,12.32-14.605,12.422-17.227-1.621-6.367,1.762-13.109-14.289,2.934Z" style="fill:#6b8893; stroke:#fff; stroke-miterlimit:4.139; stroke-width:.828px;"></path><path d="M238.124,496.527c-3.406,2.176-8.262,7.914-6.867,15.227,1.887,2.758,5.426,1.805,7.086,1.066,6.297-4.809,14.477-1.363,23.645-3.84,1.391-.219-20.688-12.617-23.863-12.453Z" style="fill:#668691; stroke:#fff; stroke-miterlimit:4.139; stroke-width:.828px;"></path><path d="M327.113,510.715c6.789,1.234,14.117-1.199,20.047-6.562,7.402-5.992,10.289-16.949,8.719-16.41-6.531,2.105-7.941,1.566-15.938,.906-6.555-.473-.605,10.66-5.012,14.664-4.711,4.301-9.883,7.297-7.816,7.402Z" style="fill:#797286;"></path><path d="M327.113,510.715c6.789,1.234,14.117-1.199,20.047-6.563,7.402-5.992,10.289-16.949,8.719-16.41-6.531,2.105-7.941,1.566-15.938,.906-6.555-.473-.605,10.66-5.012,14.664-4.711,4.301-9.883,7.297-7.816,7.402Z" style="fill:none; stroke:#361b4c; stroke-linecap:round; stroke-linejoin:round; stroke-width:.42px;"></path><path d="M366.227,320.078c-.926-1.273-9.82-9.469-11.461-9.414-1.641,.051-.402,4.027-.418,4.434s7.441,8.328,9.031,7.598,4.098-.895,2.848-2.617Z" style="fill:#797383;"></path><path d="M366.227,320.078c-.926-1.273-9.82-9.469-11.461-9.414-1.641,.051-.402,4.027-.418,4.434s7.441,8.328,9.031,7.598c1.59-.73,4.098-.895,2.848-2.617Z" style="fill:none; stroke:#361b4c; stroke-linecap:round; stroke-linejoin:round; stroke-width:.42px;"></path><path d="M378.422,332.449c.281,2.977-.043,5.234-.172,5.973-.32,1.816-3.852,4.395-2.93,5.629,1.246,1.664,2.953,3.5,4.375,6.375,.859,1.746,1.281-3.348,4.355-5.297s7.262,1.09,9.281,.82c1.484-.203-1.719-6.645-8.055-14.266-4.832-5.812-8.668-8.656-10.125-8.715-1.422-.059,2.988,6.504,3.27,9.48Z" style="fill:#807582;"></path><path d="M378.422,332.449c.281,2.977-.043,5.234-.172,5.973-.32,1.816-3.852,4.395-2.93,5.629,1.246,1.664,2.953,3.5,4.375,6.375,.859,1.746,1.281-3.348,4.355-5.297,3.074-1.949,7.262,1.09,9.281,.82,1.484-.203-1.719-6.645-8.055-14.266-4.832-5.813-8.668-8.656-10.125-8.715-1.422-.059,2.988,6.504,3.27,9.48Z" style="fill:none; stroke:#361b4c; stroke-linecap:round; stroke-linejoin:round; stroke-width:.42px;"></path><path d="M374.824,351.203c-.828,.309,3.223,12.32,2.359,13.777,9.918,.246,11.109,16.988,14.398,16.984,3.289,0,2.902-15.395,.293-24.012-2.867-9.477-7.695-14.422-10.773-12.562-3.082,1.852-3.242,4.672-6.277,5.812Z" style="fill:#797383;"></path><path d="M374.824,351.203c-.828,.309,3.223,12.32,2.359,13.777,9.918,.246,11.109,16.988,14.398,16.984,3.289,0,2.902-15.395,.293-24.012-2.867-9.477-7.695-14.422-10.773-12.563-3.082,1.852-3.242,4.672-6.277,5.813Z" style="fill:none; stroke:#361b4c; stroke-linecap:round; stroke-linejoin:round; stroke-width:.42px;"></path><path d="M375.48,403.012c-1.59-5.047,1.785-8.309,1.641-8.562-.145-.258,4.371-4.57,5.102-6.551,.727-1.98,1.969-9.176,2.762-8.715,.82,.48,7.453,4.832,9.414,13.535,1.965,8.707,3.18,16.641,.281,21.711-3.344,5.852-10.355,9.285-13.676,8.605,.355-8.445-3.277-16.352-5.523-20.023Z" style="fill:#807582;"></path><path d="M375.48,403.012c-1.59-5.047,1.785-8.309,1.641-8.563-.145-.258,4.371-4.57,5.102-6.551,.727-1.98,1.969-9.176,2.762-8.715,.82,.48,7.453,4.832,9.414,13.535,1.965,8.707,3.18,16.641,.281,21.711-3.344,5.852-10.355,9.285-13.676,8.605,.355-8.445-3.277-16.352-5.523-20.023Z" style="fill:none; stroke:#361b4c; stroke-linecap:round; stroke-linejoin:round; stroke-width:.42px;"></path><path d="M362.926,445.539c-.84,1.969-6.828-3.355-7.062,2.773-.254,6.531-13.062,24.953,2.668,24.301,9.215-.379,12.547-10.512,14.598-17.039,2.055-6.527,2.684-14.621,1.031-19.992-3.773-10.734-5.512-3.402-11.234,9.957Z" style="fill:#797286;"></path><path d="M362.926,445.539c-.84,1.969-6.828-3.355-7.063,2.773-.254,6.531-13.063,24.953,2.668,24.301,9.215-.379,12.547-10.512,14.598-17.039,2.055-6.527,2.684-14.621,1.031-19.992-3.773-10.734-5.512-3.402-11.234,9.957Z" style="fill:none; stroke:#361b4c; stroke-linecap:round; stroke-linejoin:round; stroke-width:.42px;"></path><path d="M264.068,540.222c3.406,.652,12.152,10.09,10.625,9.871-3.523-.504-6.723,3.957-7.625,6.555-.672,1.922-4.043,2.633-4.918,.699-1.23-3.141-4.719-6.496-4.648-6.746,.023-1.238,1.371-3.254,.496-3.992-5.621-4.719,1.508-6.926,6.07-6.387Z" style="fill:#748490; stroke:#fff; stroke-miterlimit:4.139; stroke-width:.828px;"></path><path d="M213.604,317.236c.066,.93,1.352,6.441,1.844,7.477,.309,.637,3.328,2.414,3.914,.773,.293-.414,.707-2.48,.773-3.195,.07-.75,.418-1.383-.086-2.309-.5-.922-.141-1.109-.039-2.07,.105-.957-3.781-3.926-4.508-4.324-.621-.234-1.277,.012-1.277,.012,0,0-.879,1.113-.621,3.637Z" style="fill:#90b49a;"></path><path d="M213.604,317.236c.066,.93,1.352,6.441,1.844,7.477,.309,.637,3.328,2.414,3.914,.773,.293-.414,.707-2.48,.773-3.195,.07-.75,.418-1.383-.086-2.309-.5-.922-.141-1.109-.039-2.07,.105-.957-3.781-3.926-4.508-4.324-.621-.234-1.277,.012-1.277,.012,0,0-.879,1.113-.621,3.637Z" style="fill:none; stroke:#fefffd; stroke-linecap:round; stroke-linejoin:round; stroke-width:.828px;"></path><path d="M210.534,336.125c.32,1.27,1.273,3.824,1.832,4.887,.523,.953,2.605,5.195,3.465,5.691s2.555-2.352,3.082-2.934c.312-.348,.273-2.176-.281-3.066-.559-.891-2.254-4.949-2.996-5.793-.551-.719-3.098-3.289-3.738-4.379-1.145-1.23-2.922-3.703-2.852-3.531,0,0,1.078,7.523,1.488,9.125Z" style="fill:#90b49a;"></path><path d="M210.534,336.125c.32,1.27,1.273,3.824,1.832,4.887,.523,.953,2.605,5.195,3.465,5.691,.859,.496,2.555-2.352,3.082-2.934,.313-.348,.273-2.176-.281-3.066-.559-.891-2.254-4.949-2.996-5.793-.551-.719-3.098-3.289-3.738-4.379-1.145-1.23-2.922-3.703-2.852-3.531,0,0,1.078,7.523,1.488,9.125Z" style="fill:none; stroke:#fefffd; stroke-linecap:round; stroke-linejoin:round; stroke-width:.828px;"></path><path d="M245.471,301.071c-3.105,.41-7.301,3.238-6.488,7.48-.066,1.641,3.605,6.68,6.258,7.504,3.254-.066,6.961-3.512,10.777-1.824,3.117,1.379,4.488-5.91,2.066-7.887-2.293-1.684-9.008-5.777-12.613-5.273Z" style="fill:#89b29b; stroke:#fff; stroke-linecap:round; stroke-linejoin:round; stroke-width:.414px;"></path><path d="M194.582,377.228c-.48,2.297-6.613,1.523-5.586-6.02,1.023-7.543,5.664-10.465,6.656-11.219,.988-.758,4.457-1.938,6.883-1.641,3.016,.34,6.551,7.219,2.801,9.027-3.754,1.813-10.277,7.555-10.754,9.852Z" style="fill:#8bb69d; stroke:#fff; stroke-linecap:round; stroke-linejoin:round; stroke-width:.414px;"></path><path d="M317.242,287.55c.105-1.836-3.023-3.191-8.551-5.152-5.406-1.918-10.746-3.488-12.672-2.672,.348,2.152,2.453,7.621,5.223,9.5,3,2.223,15.359,.57,16-1.676Z" style="fill:#7798a1; stroke:#fff; stroke-linecap:round; stroke-linejoin:round; stroke-width:.828px;"></path><path d="M317.242,287.55c.105-1.836-3.023-3.191-8.551-5.152-5.406-1.918-10.746-3.488-12.672-2.672,.348,2.152,2.453,7.621,5.223,9.5,3,2.223,15.359,.57,16-1.676Z" style="fill:none; stroke:#fcfefe; stroke-linecap:round; stroke-linejoin:round; stroke-width:.828px;"></path><path d="M300.492,295.641c-3.262-2.262-5.223,4.066-5.242,4.719-.059,2.031,4.66,3.227,6.891,4.691,1.594,1.043,5.133,3.945,6.445,4.863,2.113,1.273-.109-2.832,3.211-4.918-4.324-3.258-6.574-6.07-11.305-9.355Zm10.18,3.137s11.152,10.004,11.855,8.551c2.633-5.422,18.176-2.414,18.492-2.129,.699,.637,.879-1.172,.563-1.973-.633-.309-17.039-6.852-19.246-7.262-2.879-.535-10.277,.473-11.664,2.812Z" style="fill:none; stroke:#361b4c; stroke-linecap:round; stroke-linejoin:round; stroke-width:.828px;"></path><path d="M300.492,295.641c-3.262-2.262-5.223,4.066-5.242,4.719-.059,2.031,4.66,3.227,6.891,4.691,1.594,1.043,5.133,3.945,6.445,4.863,2.113,1.273-.109-2.832,3.211-4.918-4.324-3.258-6.574-6.07-11.305-9.355Zm10.18,3.137s11.152,10.004,11.855,8.551c2.633-5.422,18.176-2.414,18.492-2.129,.699,.637,.879-1.172,.562-1.973-.633-.309-17.039-6.852-19.246-7.262-2.879-.535-10.277,.473-11.664,2.812Z" style="fill:#807582;"></path><path d="M264.414,329.84c-.836-1.207-6.277-8.434,2.504-13.484s18.461-2.461,18.766-2.137c.309,.324-13.961,3.91-8.484,12.484-.309,.707-4.156,2.434-7.066,3.125-2.906,.688-3.863-.723-5.719,.012Z" style="fill:#797383;"></path><path d="M264.414,329.84c-.836-1.207-6.277-8.434,2.504-13.484,8.781-5.051,18.461-2.461,18.766-2.137,.309,.324-13.961,3.91-8.484,12.484-.309,.707-4.156,2.434-7.066,3.125-2.906,.688-3.863-.723-5.719,.012Z" style="fill:none; stroke:#361b4c; stroke-linecap:round; stroke-linejoin:round; stroke-width:.418px;"></path><path d="M339.941,332.254c5.02-1.027,13.004,5.719,13.289,4.801,2.539-8.148-3.273-15.473-14.855-20.551-11.359-4.984-23.699-5.012-22.855,6.109,.562,7.469,.293,8.301,.098,9.609,2.277,.824,12.445,7.906,17.723,12.211,3.32-3.805,4.203-11.688,6.602-12.18Z" style="fill:#797383;"></path><path d="M339.941,332.254c5.02-1.027,13.004,5.719,13.289,4.801,2.539-8.148-3.273-15.473-14.855-20.551-11.359-4.984-23.699-5.012-22.855,6.109,.563,7.469,.293,8.301,.098,9.609,2.277,.824,12.445,7.906,17.723,12.211,3.32-3.805,4.203-11.688,6.602-12.18Z" style="fill:none; stroke:#361b4c; stroke-linecap:round; stroke-linejoin:round; stroke-width:.42px;"></path><path d="M191.953,345.457c1.984,1.137,5.059,4.316,4.762,6.336,0,0-5.836,5.434-6.945,7.41-1.703,2.953-4.492-4.406-8.984-6.164-2.969-1.371-4.777-9.605-3.332-11.086,.941-1.059,5.465,2.105,6.77,2.395,2.043,.496,7.73,1.109,7.73,1.109Z" style="fill:#8bb69d; stroke:#fff; stroke-linecap:round; stroke-linejoin:round; stroke-width:.414px;"></path><path d="M337.074,360.352c5.301-1.051,3.262-1.148,7.082-4.906,4.781-4.703,5.914-11.785,8.59-14.086,2.68-2.301,7.355,0,10.066,2.574,2.715,2.578,11.77,15.602,12.23,22.902,.395,6.281-.273,15.062-3.07,15.68s-5.285-.734-5.707-2.137c-.426-1.398-4.672-16.016-9.871-15.82-5.195,.191-3.199,5.336-11.891,7.172-2.211,.469-5.309,1.891-5.812,.289-.504-1.605-1.617-11.668-1.617-11.668Z" style="fill:#807582;"></path><path d="M337.074,360.352c5.301-1.051,3.262-1.148,7.082-4.906,4.781-4.703,5.914-11.785,8.59-14.086,2.68-2.301,7.355,0,10.066,2.574,2.715,2.578,11.77,15.602,12.23,22.902,.395,6.281-.273,15.063-3.07,15.68-2.797,.617-5.285-.734-5.707-2.137-.426-1.398-4.672-16.016-9.871-15.82-5.195,.191-3.199,5.336-11.891,7.172-2.211,.469-5.309,1.891-5.813,.289-.504-1.605-1.617-11.668-1.617-11.668Z" style="fill:none; stroke:#361b4c; stroke-linecap:round; stroke-linejoin:round; stroke-width:.42px;"></path><path d="M277.207,320.684c-1.562,.953-.719,13.602,2.52,13.617,3.309,.02,7.984-6.094,16.273-5.785,8.285,.309,14.695,4.938,15.902,4.574,1.211-.363-1.711-17.16-19.117-17.16-7.719,0-11.59,2.332-15.578,4.754Z" style="fill:#797383;"></path><path d="M277.207,320.684c-1.563,.953-.719,13.602,2.52,13.617,3.309,.02,7.984-6.094,16.273-5.785,8.285,.309,14.695,4.938,15.902,4.574,1.211-.363-1.711-17.16-19.117-17.16-7.719,0-11.59,2.332-15.578,4.754Z" style="fill:none; stroke:#361b4c; stroke-linecap:round; stroke-linejoin:round; stroke-width:.42px;"></path><path d="M252.275,606.619c2.254,.141,5.191,.465,8.527,.645,3.336,.18,3.469-1.324,8.969,.258-.641-5.344,.633-12.801,.734-15.043-2.48,1.355-17.52,.438-23.758,2.438-.492,.379,3.117,11.066,5.527,11.703Z" style="fill:#86a89c; stroke:#fff; stroke-miterlimit:4.139; stroke-width:.828px;"></path><path d="M269.874,581.026c5.766-3.43,11.727-4.535,16.441-4.801,1.402,.16,.84,5.539,.898,7.133-1.461,1.469-5.395,1.293-6.188,4.582-.441,2.152-6.902,3.316-11.145,2.121-1.035-2.215-2.477-6.242-.008-9.035Z" style="fill:#86a89c; stroke:#fff; stroke-miterlimit:4.139; stroke-width:.828px;"></path><path d="M368.383,391.621c-.762-.898-2.965-2.219-3.992-1.223-1.023,.992-1.488,4.719-2.953,5.656-1.469,.934-10.086,4.441-11.602,3.973,.359,2.645-1.215,6.227-.965,7.488,.25,1.258,5.707,3.539,2.613,8.84-3.121,5.352,9.402,17.285,12.199,21.516,1.297,.238,3.113,1.258,4.652-.754,1.535-2.008,9.242-15.641,8.531-22.648-.707-7.008-4.848-18.527-8.484-22.848Z" style="fill:#807582;"></path><path d="M368.383,391.621c-.762-.898-2.965-2.219-3.992-1.223-1.023,.992-1.488,4.719-2.953,5.656-1.469,.934-10.086,4.441-11.602,3.973,.359,2.645-1.215,6.227-.965,7.488,.25,1.258,5.707,3.539,2.613,8.84-3.121,5.352,9.402,17.285,12.199,21.516,1.297,.238,3.113,1.258,4.652-.754,1.535-2.008,9.242-15.641,8.531-22.648-.707-7.008-4.848-18.527-8.484-22.848Z" style="fill:none; stroke:#361b4c; stroke-linecap:round; stroke-linejoin:round; stroke-width:.42px;"></path><path d="M260.801,471.664c5.703,.629,13.113,1.383,11.633,3.754-1.566,2.512-4.406,10.996-3.305,14.844,.848,2.949-12.25,3.848-20.445,2.188-9.453-1.918-14.418-18.73-5.242-14.734,9.68,4.219,15.387-6.266,17.359-6.051Z" style="fill:#7f6f85;"></path><path d="M260.801,471.664c5.703,.629,13.113,1.383,11.633,3.754-1.566,2.512-4.406,10.996-3.305,14.844,.848,2.949-12.25,3.848-20.445,2.188-9.453-1.918-14.418-18.73-5.242-14.734,9.68,4.219,15.387-6.266,17.359-6.051Z" style="fill:none; stroke:#361b4c; stroke-linecap:round; stroke-linejoin:round; stroke-width:.42px;"></path><path d="M280.156,525.383c-4.699,2.852-10.852,.387-10.965-2.094-.031-2.641,7.926-6.961,9.035-8.605,6.449-3.199,16.313,1.82,1.93,10.699Z" style="fill:#6d8390; stroke:#fff; stroke-miterlimit:4.139; stroke-width:.828px;"></path><path d="M295.557,482.787c1.785,3.355,3.23,9.207,11.145,6.906,7.91-2.297,9.336-5.953,11.371-7.773s3.844-.152,4.105,1.504c.68,4.25,1.879,11.5-6.766,19.281-6.539,5.887-15.895,10.203-17.402,9.594-2.398-2.145-4.996-9.543-17.012-6.137-1.805-5.953-1.434-10.066,.594-16.012,3.516-10.305,12.18-10.723,13.965-7.363Z" style="fill:#7f6f85;"></path><path d="M295.557,482.787c1.785,3.355,3.23,9.207,11.145,6.906,7.91-2.297,9.336-5.953,11.371-7.773,2.035-1.82,3.844-.152,4.105,1.504,.68,4.25,1.879,11.5-6.766,19.281-6.539,5.887-15.895,10.203-17.402,9.594-2.398-2.145-4.996-9.543-17.012-6.137-1.805-5.953-1.434-10.066,.594-16.012,3.516-10.305,12.18-10.723,13.965-7.363Z" style="fill:none; stroke:#361b4c; stroke-linecap:round; stroke-linejoin:round; stroke-width:.42px;"></path><path d="M336.645,442.642c2.754,3.392,5.283,5.698,6.871,8.757,1.591,3.06-5.304,12.519-10.514,17.501-5.208,4.988-17.564,11.867-22.885,9.292-5.322-2.572-4.564-8.062-1.635-12.964,2.931-4.897,7.374-17.301,12.106-14.711,6.175,3.382,15.229-8.893,16.059-7.875Z" style="fill:#7f6f85;"></path><path d="M336.645,442.642c2.754,3.392,5.283,5.698,6.871,8.757,1.591,3.06-5.304,12.519-10.514,17.501-5.208,4.988-17.564,11.867-22.885,9.292-5.322-2.572-4.564-8.062-1.635-12.964,2.931-4.897,7.374-17.301,12.106-14.711,6.175,3.382,15.229-8.893,16.059-7.875Z" style="fill:none; stroke:#361b4c; stroke-linecap:round; stroke-linejoin:round; stroke-width:.42px;"></path><path d="M303.604,624.093s4.449,4.68,7.902,5.383c5.438-.73,14.301-12.191,13.094-18.234-1.289-6.383-10.816-3.215-13.449-.348-5.414,5.047-4.359,10.492-7.547,13.199Z" style="fill:#8fa49a; stroke:#fff; stroke-miterlimit:4.139; stroke-width:.828px;"></path><path d="M219.295,584.522c-1.484-.57-4.816,6.883-4.605,10.043,.137,2.73,4.742,8.938,4.797,8.762,.113-3.922,10.461-5.836,9.27-9.219-.734-7.098-7.09-8.441-9.461-9.586Z" style="fill:#758d8c; stroke:#fff; stroke-miterlimit:4.139; stroke-width:.828px;"></path><path d="M234.886,549.686c-.023-.086-1.453,1.609-2.699,2.988-.75,.832-3.309,2.168-3.352,2.77-.07,1.059,8.109,.094,8.027-.266-.184-.945-.828-4.316-1.977-5.492Zm-31.016-24.871c-.051-.031,.754,3.566,2.105,3.828,1.289,.25,1.469-.578,1.832-.668,.367-.09,.293-4.094-.242-4.023-.969,.484-3.375,1.824-3.695,.863Zm33.086,30.016c.422,.105,2.066-1.309,2.559-2.117,.621-.969,1.379-1.828,.723-2.094-1.027-.414-3.574,.332-3.484,.816,.109,.594-.105,3.293,.203,3.395Zm-16.102-38.27c-.668,.387-4.281,5.148-3.758,6.625,.43,1.438,5.922-2.184,6.82-2.254,.961-.074,5.926,.184,5.52-.563-.574-1.063-1.918-2.227-3.254-4.613-.445-.793-4.512,.34-5.328,.805Z" style="fill:none; stroke:#fff; stroke-miterlimit:4.139; stroke-width:1.656px;"></path><path d="M234.886,549.686c-.023-.086-1.453,1.609-2.699,2.988-.75,.832-3.309,2.168-3.352,2.77-.07,1.059,8.109,.094,8.027-.266-.184-.945-.828-4.316-1.977-5.492Zm-31.016-24.871c-.051-.031,.754,3.566,2.105,3.828,1.289,.25,1.469-.578,1.832-.668,.367-.09,.293-4.094-.242-4.023-.969,.484-3.375,1.824-3.695,.863Zm33.086,24.496c.422,.105,2.066-1.309,2.559-2.117,.621-.969,1.379-1.828,.723-2.094-1.027-.414-3.574,.332-3.484,.816,.109,.594-.105,3.293,.203,3.395Zm-16.102-32.75c-.668,.387-4.281,5.148-3.758,6.625,.43,1.438,5.922-2.184,6.82-2.254,.961-.074,5.926,.184,5.52-.562-.574-1.062-1.918-2.227-3.254-4.613-.445-.793-4.512,.34-5.328,.805Z" style="fill:#6a8892;"></path><path d="M247.428,524.679c1.445,2.492,4.227-.605,4.945-1.5,.309-.383,1.789-1.891,2.664-2.52,.871-.629,1.32-2.512,2.566-4.156,1.461-1.926,4.32-3.926,6.008-5.262s-3.297-.387-5.844,1.355c-2.281,1.574-5.063,3.605-5.98,4.098-4.66,2.496-4.359,7.984-4.359,7.984Z" style="fill:#6e898c; stroke:#fff; stroke-miterlimit:4.139; stroke-width:.828px;"></path><path d="M246.537,534.541c.238,2,1.391,5.406,4.016,6.594,2.012,.938,4.594-.605,5.816-2.566,1.25-2.039,1.887-4.496,4.254-9.918,2.195-5.051,4.027-5.977,4.035-7.586,.082-.141-.832-1.73-1.219-1.594-3.504,2.41-8.156,8.676-10.336,10.215-4.117,2.902-6.566,4.855-6.566,4.855Z" style="fill:#6e898c; stroke:#fff; stroke-miterlimit:4.139; stroke-width:.828px;"></path><path d="M206.703,410.398c3.84-.805,5.219,2.855,5.223,3.598,.004,.934,1.25,4.621-.645,6.477-.672,1.023-3.617,.957-4.742,.801-1.402-.102-3.316-.215-3.352-1.836-.023-1.395,.223-8.227,3.516-9.039Z" style="fill:#6a9395;"></path><path d="M206.703,410.398c3.84-.805,5.219,2.855,5.223,3.598,.004,.934,1.25,4.621-.645,6.477-.672,1.023-3.617,.957-4.742,.801-1.402-.102-3.316-.215-3.352-1.836-.023-1.395,.223-8.227,3.516-9.039Z" style="fill:none; stroke:#fdfefd; stroke-linecap:round; stroke-linejoin:round; stroke-width:.828px;"></path><path d="M194.195,414.109c-1.574-2.77-8.43,2.371-9.832,3.082,1.707,.52,7.418,5.711,8.297,6.109,1.383,.734,3.523,.922,4.836-.5,.852-.859-1.812-4.047-2.309-5.199-.512-1.195-.301-2.391-.992-3.492Z" style="fill:#6a9395;"></path><path d="M194.195,414.109c-1.574-2.77-8.43,2.371-9.832,3.082,1.707,.52,7.418,5.711,8.297,6.109,1.383,.734,3.523,.922,4.836-.5,.852-.859-1.813-4.047-2.309-5.199-.512-1.195-.301-2.391-.992-3.492Z" style="fill:none; stroke:#fdfefd; stroke-linecap:round; stroke-linejoin:round; stroke-width:.828px;"></path><path d="M226.934,358.449c.652-2.547,5.973-14.438,9.609-14.66,3.637-.219,6.461,5.453,6.227,7.73-.172,1.688-3.68,6.207-4.285,6.539-.605,.328-11.727,1.086-11.551,.391Z" style="fill:#797286;"></path><path d="M226.934,358.449c.652-2.547,5.973-14.438,9.609-14.66,3.637-.219,6.461,5.453,6.227,7.73-.172,1.688-3.68,6.207-4.285,6.539-.605,.328-11.727,1.086-11.551,.391Z" style="fill:none; stroke:#361b4c; stroke-linecap:round; stroke-linejoin:round; stroke-width:.42px;"></path><path d="M218.957,383.109c-4.703-.531-4.395-7.977-3.074-10.395,1.898-3.469,6.473-8.918,10.043-9.84,2.863-.738,6.207-1.441,7.453-.902,1.246,.543-.145,5.465-.973,7.891-1.262,3.684,2.516,14.199,.258,14.324-5.523,.301-7.984-.434-13.707-1.078Z" style="fill:#797286;"></path><path d="M218.957,383.109c-4.703-.531-4.395-7.977-3.074-10.395,1.898-3.469,6.473-8.918,10.043-9.84,2.863-.738,6.207-1.441,7.453-.902,1.246,.543-.145,5.465-.973,7.891-1.262,3.684,2.516,14.199,.258,14.324-5.523,.301-7.984-.434-13.707-1.078Z" style="fill:none; stroke:#361b4c; stroke-linecap:round; stroke-linejoin:round; stroke-width:.42px;"></path><path d="M214.789,401.078c1.781-5.492,4.684-9.504,9.484-10.781,2.652-.707,12.473-.914,13.559,1.395s.301,10.715,2.949,14.383c2.648,3.668,5.734,7.211,5.559,9.078-.098,1.676-11.711,8.207-15.563,10.098-3.434,1.688-9.234,2.797-12.262-1.477-3.816-5.18-5.516-17.309-3.727-22.695Z" style="fill:#7f6f85; stroke:#361b4c; stroke-miterlimit:1.656; stroke-width:.5px;"></path><path d="M253.527,393.148c.781-1.512-3.289-2-5.402,.703-2.113,2.707-5.379,9.84-6.238,15.457-1.172,7.477,5.797,16.016,6.875,12.379,1.934-6.539-.699-7.949,2.02-12.793,1.605-3.531,.051-10.434,2.746-15.746Z" style="fill:#7f6f85;"></path><path d="M253.527,393.148c.781-1.512-3.289-2-5.402,.703-2.113,2.707-5.379,9.84-6.238,15.457-1.172,7.477,5.797,16.016,6.875,12.379,1.934-6.539-.699-7.949,2.02-12.793,1.605-3.531,.051-10.434,2.746-15.746Z" style="fill:none; stroke:#361b4c; stroke-linecap:round; stroke-linejoin:round; stroke-width:.538px;"></path><path d="M251.828,354.984c-4.023-.375-12.699,9.441-13.516,13.922-.812,4.484-4.195,17.953,2.633,19,4.43,.684,3.5-10.598,15.84-11.82,1.805-.176,.594-7.777,5.066-10.582,2.34-1.469-4.277-9.98-10.023-10.52Z" style="fill:#7f6f85;"></path><path d="M251.828,354.984c-4.023-.375-12.699,9.441-13.516,13.922-.813,4.484-4.195,17.953,2.633,19,4.43,.684,3.5-10.598,15.84-11.82,1.805-.176,.594-7.777,5.066-10.582,2.34-1.469-4.277-9.98-10.023-10.52Z" style="fill:none; stroke:#361b4c; stroke-linecap:round; stroke-linejoin:round; stroke-width:.42px;"></path><path d="M297.973,333.016c2.371-3.273,9.125-7.684,18.469-5.258,9.348,2.422,18.77,7.238,23.051,13.066,4.285,5.832,5.926,7.988,3.703,8.434-3.445,.691-6.773,2.859-8.32,5.219-1.09,1.66-4.527-7.078-13.613-6.457-3.727-3.539-10.812-4.77-18.02-4.035-1.836-3.129-5.27-10.969-5.27-10.969Z" style="fill:#797383;"></path><path d="M297.973,333.016c2.371-3.273,9.125-7.684,18.469-5.258,9.348,2.422,18.77,7.238,23.051,13.066,4.285,5.832,5.926,7.988,3.703,8.434-3.445,.691-6.773,2.859-8.32,5.219-1.09,1.66-4.527-7.078-13.613-6.457-3.727-3.539-10.813-4.77-18.02-4.035-1.836-3.129-5.27-10.969-5.27-10.969Z" style="fill:none; stroke:#361b4c; stroke-linecap:round; stroke-linejoin:round; stroke-width:.42px;"></path><path d="M243.848,346.016c.586-2.652,3.293-7.844,8.898-10.645,5.609-2.805,12.332-4.324,16.094-4.961,5.34-.91,7.695,1.309,8.512,3.668,.816,2.363,2.441,7.277,2.578,8.316s-13.625,4.402-11.941,8.598c1.805,4.504,4.957,9.359,3.668,8.582-6.125-3.699-16.047-7.609-19.422-8.203s-9.277-1.297-8.387-5.355Z" style="fill:#7f6f85;"></path><path d="M243.848,346.016c.586-2.652,3.293-7.844,8.898-10.645,5.609-2.805,12.332-4.324,16.094-4.961,5.34-.91,7.695,1.309,8.512,3.668,.816,2.363,2.441,7.277,2.578,8.316,.137,1.039-13.625,4.402-11.941,8.598,1.805,4.504,4.957,9.359,3.668,8.582-6.125-3.699-16.047-7.609-19.422-8.203s-9.277-1.297-8.387-5.355Z" style="fill:none; stroke:#361b4c; stroke-linecap:round; stroke-linejoin:round; stroke-width:.42px;"></path><path d="M248.988,437.016c-5.164-7.152-12.168-2.82-15.477-.203-2.324,1.84-4.863,6.27-2.516,15.188,2.234,8.492,4.789,12.465,8.602,15.18s8.641,3.055,11.273,2.406c3.715-.918,9.82-2.574,9.242-6.25-.207-1.312-10.156-6.148-12.699-12.27-2.547-6.117,3.707-11.09,1.574-14.051Z" style="fill:#7f6f85;"></path><path d="M248.988,437.016c-5.164-7.152-12.168-2.82-15.477-.203-2.324,1.84-4.863,6.27-2.516,15.188,2.234,8.492,4.789,12.465,8.602,15.18,3.813,2.715,8.641,3.055,11.273,2.406,3.715-.918,9.82-2.574,9.242-6.25-.207-1.313-10.156-6.148-12.699-12.27-2.547-6.117,3.707-11.09,1.574-14.051Z" style="fill:none; stroke:#361b4c; stroke-linecap:round; stroke-linejoin:round; stroke-width:.445px;"></path><path d="M259.406,453.656c-2.781,3.578,.121,8.887,.887,11.422,1.363,3.617,13.805,13.805,26.664,8.156,8.648-3.793,7.594-12.953,7.566-16.062-.078-1.875-2.605-.891-4.926-.672-2.301,.215-6.262,1.645-11.387-.816-3.258-1.617-4.23-1.383-6.781-3.84-1.809-1.816-4.535-2.176-7.496-3.445,0,0-2.988,3.215-4.527,5.258Z" style="fill:#7f6f85;"></path><path d="M259.406,453.656c-2.781,3.578,.121,8.887,.887,11.422,1.363,3.617,13.805,13.805,26.664,8.156,8.648-3.793,7.594-12.953,7.566-16.063-.078-1.875-2.605-.891-4.926-.672-2.301,.215-6.262,1.645-11.387-.816-3.258-1.617-4.23-1.383-6.781-3.84-1.809-1.816-4.535-2.176-7.496-3.445,0,0-2.988,3.215-4.527,5.258Z" style="fill:none; stroke:#361b4c; stroke-linecap:round; stroke-linejoin:round; stroke-width:.42px;"></path><path d="M339.961,395.078c-1.148-3.062-2.328,.402-3.277,2.215-.371,.809,2.02,25.07-2.938,30.016-4.957,4.949,.352,4.613,2.141,2.465,1.793-2.148,4.445-7.031,4.766-9.238,.328-2.234,.887-4.543,1.109-8.582,.211-3.711,.898-9.793-1.801-16.875Z" style="fill:#8cbcaf;"></path><path d="M339.961,395.078c-1.148-3.063-2.328,.402-3.277,2.215-.371,.809,2.02,25.07-2.938,30.016-4.957,4.949,.352,4.613,2.141,2.465,1.793-2.148,4.445-7.031,4.766-9.238,.328-2.234,.887-4.543,1.109-8.582,.211-3.711,.898-9.793-1.801-16.875Z" style="fill:none; stroke:#24526c; stroke-miterlimit:1.656; stroke-width:.828px;"></path><path d="M329.809,422.023c1.461-.906,2.645,1.039,3.902,3.398,1.172,2.188-.574,8.094-4.008,12.793-3.379,4.625-9.145,7.016-13.293,8.648-3.941,1.551-7.914,1.863-10.668-.758-.379-2.262,2.594-4.336,2.535-8.027,3.195-.652,7.168-2.668,8.312-5.16,0,0,3.082,1.195,4.574-.023,3.504-2.852,7.375-9.801,8.645-10.871Z" style="fill:#8cbcaf;"></path><path d="M329.809,422.023c1.461-.906,2.645,1.039,3.902,3.398,1.172,2.188-.574,8.094-4.008,12.793-3.379,4.625-9.145,7.016-13.293,8.648-3.941,1.551-7.914,1.863-10.668-.758-.379-2.262,2.594-4.336,2.535-8.027,3.195-.652,7.168-2.668,8.313-5.16,0,0,3.082,1.195,4.574-.023,3.504-2.852,7.375-9.801,8.645-10.871Z" style="fill:none; stroke:#24526c; stroke-miterlimit:1.656; stroke-width:.828px;"></path><path d="M323.312,363.633s-3.711,7.063-2.711,7.449c1,.391,5.395,1.391,7.965,5.578,2.297,3.742,2.602,10.23,3.891,9.672,2.102-.898,3.473-.055,4.746,.203,1.922,.395,3.211,3.355,3.273,1.598,.094-2.648-1.496-6.219-2.523-9.945-1.145-4.145-4.602-8.805-6.84-10.488-3.906-2.902-4.914-3.84-7.801-4.066Z" style="fill:#8cbcaf; stroke:#24526c; stroke-miterlimit:1.656; stroke-width:.828px;"></path><path d="M282.379,361.098c4.031-.133,6.125-.902,9.48-.945,3.395-.043,9.395,1.906,9.246,1.504-.992-2.707,4.402-5.207,3.832-7.555-.566-2.348-5.41-3.344-8.211-3.652-4.895-.535-9.859-.223-12.754,.344-2.926,.574-7.645,2.973-8.063,5.664-.598,3.824,2.426,4.785,6.469,4.641Z" style="fill:#86bab0; stroke:#24526c; stroke-miterlimit:1.656; stroke-width:.828px;"></path><path d="M276.781,377.867c.246-1.559,1.5-10.832,11.367-13.777,9.027-2.691,14.309-1.098,19.148,.836,2.984,1.195,5.219,2.961,8.832,5.992-.117,.148-12.227-2.938-19.305-2.617-7.801,.32-16.395,6.266-20.043,9.566Z" style="fill:#8cbcaf;"></path><path d="M276.781,377.867c.246-1.559,1.5-10.832,11.367-13.777,9.027-2.691,14.309-1.098,19.148,.836,2.984,1.195,5.219,2.961,8.832,5.992-.117,.148-12.227-2.938-19.305-2.617-7.801,.32-16.395,6.266-20.043,9.566Z" style="fill:none; stroke:#24526c; stroke-miterlimit:1.656; stroke-width:.828px;"></path><path d="M317.668,380.211c-1.379-1.238,8.754,3.043,11.973,11.094,2.781,6.949,2.426,11.938,1.828,16.523-.148,1.145-1.957,3.75-2.848,.801-.887-2.949,.602-7.805-1.305-14.129-1.648-5.465-7.98-12.789-9.648-14.289Z" style="fill:#86bab0;"></path><path d="M317.668,380.211c-1.379-1.238,8.754,3.043,11.973,11.094,2.781,6.949,2.426,11.938,1.828,16.523-.148,1.145-1.957,3.75-2.848,.801-.887-2.949,.602-7.805-1.305-14.129-1.648-5.465-7.98-12.789-9.648-14.289Z" style="fill:none; stroke:#24526c; stroke-miterlimit:1.656; stroke-width:.828px;"></path><path d="M318.434,422.453c-1.164,4.863-15.145,10.469-5.895,10.445,7.402-.02,11.141-7.219,12.246-12.18,2.09-9.363,.117-17.238-1.207-15.031-1.602,2.777-3.559,10.246-5.145,16.766Z" style="fill:#87bab3;"></path><path d="M318.434,422.453c-1.164,4.863-15.145,10.469-5.895,10.445,7.402-.02,11.141-7.219,12.246-12.18,2.09-9.363,.117-17.238-1.207-15.031-1.602,2.777-3.559,10.246-5.145,16.766Z" style="fill:none; stroke:#24526c; stroke-miterlimit:1.656; stroke-width:.828px;"></path><path d="M263.102,400.66c.133-1.676-4.227-2.566-6.094,.586-2.324,3.914-1.113,8.07,.105,14.941,1.238,6.984,13.215,14.168,17.406,10.992,5.664-4.297-4.051-3.988-7.301-7.273-2.32-2.344-5.441-6.785-6.117-10.086-.867-4.266,1.441-1.992,2-9.16Z" style="fill:#8bb8b2;"></path><path d="M263.102,400.66c.133-1.676-4.227-2.566-6.094,.586-2.324,3.914-1.113,8.07,.105,14.941,1.238,6.984,13.215,14.168,17.406,10.992,5.664-4.297-4.051-3.988-7.301-7.273-2.32-2.344-5.441-6.785-6.117-10.086-.867-4.266,1.441-1.992,2-9.16Z" style="fill:none; stroke:#24526c; stroke-miterlimit:1.656; stroke-width:.828px;"></path><path d="M287.18,378.824c1.023-.031,1.652-.023,3.934-1.086,1.656-.77,3.16-1.227,4.113-1.496,1.77-.504,2.277-.844,3.117-1.223-4.223-1.383-11.691-2.16-13.168,1.164,.227,1.25,.754,1.602,2.004,2.641Z" style="fill:#8bb8b2;"></path><path d="M287.18,378.824c1.023-.031,1.652-.023,3.934-1.086,1.656-.77,3.16-1.227,4.113-1.496,1.77-.504,2.277-.844,3.117-1.223-4.223-1.383-11.691-2.16-13.168,1.164,.227,1.25,.754,1.602,2.004,2.641Z" style="fill:none; stroke:#24526c; stroke-miterlimit:1.656; stroke-width:.828px;"></path><path d="M275.914,385.277c.996-1.258,5.262,1.695,6.211-3.145,.668-3.539-1.441-1.746-1.398-2.824,.078-1.906-1.227-3.828-4.086-4.773-7.062,.078-4.57,3.734-7.473,5.512-4.555,2.789-11.27,10.918-3.109,17.305,.352-3.25,2.75-8.023,5.504-10.258,1.477-1.195,3.211,.352,4.352-1.816Z" style="fill:#8bb8b2;"></path><path d="M275.914,385.277c.996-1.258,5.262,1.695,6.211-3.145,.668-3.539-1.441-1.746-1.398-2.824,.078-1.906-1.227-3.828-4.086-4.773-7.063,.078-4.57,3.734-7.473,5.512-4.555,2.789-11.27,10.918-3.109,17.305,.352-3.25,2.75-8.023,5.504-10.258,1.477-1.195,3.211,.352,4.352-1.816Z" style="fill:none; stroke:#24526c; stroke-miterlimit:1.656; stroke-width:.828px;"></path><path d="M301.836,375.801c3.473,.383,6.527,.996,8.742,2.137,2.219,1.145,6.926,6.223,7.598,7.836-.211-3.168-1.906-7.766-5.668-10.227-3.301-2.156-7.117-2.164-10.672,.254Z" style="fill:#86bab0;"></path><path d="M301.836,375.801c3.473,.383,6.527,.996,8.742,2.137,2.219,1.145,6.926,6.223,7.598,7.836-.211-3.168-1.906-7.766-5.668-10.227-3.301-2.156-7.117-2.164-10.672,.254Z" style="fill:none; stroke:#24526c; stroke-miterlimit:1.656; stroke-width:.828px;"></path><path d="M278.707,422.512c-1.027-1.75-4.312,7.41-2.02,11.574,2.797,5.113,7.68,10.172,18.617,8.562,3.84-.582,7.82-3.125,7.051-4.484-1.121-1.977-6.398-1.008-9.758-2.008-2.863-.863-4.645-3.023-7.086-3.672-2.895-.77-4.062-5.312-6.805-9.973Z" style="fill:#8cbcaf;"></path><path d="M278.707,422.512c-1.027-1.75-4.313,7.41-2.02,11.574,2.797,5.113,7.68,10.172,18.617,8.563,3.84-.582,7.82-3.125,7.051-4.484-1.121-1.977-6.398-1.008-9.758-2.008-2.863-.863-4.645-3.023-7.086-3.672-2.895-.77-4.063-5.313-6.805-9.973Z" style="fill:none; stroke:#24526c; stroke-miterlimit:1.656; stroke-width:.828px;"></path><path d="M267.852,394.871c.84-1.77,2.883-4.754,3.645-3.398,1.102,1.965,4.641,8.672,4.082,10.68-.562,2.008-.695,4.402,.094,8.09,.402,1.855-3.332-.559-4.414-2.391-.953-1.613-1.738-2.902-2.902-5.66-.414-.992-1.895-4.398-.504-7.32Z" style="fill:#8cbcaf;"></path><path d="M267.852,394.871c.84-1.77,2.883-4.754,3.645-3.398,1.102,1.965,4.641,8.672,4.082,10.68-.563,2.008-.695,4.402,.094,8.09,.402,1.855-3.332-.559-4.414-2.391-.953-1.613-1.738-2.902-2.902-5.66-.414-.992-1.895-4.398-.504-7.32Z" style="fill:none; stroke:#24526c; stroke-miterlimit:1.656; stroke-width:.828px;"></path><path d="M291.039,423.914c-1.523,2.109,1.145,8.699,7.406,9.148,8.605,.621,12.938-4.52,14.098-8.387,.824-2.758-2.379,1.73-10.914,2.137-8.539,.402-9.32-4.652-10.59-2.898Z" style="fill:#8bb8b2;"></path><path d="M291.039,423.914c-1.523,2.109,1.145,8.699,7.406,9.148,8.605,.621,12.938-4.52,14.098-8.387,.824-2.758-2.379,1.73-10.914,2.137-8.539,.402-9.32-4.652-10.59-2.898Z" style="fill:none; stroke:#24526c; stroke-miterlimit:1.656; stroke-width:.828px;"></path><path d="M315.918,388.34c-.273-.816,5.113,3.043,5.855,9.746,.641,5.793-.117,7.652-2.133,10.691-1.379,2.082-6.008,3.805-5.523,2.398,.652-1.883,4.23-6.371,4.449-11.176,.203-4.395-2.234-10.434-2.648-11.66Z" style="fill:#86bab0;"></path><path d="M315.918,388.34c-.273-.816,5.113,3.043,5.855,9.746,.641,5.793-.117,7.652-2.133,10.691-1.379,2.082-6.008,3.805-5.523,2.398,.652-1.883,4.23-6.371,4.449-11.176,.203-4.395-2.234-10.434-2.648-11.66Z" style="fill:none; stroke:#24526c; stroke-miterlimit:1.656; stroke-width:.828px;"></path><path d="M294.215,377.16c.402-.414,5.098-.055,7.645,1.605,.832,.543,1.785,1.727,1.348,1.633-4.371-.922-10.23,1.082-10.176,.434,.074-.859,.57-3,1.184-3.672Z" style="fill:#87bab3;"></path><path d="M294.215,377.16c.402-.414,5.098-.055,7.645,1.605,.832,.543,1.785,1.727,1.348,1.633-4.371-.922-10.23,1.082-10.176,.434,.074-.859,.57-3,1.184-3.672Z" style="fill:none; stroke:#24526c; stroke-miterlimit:1.656; stroke-width:.828px;"></path><path d="M274.715,388.637c-.098,2.039,1.004,5.379,1.648,6.461,.504,.867,.895-2.641,2.301-3.914,1.285-1.164,3.863-4.789,3.355-4.469-2.344,1.469-7.305,1.922-7.305,1.922Z" style="fill:#87bab3;"></path><path d="M274.715,388.637c-.098,2.039,1.004,5.379,1.648,6.461,.504,.867,.895-2.641,2.301-3.914,1.285-1.164,3.863-4.789,3.355-4.469-2.344,1.469-7.305,1.922-7.305,1.922Z" style="fill:none; stroke:#24526c; stroke-miterlimit:1.656; stroke-width:.828px;"></path><path d="M278.047,407.34c-1.352,.152-1.754,4.742,.266,7.309,.785,1.023-.031,2.352,1.758,2.586,2.555,.305,4.355,2.895,6.883,1.969,1.145-.426-3.301-3.09-4.668-5.203-1.309-2.027-3.18-6.773-4.238-6.66Z" style="fill:#87bab3;"></path><path d="M278.047,407.34c-1.352,.152-1.754,4.742,.266,7.309,.785,1.023-.031,2.352,1.758,2.586,2.555,.305,4.355,2.895,6.883,1.969,1.145-.426-3.301-3.09-4.668-5.203-1.309-2.027-3.18-6.773-4.238-6.66Z" style="fill:none; stroke:#24526c; stroke-miterlimit:1.656; stroke-width:.828px;"></path><path d="M303.531,421.227c-1.246-.539-2.785-2.023-2.133-2,.934,.039,2.652,.852,3.988,.605,.727-.133,3.34-1.016,3.375,.375,.027,.918-1.359,1.344-2.227,1.543-1.371,.32-1.695,.043-3.004-.523Z" style="fill:#8cb2ae;"></path><path d="M303.531,421.227c-1.246-.539-2.785-2.023-2.133-2,.934,.039,2.652,.852,3.988,.605,.727-.133,3.34-1.016,3.375,.375,.027,.918-1.359,1.344-2.227,1.543-1.371,.32-1.695,.043-3.004-.523Z" style="fill:none; stroke:#24526c; stroke-miterlimit:1.656; stroke-width:.828px;"></path><path d="M309.066,383.652c2.922,2.57,5.926,6.137,6.266,8.832,.543-3.094,.996-4.832-.414-6.137-1.695-1.566-3.547-1.773-5.852-2.695Z" style="fill:#86bab0;"></path><path d="M309.066,383.652c2.922,2.57,5.926,6.137,6.266,8.832,.543-3.094,.996-4.832-.414-6.137-1.695-1.566-3.547-1.773-5.852-2.695Z" style="fill:none; stroke:#24526c; stroke-miterlimit:1.656; stroke-width:.828px;"></path><path d="M283.441,395.301c-1.461-.074-5.375,6.137-5.059,8.633,.145,1.152,3.582,6.082,3.906,6.312,.203,.145-1.09-4.438-.848-7.898,.188-2.602,2.941-7.004,2-7.047Z" style="fill:#87bab3;"></path><path d="M283.441,395.301c-1.461-.074-5.375,6.137-5.059,8.633,.145,1.152,3.582,6.082,3.906,6.313,.203,.145-1.09-4.438-.848-7.898,.187-2.602,2.941-7.004,2-7.047Z" style="fill:none; stroke:#24526c; stroke-miterlimit:1.656; stroke-width:.828px;"></path><path d="M291.898,385.719c-1.301,.488-4.27,2.973-3.965,5.75,2.492-2.871,5.535-3.398,7.227-3.828,1.688-.434-.879-2.824-3.262-1.922Z" style="fill:#87bab3;"></path><g style="clip-path:url(#clippath);"><g style="clip-path:url(#clippath-1);"><path d="M287.629,384.816v6.652h9.219v-6.652h-9.219Z" style="fill:url(#radial-gradient);"></path></g></g><path d="M291.898,385.719c-1.301,.488-4.27,2.973-3.965,5.75,2.492-2.871,5.535-3.398,7.227-3.828,1.688-.434-.879-2.824-3.262-1.922Z" style="fill:none; stroke:#24526c; stroke-miterlimit:1.656; stroke-width:.828px;"></path><path d="M287.953,408.371c-3.402,2.113-2.223,4.914,.734,7.793,1.316,1.305,5.199,1.148,7.102-.75-2.781,.055-4.164-1.555-5.055-2.215-1.41-1.031-2.223-2.23-2.781-4.828Z" style="fill:#8bb8b2;"></path><path d="M287.953,408.371c-3.402,2.113-2.223,4.914,.734,7.793,1.316,1.305,5.199,1.148,7.102-.75-2.781,.055-4.164-1.555-5.055-2.215-1.41-1.031-2.223-2.23-2.781-4.828Z" style="fill:none; stroke:#24526c; stroke-miterlimit:1.656; stroke-width:.828px;"></path><path d="M311.273,411.438c1.086-1.254,1.898-2.227,2.398-3.055,.473-.777,.941-1.293,1.691-1.496,1.051-.289,1.309,.258,1.578,.891,.25,.488,.066,1.957-.867,2.16-1.84,.391-4.801,1.5-4.801,1.5Z" style="fill:#87c6bb;"></path><path d="M311.273,411.437c1.086-1.254,1.898-2.227,2.398-3.055,.473-.777,.941-1.293,1.691-1.496,1.051-.289,1.309,.258,1.578,.891,.25,.488,.066,1.957-.867,2.16-1.84,.391-4.801,1.5-4.801,1.5Z" style="fill:none; stroke:#24526c; stroke-linecap:round; stroke-linejoin:round; stroke-width:.828px;"></path><path d="M310.938,406.449c.152-.832-1.508,.906-2.188,1.434-.676,.527-3.168-.754-3.016,.148,.152,.906,2.414,2.566,2.941,2.113s2.113-2.867,2.262-3.695Z" style="fill:#89c7ba; stroke:#24526c; stroke-miterlimit:1.656; stroke-width:.828px;"></path><path d="M304.098,389.594c-.938,1.594,.426,3.051,1.215,2.914,.793-.137,.219-2.426,4.172-1.938-1.289-1.664-4.453-2.57-5.387-.977Z" style="fill:#88c6b9; stroke:#24526c; stroke-miterlimit:1.656; stroke-width:.828px;"></path></svg> 